<?xml version="1.0" standalone="no"?>
<!DOCTYPE svg PUBLIC "-//W3C//DTD SVG 1.1//EN" "http://www.w3.org/Graphics/SVG/1.1/DTD/svg11.dtd" >
<svg xmlns="http://www.w3.org/2000/svg" xmlns:xlink="http://www.w3.org/1999/xlink" version="1.1">
<metadata></metadata>
<defs>
<font id="work_sansthin" horiz-adv-x="1236" >
<font-face units-per-em="2048" ascent="1556" descent="-492" />
<missing-glyph horiz-adv-x="602" />
<glyph unicode="&#xfb01;" horiz-adv-x="1103" d="M33 971v53h205v170q0 146 75 228.5t211 82.5q103 0 162 -59l-20 -49q-50 53 -138 53q-108 0 -168.5 -68t-60.5 -192v-166h373v-53h-373v-971h-61v971h-205zM834 1286q0 28 17.5 45t45.5 17t44.5 -17t16.5 -45t-16.5 -44.5t-44.5 -16.5t-45.5 16.5t-17.5 44.5zM866 0v1024 h62v-1024h-62z" />
<glyph unicode="&#xfb02;" horiz-adv-x="1204" d="M33 971v53h205v170q0 146 75 228.5t211 82.5q103 0 162 -59l-20 -49q-50 53 -138 53q-108 0 -168.5 -68t-60.5 -192v-166h373v-53h-373v-971h-61v971h-205zM858 227v1268h62v-1264q0 -103 33.5 -148.5t107.5 -45.5q67 0 125 24l-6 -57q-53 -24 -125 -24q-99 0 -148 59.5 t-49 187.5z" />
<glyph horiz-adv-x="0" />
<glyph horiz-adv-x="682" />
<glyph unicode=" "  horiz-adv-x="602" />
<glyph unicode="&#x09;" horiz-adv-x="602" />
<glyph unicode="&#xa0;" horiz-adv-x="602" />
<glyph unicode="!" horiz-adv-x="413" d="M141 51q0 29 18.5 47.5t47.5 18.5t46 -18t17 -48q0 -28 -17 -45.5t-46 -17.5t-47.5 17.5t-18.5 45.5zM174 651v701h64v-701l-5 -286h-53z" />
<glyph unicode="&#x22;" horiz-adv-x="565" d="M143 1032v365h66l-12 -365h-54zM365 1032v365h67l-12 -365h-55z" />
<glyph unicode="#" horiz-adv-x="1298" d="M78 424v51h284l66 420h-283v51h291l62 406h57l-63 -406h389l63 406h55l-61 -406h283v-51h-291l-66 -420h289v-51h-297l-65 -424h-56l66 424h-389l-66 -424h-57l65 424h-276zM418 475h391l63 420h-389z" />
<glyph unicode="$" horiz-adv-x="1204" d="M113 350l57 31q29 -146 143 -232.5t277 -95.5v590q-47 10 -74 16t-70.5 18t-69.5 22t-61.5 26t-57 33t-45.5 41.5t-37 51.5t-21.5 62t-8.5 76q0 148 121.5 253.5t323.5 109.5v204h53v-204q332 -15 428 -299l-51 -39q-77 269 -377 284v-608q41 -8 66.5 -13.5t64 -15 t63 -18.5t57.5 -21.5t53.5 -26.5t45 -32.5t39 -40.5t28 -48.5t19.5 -58.5t6 -69q0 -153 -120 -247.5t-322 -98.5v-205h-53v205q-185 9 -310 99t-167 251zM207 991q0 -42 11.5 -77.5t28.5 -61t48.5 -47.5t59 -36t73 -28t77.5 -22t85 -19v598q-176 -3 -279.5 -88.5 t-103.5 -218.5zM643 53q169 3 276 79.5t107 211.5q0 42 -11.5 77t-29 60.5t-48 47t-59.5 36t-72.5 28t-78 22t-84.5 18.5v-580z" />
<glyph unicode="%" horiz-adv-x="1591" d="M80 1006q0 150 75.5 250t219.5 100q96 0 163 -49.5t97.5 -127t30.5 -173.5q0 -95 -30.5 -172t-97.5 -126t-163 -49q-143 0 -219 99.5t-76 247.5zM137 1006q0 -129 60.5 -212t177.5 -83q116 0 174.5 82.5t58.5 212.5t-59.5 214.5t-173.5 84.5q-117 0 -177.5 -84.5 t-60.5 -214.5zM311 0l903 1352h64l-903 -1352h-64zM924 342q0 149 76 249.5t219 100.5q97 0 164.5 -49.5t97.5 -126.5t30 -174q0 -148 -74.5 -247t-217.5 -99q-142 0 -218.5 99.5t-76.5 246.5zM981 342q0 -129 61 -212t177 -83t175.5 83t59.5 212q0 130 -59.5 214.5 t-175.5 84.5q-117 0 -177.5 -84.5t-60.5 -214.5z" />
<glyph unicode="&#x26;" horiz-adv-x="1193" d="M94 295q0 74 23 134.5t72.5 113t109.5 95t150 93.5q-104 138 -140.5 208.5t-36.5 147.5q0 123 80 201t213 78q128 0 206.5 -66.5t78.5 -183.5q0 -115 -68 -204.5t-252 -194.5q34 -46 144 -189q139 -181 221 -278q122 188 119 495l53 -4q2 -149 -32 -289t-105 -245 q92 -104 152 -142t126 -38l-12 -47q-73 0 -139 40.5t-158 145.5q-151 -186 -410 -186q-172 0 -283.5 85.5t-111.5 229.5zM154 297q0 -121 94 -193.5t235 -72.5q242 0 379 174q-113 137 -227 287q-31 41 -82.5 106.5t-71.5 91.5q-86 -50 -140.5 -88.5t-100 -85.5t-66 -100.5 t-20.5 -118.5zM332 1087q0 -69 30 -128t136 -199q171 95 233 175.5t62 180.5q0 91 -62 144t-166 53q-106 0 -169.5 -62.5t-63.5 -163.5z" />
<glyph unicode="'" horiz-adv-x="344" d="M143 1032v365h66l-12 -365h-54z" />
<glyph unicode="(" horiz-adv-x="561" d="M113 582q0 310 95.5 540.5t293.5 397.5l33 -35q-189 -161 -276 -381t-87 -522t87 -521.5t276 -379.5l-33 -37q-198 167 -293.5 397.5t-95.5 540.5z" />
<glyph unicode=")" horiz-adv-x="561" d="M27 -319q189 159 275.5 378t86.5 523t-86.5 523t-275.5 380l34 35q197 -168 292.5 -398t95.5 -540t-95.5 -540t-292.5 -398z" />
<glyph unicode="*" horiz-adv-x="1073" d="M98 1157l17 51l254 -82l147 -57l-8 158v268h55v-268l-8 -156l147 55l256 82l17 -51l-256 -84l-152 -41l99 -121l157 -219l-43 -30l-159 215l-84 133l-86 -133l-158 -215l-45 30l158 219l98 121l-152 41z" />
<glyph unicode="+" d="M139 618v58h451v448h59v-448h449v-58h-449v-460h-59v460h-451z" />
<glyph unicode="," horiz-adv-x="387" d="M100 -205q66 26 106.5 92t26.5 121l-6 2q-9 -22 -39 -22q-24 0 -41.5 17.5t-17.5 45.5q0 27 19.5 46.5t48.5 19.5q40 0 63 -32.5t23 -84.5q0 -71 -37.5 -136t-106.5 -102z" />
<glyph unicode="-" horiz-adv-x="894" d="M150 518v62h598v-62h-598z" />
<glyph unicode="." horiz-adv-x="387" d="M129 51q0 29 18.5 47.5t47.5 18.5q28 0 45.5 -18.5t17.5 -47.5q0 -28 -17.5 -45.5t-45.5 -17.5q-29 0 -47.5 17.5t-18.5 45.5z" />
<glyph unicode="/" horiz-adv-x="753" d="M68 -143l555 1638h61l-555 -1638h-61z" />
<glyph unicode="0" horiz-adv-x="1222" d="M125 676q0 336 126 516t361 180q234 0 360 -180t126 -516t-126 -516t-360 -180q-235 0 -361 180t-126 516zM188 676q0 -312 109 -476.5t315 -164.5q204 0 313 165t109 476t-109 476t-313 165q-206 0 -315 -164.5t-109 -476.5z" />
<glyph unicode="1" horiz-adv-x="688" d="M61 1063q112 37 220 115t157 174h58v-1352h-62v1047q0 33 1 103t1 105q-61 -88 -156 -151.5t-202 -93.5z" />
<glyph unicode="2" horiz-adv-x="1116" d="M98 954q14 191 132.5 304.5t312.5 113.5q196 0 310 -108.5t114 -296.5q0 -61 -17.5 -121.5t-46 -115.5t-82 -120t-107 -121t-141 -133t-164.5 -140.5t-196 -158.5v-2h90h717v-55h-901v51q101 82 159.5 129.5t139.5 116t127 111t105.5 100t92 98t68.5 91t53.5 92t29 87.5 t11.5 91q0 163 -97.5 256.5t-266.5 93.5q-171 0 -274.5 -105.5t-112.5 -285.5z" />
<glyph unicode="3" horiz-adv-x="1095" d="M92 293l55 31q30 -135 130.5 -212t267.5 -77q158 0 259.5 88t100.5 235q0 135 -88 215t-250 80h-92v58h92q146 0 225.5 83.5t79.5 217.5q0 145 -87 225t-244 80q-130 0 -220 -67.5t-124 -186.5l-60 31q46 130 153 204t251 74q184 0 288.5 -95.5t104.5 -256.5 q0 -133 -69.5 -227t-190.5 -111v-2q131 -6 213 -99t82 -229q0 -166 -121 -269t-305 -103q-181 0 -296.5 82.5t-154.5 230.5z" />
<glyph unicode="4" horiz-adv-x="1153" d="M80 406v49l659 897h82v-893h275v-53h-275v-406h-61v406h-680zM147 459h613v692l2 145h-4q-33 -53 -99 -145z" />
<glyph unicode="5" horiz-adv-x="1116" d="M109 301l57 29q55 -295 403 -295q169 0 274 103.5t105 267.5q-1 166 -102 267t-264 101q-255 0 -377 -166h-55l67 744h739v-56h-688l-53 -587l-4 -35h2q116 155 375 155q188 0 305 -117t117 -304q0 -191 -121.5 -309.5t-317.5 -118.5q-388 0 -462 321z" />
<glyph unicode="6" horiz-adv-x="1140" d="M121 676q0 170 38.5 303.5t107.5 218.5t162 129.5t204 44.5q279 0 371 -254l-58 -26q-31 103 -110 164t-205 61q-118 0 -208 -56t-142 -152t-77.5 -212t-25.5 -248q0 -81 15 -205h6q1 113 62 200.5t152.5 131t194.5 43.5q198 0 312 -114.5t114 -305.5q0 -192 -118 -305.5 t-318 -113.5q-234 0 -355.5 180t-121.5 516zM233 401q0 -158 101.5 -261t261.5 -103q173 0 274 99t101 265q0 162 -100.5 261.5t-266.5 99.5q-81 0 -151.5 -31t-118 -82t-74.5 -115.5t-27 -132.5z" />
<glyph unicode="7" horiz-adv-x="1042" d="M53 1296v56h959v-56q-248 -266 -379 -584t-156 -712h-63q52 783 530 1296h-891z" />
<glyph unicode="8" horiz-adv-x="1175" d="M119 350q0 137 90 234.5t240 126.5v2q-129 31 -201 115t-72 206q0 154 112.5 246t299.5 92q186 0 298.5 -92t112.5 -246q0 -122 -72 -206t-200 -115v-2q151 -31 240.5 -128.5t89.5 -232.5q0 -164 -130 -267t-339 -103q-207 0 -338 103t-131 267zM182 354 q0 -141 112.5 -230t293.5 -89t293 89t112 230q0 145 -112 235.5t-293 90.5t-293.5 -90.5t-112.5 -235.5zM240 1032q0 -132 95 -212.5t253 -80.5q157 0 252.5 80.5t95.5 212.5q0 130 -94.5 206.5t-253.5 76.5t-253.5 -76.5t-94.5 -206.5z" />
<glyph unicode="9" horiz-adv-x="1183" d="M123 952q0 192 120.5 306t323.5 114q236 0 363 -183t127 -513q0 -338 -132.5 -517t-355.5 -179q-170 0 -286 78.5t-152 211.5l64 33q24 -125 118 -196.5t254 -71.5q95 0 170.5 36.5t123.5 98t80 147.5t45 179t13 198q0 99 -18 221h-4q0 -90 -37 -164.5t-97.5 -121 t-134 -72t-149.5 -25.5q-200 0 -318 114.5t-118 305.5zM186 950q0 -163 102 -261.5t275 -98.5q107 0 195.5 52.5t137 135t48.5 172.5q0 158 -105 261.5t-270 103.5q-177 0 -280 -99t-103 -266z" />
<glyph unicode=":" horiz-adv-x="440" d="M156 51q0 29 17.5 47.5t45.5 18.5q29 0 47.5 -18.5t18.5 -47.5q0 -28 -18.5 -45.5t-47.5 -17.5q-28 0 -45.5 17.5t-17.5 45.5zM156 965q0 28 17.5 45.5t45.5 17.5q29 0 47.5 -17.5t18.5 -45.5q0 -29 -18.5 -47.5t-47.5 -18.5q-28 0 -45.5 18.5t-17.5 47.5z" />
<glyph unicode=";" horiz-adv-x="440" d="M127 -205q65 26 105 92t26 121l-6 2q-9 -22 -39 -22q-24 0 -40.5 17.5t-16.5 45.5q0 27 18.5 46.5t46.5 19.5q40 0 63 -32.5t23 -84.5q0 -71 -37 -136t-106 -102zM164 965q0 28 17 45.5t46 17.5t46.5 -17.5t17.5 -45.5q0 -29 -17.5 -47.5t-46.5 -18.5t-46 18t-17 48z" />
<glyph unicode="&#x3c;" d="M178 578v71l920 473v-67l-871 -441l871 -442v-68z" />
<glyph unicode="=" d="M168 401v56h901v-56h-901zM168 817v55h901v-55h-901z" />
<glyph unicode="&#x3e;" d="M139 104v68l869 442l-869 441v67l920 -473v-71z" />
<glyph unicode="?" horiz-adv-x="999" d="M66 1026q60 346 444 346q180 0 290.5 -93t110.5 -253q0 -172 -98.5 -277.5t-302.5 -158.5v-256h-61v291q222 61 310.5 150.5t88.5 246.5q0 136 -93.5 215.5t-248.5 79.5q-340 0 -387 -320zM414 51q0 29 18 47.5t47 18.5q28 0 46 -18.5t18 -47.5q0 -28 -18 -45.5 t-46 -17.5q-29 0 -47 17.5t-18 45.5z" />
<glyph unicode="@" horiz-adv-x="1951" d="M117 475q0 269 107 471.5t304.5 312t460.5 109.5q177 0 320 -47.5t238 -128t159.5 -191.5t92.5 -233.5t28 -259.5q0 -247 -75.5 -386.5t-207.5 -139.5q-105 0 -154.5 69.5t-52.5 210.5q-43 -131 -143 -204.5t-244 -73.5q-195 0 -313.5 131.5t-118.5 351.5 q0 229 127.5 365.5t331.5 136.5q146 0 241.5 -71.5t133.5 -199.5l8 238h45l-16 -657q-3 -250 165 -250q104 0 162 126t58 353q0 131 -26.5 247.5t-86.5 221t-149.5 179.5t-223 119t-299.5 44q-373 0 -595 -229t-222 -615q0 -254 105 -440.5t291.5 -282.5t432.5 -96 q137 0 265 42.5t209 115.5l30 -43q-94 -75 -226.5 -119.5t-277.5 -44.5q-264 0 -463.5 103t-310 300t-110.5 465zM575 469q0 -200 104.5 -318t281.5 -118q166 0 269.5 115.5t108.5 297.5l2 70q3 175 -92.5 289.5t-267.5 114.5q-185 0 -295.5 -123t-110.5 -328z" />
<glyph unicode="A" horiz-adv-x="1232" d="M31 0l551 1352h71l549 -1352h-65l-187 457h-667l-187 -457h-65zM305 512h623l-271 662l-41 114l-41 -110z" />
<glyph unicode="B" horiz-adv-x="1267" d="M207 0v1352h477q211 0 317.5 -89t106.5 -259q0 -127 -66.5 -210t-195.5 -110v-2q142 -20 220.5 -106t78.5 -222q0 -172 -118 -263t-345 -91h-475zM268 55h424q193 0 291 76t98 223q0 299 -389 299h-424v-598zM268 711h416q360 0 360 290q0 295 -360 295h-416v-585z" />
<glyph unicode="C" horiz-adv-x="1345" d="M121 676q0 320 164.5 508t439.5 188q416 0 524 -348l-59 -27q-99 320 -463 320q-246 0 -394.5 -173.5t-148.5 -467.5t148 -467.5t393 -173.5q182 0 306.5 85.5t170.5 241.5l62 -22q-54 -172 -195 -266t-344 -94q-273 0 -438.5 188.5t-165.5 507.5z" />
<glyph unicode="D" horiz-adv-x="1417" d="M207 0v1352h420q327 0 498 -168.5t171 -491.5q0 -339 -171 -515.5t-498 -176.5h-420zM268 55h363q294 0 448 163t154 474q0 295 -153.5 449.5t-448.5 154.5h-363v-1241z" />
<glyph unicode="E" horiz-adv-x="1218" d="M207 0v1352h907v-56h-846v-579h674v-55h-674v-607h879v-55h-940z" />
<glyph unicode="F" horiz-adv-x="1159" d="M207 0v1352h905v-56h-844v-579h674v-55h-674v-662h-61z" />
<glyph unicode="G" horiz-adv-x="1406" d="M121 676q0 319 165.5 507.5t440.5 188.5q414 0 528 -346l-55 -29q-99 320 -473 320q-246 0 -394.5 -173.5t-148.5 -467.5q0 -296 144.5 -468.5t392.5 -172.5q106 0 191.5 30t139 77.5t89.5 109.5t50.5 122.5t14.5 121.5v94h-479v57h539v-647h-54l-2 281 q-48 -142 -174 -221.5t-317 -79.5q-273 0 -435.5 188t-162.5 508z" />
<glyph unicode="H" horiz-adv-x="1441" d="M207 0v1352h61v-635h906v635h61v-1352h-61v662h-906v-662h-61z" />
<glyph unicode="I" horiz-adv-x="475" d="M207 0v1352h61v-1352h-61z" />
<glyph unicode="J" horiz-adv-x="1050" d="M72 418l59 18q-6 -47 -6 -89q0 -131 61 -209q81 -103 260 -103q176 0 263.5 107.5t87.5 301.5v908h61v-916q0 -214 -107 -335t-305 -121q-205 0 -304 119q-77 91 -77 231q0 42 7 88z" />
<glyph unicode="K" horiz-adv-x="1185" d="M207 0v1352h61v-797l783 797h84l-533 -543l549 -809h-76l-518 764l-289 -295v-469h-61z" />
<glyph unicode="L" horiz-adv-x="1136" d="M207 0v1352h61v-1297h836v-55h-897z" />
<glyph unicode="M" horiz-adv-x="1640" d="M207 0v1352h88l483 -1159l41 -121h2l41 118l484 1162h88v-1352h-60v1114l6 170h-2l-526 -1284h-64l-526 1284h-2l6 -170v-1114h-59z" />
<glyph unicode="N" horiz-adv-x="1439" d="M207 0v1352h80l815 -1166l74 -120l-2 137v1149h59v-1352h-80l-817 1165l-72 121h-2l4 -137v-1149h-59z" />
<glyph unicode="O" horiz-adv-x="1476" d="M121 676q0 321 166 508.5t452 187.5q285 0 452 -187.5t167 -508.5t-167 -508.5t-452 -187.5q-286 0 -452 187.5t-166 508.5zM184 676q0 -296 149 -468.5t406 -172.5q255 0 405 172.5t150 468.5t-150 468.5t-405 172.5q-257 0 -406 -172.5t-149 -468.5z" />
<glyph unicode="P" horiz-adv-x="1171" d="M207 0v1352h430q215 0 338 -102.5t123 -282.5q0 -181 -122.5 -283t-338.5 -102h-369v-582h-61zM268 637h365q192 0 296.5 86.5t104.5 243.5q0 156 -105 242.5t-296 86.5h-365v-659z" />
<glyph unicode="Q" horiz-adv-x="1476" d="M121 676q0 321 166 508.5t452 187.5q285 0 452 -187.5t167 -508.5q0 -310 -156.5 -496t-425.5 -200q10 -160 97 -240t225 -80q143 0 219 76l24 -55q-86 -80 -243 -80q-160 0 -262.5 97t-114.5 282q-278 6 -439 192.5t-161 503.5zM184 676q0 -296 149 -468.5t406 -172.5 q255 0 405 172.5t150 468.5t-150 468.5t-405 172.5q-257 0 -406 -172.5t-149 -468.5z" />
<glyph unicode="R" horiz-adv-x="1275" d="M207 0v1352h493q200 0 317.5 -100.5t117.5 -274.5q0 -151 -89 -247.5t-247 -119.5l401 -610h-72l-399 604q-10 -2 -29 -2h-432v-602h-61zM268 659h432q177 0 275 83.5t98 234.5q0 152 -98 235.5t-275 83.5h-432v-637z" />
<glyph unicode="S" d="M88 326l55 36q33 -161 166 -244t332 -83q190 0 312 79.5t122 219.5q0 121 -97.5 190.5t-334.5 108.5q-194 33 -306 80.5t-160 115t-48 170.5q0 156 132 264.5t353 108.5q394 0 502 -307l-53 -41q-45 150 -156.5 221.5t-290.5 71.5q-192 0 -307.5 -89t-115.5 -224 q0 -126 101 -195.5t363 -114.5t371 -127t109 -231q0 -158 -137.5 -257t-358.5 -99q-219 0 -365 88t-188 258z" />
<glyph unicode="T" horiz-adv-x="1140" d="M33 1296v56h1077v-56h-508v-1296h-61v1296h-508z" />
<glyph unicode="U" horiz-adv-x="1411" d="M190 485v867h62v-856q0 -222 118 -341.5t335 -119.5t335.5 119.5t118.5 341.5v856h62v-867q0 -243 -135 -374t-381 -131q-245 0 -380 131t-135 374z" />
<glyph unicode="V" horiz-adv-x="1212" d="M39 1352h67l439 -1121l61 -170l62 168l438 1123h65l-526 -1352h-78z" />
<glyph unicode="W" horiz-adv-x="1884" d="M53 1352h66l409 -1299l377 1299h76l377 -1299l411 1299h64l-436 -1352h-78l-295 995l-80 285h-2l-80 -285l-295 -995h-78z" />
<glyph unicode="X" horiz-adv-x="1110" d="M31 0l487 696l-444 656h73l412 -602l420 602h74l-459 -656l475 -696h-74l-440 645l-449 -645h-75z" />
<glyph unicode="Y" horiz-adv-x="1075" d="M31 1352h71l265 -463l172 -299l434 762h71l-475 -828v-524h-61v524z" />
<glyph unicode="Z" horiz-adv-x="1165" d="M72 0v53l921 1243h-905v56h977v-54l-922 -1243h959v-55h-1030z" />
<glyph unicode="[" horiz-adv-x="585" d="M160 -344v1839h393v-53h-334v-1733h334v-53h-393z" />
<glyph unicode="\" horiz-adv-x="753" d="M70 1495h61l555 -1638h-61z" />
<glyph unicode="]" horiz-adv-x="585" d="M33 -291h334v1733h-334v53h391v-1839h-391v53z" />
<glyph unicode="^" horiz-adv-x="1103" d="M72 727l448 768h64l448 -768h-65l-416 713l-414 -713h-65z" />
<glyph unicode="_" horiz-adv-x="1040" d="M0 -199h1040v-55h-1040v55z" />
<glyph unicode="`" horiz-adv-x="1103" d="M301 1503h68l170 -309h-54z" />
<glyph unicode="a" horiz-adv-x="1081" d="M98 229q0 120 92 192t291 109l342 62v113q0 135 -79.5 210.5t-227.5 75.5q-133 0 -219 -55.5t-131 -175.5l-47 35q91 249 397 249q177 0 273 -85.5t96 -249.5v-545q0 -66 27.5 -98.5t76.5 -32.5q53 0 80 16l-4 -51q-30 -18 -84 -18q-158 0 -158 196 q-43 -93 -156.5 -144.5t-242.5 -51.5q-151 0 -238.5 65t-87.5 184zM162 229q0 -92 72 -144t200 -52q50 0 102.5 10.5t104 33t92 55t65.5 80.5t25 105v224l-315 -58q-184 -35 -265 -96t-81 -158z" />
<glyph unicode="b" horiz-adv-x="1218" d="M178 0v1495h62v-735q43 135 147 209.5t252 74.5q220 0 344.5 -141t124.5 -391t-124.5 -391t-344.5 -141q-150 0 -255.5 77.5t-145.5 216.5l-2 -274h-58zM240 504q0 -218 106.5 -344.5t284.5 -126.5q196 0 306 127t110 352t-110 352t-306 127q-179 0 -285 -127t-106 -344 v-16z" />
<glyph unicode="c" horiz-adv-x="1091" d="M109 512q0 249 126.5 390.5t350.5 141.5q154 0 260 -72.5t147 -205.5l-55 -27q-34 120 -125.5 186t-226.5 66q-196 0 -306 -127t-110 -352t108 -352t302 -127q140 0 242.5 73t123.5 195l55 -20q-31 -137 -146 -219t-273 -82q-225 0 -349 141t-124 391z" />
<glyph unicode="d" horiz-adv-x="1218" d="M111 512q0 250 124 391t343 141q148 0 253 -74.5t148 -209.5v735h61v-1495h-57l-2 272q-40 -137 -146 -214.5t-257 -77.5q-219 0 -343 141t-124 391zM172 512q0 -225 110 -352t306 -127q178 0 284.5 126.5t106.5 344.5v16q0 217 -106 344t-285 127q-196 0 -306 -127 t-110 -352z" />
<glyph unicode="e" horiz-adv-x="1114" d="M109 512q0 250 123 391t341 141q206 0 322.5 -141.5t116.5 -384.5q0 -8 -1 -21t-1 -16h-840q8 -211 116.5 -329.5t297.5 -118.5q126 0 223 56.5t143 156.5l51 -27q-56 -114 -164 -176.5t-253 -62.5q-223 0 -349 141t-126 391zM170 537h784q-6 215 -104.5 334.5 t-276.5 119.5q-185 0 -291 -120t-112 -334z" />
<glyph unicode="f" horiz-adv-x="688" d="M33 971v53h205v170q0 146 75 228.5t211 82.5q103 0 162 -59l-20 -49q-50 53 -138 53q-108 0 -168.5 -68t-60.5 -192v-166h373v-53h-373v-971h-61v971h-205z" />
<glyph unicode="g" horiz-adv-x="1032" d="M70 -166q0 82 56 140.5t153 80.5q-69 24 -109.5 70.5t-40.5 105.5q0 75 54 127t143 70q-95 40 -148 115t-53 174q0 149 112 238t298 89q141 0 241 -53q8 101 72.5 161t167.5 60l16 -53q-97 0 -153 -51t-62 -143q123 -90 123 -248q0 -148 -110.5 -237t-294.5 -89 q-67 0 -125 12q-99 -9 -160.5 -54.5t-61.5 -108.5q0 -68 61.5 -110t176.5 -42h258q154 0 245 -63t91 -166q0 -133 -132 -216t-343 -83q-223 0 -349 75t-126 199zM129 -158q0 -104 112.5 -166.5t309.5 -62.5q180 0 296 66.5t116 170.5q0 84 -77 134.5t-212 50.5h-264 q-125 0 -203 -54t-78 -139zM186 717q0 -125 95 -200t254 -75q158 0 251 75t93 200q0 126 -93 200t-251 74q-160 0 -254.5 -74t-94.5 -200z" />
<glyph unicode="h" horiz-adv-x="1196" d="M178 0v1495h62v-711q43 121 151.5 192t253.5 71q176 0 280.5 -98.5t104.5 -276.5v-670h-61v653q0 163 -89 250.5t-243 87.5q-167 0 -282 -112.5t-115 -278.5v-602h-62z" />
<glyph unicode="i" horiz-adv-x="417" d="M145 1286q0 28 18 45t46 17t44.5 -17t16.5 -45t-16.5 -44.5t-44.5 -16.5t-46 17t-18 44zM178 0v1024h62v-1024h-62z" />
<glyph unicode="j" horiz-adv-x="417" d="M-199 -391l17 57q52 -49 141 -49q100 0 159.5 69.5t59.5 192.5v1145h62v-1149q0 -148 -78.5 -231.5t-202.5 -83.5q-100 0 -158 49zM145 1286q0 26 18 44t46 18q26 0 43.5 -18t17.5 -44t-17.5 -43.5t-43.5 -17.5q-28 0 -46 17.5t-18 43.5z" />
<glyph unicode="k" horiz-adv-x="1026" d="M178 0v1495h62v-1094l659 623h84l-440 -414l452 -610h-75l-422 567l-258 -245v-322h-62z" />
<glyph unicode="l" horiz-adv-x="516" d="M170 227v1268h61v-1264q0 -103 34 -148.5t108 -45.5q67 0 125 24l-6 -57q-53 -24 -125 -24q-99 0 -148 59.5t-49 187.5z" />
<glyph unicode="m" horiz-adv-x="1976" d="M178 0v1024h58l2 -240q44 119 153 189.5t250 70.5q147 0 246.5 -70.5t126.5 -201.5q38 124 152 200.5t261 76.5q174 0 278.5 -98.5t104.5 -276.5v-670h-61v662q0 157 -89 242t-241 85q-166 0 -280.5 -112t-114.5 -273v-608h-61v664q0 156 -88.5 241.5t-241.5 85.5 q-164 0 -278.5 -112t-114.5 -277v-602h-62z" />
<glyph unicode="n" horiz-adv-x="1196" d="M178 0v1024h58l2 -242q43 121 152 191.5t255 70.5q177 0 281 -98t104 -276v-670h-61v653q0 163 -89 250.5t-243 87.5q-167 0 -282 -112t-115 -279v-600h-62z" />
<glyph unicode="o" horiz-adv-x="1183" d="M109 512q0 249 129 390.5t354 141.5q224 0 352.5 -141.5t128.5 -390.5t-128.5 -390.5t-352.5 -141.5q-225 0 -354 141.5t-129 390.5zM170 512q0 -224 113 -351.5t309 -127.5q197 0 308.5 127.5t111.5 351.5t-111.5 351.5t-308.5 127.5q-196 0 -309 -127.5t-113 -351.5z " />
<glyph unicode="p" horiz-adv-x="1218" d="M178 -430v1454h58l2 -274q40 139 145.5 216.5t255.5 77.5q220 0 344.5 -141t124.5 -391t-124.5 -391t-344.5 -141q-148 0 -252 74.5t-147 209.5v-694h-62zM240 504q0 -217 106 -344t285 -127q196 0 306 127t110 352t-110 352t-306 127q-178 0 -284.5 -126.5 t-106.5 -344.5v-16z" />
<glyph unicode="q" horiz-adv-x="1220" d="M113 512q0 250 124 391t343 141q152 0 257.5 -77.5t145.5 -216.5l2 274h57v-1454h-61v694q-43 -135 -148 -209.5t-253 -74.5q-219 0 -343 141t-124 391zM174 512q0 -225 110 -352t306 -127q179 0 285 127t106 344v16q0 218 -106.5 344.5t-284.5 126.5q-196 0 -306 -127 t-110 -352z" />
<glyph unicode="r" horiz-adv-x="731" d="M178 0v1024h53l7 -240q38 118 125.5 189t207.5 71q91 0 140 -43l-23 -53q-44 41 -131 41q-131 0 -224 -119.5t-93 -283.5v-586h-62z" />
<glyph unicode="s" horiz-adv-x="1003" d="M80 223l53 33q29 -108 128.5 -165.5t248.5 -57.5q154 0 243 61.5t89 163.5q0 87 -74 138.5t-258 82.5q-213 36 -299 100t-86 181q0 121 108 202.5t275 81.5q323 0 385 -253l-53 -31q-53 231 -332 231q-138 0 -230 -64t-92 -157q0 -96 76 -149.5t266 -85.5 q207 -35 291 -98t84 -177q0 -129 -108 -204.5t-293 -75.5q-160 0 -273 62.5t-149 180.5z" />
<glyph unicode="t" horiz-adv-x="714" d="M31 971v53h205v262l61 19v-281h393v-53h-393v-707q0 -229 201 -229q108 0 178 76l26 -50q-81 -81 -210 -81q-124 0 -189.5 70t-66.5 208v713h-205z" />
<glyph unicode="u" horiz-adv-x="1179" d="M166 344v680h61v-668q0 -158 81.5 -240.5t230.5 -82.5q96 0 175 35.5t127 92t73.5 123t25.5 132.5v608h61v-1024h-57l-2 240q-43 -119 -153.5 -189.5t-260.5 -70.5q-169 0 -265.5 93.5t-96.5 270.5z" />
<glyph unicode="v" horiz-adv-x="1003" d="M41 1024h70l391 -956l393 956h68l-431 -1024h-63z" />
<glyph unicode="w" horiz-adv-x="1630" d="M63 1024h68l307 -948l346 948h62l346 -948l307 948h68l-344 -1024h-62l-348 944l-344 -944h-61z" />
<glyph unicode="x" horiz-adv-x="993" d="M43 0l414 528l-398 496h84l355 -442l340 442h77l-378 -489l426 -535h-82l-387 481l-373 -481h-78z" />
<glyph unicode="y" horiz-adv-x="1009" d="M0 -371l27 52q47 -68 149 -68q78 0 132.5 44t99.5 157l75 184l-110 260l-324 766h70l352 -850l43 -106l43 112l342 844h68l-504 -1223q-56 -135 -121.5 -188t-167.5 -53q-123 0 -174 69z" />
<glyph unicode="z" horiz-adv-x="995" d="M76 971v53h821v-49l-616 -782l-119 -140h764v-53h-838v49l647 815l92 107h-751z" />
<glyph unicode="{" horiz-adv-x="571" d="M25 557v51q114 0 173.5 50.5t59.5 146.5v481q0 111 66.5 172.5t191.5 61.5l6 -52q-99 0 -152 -46.5t-53 -133.5v-485q0 -86 -45.5 -141.5t-130.5 -77.5q85 -23 130.5 -79.5t45.5 -142.5v-487q0 -85 53 -132.5t152 -47.5l-6 -51q-125 0 -191.5 61t-66.5 172v483 q0 96 -59.5 146.5t-173.5 50.5z" />
<glyph unicode="|" horiz-adv-x="376" d="M160 -344v1839h55v-1839h-55z" />
<glyph unicode="}" horiz-adv-x="571" d="M51 -305q98 0 150.5 47.5t52.5 132.5v487q0 174 178 222q-178 45 -178 219v485q0 86 -52.5 133t-150.5 47l4 52q126 0 192 -61t66 -173v-481q0 -95 60.5 -146t173.5 -51v-51q-113 0 -173.5 -51t-60.5 -146v-483q0 -111 -66 -172t-192 -61z" />
<glyph unicode="~" horiz-adv-x="1007" d="M88 578q27 217 211 217q50 0 96.5 -15.5t82 -38t70 -45t75.5 -38t84 -15.5q66 0 102.5 40.5t50.5 121.5h60q-24 -217 -209 -217q-51 0 -97.5 15.5t-82 38t-70 44.5t-76 37.5t-84.5 15.5q-66 0 -103 -40t-51 -121h-59z" />
<glyph unicode="&#xa1;" horiz-adv-x="397" d="M133 973q0 28 18.5 45.5t47.5 17.5t46 -17.5t17 -45.5q0 -30 -17 -48t-46 -18t-47.5 18.5t-18.5 47.5zM166 -328v701l6 286h53l4 -286v-701h-63z" />
<glyph unicode="&#xa2;" horiz-adv-x="1114" d="M121 512q0 236 114 376.5t318 153.5v187h53v-185q149 -1 253.5 -74t144.5 -204l-58 -27q-32 120 -120.5 185.5t-219.5 68.5v-962q134 5 231.5 77.5t120.5 192.5l54 -20q-31 -134 -141.5 -215t-264.5 -86v-185h-53v187q-206 12 -319 151.5t-113 378.5zM180 512 q0 -215 97 -341t276 -138v958q-178 -13 -275.5 -139t-97.5 -340z" />
<glyph unicode="&#xa3;" horiz-adv-x="1198" d="M72 123q0 67 59 109t158 42q82 0 142.5 -26t121.5 -74q39 67 39 150q0 74 -25.5 137t-89.5 149h-289v52h248q-79 101 -110 173t-31 154q0 171 111 277t290 106q153 0 250 -80.5t117 -220.5l-55 -27q-15 124 -99 198.5t-215 74.5q-156 0 -248 -87.5t-92 -234.5 q0 -75 31.5 -145.5t112.5 -177.5q2 -4 8 -10h422v-52h-385q56 -81 79 -144.5t23 -135.5q0 -104 -55 -187q48 -38 75 -56.5t78 -37t107 -18.5q218 0 221 221h51q0 -137 -70.5 -204.5t-195.5 -67.5q-48 0 -90.5 9.5t-80 29.5t-63 38t-61.5 47q-111 -124 -289 -124 q-92 0 -146 39t-54 104zM131 123q0 -44 40 -70t108 -26q157 0 245 106q-60 45 -112.5 68.5t-120.5 23.5q-74 0 -117 -28t-43 -74z" />
<glyph unicode="&#xa4;" horiz-adv-x="1261" d="M131 217l205 205q-82 105 -82 258q0 147 78 252l-201 201l41 43l201 -201q103 92 258 92t258 -92l201 201l40 -41l-200 -205q76 -98 76 -250q0 -156 -82 -258l206 -207l-40 -39l-205 203q-104 -90 -254 -90q-152 0 -256 90l-203 -203zM315 680q0 -153 86.5 -244.5 t229.5 -91.5t228 91t85 245q0 151 -85.5 241.5t-227.5 90.5q-143 0 -229.5 -90.5t-86.5 -241.5z" />
<glyph unicode="&#xa5;" horiz-adv-x="1185" d="M86 1352h72l389 -690l45 -82h4l43 82l389 690h74l-461 -789l39 2h360v-49h-417v-209h417v-47h-417v-260h-58v260h-415v47h415v209h-415v49h358l39 -2z" />
<glyph unicode="&#xa6;" horiz-adv-x="403" d="M174 -344v747h55v-747h-55zM174 748v747h55v-747h-55z" />
<glyph unicode="&#xa7;" horiz-adv-x="1126" d="M92 600q0 93 66.5 159t173.5 99q-69 38 -100 92.5t-31 132.5q0 123 102.5 206t282.5 83q292 0 372 -180l-45 -37q-65 164 -327 164q-153 0 -238.5 -64.5t-85.5 -167.5q0 -109 85.5 -167.5t301.5 -90.5q228 -33 320 -97t92 -185q0 -95 -66.5 -161t-173.5 -97 q131 -71 131 -226q0 -123 -102 -205.5t-281 -82.5q-292 0 -374 180l47 37q61 -164 327 -164q151 0 236.5 64t85.5 167q0 109 -85.5 167.5t-301.5 90.5q-228 33 -320 97.5t-92 185.5zM154 602q0 -95 79.5 -146t284.5 -83q151 -22 236 -54q48 12 89.5 30t77.5 45t57 66t21 85 q0 95 -80 147t-284 82q-144 18 -238 53q-49 -12 -89.5 -30.5t-76.5 -45.5t-56.5 -65t-20.5 -84z" />
<glyph unicode="&#xa8;" horiz-adv-x="1103" d="M301 1278q0 27 17 44t44 17q28 0 45 -16.5t17 -44.5q0 -26 -17 -42.5t-45 -16.5q-26 0 -43.5 16.5t-17.5 42.5zM684 1278q0 28 16.5 44.5t42.5 16.5q28 0 45 -16.5t17 -44.5q0 -26 -17 -42.5t-45 -16.5q-26 0 -42.5 16.5t-16.5 42.5z" />
<glyph unicode="&#xa9;" horiz-adv-x="1640" d="M121 676q0 314 192 505t508 191q315 0 508 -191.5t193 -504.5t-193 -504.5t-508 -191.5q-316 0 -508 191t-192 505zM178 676q0 -290 176.5 -467.5t466.5 -177.5q289 0 466 177.5t177 467.5t-177 467.5t-466 177.5q-290 0 -466.5 -177.5t-176.5 -467.5zM471 672 q0 178 99 278.5t274 100.5q235 0 307 -203l-49 -25q-55 178 -260 178q-148 0 -232 -87t-84 -242t84 -242.5t232 -87.5q101 0 174 52t96 141l49 -19q-31 -103 -115.5 -163t-201.5 -60q-175 0 -274 100.5t-99 278.5z" />
<glyph unicode="&#xaa;" horiz-adv-x="735" d="M63 836q0 80 63 128.5t196 71.5l223 39v60q0 85 -52 132.5t-147 47.5q-90 0 -144.5 -34t-82.5 -107l-43 20q25 80 95 124t175 44q120 0 188 -58t68 -165v-344q0 -82 64 -82q33 0 53 10l-2 -41q-28 -14 -62 -14q-47 0 -76.5 29.5t-29.5 97.5q-29 -60 -104 -93.5 t-162 -33.5q-102 0 -161 44t-59 124zM72 446v48h618v-48h-618zM119 838q0 -60 45 -91.5t127 -31.5q57 0 113 19t98.5 62t42.5 101v137l-203 -37q-118 -21 -170.5 -59.5t-52.5 -99.5z" />
<glyph unicode="&#xab;" horiz-adv-x="827" d="M96 543l287 401h74l-291 -401l291 -402h-74zM365 543l286 401h74l-291 -401l291 -402h-74z" />
<glyph unicode="&#xac;" d="M150 618v58h937v-336h-61v278h-876z" />
<glyph unicode="&#xad;" horiz-adv-x="894" d="M150 518v62h598v-62h-598z" />
<glyph unicode="&#xae;" horiz-adv-x="1640" d="M121 676q0 314 192 505t508 191q315 0 508 -191.5t193 -504.5t-193 -504.5t-508 -191.5q-316 0 -508 191t-192 505zM178 676q0 -290 176.5 -467.5t466.5 -177.5q289 0 466 177.5t177 467.5t-177 467.5t-466 177.5q-290 0 -466.5 -177.5t-176.5 -467.5zM567 293v758h316 q123 0 188.5 -55t65.5 -160q0 -92 -52.5 -146t-152.5 -65l217 -332h-62l-213 330h-251v-330h-56zM623 666h260q200 3 200 170q0 170 -200 170h-260v-340z" />
<glyph unicode="&#xaf;" horiz-adv-x="1103" d="M244 1235v53h616v-53h-616z" />
<glyph unicode="&#xb0;" horiz-adv-x="798" d="M109 1081q0 129 80 210t210 81t210.5 -81t80.5 -210q0 -128 -80.5 -208t-210.5 -80t-210 80t-80 208zM166 1081q0 -105 64 -171t169 -66t169.5 66t64.5 171q0 106 -64.5 173t-169.5 67t-169 -66.5t-64 -173.5z" />
<glyph unicode="&#xb1;" d="M150 0v55h937v-55h-937zM150 737v56h440v489h59v-489h438v-56h-438v-497h-59v497h-440z" />
<glyph unicode="&#xb2;" horiz-adv-x="690" d="M61 1251q8 115 81 184.5t194 69.5q122 0 192 -67.5t70 -180.5q0 -166 -260 -374q-128 -107 -184 -152v-2h69h404v-47h-551v45q20 16 225 186q75 62 124.5 114.5t81.5 112.5t32 117q0 91 -55 145t-150 54q-99 0 -157 -58.5t-64 -160.5z" />
<glyph unicode="&#xb3;" horiz-adv-x="651" d="M33 858l51 27q37 -166 225 -166q93 0 150 48t57 134q0 79 -51 123.5t-148 44.5h-51v45h49q86 0 133.5 48t47.5 122q0 80 -50 126t-139 46q-79 0 -131 -38t-67 -105l-52 22q23 78 91 124t161 46q114 0 180 -60.5t66 -156.5q0 -75 -41.5 -125.5t-112.5 -68.5v-4 q75 -8 123.5 -61.5t48.5 -131.5q0 -103 -75 -165t-191 -62q-109 0 -178 48.5t-96 139.5z" />
<glyph unicode="&#xb4;" horiz-adv-x="1103" d="M565 1194l170 309h68l-185 -309h-53z" />
<glyph unicode="&#xb5;" horiz-adv-x="1150" d="M158 -430v1454h61v-668q0 -157 84.5 -240t226.5 -83q169 0 283 107t119 261v623h61v-1024h-55l-2 242q-44 -119 -154.5 -190.5t-261.5 -71.5q-103 0 -181.5 46t-119.5 134v-590h-61z" />
<glyph unicode="&#xb6;" horiz-adv-x="1120" d="M66 922q0 194 134 312t355 118h395v-1557h-57v1503h-281v-1503h-57v697q-221 0 -355 118t-134 312zM127 922q0 -172 116 -274.5t312 -102.5v753q-196 0 -312 -102.5t-116 -273.5z" />
<glyph unicode="&#xb7;" horiz-adv-x="407" d="M139 735q0 29 18.5 46.5t47.5 17.5q28 0 45.5 -17.5t17.5 -46.5t-17.5 -46t-45.5 -17q-30 0 -48 17t-18 46z" />
<glyph unicode="&#xb8;" horiz-adv-x="1103" d="M383 -336l25 43q64 -80 170 -80q62 0 101.5 38.5t39.5 101.5q0 67 -47 119.5t-176 119.5l53 12q121 -54 173 -116t52 -140q0 -79 -53 -130.5t-139 -51.5q-131 0 -199 84z" />
<glyph unicode="&#xb9;" horiz-adv-x="419" d="M23 1280v49q62 20 131.5 66.5t99.5 99.5h49v-813h-57v608q0 90 4 135q-85 -98 -227 -145z" />
<glyph unicode="&#xba;" horiz-adv-x="727" d="M72 1016q0 177 71 261.5t222 84.5q149 0 220.5 -84.5t71.5 -261.5t-71.5 -261.5t-220.5 -84.5q-151 0 -222 84.5t-71 261.5zM86 446v48h555v-48h-555zM129 1016q0 -153 57 -226t179 -73q121 0 178 73t57 226t-57 226t-178 73q-122 0 -179 -73t-57 -226z" />
<glyph unicode="&#xbb;" horiz-adv-x="821" d="M96 141l291 402l-291 401h74l287 -401l-287 -402h-74zM365 141l288 402l-288 401h71l289 -401l-289 -402h-71z" />
<glyph unicode="&#xbc;" horiz-adv-x="1368" d="M23 1147v49q62 20 131.5 66.5t99.5 99.5h49v-813h-57v608q0 90 4 137q-77 -95 -227 -147zM125 0l958 1352h66l-959 -1352h-65zM711 227v39l389 539h67v-533h162v-45h-162v-235h-51v235h-405zM768 272h348v379q0 68 2 103h-4q-46 -72 -65 -97z" />
<glyph unicode="&#xbd;" horiz-adv-x="1542" d="M23 1147v49q62 20 131.5 66.5t99.5 99.5h49v-813h-57v608q0 90 4 137q-77 -95 -227 -147zM125 0l958 1352h66l-959 -1352h-65zM915 561q8 115 81 184.5t194 69.5q122 0 192 -67.5t70 -180.5q0 -166 -260 -374q-128 -107 -184 -152v-2h69h404v-47h-551v45q19 16 225 186 q75 62 124.5 114.5t81.5 112.5t32 117q0 91 -55 145t-150 54q-99 0 -157 -58.5t-64 -160.5z" />
<glyph unicode="&#xbe;" horiz-adv-x="1601" d="M33 725l51 27q37 -166 225 -166q93 0 150 48t57 134q0 79 -51 123.5t-148 44.5h-51v45h49q86 0 133.5 48t47.5 122q0 80 -50 126t-139 46q-79 0 -131 -38t-67 -105l-52 22q23 78 91 124t161 46q114 0 180 -60.5t66 -156.5q0 -75 -41.5 -125.5t-112.5 -68.5v-5 q75 -8 123.5 -61t48.5 -131q0 -103 -75 -165t-191 -62q-109 0 -178 48.5t-96 139.5zM356 0l959 1352h65l-958 -1352h-66zM944 227v39l389 539h68v-533h162v-45h-162v-235h-51v235h-406zM1001 272h349v379q0 68 2 103h-4q-40 -62 -66 -97z" />
<glyph unicode="&#xbf;" horiz-adv-x="991" d="M84 -10q0 172 98 277.5t303 158.5v256h62v-291q-223 -61 -311.5 -150t-88.5 -247q0 -135 93.5 -215t246.5 -80q344 0 387 319l56 -28q-60 -346 -445 -346q-179 0 -290 93.5t-111 252.5zM453 965q0 28 17.5 45.5t45.5 17.5q29 0 47.5 -17.5t18.5 -45.5q0 -29 -18.5 -47.5 t-47.5 -18.5q-28 0 -45.5 18.5t-17.5 47.5z" />
<glyph unicode="&#xc0;" horiz-adv-x="1232" d="M31 0l551 1352h71l549 -1352h-65l-187 457h-667l-187 -457h-65zM305 512h623l-271 662l-41 114l-41 -110zM412 1825h71l146 -303h-54z" />
<glyph unicode="&#xc1;" horiz-adv-x="1232" d="M31 0l551 1352h71l549 -1352h-65l-187 457h-667l-187 -457h-65zM305 512h623l-271 662l-41 114l-41 -110zM596 1522l145 303h72l-164 -303h-53z" />
<glyph unicode="&#xc2;" horiz-adv-x="1232" d="M31 0l551 1352h71l549 -1352h-65l-187 457h-667l-187 -457h-65zM305 512h623l-271 662l-41 114l-41 -110zM354 1520l226 301h73l226 -301h-60l-203 258l-200 -258h-62z" />
<glyph unicode="&#xc3;" horiz-adv-x="1232" d="M31 0l551 1352h71l549 -1352h-65l-187 457h-667l-187 -457h-65zM285 1546q15 99 59 146t127 47q44 0 78.5 -14.5t57.5 -35t44.5 -41t50 -35t62.5 -14.5q62 0 91 34.5t44 107.5h53q-18 -99 -61.5 -146t-124.5 -47q-44 0 -79 14.5t-58 35t-45 41t-51 35t-64 14.5 q-62 0 -90 -34t-43 -108h-51zM305 512h623l-271 662l-41 114l-41 -110z" />
<glyph unicode="&#xc4;" horiz-adv-x="1232" d="M31 0l551 1352h71l549 -1352h-65l-187 457h-667l-187 -457h-65zM305 512h623l-271 662l-41 114l-41 -110zM362 1606q0 27 17.5 44t44.5 17q28 0 44.5 -16.5t16.5 -44.5q0 -26 -16.5 -43t-44.5 -17q-26 0 -44 17t-18 43zM745 1606q0 28 16.5 44.5t43.5 16.5 q28 0 44.5 -16.5t16.5 -44.5q0 -26 -17 -43t-44 -17q-26 0 -43 17t-17 43z" />
<glyph unicode="&#xc5;" horiz-adv-x="1232" d="M31 0l536 1315q-57 13 -89 55.5t-32 104.5q0 73 46.5 118t123.5 45t124.5 -45t47.5 -118q0 -61 -32 -103.5t-88 -56.5l534 -1315h-65l-187 457h-667l-187 -457h-65zM305 512h623l-271 662l-41 114l-41 -110zM496 1475q0 -54 33 -87.5t87 -33.5q55 0 88 33.5t33 87.5 t-33 87t-88 33q-54 0 -87 -33t-33 -87z" />
<glyph unicode="&#xc6;" horiz-adv-x="1843" d="M-10 0l846 1352h905v-56h-776v-581h614v-58h-614v-602h807v-55h-869v502h-528l-309 -502h-76zM410 557h493v739h-39z" />
<glyph unicode="&#xc7;" horiz-adv-x="1345" d="M121 676q0 320 164.5 508t439.5 188q416 0 524 -348l-59 -27q-99 320 -463 320q-246 0 -394.5 -173.5t-148.5 -467.5t148 -467.5t393 -173.5q182 0 306.5 85.5t170.5 241.5l62 -22q-53 -163 -183 -257t-317 -103q80 -45 114.5 -98.5t34.5 -119.5q0 -79 -53 -130.5 t-139 -51.5q-131 0 -199 84l25 43q64 -80 170 -80q62 0 101.5 38.5t39.5 101.5q0 61 -37.5 109t-138.5 106q-256 15 -408.5 201.5t-152.5 492.5z" />
<glyph unicode="&#xc8;" horiz-adv-x="1218" d="M207 0v1352h907v-56h-846v-579h674v-55h-674v-607h879v-55h-940zM492 1825h71l146 -303h-54z" />
<glyph unicode="&#xc9;" horiz-adv-x="1218" d="M207 0v1352h907v-56h-846v-579h674v-55h-674v-607h879v-55h-940zM623 1522l145 303h72l-164 -303h-53z" />
<glyph unicode="&#xca;" horiz-adv-x="1218" d="M207 0v1352h907v-56h-846v-579h674v-55h-674v-607h879v-55h-940zM397 1520l226 301h73l226 -301h-60l-203 258l-200 -258h-62z" />
<glyph unicode="&#xcb;" horiz-adv-x="1218" d="M207 0v1352h907v-56h-846v-579h674v-55h-674v-607h879v-55h-940zM406 1606q0 27 17 44t44 17q28 0 44.5 -16.5t16.5 -44.5q0 -26 -17 -43t-44 -17q-26 0 -43.5 17t-17.5 43zM788 1606q0 28 17 44.5t43 16.5q28 0 44.5 -16.5t16.5 -44.5q0 -26 -16.5 -43t-44.5 -17 q-26 0 -43 17t-17 43z" />
<glyph unicode="&#xcc;" horiz-adv-x="475" d="M33 1825h71l146 -303h-53zM207 0v1352h61v-1352h-61z" />
<glyph unicode="&#xcd;" horiz-adv-x="475" d="M207 0v1352h61v-1352h-61zM217 1522l145 303h72l-164 -303h-53z" />
<glyph unicode="&#xce;" horiz-adv-x="475" d="M-25 1520l226 301h73l226 -301h-60l-202 258l-201 -258h-62zM207 0v1352h61v-1352h-61z" />
<glyph unicode="&#xcf;" horiz-adv-x="475" d="M43 1606q0 28 16.5 44.5t44.5 16.5t45 -16.5t17 -44.5q0 -26 -17 -43t-45 -17t-44.5 17t-16.5 43zM207 0v1352h61v-1352h-61zM309 1606q0 28 17 44.5t45 16.5q27 0 44 -17t17 -44q0 -26 -17.5 -43t-43.5 -17q-28 0 -45 17t-17 43z" />
<glyph unicode="&#xd0;" horiz-adv-x="1435" d="M20 659v50h207v643h420q327 0 498.5 -169t171.5 -491q0 -339 -171.5 -515.5t-498.5 -176.5h-420v659h-207zM289 55h362q294 0 448 163t154 474q0 295 -153.5 449.5t-448.5 154.5h-362v-587h420v-50h-420v-604z" />
<glyph unicode="&#xd1;" horiz-adv-x="1439" d="M207 0v1352h80l815 -1166l74 -120l-2 137v1149h59v-1352h-80l-817 1165l-72 121h-2l4 -137v-1149h-59zM399 1546q15 99 59.5 146t127.5 47q53 0 94.5 -22t64.5 -48t58 -48t76 -22q62 0 91 34.5t44 107.5h53q-18 -99 -61.5 -146t-124.5 -47q-44 0 -79 14.5t-58 35t-45 41 t-51 35t-64 14.5q-62 0 -90 -34t-43 -108h-52z" />
<glyph unicode="&#xd2;" horiz-adv-x="1476" d="M121 676q0 321 166 508.5t452 187.5q285 0 452 -187.5t167 -508.5t-167 -508.5t-452 -187.5q-286 0 -452 187.5t-166 508.5zM184 676q0 -296 149 -468.5t406 -172.5q255 0 405 172.5t150 468.5t-150 468.5t-405 172.5q-257 0 -406 -172.5t-149 -468.5zM535 1825h71 l146 -303h-54z" />
<glyph unicode="&#xd3;" horiz-adv-x="1476" d="M121 676q0 321 166 508.5t452 187.5q285 0 452 -187.5t167 -508.5t-167 -508.5t-452 -187.5q-286 0 -452 187.5t-166 508.5zM184 676q0 -296 149 -468.5t406 -172.5q255 0 405 172.5t150 468.5t-150 468.5t-405 172.5q-257 0 -406 -172.5t-149 -468.5zM719 1522l145 303 h72l-164 -303h-53z" />
<glyph unicode="&#xd4;" horiz-adv-x="1476" d="M121 676q0 321 166 508.5t452 187.5q285 0 452 -187.5t167 -508.5t-167 -508.5t-452 -187.5q-286 0 -452 187.5t-166 508.5zM184 676q0 -296 149 -468.5t406 -172.5q255 0 405 172.5t150 468.5t-150 468.5t-405 172.5q-257 0 -406 -172.5t-149 -468.5zM477 1520l225 301 h74l225 -301h-59l-203 258l-200 -258h-62z" />
<glyph unicode="&#xd5;" horiz-adv-x="1476" d="M121 676q0 321 166 508.5t452 187.5q285 0 452 -187.5t167 -508.5t-167 -508.5t-452 -187.5q-286 0 -452 187.5t-166 508.5zM184 676q0 -296 149 -468.5t406 -172.5q255 0 405 172.5t150 468.5t-150 468.5t-405 172.5q-257 0 -406 -172.5t-149 -468.5zM408 1546 q15 99 59 146t127 47q53 0 94.5 -22t64.5 -48t58 -48t76 -22q62 0 91 34.5t44 107.5h53q-18 -99 -61.5 -146t-124.5 -47q-44 0 -79 14.5t-58 35t-45 41t-51 35t-64 14.5q-62 0 -90 -34t-43 -108h-51z" />
<glyph unicode="&#xd6;" horiz-adv-x="1476" d="M121 676q0 321 166 508.5t452 187.5q285 0 452 -187.5t167 -508.5t-167 -508.5t-452 -187.5q-286 0 -452 187.5t-166 508.5zM184 676q0 -296 149 -468.5t406 -172.5q255 0 405 172.5t150 468.5t-150 468.5t-405 172.5q-257 0 -406 -172.5t-149 -468.5zM485 1606 q0 27 17.5 44t44.5 17q28 0 44.5 -16.5t16.5 -44.5q0 -26 -17 -43t-44 -17q-26 0 -44 17t-18 43zM868 1606q0 28 17 44.5t43 16.5q28 0 44.5 -16.5t16.5 -44.5q0 -26 -16.5 -43t-44.5 -17q-26 0 -43 17t-17 43z" />
<glyph unicode="&#xd7;" d="M236 303l337 338l-337 340l43 45l339 -340l338 340l45 -45l-337 -340l337 -338l-45 -45l-338 338l-339 -338z" />
<glyph unicode="&#xd8;" horiz-adv-x="1476" d="M121 676q0 321 166 508.5t452 187.5q229 0 383 -123l115 160h63l-139 -192q95 -92 146 -230t51 -311q0 -321 -167 -508.5t-452 -187.5q-227 0 -381 120l-116 -166h-66l143 199q-198 189 -198 543zM184 676q0 -319 172 -494l731 1018q-142 117 -348 117 q-257 0 -406 -172.5t-149 -468.5zM393 150q140 -115 346 -115q255 0 405 172.5t150 468.5q0 316 -170 489z" />
<glyph unicode="&#xd9;" horiz-adv-x="1411" d="M190 485v867h62v-856q0 -222 118 -341.5t335 -119.5t335.5 119.5t118.5 341.5v856h62v-867q0 -243 -135 -374t-381 -131q-245 0 -380 131t-135 374zM532 1825h72l146 -303h-54z" />
<glyph unicode="&#xda;" horiz-adv-x="1411" d="M190 485v867h62v-856q0 -222 118 -341.5t335 -119.5t335.5 119.5t118.5 341.5v856h62v-867q0 -243 -135 -374t-381 -131q-245 0 -380 131t-135 374zM684 1522l145 303h72l-164 -303h-53z" />
<glyph unicode="&#xdb;" horiz-adv-x="1411" d="M190 485v867h62v-856q0 -222 118 -341.5t335 -119.5t335.5 119.5t118.5 341.5v856h62v-867q0 -243 -135 -374t-381 -131q-245 0 -380 131t-135 374zM442 1520l226 301h73l226 -301h-60l-202 258l-201 -258h-62z" />
<glyph unicode="&#xdc;" horiz-adv-x="1411" d="M190 485v867h62v-856q0 -222 118 -341.5t335 -119.5t335.5 119.5t118.5 341.5v856h62v-867q0 -243 -135 -374t-381 -131q-245 0 -380 131t-135 374zM451 1606q0 27 17 44t44 17q28 0 44.5 -16.5t16.5 -44.5q0 -26 -16.5 -43t-44.5 -17q-26 0 -43.5 17t-17.5 43zM834 1606 q0 28 16.5 44.5t42.5 16.5q28 0 44.5 -16.5t16.5 -44.5q0 -26 -17 -43t-44 -17q-26 0 -42.5 17t-16.5 43z" />
<glyph unicode="&#xdd;" horiz-adv-x="1075" d="M31 1352h71l265 -463l172 -299l434 762h71l-475 -828v-524h-61v524zM518 1522l146 303h71l-164 -303h-53z" />
<glyph unicode="&#xde;" horiz-adv-x="1187" d="M207 0v1352h61v-269h348q239 0 361.5 -98.5t122.5 -290.5q0 -191 -122.5 -289t-361.5 -98h-348v-307h-61zM268 362h367q401 0 401 332t-401 332h-367v-664z" />
<glyph unicode="&#xdf;" horiz-adv-x="1165" d="M178 0v1049q0 222 108.5 339t327.5 117q185 0 286 -99t101 -263q0 -153 -88 -256t-229 -107v-2q183 -7 280 -115.5t97 -283.5q0 -177 -108 -288t-289 -111q-68 0 -124.5 22.5t-90.5 63.5l24 45q69 -78 193 -78q153 0 243 95.5t90 254.5q0 181 -105 273t-288 92h-88v55h88 q150 0 242 91.5t92 250.5q0 144 -87 224.5t-243 80.5q-372 0 -372 -430v-1020h-60z" />
<glyph unicode="&#xe0;" horiz-adv-x="1081" d="M98 229q0 120 92 192t291 109l342 62v113q0 135 -79.5 210.5t-227.5 75.5q-133 0 -219 -55.5t-131 -175.5l-47 35q91 249 397 249q177 0 273 -85.5t96 -249.5v-545q0 -66 27.5 -98.5t76.5 -32.5q53 0 80 16l-4 -51q-30 -18 -84 -18q-158 0 -158 196 q-43 -93 -156.5 -144.5t-242.5 -51.5q-151 0 -238.5 65t-87.5 184zM162 229q0 -92 72 -144t200 -52q50 0 102.5 10.5t104 33t92 55t65.5 80.5t25 105v224l-315 -58q-184 -35 -265 -96t-81 -158zM309 1503h68l170 -309h-53z" />
<glyph unicode="&#xe1;" horiz-adv-x="1081" d="M98 229q0 120 92 192t291 109l342 62v113q0 135 -79.5 210.5t-227.5 75.5q-133 0 -219 -55.5t-131 -175.5l-47 35q91 249 397 249q177 0 273 -85.5t96 -249.5v-545q0 -66 27.5 -98.5t76.5 -32.5q53 0 80 16l-4 -51q-30 -18 -84 -18q-158 0 -158 196 q-43 -93 -156.5 -144.5t-242.5 -51.5q-151 0 -238.5 65t-87.5 184zM162 229q0 -92 72 -144t200 -52q50 0 102.5 10.5t104 33t92 55t65.5 80.5t25 105v224l-315 -58q-184 -35 -265 -96t-81 -158zM477 1194l170 309h68l-185 -309h-53z" />
<glyph unicode="&#xe2;" horiz-adv-x="1081" d="M98 229q0 120 92 192t291 109l342 62v113q0 135 -79.5 210.5t-227.5 75.5q-133 0 -219 -55.5t-131 -175.5l-47 35q91 249 397 249q177 0 273 -85.5t96 -249.5v-545q0 -66 27.5 -98.5t76.5 -32.5q53 0 80 16l-4 -51q-30 -18 -84 -18q-158 0 -158 196 q-43 -93 -156.5 -144.5t-242.5 -51.5q-151 0 -238.5 65t-87.5 184zM162 229q0 -92 72 -144t200 -52q50 0 102.5 10.5t104 33t92 55t65.5 80.5t25 105v224l-315 -58q-184 -35 -265 -96t-81 -158zM254 1192l223 301h70l223 -301h-59l-199 256l-199 -256h-59z" />
<glyph unicode="&#xe3;" horiz-adv-x="1081" d="M98 229q0 120 92 192t291 109l342 62v113q0 135 -79.5 210.5t-227.5 75.5q-133 0 -219 -55.5t-131 -175.5l-47 35q91 249 397 249q177 0 273 -85.5t96 -249.5v-545q0 -66 27.5 -98.5t76.5 -32.5q53 0 80 16l-4 -51q-30 -18 -84 -18q-158 0 -158 196 q-43 -93 -156.5 -144.5t-242.5 -51.5q-151 0 -238.5 65t-87.5 184zM162 229q0 -92 72 -144t200 -52q50 0 102.5 10.5t104 33t92 55t65.5 80.5t25 105v224l-315 -58q-184 -35 -265 -96t-81 -158zM178 1219q15 99 59.5 145.5t127.5 46.5q44 0 78.5 -14.5t57.5 -35t44 -40.5 t49.5 -34.5t62.5 -14.5q62 0 91.5 34t44.5 107h53q-18 -99 -61.5 -145.5t-125.5 -46.5q-44 0 -79 14.5t-58 35t-45 40.5t-51 34.5t-64 14.5q-62 0 -90 -33.5t-43 -107.5h-51z" />
<glyph unicode="&#xe4;" horiz-adv-x="1081" d="M98 229q0 120 92 192t291 109l342 62v113q0 135 -79.5 210.5t-227.5 75.5q-133 0 -219 -55.5t-131 -175.5l-47 35q91 249 397 249q177 0 273 -85.5t96 -249.5v-545q0 -66 27.5 -98.5t76.5 -32.5q53 0 80 16l-4 -51q-30 -18 -84 -18q-158 0 -158 196 q-43 -93 -156.5 -144.5t-242.5 -51.5q-151 0 -238.5 65t-87.5 184zM162 229q0 -92 72 -144t200 -52q50 0 102.5 10.5t104 33t92 55t65.5 80.5t25 105v224l-315 -58q-184 -35 -265 -96t-81 -158zM256 1278q0 27 17 44t44 17q28 0 45 -16.5t17 -44.5q0 -26 -17 -42.5 t-45 -16.5q-26 0 -43.5 16.5t-17.5 42.5zM639 1278q0 28 16.5 44.5t42.5 16.5q28 0 45 -16.5t17 -44.5q0 -26 -17 -42.5t-45 -16.5q-26 0 -42.5 16.5t-16.5 42.5z" />
<glyph unicode="&#xe5;" horiz-adv-x="1081" d="M98 229q0 120 92 192t291 109l342 62v113q0 135 -79.5 210.5t-227.5 75.5q-133 0 -219 -55.5t-131 -175.5l-47 35q91 249 397 249q177 0 273 -85.5t96 -249.5v-545q0 -66 27.5 -98.5t76.5 -32.5q53 0 80 16l-4 -51q-30 -18 -84 -18q-158 0 -158 196 q-43 -93 -156.5 -144.5t-242.5 -51.5q-151 0 -238.5 65t-87.5 184zM162 229q0 -92 72 -144t200 -52q50 0 102.5 10.5t104 33t92 55t65.5 80.5t25 105v224l-315 -58q-184 -35 -265 -96t-81 -158zM317 1360q0 77 54 128.5t135 51.5t133.5 -51.5t52.5 -128.5q0 -78 -52.5 -130 t-133.5 -52q-82 0 -135.5 52t-53.5 130zM369 1360q0 -58 39.5 -97.5t97.5 -39.5t97.5 39.5t39.5 97.5q0 57 -39.5 96t-97.5 39t-97.5 -39t-39.5 -96z" />
<glyph unicode="&#xe6;" horiz-adv-x="1781" d="M98 229q0 124 93 200.5t286 96.5l350 37v137q0 137 -80.5 214t-228.5 77q-263 0 -352 -231l-47 35q93 249 399 249q151 0 243.5 -68.5t115.5 -197.5q50 127 148 196.5t232 69.5q207 0 314.5 -127.5t107.5 -369.5q0 -7 -1 -20t-1 -17h-794v-18q4 -214 106.5 -336.5 t272.5 -122.5q260 0 348 213l49 -27q-105 -239 -397 -239q-152 0 -257 81.5t-147 235.5q-11 -67 -41.5 -121.5t-73 -90t-96.5 -60t-110 -35t-115 -10.5q-146 0 -235 65t-89 184zM162 229q0 -96 75 -146t199 -50q51 0 103 11t104.5 37.5t92.5 66t65.5 102t25.5 139.5v125 l-323 -35q-342 -34 -342 -250zM885 565h737q-12 426 -365 426q-162 0 -261 -113t-111 -313z" />
<glyph unicode="&#xe7;" horiz-adv-x="1091" d="M109 512q0 249 126.5 390.5t350.5 141.5q154 0 260 -72.5t147 -205.5l-55 -27q-34 120 -125.5 186t-226.5 66q-196 0 -306 -127t-110 -352t108 -352t302 -127q140 0 242.5 73t123.5 195l55 -20q-29 -132 -137.5 -213.5t-259.5 -87.5q150 -85 150 -218q0 -79 -53 -130.5 t-140 -51.5q-131 0 -199 84l25 43q64 -80 170 -80q62 0 101.5 38.5t39.5 101.5q0 62 -38.5 110.5t-141.5 104.5q-195 20 -302 159.5t-107 370.5z" />
<glyph unicode="&#xe8;" horiz-adv-x="1114" d="M109 512q0 250 123 391t341 141q206 0 322.5 -141.5t116.5 -384.5q0 -8 -1 -21t-1 -16h-840q8 -211 116.5 -329.5t297.5 -118.5q126 0 223 56.5t143 156.5l51 -27q-56 -114 -164 -176.5t-253 -62.5q-223 0 -349 141t-126 391zM170 537h784q-6 215 -104.5 334.5 t-276.5 119.5q-185 0 -291 -120t-112 -334zM365 1503h67l170 -309h-53z" />
<glyph unicode="&#xe9;" horiz-adv-x="1114" d="M109 512q0 250 123 391t341 141q206 0 322.5 -141.5t116.5 -384.5q0 -8 -1 -21t-1 -16h-840q8 -211 116.5 -329.5t297.5 -118.5q126 0 223 56.5t143 156.5l51 -27q-56 -114 -164 -176.5t-253 -62.5q-223 0 -349 141t-126 391zM170 537h784q-6 215 -104.5 334.5 t-276.5 119.5q-185 0 -291 -120t-112 -334zM532 1194l170 309h68l-184 -309h-54z" />
<glyph unicode="&#xea;" horiz-adv-x="1114" d="M109 512q0 250 123 391t341 141q206 0 322.5 -141.5t116.5 -384.5q0 -8 -1 -21t-1 -16h-840q8 -211 116.5 -329.5t297.5 -118.5q126 0 223 56.5t143 156.5l51 -27q-56 -114 -164 -176.5t-253 -62.5q-223 0 -349 141t-126 391zM170 537h784q-6 215 -104.5 334.5 t-276.5 119.5q-185 0 -291 -120t-112 -334zM309 1192l223 301h70l223 -301h-59l-199 256l-198 -256h-60z" />
<glyph unicode="&#xeb;" horiz-adv-x="1114" d="M109 512q0 250 123 391t341 141q206 0 322.5 -141.5t116.5 -384.5q0 -8 -1 -21t-1 -16h-840q8 -211 116.5 -329.5t297.5 -118.5q126 0 223 56.5t143 156.5l51 -27q-56 -114 -164 -176.5t-253 -62.5q-223 0 -349 141t-126 391zM170 537h784q-6 215 -104.5 334.5 t-276.5 119.5q-185 0 -291 -120t-112 -334zM311 1278q0 27 17.5 44t44.5 17q28 0 44.5 -16.5t16.5 -44.5q0 -26 -16.5 -42.5t-44.5 -16.5q-27 0 -44.5 16.5t-17.5 42.5zM694 1278q0 28 17 44.5t43 16.5q28 0 44.5 -16.5t16.5 -44.5q0 -26 -16.5 -42.5t-44.5 -16.5 q-26 0 -43 16.5t-17 42.5z" />
<glyph unicode="&#xec;" horiz-adv-x="417" d="M6 1503h68l170 -309h-54zM178 0v1024h62v-1024h-62z" />
<glyph unicode="&#xed;" horiz-adv-x="417" d="M176 1194l170 309h68l-185 -309h-53zM178 0v1024h62v-1024h-62z" />
<glyph unicode="&#xee;" horiz-adv-x="417" d="M-49 1192l223 301h70l223 -301h-59l-199 256l-199 -256h-59zM178 0v1024h62v-1024h-62z" />
<glyph unicode="&#xef;" horiz-adv-x="417" d="M33 1278q0 28 16.5 44.5t42.5 16.5q28 0 45 -16.5t17 -44.5q0 -26 -17 -42.5t-45 -16.5q-26 0 -42.5 16.5t-16.5 42.5zM178 0v1024h62v-1024h-62zM262 1278q0 27 17.5 44t44.5 17q28 0 44.5 -16.5t16.5 -44.5q0 -26 -16.5 -42.5t-44.5 -16.5q-27 0 -44.5 16.5t-17.5 42.5 z" />
<glyph unicode="&#xf0;" horiz-adv-x="1200" d="M109 485q0 231 130 369.5t341 138.5q158 0 267 -69t157 -195q-33 315 -191 514l-360 -80l-11 43l342 72q-122 137 -309 217h98q162 -79 271 -205l235 56l13 -43l-220 -48q191 -251 191 -673q0 -293 -123 -447.5t-348 -154.5q-222 0 -352.5 137t-130.5 368zM172 485 q0 -208 113 -330t309 -122q189 0 297.5 129t114.5 356q0 85 -27.5 160.5t-79.5 134t-133.5 93t-181.5 34.5q-187 0 -299.5 -124t-112.5 -331z" />
<glyph unicode="&#xf1;" horiz-adv-x="1196" d="M178 0v1024h58l2 -242q43 121 152 191.5t255 70.5q177 0 281 -98t104 -276v-670h-61v653q0 163 -89 250.5t-243 87.5q-167 0 -282 -112t-115 -279v-600h-62zM279 1219q15 99 59 145.5t127 46.5q44 0 78.5 -14.5t57.5 -35t44.5 -40.5t50 -34.5t62.5 -14.5q62 0 91 34 t44 107h53q-18 -99 -61 -145.5t-125 -46.5q-44 0 -79 14.5t-58 35t-45 40.5t-51 34.5t-64 14.5q-62 0 -90 -33.5t-43 -107.5h-51z" />
<glyph unicode="&#xf2;" horiz-adv-x="1183" d="M109 512q0 249 129 390.5t354 141.5q224 0 352.5 -141.5t128.5 -390.5t-128.5 -390.5t-352.5 -141.5q-225 0 -354 141.5t-129 390.5zM170 512q0 -224 113 -351.5t309 -127.5q197 0 308.5 127.5t111.5 351.5t-111.5 351.5t-308.5 127.5q-196 0 -309 -127.5t-113 -351.5z M391 1503h68l170 -309h-54z" />
<glyph unicode="&#xf3;" horiz-adv-x="1183" d="M109 512q0 249 129 390.5t354 141.5q224 0 352.5 -141.5t128.5 -390.5t-128.5 -390.5t-352.5 -141.5q-225 0 -354 141.5t-129 390.5zM170 512q0 -224 113 -351.5t309 -127.5q197 0 308.5 127.5t111.5 351.5t-111.5 351.5t-308.5 127.5q-196 0 -309 -127.5t-113 -351.5z M559 1194l170 309h68l-185 -309h-53z" />
<glyph unicode="&#xf4;" horiz-adv-x="1183" d="M109 512q0 249 129 390.5t354 141.5q224 0 352.5 -141.5t128.5 -390.5t-128.5 -390.5t-352.5 -141.5q-225 0 -354 141.5t-129 390.5zM170 512q0 -224 113 -351.5t309 -127.5q197 0 308.5 127.5t111.5 351.5t-111.5 351.5t-308.5 127.5q-196 0 -309 -127.5t-113 -351.5z M336 1192l223 301h70l223 -301h-59l-199 256l-199 -256h-59z" />
<glyph unicode="&#xf5;" horiz-adv-x="1183" d="M109 512q0 249 129 390.5t354 141.5q224 0 352.5 -141.5t128.5 -390.5t-128.5 -390.5t-352.5 -141.5q-225 0 -354 141.5t-129 390.5zM170 512q0 -224 113 -351.5t309 -127.5q197 0 308.5 127.5t111.5 351.5t-111.5 351.5t-308.5 127.5q-196 0 -309 -127.5t-113 -351.5z M260 1219q15 99 59 145.5t127 46.5q44 0 78.5 -14.5t57.5 -35t44.5 -40.5t50 -34.5t62.5 -14.5q62 0 91 34t44 107h54q-18 -99 -61.5 -145.5t-125.5 -46.5q-44 0 -79 14.5t-58 35t-45 40.5t-51 34.5t-64 14.5q-62 0 -90 -33.5t-43 -107.5h-51z" />
<glyph unicode="&#xf6;" horiz-adv-x="1183" d="M109 512q0 249 129 390.5t354 141.5q224 0 352.5 -141.5t128.5 -390.5t-128.5 -390.5t-352.5 -141.5q-225 0 -354 141.5t-129 390.5zM170 512q0 -224 113 -351.5t309 -127.5q197 0 308.5 127.5t111.5 351.5t-111.5 351.5t-308.5 127.5q-196 0 -309 -127.5t-113 -351.5z M338 1278q0 27 17 44t44 17q28 0 45 -16.5t17 -44.5q0 -26 -17 -42.5t-45 -16.5q-26 0 -43.5 16.5t-17.5 42.5zM721 1278q0 28 16.5 44.5t42.5 16.5q28 0 45 -16.5t17 -44.5q0 -26 -17 -42.5t-45 -16.5q-26 0 -42.5 16.5t-16.5 42.5z" />
<glyph unicode="&#xf7;" d="M150 618v58h937v-58h-937zM555 264q0 30 17 48t46 18t46.5 -18.5t17.5 -47.5q0 -28 -17.5 -45.5t-46.5 -17.5t-46 17.5t-17 45.5zM555 1032q0 29 17 46.5t46 17.5t46.5 -17.5t17.5 -46.5t-17.5 -46t-46.5 -17t-46 17t-17 46z" />
<glyph unicode="&#xf8;" horiz-adv-x="1185" d="M109 512q0 249 129 390.5t354 141.5q187 0 311 -102l111 139h63l-137 -174q133 -139 133 -395q0 -249 -128.5 -390.5t-352.5 -141.5q-184 0 -303 96l-111 -142h-63l135 175q-141 144 -141 403zM170 512q0 -229 119 -354h2l55 73l522 664q-107 96 -276 96 q-196 0 -309 -127.5t-113 -351.5zM326 121q105 -88 266 -88q197 0 308.5 127.5t111.5 351.5q0 221 -109 348h-2l-43 -59z" />
<glyph unicode="&#xf9;" horiz-adv-x="1179" d="M166 344v680h61v-668q0 -158 81.5 -240.5t230.5 -82.5q96 0 175 35.5t127 92t73.5 123t25.5 132.5v608h61v-1024h-57l-2 240q-43 -119 -153.5 -189.5t-260.5 -70.5q-169 0 -265.5 93.5t-96.5 270.5zM385 1503h68l170 -309h-54z" />
<glyph unicode="&#xfa;" horiz-adv-x="1179" d="M166 344v680h61v-668q0 -158 81.5 -240.5t230.5 -82.5q96 0 175 35.5t127 92t73.5 123t25.5 132.5v608h61v-1024h-57l-2 240q-43 -119 -153.5 -189.5t-260.5 -70.5q-169 0 -265.5 93.5t-96.5 270.5zM553 1194l170 309h68l-185 -309h-53z" />
<glyph unicode="&#xfb;" horiz-adv-x="1179" d="M166 344v680h61v-668q0 -158 81.5 -240.5t230.5 -82.5q96 0 175 35.5t127 92t73.5 123t25.5 132.5v608h61v-1024h-57l-2 240q-43 -119 -153.5 -189.5t-260.5 -70.5q-169 0 -265.5 93.5t-96.5 270.5zM330 1192l223 301h70l223 -301h-60l-198 256l-199 -256h-59z" />
<glyph unicode="&#xfc;" horiz-adv-x="1179" d="M166 344v680h61v-668q0 -158 81.5 -240.5t230.5 -82.5q96 0 175 35.5t127 92t73.5 123t25.5 132.5v608h61v-1024h-57l-2 240q-43 -119 -153.5 -189.5t-260.5 -70.5q-169 0 -265.5 93.5t-96.5 270.5zM332 1278q0 27 17 44t44 17q28 0 45 -16.5t17 -44.5q0 -26 -17 -42.5 t-45 -16.5q-26 0 -43.5 16.5t-17.5 42.5zM715 1278q0 28 16.5 44.5t42.5 16.5q28 0 45 -16.5t17 -44.5q0 -26 -17 -42.5t-45 -16.5q-26 0 -42.5 16.5t-16.5 42.5z" />
<glyph unicode="&#xfd;" horiz-adv-x="1009" d="M0 -371l27 52q47 -68 149 -68q78 0 132.5 44t99.5 157l75 184l-110 260l-324 766h70l352 -850l43 -106l43 112l342 844h68l-504 -1223q-56 -135 -121.5 -188t-167.5 -53q-123 0 -174 69zM479 1194l170 309h68l-185 -309h-53z" />
<glyph unicode="&#xfe;" horiz-adv-x="1218" d="M178 -430v1925h62v-727q44 131 148.5 203.5t250.5 72.5q220 0 344.5 -141t124.5 -391t-124.5 -391t-344.5 -141q-149 0 -252.5 72.5t-146.5 205.5v-688h-62zM240 504q0 -218 106.5 -344.5t284.5 -126.5q196 0 306 127t110 352t-110 352t-306 127q-179 0 -285 -127 t-106 -344v-16z" />
<glyph unicode="&#xff;" horiz-adv-x="1009" d="M0 -371l27 52q47 -68 149 -68q78 0 132.5 44t99.5 157l75 184l-110 260l-324 766h70l352 -850l43 -106l43 112l342 844h68l-504 -1223q-56 -135 -121.5 -188t-167.5 -53q-123 0 -174 69zM258 1278q0 27 17 44t44 17q28 0 45 -16.5t17 -44.5q0 -26 -17 -42.5t-45 -16.5 q-26 0 -43.5 16.5t-17.5 42.5zM641 1278q0 28 16.5 44.5t42.5 16.5q28 0 45 -16.5t17 -44.5q0 -26 -17 -42.5t-45 -16.5q-26 0 -42.5 16.5t-16.5 42.5z" />
<glyph unicode="&#x100;" horiz-adv-x="1232" d="M31 0l551 1352h71l549 -1352h-65l-187 457h-667l-187 -457h-65zM305 512h623l-271 662l-41 114l-41 -110zM309 1563v53h617v-53h-617z" />
<glyph unicode="&#x101;" horiz-adv-x="1081" d="M98 229q0 120 92 192t291 109l342 62v113q0 135 -79.5 210.5t-227.5 75.5q-133 0 -219 -55.5t-131 -175.5l-47 35q91 249 397 249q177 0 273 -85.5t96 -249.5v-545q0 -66 27.5 -98.5t76.5 -32.5q53 0 80 16l-4 -51q-30 -18 -84 -18q-158 0 -158 196 q-43 -93 -156.5 -144.5t-242.5 -51.5q-151 0 -238.5 65t-87.5 184zM162 229q0 -92 72 -144t200 -52q50 0 102.5 10.5t104 33t92 55t65.5 80.5t25 105v224l-315 -58q-184 -35 -265 -96t-81 -158zM203 1235v53h616v-53h-616z" />
<glyph unicode="&#x102;" horiz-adv-x="1232" d="M31 0l551 1352h71l549 -1352h-65l-187 457h-667l-187 -457h-65zM305 512h623l-271 662l-41 114l-41 -110zM356 1776h52q0 -94 56.5 -152.5t151.5 -58.5q94 0 150.5 58t56.5 153h54q0 -121 -69.5 -190.5t-191.5 -69.5t-191 69t-69 191z" />
<glyph unicode="&#x103;" horiz-adv-x="1081" d="M98 229q0 120 92 192t291 109l342 62v113q0 135 -79.5 210.5t-227.5 75.5q-133 0 -219 -55.5t-131 -175.5l-47 35q91 249 397 249q177 0 273 -85.5t96 -249.5v-545q0 -66 27.5 -98.5t76.5 -32.5q53 0 80 16l-4 -51q-30 -18 -84 -18q-158 0 -158 196 q-43 -93 -156.5 -144.5t-242.5 -51.5q-151 0 -238.5 65t-87.5 184zM162 229q0 -92 72 -144t200 -52q50 0 102.5 10.5t104 33t92 55t65.5 80.5t25 105v224l-315 -58q-184 -35 -265 -96t-81 -158zM252 1448h51q0 -94 57 -152.5t152 -58.5q94 0 150.5 58t56.5 153h53 q0 -122 -69 -191t-191 -69t-191 69t-69 191z" />
<glyph unicode="&#x104;" horiz-adv-x="1232" d="M31 0l551 1352h71l549 -1352q-147 -55 -206.5 -113t-59.5 -133q0 -61 40.5 -93t104.5 -32q81 0 131 37l17 -43q-60 -43 -152 -43q-85 0 -139.5 45t-54.5 127t57.5 145t189.5 117l-180 443h-667l-187 -457h-65zM305 512h623l-271 662l-41 114l-41 -110z" />
<glyph unicode="&#x105;" horiz-adv-x="1081" d="M98 229q0 120 92 192t291 109l342 62v113q0 135 -79.5 210.5t-227.5 75.5q-261 0 -350 -231l-47 35q91 249 397 249q177 0 273 -85.5t96 -249.5v-545q0 -66 27.5 -98.5t76.5 -32.5q53 0 80 16l-4 -51q-155 -61 -219 -116t-64 -130q0 -57 40.5 -90t103.5 -33q86 0 125 31 l16 -45q-53 -35 -145 -35q-84 0 -138.5 45t-54.5 121q0 75 51.5 133t161.5 105q-117 29 -119 192q-43 -93 -156.5 -144.5t-242.5 -51.5q-151 0 -238.5 65t-87.5 184zM162 229q0 -92 72 -144t200 -52q50 0 102.5 10.5t104 33t92 55t65.5 80.5t25 105v224l-315 -58 q-184 -35 -265 -96t-81 -158z" />
<glyph unicode="&#x106;" horiz-adv-x="1345" d="M121 676q0 320 164.5 508t439.5 188q416 0 524 -348l-59 -27q-99 320 -463 320q-246 0 -394.5 -173.5t-148.5 -467.5t148 -467.5t393 -173.5q182 0 306.5 85.5t170.5 241.5l62 -22q-54 -172 -195 -266t-344 -94q-273 0 -438.5 188.5t-165.5 507.5zM688 1522l146 303h71 l-164 -303h-53z" />
<glyph unicode="&#x107;" horiz-adv-x="1091" d="M109 512q0 249 126.5 390.5t350.5 141.5q154 0 260 -72.5t147 -205.5l-55 -27q-34 120 -125.5 186t-226.5 66q-196 0 -306 -127t-110 -352t108 -352t302 -127q140 0 242.5 73t123.5 195l55 -20q-31 -137 -146 -219t-273 -82q-225 0 -349 141t-124 391zM539 1194l170 309 h67l-184 -309h-53z" />
<glyph unicode="&#x10c;" horiz-adv-x="1345" d="M121 676q0 320 164.5 508t439.5 188q416 0 524 -348l-59 -27q-99 320 -463 320q-246 0 -394.5 -173.5t-148.5 -467.5t148 -467.5t393 -173.5q182 0 306.5 85.5t170.5 241.5l62 -22q-54 -172 -195 -266t-344 -94q-273 0 -438.5 188.5t-165.5 507.5zM446 1821h62l201 -258 l202 258h60l-226 -301h-73z" />
<glyph unicode="&#x10d;" horiz-adv-x="1091" d="M109 512q0 249 126.5 390.5t350.5 141.5q154 0 260 -72.5t147 -205.5l-55 -27q-34 120 -125.5 186t-226.5 66q-196 0 -306 -127t-110 -352t108 -352t302 -127q140 0 242.5 73t123.5 195l55 -20q-31 -137 -146 -219t-273 -82q-225 0 -349 141t-124 391zM315 1495h60 l198 -256l199 256h59l-223 -301h-69z" />
<glyph unicode="&#x10e;" horiz-adv-x="1417" d="M207 0v1352h420q327 0 498 -168.5t171 -491.5q0 -339 -171 -515.5t-498 -176.5h-420zM268 55h363q294 0 448 163t154 474q0 295 -153.5 449.5t-448.5 154.5h-363v-1241zM379 1821h61l201 -258l203 258h59l-225 -301h-74z" />
<glyph unicode="&#x10f;" horiz-adv-x="1243" d="M111 512q0 250 124 391t343 141q148 0 253 -74.5t148 -209.5v735h61v-1495h-57l-2 272q-40 -137 -146 -214.5t-257 -77.5q-219 0 -343 141t-124 391zM172 512q0 -225 110 -352t306 -127q178 0 284.5 126.5t106.5 344.5v16q0 217 -106 344t-285 127q-196 0 -306 -127 t-110 -352zM1202 1092l51 403h62l-66 -403h-47z" />
<glyph unicode="&#x110;" horiz-adv-x="1435" d="M20 659v50h207v643h420q326 0 497 -169t171 -491q0 -339 -171 -515.5t-497 -176.5h-420v659h-207zM289 55h362q293 0 447.5 163.5t154.5 473.5q0 295 -154.5 449.5t-447.5 154.5h-362v-587h420v-50h-420v-604z" />
<glyph unicode="&#x111;" horiz-adv-x="1218" d="M111 512q0 250 124 391t343 141q148 0 253 -74.5t148 -209.5v444h-361v47h361v244h61v-244h191v-47h-191v-1204h-57l-2 272q-40 -137 -146 -214.5t-257 -77.5q-219 0 -343 141t-124 391zM172 512q0 -225 110 -352t306 -127q178 0 284.5 126.5t106.5 344.5v16 q0 217 -106 344t-285 127q-196 0 -306 -127t-110 -352z" />
<glyph unicode="&#x112;" horiz-adv-x="1218" d="M207 0v1352h907v-56h-846v-579h674v-55h-674v-607h879v-55h-940zM350 1563v53h617v-53h-617z" />
<glyph unicode="&#x113;" horiz-adv-x="1114" d="M109 512q0 250 123 391t341 141q206 0 322.5 -141.5t116.5 -384.5q0 -8 -1 -21t-1 -16h-840q8 -211 116.5 -329.5t297.5 -118.5q126 0 223 56.5t143 156.5l51 -27q-56 -114 -164 -176.5t-253 -62.5q-223 0 -349 141t-126 391zM170 537h784q-6 215 -104.5 334.5 t-276.5 119.5q-185 0 -291 -120t-112 -334zM258 1235v53h616v-53h-616z" />
<glyph unicode="&#x116;" horiz-adv-x="1218" d="M207 0v1352h907v-56h-846v-579h674v-55h-674v-607h879v-55h-940zM596 1614q0 28 17.5 44.5t45.5 16.5t45 -16.5t17 -44.5t-17 -45t-45 -17t-45.5 17t-17.5 45z" />
<glyph unicode="&#x117;" horiz-adv-x="1114" d="M109 512q0 250 123 391t341 141q206 0 322.5 -141.5t116.5 -384.5q0 -8 -1 -21t-1 -16h-840q8 -211 116.5 -329.5t297.5 -118.5q126 0 223 56.5t143 156.5l51 -27q-56 -114 -164 -176.5t-253 -62.5q-223 0 -349 141t-126 391zM170 537h784q-6 215 -104.5 334.5 t-276.5 119.5q-185 0 -291 -120t-112 -334zM504 1286q0 28 17.5 45t45.5 17t45 -17t17 -45t-17 -44.5t-45 -16.5t-45.5 16.5t-17.5 44.5z" />
<glyph unicode="&#x118;" horiz-adv-x="1218" d="M207 0v1352h907v-56h-846v-579h674v-55h-674v-607h879v-55q-147 -55 -206.5 -113t-59.5 -133q0 -61 40.5 -93t104.5 -32q84 0 131 37l17 -43q-57 -43 -152 -43q-85 0 -140 45t-55 125t52.5 140t175.5 110h-848z" />
<glyph unicode="&#x119;" horiz-adv-x="1114" d="M109 512q0 250 123 391t341 141q206 0 322.5 -141.5t116.5 -384.5q0 -8 -1 -21t-1 -16h-840q8 -211 116.5 -329.5t297.5 -118.5q126 0 223 56.5t143 156.5l51 -27q-79 -154 -243 -213q-129 -68 -181.5 -125t-52.5 -125q0 -61 41 -94t105 -33q82 0 129 37l16 -45 q-59 -41 -151 -41q-84 0 -138.5 45.5t-54.5 124.5q0 68 37.5 123t126.5 109q-16 -2 -51 -2q-223 0 -349 141t-126 391zM170 537h784q-6 215 -104.5 334.5t-276.5 119.5q-185 0 -291 -120t-112 -334z" />
<glyph unicode="&#x11a;" horiz-adv-x="1218" d="M207 0v1352h907v-56h-846v-579h674v-55h-674v-607h879v-55h-940zM397 1821h62l200 -258l203 258h60l-226 -301h-73z" />
<glyph unicode="&#x11b;" horiz-adv-x="1114" d="M109 512q0 250 123 391t341 141q206 0 322.5 -141.5t116.5 -384.5q0 -8 -1 -21t-1 -16h-840q8 -211 116.5 -329.5t297.5 -118.5q126 0 223 56.5t143 156.5l51 -27q-56 -114 -164 -176.5t-253 -62.5q-223 0 -349 141t-126 391zM170 537h784q-6 215 -104.5 334.5 t-276.5 119.5q-185 0 -291 -120t-112 -334zM307 1495h60l198 -256l199 256h59l-223 -301h-70z" />
<glyph unicode="&#x11e;" horiz-adv-x="1406" d="M121 676q0 319 165.5 507.5t440.5 188.5q414 0 528 -346l-55 -29q-99 320 -473 320q-246 0 -394.5 -173.5t-148.5 -467.5q0 -296 144.5 -468.5t392.5 -172.5q106 0 191.5 30t139 77.5t89.5 109.5t50.5 122.5t14.5 121.5v94h-479v57h539v-647h-54l-2 281 q-48 -142 -174 -221.5t-317 -79.5q-273 0 -435.5 188t-162.5 508zM457 1776h51q0 -94 57 -152.5t152 -58.5q94 0 150.5 58t56.5 153h53q0 -122 -69.5 -191t-190.5 -69t-190.5 69t-69.5 191z" />
<glyph unicode="&#x11f;" horiz-adv-x="1032" d="M70 -166q0 82 56 140.5t153 80.5q-69 24 -109.5 70.5t-40.5 105.5q0 75 54 127t143 70q-95 40 -148 115t-53 174q0 149 112 238t298 89q141 0 241 -53q8 101 72.5 161t167.5 60l16 -53q-97 0 -153 -51t-62 -143q123 -90 123 -248q0 -148 -110.5 -237t-294.5 -89 q-67 0 -125 12q-99 -9 -160.5 -54.5t-61.5 -108.5q0 -68 61.5 -110t176.5 -42h258q154 0 245 -63t91 -166q0 -133 -132 -216t-343 -83q-223 0 -349 75t-126 199zM129 -158q0 -104 112.5 -166.5t309.5 -62.5q180 0 296 66.5t116 170.5q0 84 -77 134.5t-212 50.5h-264 q-125 0 -203 -54t-78 -139zM186 717q0 -125 95 -200t254 -75q158 0 251 75t93 200q0 126 -93 200t-251 74q-160 0 -254.5 -74t-94.5 -200zM283 1448h51q0 -94 57 -152.5t152 -58.5q93 0 150 58.5t57 152.5h51q0 -121 -69 -190.5t-189 -69.5q-121 0 -190.5 69t-69.5 191z" />
<glyph unicode="&#x122;" horiz-adv-x="1406" d="M121 676q0 319 165.5 507.5t440.5 188.5q414 0 528 -346l-55 -29q-99 320 -473 320q-246 0 -394.5 -173.5t-148.5 -467.5q0 -296 144.5 -468.5t392.5 -172.5q106 0 191.5 30t139 77.5t89.5 109.5t50.5 122.5t14.5 121.5v94h-479v57h539v-647h-54l-2 281 q-48 -142 -174 -221.5t-317 -79.5q-273 0 -435.5 188t-162.5 508zM600 -473l100 330h66l-117 -330h-49z" />
<glyph unicode="&#x123;" horiz-adv-x="1032" d="M70 -166q0 82 56 140.5t153 80.5q-69 24 -109.5 70.5t-40.5 105.5q0 75 54 127t143 70q-95 40 -148 115t-53 174q0 149 112 238t298 89q141 0 241 -53q8 101 72.5 161t167.5 60l16 -53q-97 0 -153 -51t-62 -143q123 -90 123 -248q0 -148 -110.5 -237t-294.5 -89 q-67 0 -125 12q-99 -9 -160.5 -54.5t-61.5 -108.5q0 -68 61.5 -110t176.5 -42h258q154 0 245 -63t91 -166q0 -133 -132 -216t-343 -83q-223 0 -349 75t-126 199zM129 -158q0 -104 112.5 -166.5t309.5 -62.5q180 0 296 66.5t116 170.5q0 84 -77 134.5t-212 50.5h-264 q-125 0 -203 -54t-78 -139zM186 717q0 -125 95 -200t254 -75q158 0 251 75t93 200q0 126 -93 200t-251 74q-160 0 -254.5 -74t-94.5 -200zM508 1202l127 391h49l-109 -391h-67z" />
<glyph unicode="&#x12a;" horiz-adv-x="475" d="M14 1563v53h447v-53h-447zM207 0v1352h61v-1352h-61z" />
<glyph unicode="&#x12b;" horiz-adv-x="417" d="M41 1235v53h336v-53h-336zM178 0v1024h62v-1024h-62z" />
<glyph unicode="&#x12e;" horiz-adv-x="475" d="M12 -244q0 71 44.5 128.5t150.5 121.5v1346h61v-1352q-116 -74 -160.5 -125.5t-44.5 -112.5q0 -62 40 -97.5t100 -35.5q39 0 65 8.5t54 30.5l18 -43q-62 -45 -141 -45t-133 47.5t-54 128.5z" />
<glyph unicode="&#x12f;" horiz-adv-x="417" d="M6 -244q0 66 40 120.5t132 123.5v1024h62v-1024q-102 -79 -141.5 -129.5t-39.5 -112.5q0 -60 40.5 -95.5t99.5 -35.5q72 0 118 41l19 -43q-29 -26 -60 -35.5t-81 -9.5q-80 0 -134.5 47.5t-54.5 128.5zM145 1286q0 28 18 45t46 17t44.5 -17t16.5 -45t-16.5 -44.5 t-44.5 -16.5t-46 17t-18 44z" />
<glyph unicode="&#x130;" horiz-adv-x="475" d="M174 1614q0 27 18 44t46 17t44.5 -16.5t16.5 -44.5t-16.5 -45t-44.5 -17t-46 17t-18 45zM207 0v1352h61v-1352h-61z" />
<glyph unicode="&#x131;" horiz-adv-x="417" d="M178 0v1024h62v-1024h-62z" />
<glyph unicode="&#x132;" horiz-adv-x="1525" d="M207 0v1352h61v-1352h-61zM547 418l59 18q-26 -195 55.5 -298t260.5 -103q176 0 263 107.5t87 301.5v908h61v-916q0 -214 -106.5 -335t-304.5 -121q-205 0 -305 119t-70 319z" />
<glyph unicode="&#x133;" horiz-adv-x="833" d="M145 1286q0 28 18 45t46 17t44.5 -17t16.5 -45t-16.5 -44.5t-44.5 -16.5t-46 17t-18 44zM178 0v1024h62v-1024h-62zM219 -391l17 57q52 -49 141 -49q100 0 159.5 69.5t59.5 192.5v1145h61v-1149q0 -148 -78 -231.5t-202 -83.5q-100 0 -158 49zM563 1286q0 26 18 44t46 18 q26 0 43.5 -18t17.5 -44t-17.5 -43.5t-43.5 -17.5q-28 0 -46 17.5t-18 43.5z" />
<glyph unicode="&#x136;" horiz-adv-x="1185" d="M207 0v1352h61v-797l783 797h84l-533 -543l549 -809h-76l-518 764l-289 -295v-469h-61zM535 -473l100 330h65l-116 -330h-49z" />
<glyph unicode="&#x137;" horiz-adv-x="1026" d="M178 0v1495h62v-1094l659 623h84l-440 -414l452 -610h-75l-422 567l-258 -245v-322h-62zM496 -473l100 330h66l-117 -330h-49z" />
<glyph unicode="&#x139;" horiz-adv-x="1136" d="M207 0v1352h61v-1297h836v-55h-897zM217 1522l145 303h72l-164 -303h-53z" />
<glyph unicode="&#x13a;" horiz-adv-x="520" d="M170 227v1268h61v-1264q0 -103 34 -148.5t108 -45.5q67 0 125 24l-6 -57q-53 -24 -125 -24q-99 0 -148 59.5t-49 187.5zM176 1628l82 277h68l-99 -277h-51z" />
<glyph unicode="&#x13b;" horiz-adv-x="1136" d="M207 0v1352h61v-1297h836v-55h-897zM549 -473l100 330h66l-117 -330h-49z" />
<glyph unicode="&#x13c;" horiz-adv-x="516" d="M170 227v1268h61v-1264q0 -103 34 -148.5t108 -45.5q67 0 125 24l-6 -57q-53 -24 -125 -24q-99 0 -148 59.5t-49 187.5zM240 -473l100 330h66l-117 -330h-49z" />
<glyph unicode="&#x13d;" horiz-adv-x="1136" d="M207 0v1352h61v-1297h836v-55h-897zM502 1030l51 404h61l-65 -404h-47z" />
<glyph unicode="&#x13e;" horiz-adv-x="516" d="M170 227v1268h61v-1264q0 -103 34 -148.5t108 -45.5q67 0 125 24l-6 -57q-53 -24 -125 -24q-99 0 -148 59.5t-49 187.5zM397 1092l52 403h61l-66 -403h-47z" />
<glyph unicode="&#x13f;" horiz-adv-x="1177" d="M207 0v1352h61v-1297h836v-55h-897zM950 688q0 29 18.5 47.5t47.5 18.5q28 0 45.5 -18.5t17.5 -47.5q0 -28 -17.5 -45.5t-45.5 -17.5q-29 0 -47.5 17.5t-18.5 45.5z" />
<glyph unicode="&#x140;" horiz-adv-x="653" d="M170 227v1268h61v-1264q0 -103 34 -148.5t108 -45.5q67 0 125 24l-6 -57q-53 -24 -125 -24q-99 0 -148 59.5t-49 187.5zM465 735q0 29 18 47.5t47 18.5q28 0 46 -18.5t18 -47.5q0 -28 -18 -45.5t-46 -17.5q-29 0 -47 17.5t-18 45.5z" />
<glyph unicode="&#x141;" horiz-adv-x="1167" d="M29 428v68l209 129v727h61v-688l412 254v-70l-412 -254v-539h836v-55h-897v555z" />
<glyph unicode="&#x142;" horiz-adv-x="612" d="M39 530v64l199 137v764h61v-721l254 178v-65l-254 -176v-480q0 -103 34 -148.5t107 -45.5q70 0 125 24l-4 -57q-53 -24 -127 -24q-99 0 -147.5 59.5t-48.5 187.5v441z" />
<glyph unicode="&#x143;" horiz-adv-x="1439" d="M207 0v1352h80l815 -1166l74 -120l-2 137v1149h59v-1352h-80l-817 1165l-72 121h-2l4 -137v-1149h-59zM711 1522l145 303h72l-164 -303h-53z" />
<glyph unicode="&#x144;" horiz-adv-x="1196" d="M178 0v1024h58l2 -242q43 121 152 191.5t255 70.5q177 0 281 -98t104 -276v-670h-61v653q0 163 -89 250.5t-243 87.5q-167 0 -282 -112t-115 -279v-600h-62zM578 1194l170 309h67l-184 -309h-53z" />
<glyph unicode="&#x145;" horiz-adv-x="1439" d="M207 0v1352h80l815 -1166l74 -120l-2 137v1149h59v-1352h-80l-817 1165l-72 121h-2l4 -137v-1149h-59zM592 -473l100 330h66l-117 -330h-49z" />
<glyph unicode="&#x146;" horiz-adv-x="1196" d="M178 0v1024h58l2 -242q43 121 152 191.5t255 70.5q177 0 281 -98t104 -276v-670h-61v653q0 163 -89 250.5t-243 87.5q-167 0 -282 -112t-115 -279v-600h-62zM528 -473l101 330h65l-116 -330h-50z" />
<glyph unicode="&#x147;" horiz-adv-x="1439" d="M207 0v1352h80l815 -1166l74 -120l-2 137v1149h59v-1352h-80l-817 1165l-72 121h-2l4 -137v-1149h-59zM469 1821h61l201 -258l203 258h59l-225 -301h-74z" />
<glyph unicode="&#x148;" horiz-adv-x="1196" d="M178 0v1024h58l2 -242q43 121 152 191.5t255 70.5q177 0 281 -98t104 -276v-670h-61v653q0 163 -89 250.5t-243 87.5q-167 0 -282 -112t-115 -279v-600h-62zM352 1495h60l198 -256l199 256h59l-223 -301h-70z" />
<glyph unicode="&#x14c;" horiz-adv-x="1476" d="M121 676q0 321 166 508.5t452 187.5q285 0 452 -187.5t167 -508.5t-167 -508.5t-452 -187.5q-286 0 -452 187.5t-166 508.5zM184 676q0 -296 149 -468.5t406 -172.5q255 0 405 172.5t150 468.5t-150 468.5t-405 172.5q-257 0 -406 -172.5t-149 -468.5zM430 1563v53h617 v-53h-617z" />
<glyph unicode="&#x14d;" horiz-adv-x="1183" d="M109 512q0 249 129 390.5t354 141.5q224 0 352.5 -141.5t128.5 -390.5t-128.5 -390.5t-352.5 -141.5q-225 0 -354 141.5t-129 390.5zM170 512q0 -224 113 -351.5t309 -127.5q197 0 308.5 127.5t111.5 351.5t-111.5 351.5t-308.5 127.5q-196 0 -309 -127.5t-113 -351.5z M285 1235v53h616v-53h-616z" />
<glyph unicode="&#x150;" horiz-adv-x="1476" d="M121 676q0 321 166 508.5t452 187.5q285 0 452 -187.5t167 -508.5t-167 -508.5t-452 -187.5q-286 0 -452 187.5t-166 508.5zM184 676q0 -296 149 -468.5t406 -172.5q255 0 405 172.5t150 468.5t-150 468.5t-405 172.5q-257 0 -406 -172.5t-149 -468.5zM569 1522l148 303 h69l-163 -303h-54zM838 1522l145 303h72l-164 -303h-53z" />
<glyph unicode="&#x151;" horiz-adv-x="1183" d="M109 512q0 249 129 390.5t354 141.5q224 0 352.5 -141.5t128.5 -390.5t-128.5 -390.5t-352.5 -141.5q-225 0 -354 141.5t-129 390.5zM170 512q0 -224 113 -351.5t309 -127.5q197 0 308.5 127.5t111.5 351.5t-111.5 351.5t-308.5 127.5q-196 0 -309 -127.5t-113 -351.5z M397 1194l170 309h68l-184 -309h-54zM686 1194l170 309h68l-185 -309h-53z" />
<glyph unicode="&#x152;" horiz-adv-x="2164" d="M121 676q0 321 159 508.5t429 187.5q383 0 501 -336v316h848v-56h-790v-579h637v-55h-637v-607h825v-55h-883v317q-118 -337 -503 -337q-268 0 -427 188t-159 508zM184 676q0 -296 141.5 -468.5t383.5 -172.5q256 0 378.5 159.5t122.5 481.5t-122.5 481.5t-378.5 159.5 q-242 0 -383.5 -172.5t-141.5 -468.5z" />
<glyph unicode="&#x153;" horiz-adv-x="2021" d="M109 512q0 249 129.5 390.5t355.5 141.5q172 0 289 -85.5t161 -241.5q43 157 155.5 242t279.5 85q206 0 322 -141.5t116 -384.5q0 -29 -2 -37h-840q8 -211 116.5 -329.5t297.5 -118.5q126 0 223 56.5t143 156.5l52 -27q-56 -113 -164.5 -176t-253.5 -63 q-171 0 -285.5 85.5t-159.5 243.5q-44 -157 -161 -243t-289 -86q-226 0 -355.5 141.5t-129.5 390.5zM172 512q0 -224 112.5 -351.5t309.5 -127.5q195 0 307.5 127.5t112.5 351.5t-112.5 351.5t-307.5 127.5q-197 0 -309.5 -127.5t-112.5 -351.5zM1075 537h785 q-6 215 -104.5 334.5t-276.5 119.5q-186 0 -292 -120t-112 -334z" />
<glyph unicode="&#x154;" horiz-adv-x="1275" d="M207 0v1352h493q200 0 317.5 -100.5t117.5 -274.5q0 -151 -89 -247.5t-247 -119.5l401 -610h-72l-399 604q-10 -2 -29 -2h-432v-602h-61zM268 659h432q177 0 275 83.5t98 234.5q0 152 -98 235.5t-275 83.5h-432v-637zM592 1522l145 303h72l-164 -303h-53z" />
<glyph unicode="&#x155;" horiz-adv-x="731" d="M178 0v1024h53l7 -240q38 118 125.5 189t207.5 71q91 0 140 -43l-23 -53q-44 41 -131 41q-131 0 -224 -119.5t-93 -283.5v-586h-62zM377 1194l170 309h67l-184 -309h-53z" />
<glyph unicode="&#x156;" horiz-adv-x="1275" d="M207 0v1352h493q200 0 317.5 -100.5t117.5 -274.5q0 -151 -89 -247.5t-247 -119.5l401 -610h-72l-399 604q-10 -2 -29 -2h-432v-602h-61zM268 659h432q177 0 275 83.5t98 234.5q0 152 -98 235.5t-275 83.5h-432v-637zM575 -473l101 330h65l-116 -330h-50z" />
<glyph unicode="&#x157;" horiz-adv-x="731" d="M80 -473l100 330h66l-117 -330h-49zM178 0v1024h53l7 -240q38 118 125.5 189t207.5 71q91 0 140 -43l-23 -53q-44 41 -131 41q-131 0 -224 -119.5t-93 -283.5v-586h-62z" />
<glyph unicode="&#x158;" horiz-adv-x="1275" d="M207 0v1352h493q200 0 317.5 -100.5t117.5 -274.5q0 -151 -89 -247.5t-247 -119.5l401 -610h-72l-399 604q-10 -2 -29 -2h-432v-602h-61zM268 659h432q177 0 275 83.5t98 234.5q0 152 -98 235.5t-275 83.5h-432v-637zM350 1821h62l200 -258l203 258h59l-225 -301h-74z " />
<glyph unicode="&#x159;" horiz-adv-x="731" d="M152 1495h59l199 -256l198 256h60l-224 -301h-69zM178 0v1024h53l7 -240q38 118 125.5 189t207.5 71q91 0 140 -43l-23 -53q-44 41 -131 41q-131 0 -224 -119.5t-93 -283.5v-586h-62z" />
<glyph unicode="&#x15a;" d="M88 326l55 36q33 -161 166 -244t332 -83q190 0 312 79.5t122 219.5q0 121 -97.5 190.5t-334.5 108.5q-194 33 -306 80.5t-160 115t-48 170.5q0 156 132 264.5t353 108.5q394 0 502 -307l-53 -41q-45 150 -156.5 221.5t-290.5 71.5q-192 0 -307.5 -89t-115.5 -224 q0 -126 101 -195.5t363 -114.5t371 -127t109 -231q0 -158 -137.5 -257t-358.5 -99q-219 0 -365 88t-188 258zM590 1522l145 303h72l-164 -303h-53z" />
<glyph unicode="&#x15b;" horiz-adv-x="1003" d="M80 223l53 33q29 -108 128.5 -165.5t248.5 -57.5q154 0 243 61.5t89 163.5q0 87 -74 138.5t-258 82.5q-213 36 -299 100t-86 181q0 121 108 202.5t275 81.5q323 0 385 -253l-53 -31q-53 231 -332 231q-138 0 -230 -64t-92 -157q0 -96 76 -149.5t266 -85.5 q207 -35 291 -98t84 -177q0 -129 -108 -204.5t-293 -75.5q-160 0 -273 62.5t-149 180.5zM467 1194l170 309h68l-185 -309h-53z" />
<glyph unicode="&#x15e;" d="M88 326l55 36q33 -161 166 -244t332 -83q190 0 312 79.5t122 219.5q0 121 -97.5 190.5t-334.5 108.5q-194 33 -306 80.5t-160 115t-48 170.5q0 156 132 264.5t353 108.5q394 0 502 -307l-53 -41q-45 150 -156.5 221.5t-290.5 71.5q-192 0 -307.5 -89t-115.5 -224 q0 -126 101 -195.5t363 -114.5t371 -127t109 -231q0 -155 -133.5 -254t-348.5 -102q148 -86 148 -218q0 -79 -53 -130.5t-140 -51.5q-130 0 -198 84l24 43q64 -80 170 -80q62 0 102 39t40 101q0 61 -38.5 110t-140.5 105q-190 14 -317 101.5t-164 242.5z" />
<glyph unicode="&#x15f;" horiz-adv-x="1003" d="M80 223l53 33q29 -108 128.5 -165.5t248.5 -57.5q154 0 243 61.5t89 163.5q0 87 -74 138.5t-258 82.5q-213 36 -299 100t-86 181q0 121 108 202.5t275 81.5q323 0 385 -253l-53 -31q-53 231 -332 231q-138 0 -230 -64t-92 -157q0 -96 76 -149.5t266 -85.5 q207 -35 291 -98t84 -177q0 -120 -94.5 -193.5t-257.5 -84.5q151 -84 151 -220q0 -79 -53 -130.5t-139 -51.5q-131 0 -199 84l25 43q64 -80 170 -80q62 0 101.5 38.5t39.5 101.5q0 61 -37.5 108.5t-136.5 104.5q-151 6 -255.5 68t-137.5 175z" />
<glyph unicode="&#x160;" d="M88 326l55 36q33 -161 166 -244t332 -83q190 0 312 79.5t122 219.5q0 121 -97.5 190.5t-334.5 108.5q-194 33 -306 80.5t-160 115t-48 170.5q0 156 132 264.5t353 108.5q394 0 502 -307l-53 -41q-45 150 -156.5 221.5t-290.5 71.5q-192 0 -307.5 -89t-115.5 -224 q0 -126 101 -195.5t363 -114.5t371 -127t109 -231q0 -158 -137.5 -257t-358.5 -99q-219 0 -365 88t-188 258zM348 1821h62l200 -258l203 258h59l-225 -301h-74z" />
<glyph unicode="&#x161;" horiz-adv-x="1003" d="M80 223l53 33q29 -108 128.5 -165.5t248.5 -57.5q154 0 243 61.5t89 163.5q0 87 -74 138.5t-258 82.5q-213 36 -299 100t-86 181q0 121 108 202.5t275 81.5q323 0 385 -253l-53 -31q-53 231 -332 231q-138 0 -230 -64t-92 -157q0 -96 76 -149.5t266 -85.5 q207 -35 291 -98t84 -177q0 -129 -108 -204.5t-293 -75.5q-160 0 -273 62.5t-149 180.5zM242 1495h59l199 -256l198 256h60l-223 -301h-70z" />
<glyph unicode="&#x162;" horiz-adv-x="1140" d="M33 1296v56h1077v-56h-508v-1288q86 -55 125 -112.5t39 -131.5q0 -81 -53.5 -132.5t-141.5 -51.5q-125 0 -198 86l28 41q33 -40 71 -60t93 -20q66 0 106 39.5t40 102.5q0 70 -39 121t-131 110v1296h-508z" />
<glyph unicode="&#x163;" horiz-adv-x="722" d="M31 971v53h205v262l61 19v-281h393v-53h-393v-707q0 -229 201 -229q108 0 178 76l26 -50q-81 -81 -210 -81h-13q150 -93 150 -218q0 -79 -52.5 -130.5t-138.5 -51.5q-70 0 -116.5 19.5t-85.5 64.5l26 43q36 -42 75.5 -61t96.5 -19q62 0 100.5 38.5t38.5 101.5 q0 62 -40.5 113t-151.5 118q-142 53 -145 260v713h-205z" />
<glyph unicode="&#x164;" horiz-adv-x="1140" d="M33 1296v56h1077v-56h-508v-1296h-61v1296h-508zM309 1821h62l200 -258l203 258h60l-226 -301h-73z" />
<glyph unicode="&#x165;" horiz-adv-x="714" d="M31 971v53h205v262l61 19v-281h393v-53h-393v-707q0 -229 201 -229q108 0 178 76l26 -50q-81 -81 -210 -81q-124 0 -189.5 70t-66.5 208v713h-205zM475 1167l51 404h62l-66 -404h-47z" />
<glyph unicode="&#x16a;" horiz-adv-x="1411" d="M190 485v867h62v-856q0 -222 118 -341.5t335 -119.5t335.5 119.5t118.5 341.5v856h62v-867q0 -243 -135 -374t-381 -131q-245 0 -380 131t-135 374zM397 1563v53h617v-53h-617z" />
<glyph unicode="&#x16b;" horiz-adv-x="1179" d="M166 344v680h61v-668q0 -158 81.5 -240.5t230.5 -82.5q96 0 175 35.5t127 92t73.5 123t25.5 132.5v608h61v-1024h-57l-2 240q-43 -119 -153.5 -189.5t-260.5 -70.5q-169 0 -265.5 93.5t-96.5 270.5zM279 1235v53h616v-53h-616z" />
<glyph unicode="&#x16e;" horiz-adv-x="1411" d="M190 485v867h62v-856q0 -222 118 -341.5t335 -119.5t335.5 119.5t118.5 341.5v856h62v-867q0 -243 -135 -374t-381 -131q-245 0 -380 131t-135 374zM518 1509q0 77 53.5 129t135.5 52q81 0 133.5 -52t52.5 -129q0 -78 -52.5 -130t-133.5 -52q-83 0 -136 51.5t-53 130.5z M569 1509q0 -58 39.5 -97.5t98.5 -39.5q57 0 97 39.5t40 97.5q0 57 -40 96.5t-97 39.5q-58 0 -98 -39.5t-40 -96.5z" />
<glyph unicode="&#x16f;" horiz-adv-x="1179" d="M166 344v680h61v-668q0 -158 81.5 -240.5t230.5 -82.5q96 0 175 35.5t127 92t73.5 123t25.5 132.5v608h61v-1024h-57l-2 240q-43 -119 -153.5 -189.5t-260.5 -70.5q-169 0 -265.5 93.5t-96.5 270.5zM393 1360q0 77 54 128.5t135 51.5t133.5 -51.5t52.5 -128.5 q0 -78 -52.5 -130t-133.5 -52q-82 0 -135.5 52t-53.5 130zM444 1360q0 -58 39.5 -97.5t98.5 -39.5q58 0 97.5 39.5t39.5 97.5q0 57 -39.5 96t-97.5 39t-98 -39t-40 -96z" />
<glyph unicode="&#x170;" horiz-adv-x="1411" d="M190 485v867h62v-856q0 -222 118 -341.5t335 -119.5t335.5 119.5t118.5 341.5v856h62v-867q0 -243 -135 -374t-381 -131q-245 0 -380 131t-135 374zM541 1522l145 303h72l-164 -303h-53zM807 1522l145 303h72l-164 -303h-53z" />
<glyph unicode="&#x171;" horiz-adv-x="1179" d="M166 344v680h61v-668q0 -158 81.5 -240.5t230.5 -82.5q96 0 175 35.5t127 92t73.5 123t25.5 132.5v608h61v-1024h-57l-2 240q-43 -119 -153.5 -189.5t-260.5 -70.5q-169 0 -265.5 93.5t-96.5 270.5zM391 1194l170 309h68l-185 -309h-53zM680 1194l170 309h68l-185 -309 h-53z" />
<glyph unicode="&#x172;" horiz-adv-x="1411" d="M190 485v867h62v-856q0 -222 118 -341.5t335 -119.5t335.5 119.5t118.5 341.5v856h62v-867q0 -202 -95 -328t-270 -163q-125 -60 -176 -116t-51 -124q0 -61 40.5 -93t104.5 -32q90 0 137 37l17 -45q-59 -41 -158 -41q-86 0 -140.5 44.5t-54.5 125.5q0 70 41 125.5 t132 104.5h-43q-245 0 -380 131t-135 374z" />
<glyph unicode="&#x173;" horiz-adv-x="1179" d="M166 344v680h61v-668q0 -158 81 -240.5t229 -82.5q77 0 144.5 24t114 63.5t79.5 90.5t49 104.5t16 104.5v604h61v-1024q-140 -80 -192.5 -132.5t-52.5 -121.5q0 -57 38.5 -87t102.5 -30q83 0 129 37l18 -39q-57 -47 -151 -47q-86 0 -137 43t-51 117q0 81 53 139.5 t188 134.5l-4 230q-45 -118 -157 -191t-257 -73q-169 0 -265.5 93.5t-96.5 270.5z" />
<glyph unicode="&#x178;" horiz-adv-x="1075" d="M31 1352h71l265 -463l172 -299l434 762h71l-475 -828v-524h-61v524zM285 1606q0 27 17 44t44 17q28 0 45 -16.5t17 -44.5q0 -26 -17 -43t-45 -17q-26 0 -43.5 17t-17.5 43zM668 1606q0 28 16.5 44.5t42.5 16.5q28 0 44.5 -16.5t16.5 -44.5q0 -26 -17 -43t-44 -17 q-26 0 -42.5 17t-16.5 43z" />
<glyph unicode="&#x179;" horiz-adv-x="1165" d="M72 0v53l921 1243h-905v56h977v-54l-922 -1243h959v-55h-1030zM559 1522l146 303h71l-164 -303h-53z" />
<glyph unicode="&#x17a;" horiz-adv-x="995" d="M76 971v53h821v-49l-616 -782l-119 -140h764v-53h-838v49l647 815l92 107h-751zM459 1194l170 309h67l-184 -309h-53z" />
<glyph unicode="&#x17b;" horiz-adv-x="1165" d="M72 0v53l921 1243h-905v56h977v-54l-922 -1243h959v-55h-1030zM518 1614q0 27 18 44t46 17t44.5 -16.5t16.5 -44.5t-16.5 -45t-44.5 -17t-46 17t-18 45z" />
<glyph unicode="&#x17c;" horiz-adv-x="995" d="M76 971v53h821v-49l-616 -782l-119 -140h764v-53h-838v49l647 815l92 107h-751zM430 1286q0 28 18 45t46 17t44.5 -17t16.5 -45t-16.5 -44.5t-44.5 -16.5t-46 17t-18 44z" />
<glyph unicode="&#x17d;" horiz-adv-x="1165" d="M72 0v53l921 1243h-905v56h977v-54l-922 -1243h959v-55h-1030zM317 1821h62l201 -258l202 258h60l-226 -301h-73z" />
<glyph unicode="&#x17e;" horiz-adv-x="995" d="M76 971v53h821v-49l-616 -782l-119 -140h764v-53h-838v49l647 815l92 107h-751zM233 1495h60l199 -256l198 256h60l-224 -301h-69z" />
<glyph unicode="&#x17f;" horiz-adv-x="450" d="M170 0v1208q0 145 59 221t174 76q53 0 83.5 -12.5t56.5 -38.5l-17 -47q-26 24 -49.5 33.5t-64.5 9.5q-181 0 -181 -244v-1206h-61z" />
<glyph unicode="&#x192;" horiz-adv-x="856" d="M-90 -223l14 49q50 -33 125 -33q182 0 219 244l115 729h-315v53h323l62 391q23 151 89.5 223t182.5 72q85 0 141 -30l-8 -56q-57 31 -117 31q-95 0 -150.5 -59.5t-74.5 -182.5l-61 -389h336v-53h-345l-114 -733q-47 -295 -281 -295q-45 0 -75 8t-66 31z" />
<glyph unicode="&#x218;" d="M88 326l55 36q33 -161 166 -244t332 -83q190 0 312 79.5t122 219.5q0 121 -97.5 190.5t-334.5 108.5q-194 33 -306 80.5t-160 115t-48 170.5q0 156 132 264.5t353 108.5q394 0 502 -307l-53 -41q-45 150 -156.5 221.5t-290.5 71.5q-192 0 -307.5 -89t-115.5 -224 q0 -126 101 -195.5t363 -114.5t371 -127t109 -231q0 -158 -137.5 -257t-358.5 -99q-219 0 -365 88t-188 258zM516 -473l100 330h66l-117 -330h-49z" />
<glyph unicode="&#x219;" horiz-adv-x="1003" d="M80 223l53 33q29 -108 128.5 -165.5t248.5 -57.5q154 0 243 61.5t89 163.5q0 87 -74 138.5t-258 82.5q-213 36 -299 100t-86 181q0 121 108 202.5t275 81.5q323 0 385 -253l-53 -31q-53 231 -332 231q-138 0 -230 -64t-92 -157q0 -96 76 -149.5t266 -85.5 q207 -35 291 -98t84 -177q0 -129 -108 -204.5t-293 -75.5q-160 0 -273 62.5t-149 180.5zM387 -473l100 330h66l-117 -330h-49z" />
<glyph unicode="&#x21a;" horiz-adv-x="1140" d="M33 1296v56h1077v-56h-508v-1296h-61v1296h-508zM442 -473l101 330h65l-116 -330h-50z" />
<glyph unicode="&#x21b;" horiz-adv-x="714" d="M31 971v53h205v262l61 19v-281h393v-53h-393v-707q0 -229 201 -229q108 0 178 76l26 -50q-81 -81 -210 -81q-124 0 -189.5 70t-66.5 208v713h-205zM324 -473l100 330h65l-116 -330h-49z" />
<glyph unicode="&#x2c6;" horiz-adv-x="1103" d="M295 1190l221 303h72l223 -303h-61l-197 258l-199 -258h-59z" />
<glyph unicode="&#x2da;" horiz-adv-x="1103" d="M326 1360q0 77 53.5 128.5t134.5 51.5t133.5 -51.5t52.5 -128.5q0 -78 -52.5 -130t-133.5 -52t-134.5 52t-53.5 130zM377 1360q0 -58 39.5 -97.5t97.5 -39.5t97.5 39.5t39.5 97.5q0 57 -39.5 96t-97.5 39t-97.5 -39t-39.5 -96z" />
<glyph unicode="&#x2dc;" horiz-adv-x="1103" d="M182 1219q15 99 59.5 145.5t127.5 46.5q44 0 78.5 -14.5t57.5 -35t44.5 -40.5t50 -34.5t62.5 -14.5q62 0 91 34t44 107h53q-18 -99 -61 -145.5t-125 -46.5q-44 0 -79 14.5t-58 35t-45 40.5t-51 34.5t-64 14.5q-62 0 -90.5 -34t-43.5 -107h-51z" />
<glyph unicode="&#x2000;" horiz-adv-x="952" />
<glyph unicode="&#x2001;" horiz-adv-x="1905" />
<glyph unicode="&#x2002;" horiz-adv-x="952" />
<glyph unicode="&#x2003;" horiz-adv-x="1905" />
<glyph unicode="&#x2004;" horiz-adv-x="635" />
<glyph unicode="&#x2005;" horiz-adv-x="476" />
<glyph unicode="&#x2006;" horiz-adv-x="317" />
<glyph unicode="&#x2007;" horiz-adv-x="317" />
<glyph unicode="&#x2008;" horiz-adv-x="238" />
<glyph unicode="&#x2009;" horiz-adv-x="381" />
<glyph unicode="&#x200a;" horiz-adv-x="105" />
<glyph unicode="&#x2010;" horiz-adv-x="894" d="M150 518v62h598v-62h-598z" />
<glyph unicode="&#x2011;" horiz-adv-x="894" d="M150 518v62h598v-62h-598z" />
<glyph unicode="&#x2012;" horiz-adv-x="894" d="M150 518v62h598v-62h-598z" />
<glyph unicode="&#x2013;" horiz-adv-x="1271" d="M145 520v60h981v-60h-981z" />
<glyph unicode="&#x2014;" horiz-adv-x="1955" d="M145 520v60h1665v-60h-1665z" />
<glyph unicode="&#x2018;" horiz-adv-x="391" d="M111 1180q0 72 37 137t106 100l37 -31q-66 -27 -105.5 -93.5t-25.5 -121.5h4q13 23 41 23q23 0 40 -18t17 -46q0 -27 -18 -46t-47 -19q-40 0 -63 32t-23 83z" />
<glyph unicode="&#x2019;" horiz-adv-x="389" d="M109 1094q66 26 106.5 92t26.5 121l-6 2q-10 -23 -39 -23q-24 0 -41 18t-17 46q0 27 18.5 46t47.5 19q40 0 63 -32.5t23 -84.5q0 -71 -37.5 -135.5t-106.5 -101.5z" />
<glyph unicode="&#x201a;" horiz-adv-x="399" d="M100 -205q66 26 105.5 92t25.5 121l-4 2q-13 -22 -41 -22q-23 0 -40 17.5t-17 45.5q0 27 18.5 46.5t47.5 19.5q42 0 64 -32t22 -85q0 -71 -37.5 -136t-106.5 -102z" />
<glyph unicode="&#x201c;" horiz-adv-x="632" d="M109 1182q0 71 37 135.5t106 101.5l39 -33q-66 -26 -106.5 -91.5t-26.5 -120.5l6 -3q10 23 39 23q24 0 41.5 -18t17.5 -46q0 -27 -19 -46t-46 -19q-42 0 -65 32.5t-23 84.5zM350 1182q0 71 37.5 135.5t106.5 101.5l38 -33q-66 -26 -106.5 -91.5t-26.5 -120.5l7 -3 q10 23 38 23q24 0 42 -18t18 -46q0 -26 -19 -45.5t-47 -19.5q-42 0 -65 32.5t-23 84.5z" />
<glyph unicode="&#x201d;" horiz-adv-x="630" d="M109 1094q66 26 106.5 92t26.5 121l-6 2q-10 -23 -39 -23q-24 0 -42 18t-18 46q0 27 19.5 46t48.5 19q40 0 63 -32.5t23 -84.5q0 -71 -37.5 -135.5t-106.5 -101.5zM350 1094q66 26 106.5 92t26.5 121l-6 2q-10 -23 -39 -23q-24 0 -41.5 18t-17.5 46q0 27 19 46t48 19 q40 0 63 -32.5t23 -84.5q0 -71 -37 -135.5t-106 -101.5z" />
<glyph unicode="&#x201e;" horiz-adv-x="638" d="M100 -205q66 26 105.5 92t25.5 121l-4 2q-13 -22 -41 -22q-23 0 -40 17.5t-17 45.5q0 27 18.5 46.5t47.5 19.5q42 0 64 -32t22 -85q0 -71 -37.5 -136t-106.5 -102zM340 -205q66 26 106.5 92t26.5 121l-6 2q-9 -22 -39 -22q-24 0 -40.5 17.5t-16.5 45.5q0 27 18.5 46.5 t46.5 19.5q40 0 63 -32.5t23 -84.5q0 -71 -37 -136t-106 -102z" />
<glyph unicode="&#x2020;" horiz-adv-x="1044" d="M96 872v52h396v428h61v-428h395v-52h-395v-1077h-61v1077h-396z" />
<glyph unicode="&#x2021;" horiz-adv-x="1044" d="M96 223v51h396v598h-396v52h396v428h61v-428h395v-52h-395v-598h395v-51h-395v-428h-61v428h-396z" />
<glyph unicode="&#x2022;" horiz-adv-x="880" d="M289 694q0 65 42.5 107.5t108.5 42.5t109 -42.5t43 -107.5q0 -66 -43 -108.5t-109 -42.5t-108.5 42.5t-42.5 108.5z" />
<glyph unicode="&#x2026;" d="M143 51q0 29 17.5 47.5t46.5 18.5t46 -18t17 -48q0 -28 -17 -45.5t-46 -17.5t-46.5 17.5t-17.5 45.5zM553 51q0 29 18 47.5t47 18.5t46.5 -18.5t17.5 -47.5q0 -28 -17.5 -45.5t-46.5 -17.5t-47 17.5t-18 45.5zM965 51q0 29 18 47.5t47 18.5t46.5 -18.5t17.5 -47.5 q0 -28 -17.5 -45.5t-46.5 -17.5t-47 17.5t-18 45.5z" />
<glyph unicode="&#x202f;" horiz-adv-x="381" />
<glyph unicode="&#x2030;" horiz-adv-x="2332" d="M80 1006q0 150 75.5 250t219.5 100q96 0 163 -49.5t97.5 -127t30.5 -173.5q0 -95 -30.5 -172t-97.5 -126t-163 -49q-143 0 -219 99.5t-76 247.5zM137 1006q0 -129 60.5 -212t177.5 -83q116 0 174.5 82.5t58.5 212.5t-59.5 214.5t-173.5 84.5q-117 0 -177.5 -84.5 t-60.5 -214.5zM311 0l903 1352h64l-903 -1352h-64zM924 342q0 149 76 249.5t219 100.5q97 0 164.5 -49.5t97.5 -126.5t30 -174q0 -148 -74.5 -247t-217.5 -99q-142 0 -218.5 99.5t-76.5 246.5zM981 342q0 -129 61 -212t177 -83t175.5 83t59.5 212q0 130 -59.5 214.5 t-175.5 84.5q-117 0 -177.5 -84.5t-60.5 -214.5zM1665 342q0 150 75.5 250t219.5 100q96 0 163.5 -49.5t97.5 -126.5t30 -174q0 -148 -74 -247t-217 -99t-219 99t-76 247zM1722 342q0 -129 60.5 -212t177.5 -83q116 0 174.5 82.5t58.5 212.5t-59 214.5t-174 84.5 q-118 0 -178 -84.5t-60 -214.5z" />
<glyph unicode="&#x2039;" horiz-adv-x="559" d="M96 543l287 401h74l-291 -401l291 -402h-74z" />
<glyph unicode="&#x203a;" horiz-adv-x="559" d="M102 141l291 402l-291 401h74l287 -401l-287 -402h-74z" />
<glyph unicode="&#x2044;" horiz-adv-x="434" d="M-295 0l959 1352h65l-958 -1352h-66z" />
<glyph unicode="&#x205f;" horiz-adv-x="476" />
<glyph unicode="&#x2070;" horiz-adv-x="749" d="M76 1087q0 203 76.5 310.5t222.5 107.5t222.5 -107.5t76.5 -310.5t-76.5 -310t-222.5 -107t-222.5 107t-76.5 310zM133 1087q0 -180 62.5 -275t179.5 -95q118 0 179.5 95t61.5 275q0 181 -61.5 276t-179.5 95q-117 0 -179.5 -95.5t-62.5 -275.5z" />
<glyph unicode="&#x2074;" horiz-adv-x="686" d="M29 918v38l389 539h67v-532h162v-45h-162v-236h-51v236h-405zM86 963h348v378q0 68 2 103h-4q-42 -64 -65 -96z" />
<glyph unicode="&#x2075;" horiz-adv-x="688" d="M70 864l51 25q31 -168 227 -168q97 0 157 58.5t60 152.5q0 96 -57.5 153.5t-153.5 57.5q-81 0 -130.5 -23.5t-82.5 -70.5h-49l39 446h457v-49h-412l-26 -283q0 -5 -9 -57h2q69 82 222 82q115 0 186.5 -71t71.5 -185q0 -118 -75.5 -189t-197.5 -71q-227 0 -280 192z" />
<glyph unicode="&#x2076;" horiz-adv-x="708" d="M78 1087q0 201 86 309.5t225 108.5q176 0 234 -157l-45 -21q-50 131 -191 131q-67 0 -118.5 -32.5t-81 -88t-44 -122.5t-14.5 -142q0 -45 6 -86h2q13 89 81.5 141t162.5 52q121 0 190.5 -68.5t69.5 -185.5q0 -119 -70.5 -187.5t-195.5 -68.5q-145 0 -221 107.5t-76 309.5 zM158 926q0 -88 62 -148.5t155 -60.5q99 0 155 56t56 153q0 94 -56.5 150.5t-150.5 56.5q-97 0 -159 -63t-62 -144z" />
<glyph unicode="&#x2077;" horiz-adv-x="610" d="M10 1446v49h582v-49q-311 -333 -311 -764h-56q0 432 305 764h-520z" />
<glyph unicode="&#x2078;" horiz-adv-x="724" d="M74 895q0 79 50.5 135t137.5 76v2q-72 20 -112.5 70t-40.5 120q0 94 68.5 150.5t184.5 56.5q115 0 184.5 -56.5t69.5 -150.5q0 -70 -40 -120t-111 -70v-2q86 -20 136 -76t50 -135q0 -101 -80 -163t-209 -62t-208.5 62t-79.5 163zM131 899q0 -82 63.5 -132t167.5 -50 q103 0 167.5 50.5t64.5 131.5q0 82 -64.5 133t-167.5 51t-167 -51t-64 -133zM166 1294q0 -73 54 -118.5t142 -45.5q89 0 143 45.5t54 118.5q0 74 -54 119t-143 45t-142.5 -45t-53.5 -119z" />
<glyph unicode="&#x2079;" horiz-adv-x="731" d="M76 1251q0 117 74 185.5t200 68.5q145 0 224 -110.5t79 -307.5q0 -199 -81.5 -308t-221.5 -109q-105 0 -175 46.5t-95 129.5l51 24q16 -72 70.5 -112.5t148.5 -40.5q66 0 116.5 31.5t79 85t42.5 116.5t14 133q0 49 -12 127h-2q-1 -93 -76 -154t-166 -61q-125 0 -197.5 70 t-72.5 186zM133 1251q0 -93 59 -151t156 -58q92 0 154.5 63t62.5 144q0 90 -60 149.5t-153 59.5q-100 0 -159.5 -57t-59.5 -150z" />
<glyph unicode="&#x207a;" horiz-adv-x="681" d="M68 1067v45h247v250h52v-250h245v-45h-245v-250h-52v250h-247z" />
<glyph unicode="&#x207c;" horiz-adv-x="794" d="M125 950v47h545v-47h-545zM125 1184v45h545v-45h-545z" />
<glyph unicode="&#x207d;" horiz-adv-x="405" d="M147 1087q0 174 63.5 321.5t180.5 256.5l31 -29q-109 -115 -164 -247.5t-55 -301.5t55 -300t164 -246l-31 -31q-244 227 -244 577z" />
<glyph unicode="&#x207e;" horiz-adv-x="405" d="M-16 541q108 115 162.5 246t54.5 300q0 170 -54.5 302.5t-162.5 246.5l30 29q116 -109 179 -256.5t63 -321.5t-63 -321t-179 -256z" />
<glyph unicode="&#x2080;" horiz-adv-x="749" d="M76 18q0 203 76.5 310.5t222.5 107.5t222.5 -107.5t76.5 -310.5t-76.5 -310t-222.5 -107t-222.5 107t-76.5 310zM133 18q0 -180 62.5 -275t179.5 -95q118 0 179.5 95t61.5 275q0 181 -61.5 276t-179.5 95q-117 0 -179.5 -95.5t-62.5 -275.5z" />
<glyph unicode="&#x2081;" horiz-adv-x="419" d="M23 211v49q62 20 131.5 66.5t99.5 99.5h49v-813h-57v608q0 90 4 137q-77 -95 -227 -147z" />
<glyph unicode="&#x2082;" horiz-adv-x="690" d="M61 182q8 115 81 184.5t194 69.5q122 0 192 -67.5t70 -180.5q0 -166 -260 -374q-128 -107 -184 -152v-2h69h404v-47h-551v45q20 16 225 186q75 62 124.5 114.5t81.5 112.5t32 117q0 91 -55 145t-150 54q-99 0 -157 -58.5t-64 -160.5z" />
<glyph unicode="&#x2083;" horiz-adv-x="651" d="M33 -211l51 27q37 -166 225 -166q93 0 150 48t57 134q0 79 -51 123.5t-148 44.5h-51v45h49q86 0 133.5 48t47.5 122q0 80 -50 126t-139 46q-79 0 -131 -38t-67 -105l-52 22q23 78 91 124t161 46q114 0 180 -60.5t66 -156.5q0 -75 -41.5 -125.5t-112.5 -68.5v-5 q75 -8 123.5 -61t48.5 -131q0 -103 -75 -165t-191 -62q-109 0 -178 48.5t-96 139.5z" />
<glyph unicode="&#x2084;" horiz-adv-x="686" d="M29 -113l389 539h67v-532h162v-46h-162v-235h-51v235h-405v39zM86 -106h348v378q0 68 2 103h-4q-42 -64 -65 -96z" />
<glyph unicode="&#x2085;" horiz-adv-x="688" d="M70 -205l51 25q31 -168 227 -168q97 0 157 58.5t60 152.5q0 96 -57.5 153.5t-153.5 57.5q-81 0 -130.5 -23.5t-82.5 -70.5h-49l39 446h457v-49h-412l-26 -283q0 -5 -9 -57h2q69 82 222 82q115 0 186.5 -71t71.5 -185q0 -118 -75.5 -189t-197.5 -71q-227 0 -280 192z" />
<glyph unicode="&#x2086;" horiz-adv-x="708" d="M78 18q0 201 86 309.5t225 108.5q176 0 234 -157l-45 -21q-50 131 -191 131q-67 0 -118.5 -32.5t-81 -88t-44 -122.5t-14.5 -142q0 -45 6 -86h2q13 89 81.5 141t162.5 52q121 0 190.5 -68.5t69.5 -185.5q0 -119 -70.5 -187.5t-195.5 -68.5q-145 0 -221 107.5t-76 309.5z M158 -143q0 -88 62 -148.5t155 -60.5q99 0 155 56t56 153q0 94 -56.5 150t-150.5 56q-97 0 -159 -62.5t-62 -143.5z" />
<glyph unicode="&#x2087;" horiz-adv-x="610" d="M10 377v49h582v-49q-311 -333 -311 -764h-56q0 432 305 764h-520z" />
<glyph unicode="&#x2088;" horiz-adv-x="724" d="M74 -174q0 79 50.5 135t137.5 76v2q-72 20 -112.5 70t-40.5 120q0 94 68.5 150.5t184.5 56.5q115 0 184.5 -56.5t69.5 -150.5q0 -70 -40 -120t-111 -70v-2q86 -20 136 -76t50 -135q0 -101 -80 -163t-209 -62t-208.5 62t-79.5 163zM131 -170q0 -82 63.5 -132t167.5 -50 q103 0 167.5 50.5t64.5 131.5q0 82 -64.5 133t-167.5 51t-167 -51t-64 -133zM166 225q0 -73 54 -118.5t142 -45.5q89 0 143 45.5t54 118.5q0 74 -54 119t-143 45t-142.5 -45t-53.5 -119z" />
<glyph unicode="&#x2089;" horiz-adv-x="731" d="M76 182q0 117 74 185.5t200 68.5q145 0 224 -110.5t79 -307.5q0 -199 -81.5 -308t-221.5 -109q-105 0 -175 46.5t-95 129.5l51 24q16 -72 70.5 -112.5t148.5 -40.5q66 0 116.5 31.5t79 85t42.5 116.5t14 133q0 49 -12 127h-2q-1 -93 -76 -154t-166 -61q-125 0 -197.5 70 t-72.5 186zM133 182q0 -93 59 -151t156 -58q92 0 154.5 63t62.5 144q0 90 -60 149.5t-153 59.5q-100 0 -159.5 -57t-59.5 -150z" />
<glyph unicode="&#x208a;" horiz-adv-x="681" d="M68 -2v45h247v250h52v-250h245v-45h-245v-250h-52v250h-247z" />
<glyph unicode="&#x208c;" horiz-adv-x="794" d="M125 -72h545v-47h-545v47zM125 115v45h545v-45h-545z" />
<glyph unicode="&#x208d;" horiz-adv-x="405" d="M147 18q0 174 63.5 321.5t180.5 256.5l31 -29q-109 -115 -164 -247.5t-55 -301.5t55 -301t164 -247l-31 -29q-244 227 -244 577z" />
<glyph unicode="&#x208e;" horiz-adv-x="405" d="M-16 -530q109 115 164 247t55 301t-55 301.5t-164 247.5l30 29q117 -109 180.5 -256.5t63.5 -321.5q0 -350 -244 -577z" />
<glyph unicode="&#x20ac;" horiz-adv-x="1349" d="M84 494v53h178q-6 61 -6 129q0 64 6 125h-178v53h184q37 246 174 382t353 136q164 0 276.5 -75.5t161.5 -221.5l-51 -31q-44 135 -142 205t-243 70q-187 0 -309.5 -122.5t-157.5 -342.5h575l-24 -53h-557q-7 -72 -7 -125q0 -57 7 -129h499l-24 -53h-467 q35 -219 156.5 -340t308.5 -121q139 0 249 87.5t150 248.5l55 -23q-48 -176 -172.5 -271t-281.5 -95q-216 0 -353.5 134.5t-175.5 379.5h-184z" />
<glyph unicode="&#x2122;" horiz-adv-x="1583" d="M74 1305v47h555v-47h-248v-629h-57v629h-250zM754 676v676h65l246 -568l20 -51l19 51l246 568h65v-676h-57v502l8 92h-2l-16 -49l-240 -545h-49l-238 545l-16 49h-2l6 -92v-502h-55z" />
<glyph unicode="&#x25ca;" horiz-adv-x="1021" d="M88 676l383 676h78l387 -676l-387 -676h-78zM158 676l352 -631l356 631l-356 631z" />
<glyph unicode="&#x25fc;" horiz-adv-x="1024" d="M0 0v1024h1024v-1024h-1024z" />
<glyph unicode="&#x275b;" horiz-adv-x="1402" d="M109 557q0 92 12 174t44.5 169t83.5 157.5t134 132.5t191 101.5t260.5 57t336.5 5.5l41 -60q-224 17 -398.5 -11.5t-277 -80.5t-177.5 -138t-107 -157t-59 -166l16 -10q178 236 541 236q164 0 289.5 -53.5t200.5 -164.5t75 -268q0 -246 -150 -373.5t-436 -127.5 q-162 0 -284 44.5t-194 124t-107 182t-35 226.5z" />
<glyph unicode="&#x275c;" horiz-adv-x="1402" d="M90 604q0 247 149.5 374.5t436.5 127.5q162 0 283.5 -44.5t193.5 -124.5t106.5 -182t34.5 -227q0 -92 -12 -174t-44.5 -169t-83.5 -157.5t-134 -132t-191.5 -101t-261 -57t-336.5 -5.5l-38 59q224 -17 398 11.5t276.5 80.5t177.5 138t107 157.5t58 165.5l-16 10 q-178 -235 -541 -235q-162 0 -287.5 53t-200.5 164.5t-75 267.5z" />
<glyph unicode="&#x275d;" horiz-adv-x="2508" d="M109 557q0 92 12 174t44.5 169t83.5 157.5t134 132.5t191 101.5t260.5 57t336.5 5.5l41 -60q-224 17 -398.5 -11.5t-277 -80.5t-177.5 -138t-107 -157t-59 -166l16 -10q178 236 541 236q159 0 285 -53t198 -154q19 107 60.5 196t122 171t193.5 135.5t283.5 79.5t384.5 12 l39 -60q-224 17 -398 -11.5t-277 -80.5t-178 -138t-107 -157.5t-58 -165.5l17 -10q178 236 540 236q162 0 288 -53t202 -165t76 -268q0 -247 -150.5 -374t-437.5 -127q-215 0 -353 74.5t-204 207.5q-115 -282 -547 -282q-162 0 -284 44.5t-194 124t-107 182t-35 226.5z" />
<glyph unicode="&#x275e;" horiz-adv-x="2508" d="M88 604q0 247 150.5 374.5t437.5 127.5q417 0 557 -283q57 140 196 211.5t353 71.5q162 0 283.5 -44.5t193.5 -124.5t106.5 -182t34.5 -227q0 -92 -12 -174t-44.5 -169t-83.5 -157.5t-134 -132t-191.5 -101t-261 -57t-336.5 -5.5l-41 59q224 -17 398.5 11.5t277.5 80.5 t178 138t107 157t59 166l-16 10q-178 -235 -541 -235q-159 0 -284.5 52.5t-198.5 152.5q-14 -75 -38.5 -141t-67 -130.5t-100 -116.5t-139.5 -95.5t-182 -70.5t-232 -37.5t-286 -0.5l-38 59q224 -17 398 11.5t276.5 80.5t177.5 138t107 157.5t58 165.5l-16 10 q-178 -235 -541 -235q-163 0 -288.5 53t-201 164.5t-75.5 267.5z" />
<glyph unicode="&#x2761;" horiz-adv-x="1120" d="M66 922q0 193 134.5 311.5t354.5 118.5h395v-1340q0 -223 -108 -337.5t-338 -114.5q-180 0 -260 94t-45 235l49 13q-33 -124 30 -207.5t181 -83.5q102 0 153.5 63t51.5 183v635h-109q-220 0 -354.5 118.5t-134.5 311.5zM127 922q0 -171 116.5 -274t311.5 -103h109v753 h-109q-195 0 -311.5 -102.5t-116.5 -273.5zM596 -391l2 -4q158 31 226.5 131.5t68.5 267.5v1294h-176v-1454q0 -82 -31 -146t-90 -89z" />
<glyph unicode="&#x2780;" horiz-adv-x="1863" d="M182 676q0 219 95 391.5t266.5 269.5t388.5 97t388 -97t266 -269.5t95 -391.5t-95 -391.5t-266 -269.5t-388 -97t-388.5 97t-266.5 269.5t-95 391.5zM238 676q0 -205 88.5 -366.5t247 -252t358.5 -90.5t358.5 90.5t247 252t88.5 366.5q0 204 -88.5 366t-246.5 252 t-359 90t-359 -90t-246.5 -252t-88.5 -366zM713 877v49q62 20 131.5 66.5t99.5 99.5h49v-813h-57v608q0 90 4 137q-77 -95 -227 -147z" />
<glyph unicode="&#x2781;" horiz-adv-x="1863" d="M182 676q0 219 95 391.5t266.5 269.5t388.5 97t388 -97t266 -269.5t95 -391.5t-95 -391.5t-266 -269.5t-388 -97t-388.5 97t-266.5 269.5t-95 391.5zM238 676q0 -205 88.5 -366.5t247 -252t358.5 -90.5t358.5 90.5t247 252t88.5 366.5q0 204 -88.5 366t-246.5 252 t-359 90t-359 -90t-246.5 -252t-88.5 -366zM653 868q8 115 81 184.5t194 69.5q122 0 192 -67.5t70 -180.5q0 -166 -260 -374q-103 -87 -185 -152v-2h70h404v-47h-551v45q19 16 225 186q115 95 176 177.5t61 166.5q0 91 -54.5 145t-149.5 54q-99 0 -157 -58.5t-64 -160.5z " />
<glyph unicode="&#x2782;" horiz-adv-x="1863" d="M182 676q0 219 95 391.5t266.5 269.5t388.5 97t388 -97t266 -269.5t95 -391.5t-95 -391.5t-266 -269.5t-388 -97t-388.5 97t-266.5 269.5t-95 391.5zM238 676q0 -205 88.5 -366.5t247 -252t358.5 -90.5t358.5 90.5t247 252t88.5 366.5q0 204 -88.5 366t-246.5 252 t-359 90t-359 -90t-246.5 -252t-88.5 -366zM662 449l51 26q37 -166 225 -166q93 0 150 48.5t57 134.5q0 79 -51 123t-148 44h-51v46h49q86 0 133 47.5t47 121.5q0 80 -49.5 126.5t-138.5 46.5q-79 0 -131.5 -38.5t-67.5 -105.5l-51 23q23 78 91 124t161 46q114 0 180 -60.5 t66 -156.5q0 -75 -41.5 -126t-112.5 -69v-4q75 -8 123.5 -61.5t48.5 -131.5q0 -103 -75 -165t-191 -62q-109 0 -178 49t-96 140z" />
<glyph unicode="&#x2783;" horiz-adv-x="1863" d="M182 676q0 219 95 391.5t266.5 269.5t388.5 97t388 -97t266 -269.5t95 -391.5t-95 -391.5t-266 -269.5t-388 -97t-388.5 97t-266.5 269.5t-95 391.5zM238 676q0 -205 88.5 -366.5t247 -252t358.5 -90.5t358.5 90.5t247 252t88.5 366.5q0 204 -88.5 366t-246.5 252 t-359 90t-359 -90t-246.5 -252t-88.5 -366zM580 514v39l389 539h67v-533h162v-45h-162v-235h-51v235h-405zM637 559h348v379q0 67 2 102h-4q-42 -64 -65 -96z" />
<glyph unicode="&#x2784;" horiz-adv-x="1863" d="M182 676q0 219 95 391.5t266.5 269.5t388.5 97t388 -97t266 -269.5t95 -391.5t-95 -391.5t-266 -269.5t-388 -97t-388.5 97t-266.5 269.5t-95 391.5zM238 676q0 -205 88.5 -366.5t247 -252t358.5 -90.5t358.5 90.5t247 252t88.5 366.5q0 204 -88.5 366t-246.5 252 t-359 90t-359 -90t-246.5 -252t-88.5 -366zM651 446l51 25q31 -168 228 -168q97 0 157 58.5t60 152.5q0 96 -57.5 153.5t-153.5 57.5q-81 0 -130.5 -23.5t-82.5 -70.5h-49l39 446h456v-49h-411l-27 -283q-1 -14 -8 -57h2q69 82 221 82q115 0 186.5 -71t71.5 -185 q0 -118 -75 -189t-197 -71q-228 0 -281 192z" />
<glyph unicode="&#x2785;" horiz-adv-x="1863" d="M182 676q0 219 95 391.5t266.5 269.5t388.5 97t388 -97t266 -269.5t95 -391.5t-95 -391.5t-266 -269.5t-388 -97t-388.5 97t-266.5 269.5t-95 391.5zM238 676q0 -205 88.5 -366.5t247 -252t358.5 -90.5t358.5 90.5t247 252t88.5 366.5q0 204 -88.5 366t-246.5 252 t-359 90t-359 -90t-246.5 -252t-88.5 -366zM633 678q0 201 86 309.5t225 108.5q176 0 234 -158l-45 -20q-50 131 -191 131q-67 0 -118.5 -32.5t-81 -88t-44 -122.5t-14.5 -142q0 -46 6 -86h2q13 89 81 140.5t163 51.5q121 0 190.5 -68.5t69.5 -185.5q0 -119 -70.5 -187.5 t-195.5 -68.5q-145 0 -221 108t-76 310zM713 516q0 -88 62 -148.5t155 -60.5q99 0 155 56t56 153q0 94 -56.5 150.5t-150.5 56.5q-97 0 -159 -63t-62 -144z" />
<glyph unicode="&#x2786;" horiz-adv-x="1863" d="M182 676q0 219 95 391.5t266.5 269.5t388.5 97t388 -97t266 -269.5t95 -391.5t-95 -391.5t-266 -269.5t-388 -97t-388.5 97t-266.5 269.5t-95 391.5zM238 676q0 -205 88.5 -366.5t247 -252t358.5 -90.5t358.5 90.5t247 252t88.5 366.5q0 204 -88.5 366t-246.5 252 t-359 90t-359 -90t-246.5 -252t-88.5 -366zM647 1010v49h582v-49q-311 -333 -311 -764h-56q0 432 305 764h-520z" />
<glyph unicode="&#x2787;" horiz-adv-x="1863" d="M182 676q0 219 95 391.5t266.5 269.5t388.5 97t388 -97t266 -269.5t95 -391.5t-95 -391.5t-266 -269.5t-388 -97t-388.5 97t-266.5 269.5t-95 391.5zM238 676q0 -205 88.5 -366.5t247 -252t358.5 -90.5t358.5 90.5t247 252t88.5 366.5q0 204 -88.5 366t-246.5 252 t-359 90t-359 -90t-246.5 -252t-88.5 -366zM643 485q0 79 50.5 135t137.5 76v2q-72 20 -112.5 70.5t-40.5 120.5q0 94 68.5 150.5t185.5 56.5q115 0 184.5 -56.5t69.5 -150.5q0 -70 -40.5 -120.5t-111.5 -70.5v-2q86 -21 136.5 -76.5t50.5 -134.5q0 -101 -80 -163t-209 -62 t-209 62t-80 163zM700 489q0 -82 64 -132t168 -50q103 0 167 50t64 132t-64 133.5t-167 51.5t-167.5 -51.5t-64.5 -133.5zM735 885q0 -73 54 -118.5t143 -45.5q88 0 142 45.5t54 118.5q0 74 -53.5 119t-142.5 45t-143 -45t-54 -119z" />
<glyph unicode="&#x2788;" horiz-adv-x="1863" d="M182 676q0 219 95 391.5t266.5 269.5t388.5 97t388 -97t266 -269.5t95 -391.5t-95 -391.5t-266 -269.5t-388 -97t-388.5 97t-266.5 269.5t-95 391.5zM238 676q0 -205 88.5 -366.5t247 -252t358.5 -90.5t358.5 90.5t247 252t88.5 366.5q0 204 -88.5 366t-246.5 252 t-359 90t-359 -90t-246.5 -252t-88.5 -366zM655 842q0 117 74.5 185.5t200.5 68.5q145 0 224 -110.5t79 -307.5q0 -200 -81.5 -309t-221.5 -109q-105 0 -175.5 46.5t-95.5 129.5l52 25q16 -72 70.5 -113t148.5 -41q66 0 116.5 32t79 85.5t42.5 116.5t14 133q0 42 -13 127h-2 q-1 -63 -38 -113.5t-91 -76t-112 -25.5q-125 0 -198 70t-73 186zM713 842q0 -93 59 -151t156 -58q92 0 154.5 63t62.5 144q0 90 -60 149.5t-153 59.5q-100 0 -159.5 -57t-59.5 -150z" />
<glyph unicode="&#xf8ff;" horiz-adv-x="2314" d="M47 424q0 26 19 44.5t45 18.5h6q83 52 151 162.5t68 206.5l-12 121l82 -37l-15 119l84 -47v116l88 -65v115l88 -58l6 119l86 -72l15 121l86 -78l12 113l90 -76l31 117l74 -86l26 108l78 -88l35 107l65 -94l50 102l65 -92l64 113l55 -121l78 100l41 -119l88 109l20 -131 l117 94l-16 -133l131 70l-45 -123l129 32l-54 -96l131 8l-73 -82h143l-98 -100h145l-102 -80l114 -26l-110 -68l119 -39l-115 -51l100 -62l-110 -41l96 -49l-109 -41l86 -59l-124 -20l77 -70l-135 -6l72 -66l-125 -8q-31 -20 -57 -31v-166q0 -59 -60 -59h-94q-59 0 -59 47 q0 51 59 51h23v80q-57 -13 -136 -20v-99q0 -59 -59 -59h-94q-60 0 -60 47q0 51 60 51h22v56h-463v-95q0 -59 -59 -59h-94q-62 0 -62 47q0 51 62 51h24v56h-180v-95q0 -59 -61 -59h-90q-64 0 -64 47q0 51 64 51h20v76q-147 6 -282 56.5t-211 129.5q-26 2 -44 20t-18 44z M328 616q0 -49 29 -78.5t77 -29.5q46 0 75 29t30 79h-37q0 -28 -18.5 -44.5t-49.5 -16.5q-69 0 -69 61h-37zM578 731l16 -33q41 38 84.5 33t58.5 -47q17 -46 -1 -81t-70 -52l18 -27q64 13 91.5 64.5t4.5 111.5q-23 58 -88 68t-114 -37z" />
<glyph horiz-adv-x="1433" d="M207 0v1352h993v-56h-932v-583h559v-56h-559v-602h760q162 0 243 58.5t81 187.5q0 104 -46 167.5t-132 76.5l30 47q99 -21 154 -95.5t55 -195.5q0 -301 -371 -301h-835z" />
<glyph horiz-adv-x="1433" d="M207 0v1352h993v-56h-932v-583h559v-56h-559v-602h760q162 0 243 58.5t81 187.5q0 104 -46 167.5t-132 76.5l30 47q99 -21 154 -95.5t55 -195.5q0 -301 -371 -301h-835zM715 1522l145 303h72l-164 -303h-53z" />
<glyph horiz-adv-x="1433" d="M207 0v1352h993v-56h-932v-583h559v-56h-559v-602h760q162 0 243 58.5t81 187.5q0 104 -46 167.5t-132 76.5l30 47q99 -21 154 -95.5t55 -195.5q0 -301 -371 -301h-835zM473 1821h62l200 -258l203 258h59l-225 -301h-74z" />
<glyph horiz-adv-x="1433" d="M207 0v1352h993v-56h-932v-583h559v-56h-559v-602h760q162 0 243 58.5t81 187.5q0 104 -46 167.5t-132 76.5l30 47q99 -21 154 -95.5t55 -195.5q0 -301 -371 -301h-835zM473 1520l225 301h74l225 -301h-59l-203 258l-200 -258h-62z" />
<glyph horiz-adv-x="1433" d="M207 0v1352h993v-56h-932v-583h559v-56h-559v-602h760q162 0 243 58.5t81 187.5q0 104 -46 167.5t-132 76.5l30 47q99 -21 154 -95.5t55 -195.5q0 -301 -371 -301h-835zM481 1606q0 27 17.5 44t44.5 17q28 0 44.5 -16.5t16.5 -44.5q0 -26 -17 -43t-44 -17q-26 0 -44 17 t-18 43zM864 1606q0 28 17 44.5t43 16.5q28 0 44.5 -16.5t16.5 -44.5q0 -26 -16.5 -43t-44.5 -17q-26 0 -43 17t-17 43z" />
<glyph horiz-adv-x="1433" d="M207 0v1352h993v-56h-932v-583h559v-56h-559v-602h760q162 0 243 58.5t81 187.5q0 104 -46 167.5t-132 76.5l30 47q99 -21 154 -95.5t55 -195.5q0 -301 -371 -301h-835zM672 1614q0 28 17.5 44.5t45.5 16.5t45 -16.5t17 -44.5t-17 -45t-45 -17t-45.5 17t-17.5 45z" />
<glyph horiz-adv-x="1433" d="M207 0v1352h993v-56h-932v-583h559v-56h-559v-602h760q162 0 243 58.5t81 187.5q0 104 -46 167.5t-132 76.5l30 47q99 -21 154 -95.5t55 -195.5q0 -301 -371 -301h-835zM530 1825h72l146 -303h-54z" />
<glyph horiz-adv-x="1433" d="M207 0v1352h993v-56h-932v-583h559v-56h-559v-602h760q162 0 243 58.5t81 187.5q0 104 -46 167.5t-132 76.5l30 47q99 -21 154 -95.5t55 -195.5q0 -301 -371 -301h-835zM426 1563v53h616v-53h-616z" />
<glyph horiz-adv-x="1370" d="M207 0v1352h493q200 0 317.5 -100.5t117.5 -274.5q0 -165 -107.5 -265t-292.5 -108l414 -602q37 -52 96.5 -99.5t124.5 -64.5l-31 -43q-94 32 -149.5 78.5t-99.5 110.5l-422 618h-400v-602h-61zM268 659h432q177 0 275 83.5t98 234.5q0 152 -98 235.5t-275 83.5h-432 v-637z" />
<glyph horiz-adv-x="1370" d="M207 0v1352h493q200 0 317.5 -100.5t117.5 -274.5q0 -165 -107.5 -265t-292.5 -108l414 -602q37 -52 96.5 -99.5t124.5 -64.5l-31 -43q-94 32 -149.5 78.5t-99.5 110.5l-422 618h-400v-602h-61zM268 659h432q177 0 275 83.5t98 234.5q0 152 -98 235.5t-275 83.5h-432 v-637zM592 1522l145 303h72l-164 -303h-53z" />
<glyph horiz-adv-x="1370" d="M207 0v1352h493q200 0 317.5 -100.5t117.5 -274.5q0 -165 -107.5 -265t-292.5 -108l414 -602q37 -52 96.5 -99.5t124.5 -64.5l-31 -43q-94 32 -149.5 78.5t-99.5 110.5l-422 618h-400v-602h-61zM268 659h432q177 0 275 83.5t98 234.5q0 152 -98 235.5t-275 83.5h-432 v-637zM350 1821h62l200 -258l203 258h59l-225 -301h-74z" />
<glyph horiz-adv-x="1370" d="M207 0v1352h493q200 0 317.5 -100.5t117.5 -274.5q0 -165 -107.5 -265t-292.5 -108l414 -602q37 -52 96.5 -99.5t124.5 -64.5l-31 -43q-94 32 -149.5 78.5t-99.5 110.5l-422 618h-400v-602h-61zM268 659h432q177 0 275 83.5t98 234.5q0 152 -98 235.5t-275 83.5h-432 v-637zM575 -473l101 330h65l-116 -330h-50z" />
<glyph horiz-adv-x="1525" d="M207 0v1352h61v-1352h-61zM217 1522l145 303h72l-164 -303h-53zM547 418l59 18q-26 -195 55.5 -298t260.5 -103q176 0 263 107.5t87 301.5v908h61v-916q0 -214 -106.5 -335t-304.5 -121q-205 0 -305 119t-70 319zM1284 1522l146 303h71l-164 -303h-53z" />
<glyph horiz-adv-x="1271" d="M207 0v1352h493q200 0 317.5 -100.5t117.5 -274.5q0 -142 -80 -233t-217 -115v-2q127 -20 193 -96t69 -201q1 -40 3.5 -75t4.5 -61t5 -50t5 -39t6.5 -30.5t6 -22t6.5 -17t6 -12.5t7 -11l5 -8v-4h-65q-44 80 -50 322q-5 134 -87.5 207t-243.5 73h-441v-602h-61zM268 659 h432q177 0 275 83.5t98 234.5q0 152 -98 235.5t-275 83.5h-432v-637z" />
<glyph horiz-adv-x="1271" d="M207 0v1352h493q200 0 317.5 -100.5t117.5 -274.5q0 -142 -80 -233t-217 -115v-2q127 -20 193 -96t69 -201q1 -40 3.5 -75t4.5 -61t5 -50t5 -39t6.5 -30.5t6 -22t6.5 -17t6 -12.5t7 -11l5 -8v-4h-65q-44 80 -50 322q-5 134 -87.5 207t-243.5 73h-441v-602h-61zM268 659 h432q177 0 275 83.5t98 234.5q0 152 -98 235.5t-275 83.5h-432v-637zM592 1522l145 303h72l-164 -303h-53z" />
<glyph horiz-adv-x="1271" d="M207 0v1352h493q200 0 317.5 -100.5t117.5 -274.5q0 -142 -80 -233t-217 -115v-2q127 -20 193 -96t69 -201q1 -40 3.5 -75t4.5 -61t5 -50t5 -39t6.5 -30.5t6 -22t6.5 -17t6 -12.5t7 -11l5 -8v-4h-65q-44 80 -50 322q-5 134 -87.5 207t-243.5 73h-441v-602h-61zM268 659 h432q177 0 275 83.5t98 234.5q0 152 -98 235.5t-275 83.5h-432v-637zM350 1821h62l200 -258l203 258h59l-225 -301h-74z" />
<glyph horiz-adv-x="1271" d="M207 0v1352h493q200 0 317.5 -100.5t117.5 -274.5q0 -142 -80 -233t-217 -115v-2q127 -20 193 -96t69 -201q1 -40 3.5 -75t4.5 -61t5 -50t5 -39t6.5 -30.5t6 -22t6.5 -17t6 -12.5t7 -11l5 -8v-4h-65q-44 80 -50 322q-5 134 -87.5 207t-243.5 73h-441v-602h-61zM268 659 h432q177 0 275 83.5t98 234.5q0 152 -98 235.5t-275 83.5h-432v-637zM575 -473l101 330h65l-116 -330h-50z" />
<glyph horiz-adv-x="1374" d="M121 676q0 319 165.5 507.5t440.5 188.5q414 0 528 -346l-55 -29q-99 320 -473 320q-246 0 -394.5 -173.5t-148.5 -467.5q0 -296 145.5 -468.5t395.5 -172.5q117 0 207.5 36.5t143.5 93t87 133t46 147t12 145.5h-494v57h553v-55q0 -99 -18 -186.5t-59.5 -166.5 t-104.5 -135.5t-158.5 -90t-216.5 -33.5q-276 0 -439 188t-163 508z" />
<glyph horiz-adv-x="1374" d="M121 676q0 319 165.5 507.5t440.5 188.5q414 0 528 -346l-55 -29q-99 320 -473 320q-246 0 -394.5 -173.5t-148.5 -467.5q0 -296 145.5 -468.5t395.5 -172.5q117 0 207.5 36.5t143.5 93t87 133t46 147t12 145.5h-494v57h553v-55q0 -99 -18 -186.5t-59.5 -166.5 t-104.5 -135.5t-158.5 -90t-216.5 -33.5q-276 0 -439 188t-163 508zM457 1776h51q0 -94 57 -152.5t152 -58.5q94 0 150.5 58t56.5 153h53q0 -122 -69.5 -191t-190.5 -69t-190.5 69t-69.5 191z" />
<glyph horiz-adv-x="1374" d="M121 676q0 319 165.5 507.5t440.5 188.5q414 0 528 -346l-55 -29q-99 320 -473 320q-246 0 -394.5 -173.5t-148.5 -467.5q0 -296 145.5 -468.5t395.5 -172.5q117 0 207.5 36.5t143.5 93t87 133t46 147t12 145.5h-494v57h553v-55q0 -99 -18 -186.5t-59.5 -166.5 t-104.5 -135.5t-158.5 -90t-216.5 -33.5q-276 0 -439 188t-163 508zM600 -473l100 330h66l-117 -330h-49z" />
<glyph horiz-adv-x="1196" d="M203 346h59q-5 -153 77 -232t253 -79q169 0 259.5 108t90.5 301v908h62v-916q0 -213 -108 -334.5t-304 -121.5q-205 0 -300 92t-89 274zM207 547v805h61v-805h-61z" />
<glyph horiz-adv-x="1787" d="M0 61l49 31q3 -144 72.5 -204t200.5 -60q115 0 177 55t128 217l489 1200h-436q-326 0 -326 -282q0 -111 63 -182t175 -95l-33 -45q-120 24 -193 107.5t-73 214.5q0 164 96 249t275 85h544l549 -1352h-65l-187 457h-667l-166 -406q-60 -149 -137.5 -212.5t-208.5 -63.5 q-152 0 -238.5 69.5t-87.5 216.5zM860 512h623l-271 662l-41 114l-41 -110z" />
<glyph horiz-adv-x="1787" d="M0 61l49 31q3 -144 72.5 -204t200.5 -60q115 0 177 55t128 217l489 1200h-436q-326 0 -326 -282q0 -111 63 -182t175 -95l-33 -45q-120 24 -193 107.5t-73 214.5q0 164 96 249t275 85h544l549 -1352h-65l-187 457h-667l-166 -406q-60 -149 -137.5 -212.5t-208.5 -63.5 q-152 0 -238.5 69.5t-87.5 216.5zM860 512h623l-271 662l-41 114l-41 -110zM1151 1522l145 303h72l-164 -303h-53z" />
<glyph horiz-adv-x="1787" d="M0 61l49 31q3 -144 72.5 -204t200.5 -60q115 0 177 55t128 217l489 1200h-436q-326 0 -326 -282q0 -111 63 -182t175 -95l-33 -45q-120 24 -193 107.5t-73 214.5q0 164 96 249t275 85h544l549 -1352h-65l-187 457h-667l-166 -406q-60 -149 -137.5 -212.5t-208.5 -63.5 q-152 0 -238.5 69.5t-87.5 216.5zM860 512h623l-271 662l-41 114l-41 -110zM911 1776h52q0 -94 56.5 -152.5t151.5 -58.5q94 0 150.5 58t56.5 153h54q0 -121 -69.5 -190.5t-191.5 -69.5q-121 0 -190.5 69t-69.5 191z" />
<glyph horiz-adv-x="1787" d="M0 61l49 31q3 -144 72.5 -204t200.5 -60q115 0 177 55t128 217l489 1200h-436q-326 0 -326 -282q0 -111 63 -182t175 -95l-33 -45q-120 24 -193 107.5t-73 214.5q0 164 96 249t275 85h544l549 -1352h-65l-187 457h-667l-166 -406q-60 -149 -137.5 -212.5t-208.5 -63.5 q-152 0 -238.5 69.5t-87.5 216.5zM860 512h623l-271 662l-41 114l-41 -110zM909 1520l226 301h73l226 -301h-60l-203 258l-200 -258h-62z" />
<glyph horiz-adv-x="1787" d="M0 61l49 31q3 -144 72.5 -204t200.5 -60q115 0 177 55t128 217l489 1200h-436q-326 0 -326 -282q0 -111 63 -182t175 -95l-33 -45q-120 24 -193 107.5t-73 214.5q0 164 96 249t275 85h544l549 -1352h-65l-187 457h-667l-166 -406q-60 -149 -137.5 -212.5t-208.5 -63.5 q-152 0 -238.5 69.5t-87.5 216.5zM860 512h623l-271 662l-41 114l-41 -110zM918 1606q0 27 17 44t44 17q28 0 44.5 -16.5t16.5 -44.5q0 -26 -17 -43t-44 -17q-26 0 -43.5 17t-17.5 43zM1300 1606q0 28 17 44.5t43 16.5q28 0 44.5 -16.5t16.5 -44.5q0 -26 -16.5 -43 t-44.5 -17q-26 0 -43 17t-17 43z" />
<glyph horiz-adv-x="1787" d="M0 61l49 31q3 -144 72.5 -204t200.5 -60q115 0 177 55t128 217l489 1200h-436q-326 0 -326 -282q0 -111 63 -182t175 -95l-33 -45q-120 24 -193 107.5t-73 214.5q0 164 96 249t275 85h544l549 -1352h-65l-187 457h-667l-166 -406q-60 -149 -137.5 -212.5t-208.5 -63.5 q-152 0 -238.5 69.5t-87.5 216.5zM860 512h623l-271 662l-41 114l-41 -110zM967 1825h71l146 -303h-54z" />
<glyph horiz-adv-x="1787" d="M0 61l49 31q3 -144 72.5 -204t200.5 -60q115 0 177 55t128 217l489 1200h-436q-326 0 -326 -282q0 -111 63 -182t175 -95l-33 -45q-120 24 -193 107.5t-73 214.5q0 164 96 249t275 85h544l549 -1352h-65l-187 457h-667l-166 -406q-60 -149 -137.5 -212.5t-208.5 -63.5 q-152 0 -238.5 69.5t-87.5 216.5zM860 512h623l-271 662l-41 114l-41 -110zM864 1563v53h617v-53h-617z" />
<glyph horiz-adv-x="1787" d="M0 61l49 31q3 -144 72.5 -204t200.5 -60q115 0 177 55t128 217l489 1200h-436q-326 0 -326 -282q0 -111 63 -182t175 -95l-33 -45q-120 24 -193 107.5t-73 214.5q0 164 96 249t275 85h544l549 -1352q-147 -55 -206.5 -113t-59.5 -133q0 -61 40.5 -93t104.5 -32 q81 0 131 37l17 -43q-60 -43 -152 -43q-85 0 -139.5 45t-54.5 127q0 81 58 144.5t190 117.5l-181 443h-667l-166 -406q-60 -149 -137.5 -212.5t-208.5 -63.5q-152 0 -238.5 69.5t-87.5 216.5zM860 512h623l-271 662l-41 114l-41 -110z" />
<glyph horiz-adv-x="1787" d="M0 61l49 31q3 -144 72.5 -204t200.5 -60q115 0 177 55t128 217l489 1200h-436q-326 0 -326 -282q0 -111 63 -182t175 -95l-33 -45q-120 24 -193 107.5t-73 214.5q0 164 96 249t275 85h544l549 -1352h-65l-187 457h-667l-166 -406q-60 -149 -137.5 -212.5t-208.5 -63.5 q-152 0 -238.5 69.5t-87.5 216.5zM840 1546q15 99 59 146t127 47q53 0 94.5 -22t64.5 -48t58 -48t76 -22q62 0 91 34.5t44 107.5h53q-18 -99 -61.5 -146t-124.5 -47q-44 0 -79 14.5t-58 35t-45 41t-51 35t-64 14.5q-62 0 -90 -34t-43 -108h-51zM860 512h623l-271 662 l-41 114l-41 -110z" />
<glyph horiz-adv-x="1658" d="M20 1018q0 164 96 249t275 85h1163v-56h-845v-579h673v-55h-673v-607h878v-55h-940v1300h-239q-326 0 -326 -282q0 -111 62.5 -182t172.5 -95l-30 -45q-121 24 -194 107.5t-73 214.5z" />
<glyph horiz-adv-x="1658" d="M20 1018q0 164 96 249t275 85h1163v-56h-845v-579h673v-55h-673v-607h878v-55h-940v1300h-239q-326 0 -326 -282q0 -111 62.5 -182t172.5 -95l-30 -45q-121 24 -194 107.5t-73 214.5zM1079 1522l146 303h71l-163 -303h-54z" />
<glyph horiz-adv-x="1658" d="M20 1018q0 164 96 249t275 85h1163v-56h-845v-579h673v-55h-673v-607h878v-55h-940v1300h-239q-326 0 -326 -282q0 -111 62.5 -182t172.5 -95l-30 -45q-121 24 -194 107.5t-73 214.5zM838 1821h61l201 -258l203 258h59l-225 -301h-74z" />
<glyph horiz-adv-x="1658" d="M20 1018q0 164 96 249t275 85h1163v-56h-845v-579h673v-55h-673v-607h878v-55h-940v1300h-239q-326 0 -326 -282q0 -111 62.5 -182t172.5 -95l-30 -45q-121 24 -194 107.5t-73 214.5zM838 1520l225 301h74l225 -301h-59l-203 258l-201 -258h-61z" />
<glyph horiz-adv-x="1658" d="M20 1018q0 164 96 249t275 85h1163v-56h-845v-579h673v-55h-673v-607h878v-55h-940v1300h-239q-326 0 -326 -282q0 -111 62.5 -182t172.5 -95l-30 -45q-121 24 -194 107.5t-73 214.5zM846 1606q0 27 17 44t44 17q28 0 45 -16.5t17 -44.5q0 -26 -17 -43t-45 -17 q-26 0 -43.5 17t-17.5 43zM1229 1606q0 28 16.5 44.5t42.5 16.5q28 0 45 -16.5t17 -44.5q0 -26 -17 -43t-45 -17q-26 0 -42.5 17t-16.5 43z" />
<glyph horiz-adv-x="1658" d="M20 1018q0 164 96 249t275 85h1163v-56h-845v-579h673v-55h-673v-607h878v-55h-940v1300h-239q-326 0 -326 -282q0 -111 62.5 -182t172.5 -95l-30 -45q-121 24 -194 107.5t-73 214.5zM1036 1614q0 27 18 44t46 17t44.5 -16.5t16.5 -44.5t-16.5 -45t-44.5 -17t-46 17 t-18 45z" />
<glyph horiz-adv-x="1658" d="M20 1018q0 164 96 249t275 85h1163v-56h-845v-579h673v-55h-673v-607h878v-55h-940v1300h-239q-326 0 -326 -282q0 -111 62.5 -182t172.5 -95l-30 -45q-121 24 -194 107.5t-73 214.5zM895 1825h72l145 -303h-53z" />
<glyph horiz-adv-x="1658" d="M20 1018q0 164 96 249t275 85h1163v-56h-845v-579h673v-55h-673v-607h878v-55h-940v1300h-239q-326 0 -326 -282q0 -111 62.5 -182t172.5 -95l-30 -45q-121 24 -194 107.5t-73 214.5zM791 1563v53h616v-53h-616z" />
<glyph horiz-adv-x="1599" d="M20 1018q0 164 96 249t275 85h1161v-56h-843v-579h673v-55h-673v-662h-62v1300h-239q-326 0 -326 -282q0 -111 62.5 -182t172.5 -95l-30 -45q-121 24 -194 107.5t-73 214.5z" />
<glyph horiz-adv-x="1218" d="M207 0v1352h61v-1297h543q161 0 243.5 67.5t82.5 211.5q0 114 -63 182.5t-175 89.5l33 45q121 -21 193.5 -102t72.5 -215q0 -166 -95.5 -250t-275.5 -84h-620z" />
<glyph horiz-adv-x="1218" d="M207 0v1352h61v-1297h543q161 0 243.5 67.5t82.5 211.5q0 114 -63 182.5t-175 89.5l33 45q121 -21 193.5 -102t72.5 -215q0 -166 -95.5 -250t-275.5 -84h-620zM217 1522l145 303h72l-164 -303h-53z" />
<glyph horiz-adv-x="1218" d="M-25 1821h62l201 -258l202 258h60l-226 -301h-73zM207 0v1352h61v-1297h543q161 0 243.5 67.5t82.5 211.5q0 114 -63 182.5t-175 89.5l33 45q121 -21 193.5 -102t72.5 -215q0 -166 -95.5 -250t-275.5 -84h-620z" />
<glyph horiz-adv-x="1218" d="M207 0v1352h61v-1297h543q161 0 243.5 67.5t82.5 211.5q0 114 -63 182.5t-175 89.5l33 45q121 -21 193.5 -102t72.5 -215q0 -166 -95.5 -250t-275.5 -84h-620zM551 -473l100 330h66l-117 -330h-49z" />
<glyph horiz-adv-x="1249" d="M29 428v68l209 129v727h61v-688l412 254v-70l-412 -254v-539h543q161 0 243 67t82 212q0 114 -62 182.5t-173 89.5l31 45q122 -21 194 -101.5t72 -215.5q0 -166 -95.5 -250t-275.5 -84h-620v555z" />
<glyph horiz-adv-x="2080" d="M20 1018q0 164 96 249t275 85h344l484 -1159l41 -121h2l41 118l483 1162h88v-1352h-59v1114l6 170h-2l-527 -1284h-63l-527 1284h-2l7 -170v-1012q0 -150 -86.5 -238.5t-239.5 -88.5q-277 0 -307 243l47 31q15 -114 79 -167.5t181 -53.5q125 0 195.5 75t70.5 206v1191 h-239q-326 0 -326 -282q0 -111 62.5 -182t172.5 -95l-30 -45q-121 24 -194 107.5t-73 214.5z" />
<glyph horiz-adv-x="1806" d="M207 0v1352h80l815 -1166l74 -120l-2 137v942q0 172 85 266t240 94q277 0 307 -243l-47 -31q-15 114 -79 167.5t-181 53.5q-127 0 -196.5 -79.5t-69.5 -233.5v-1139h-80l-817 1165l-72 121h-2l4 -137v-1149h-59z" />
<glyph horiz-adv-x="1806" d="M207 0v1352h80l815 -1166l74 -120l-2 137v942q0 172 85 266t240 94q277 0 307 -243l-47 -31q-15 114 -79 167.5t-181 53.5q-127 0 -196.5 -79.5t-69.5 -233.5v-1139h-80l-817 1165l-72 121h-2l4 -137v-1149h-59zM711 1522l145 303h72l-164 -303h-53z" />
<glyph horiz-adv-x="1806" d="M207 0v1352h80l815 -1166l74 -120l-2 137v942q0 172 85 266t240 94q277 0 307 -243l-47 -31q-15 114 -79 167.5t-181 53.5q-127 0 -196.5 -79.5t-69.5 -233.5v-1139h-80l-817 1165l-72 121h-2l4 -137v-1149h-59zM469 1821h61l201 -258l203 258h59l-225 -301h-74z" />
<glyph horiz-adv-x="1806" d="M207 0v1352h80l815 -1166l74 -120l-2 137v942q0 172 85 266t240 94q277 0 307 -243l-47 -31q-15 114 -79 167.5t-181 53.5q-127 0 -196.5 -79.5t-69.5 -233.5v-1139h-80l-817 1165l-72 121h-2l4 -137v-1149h-59zM592 -473l100 330h66l-117 -330h-49z" />
<glyph horiz-adv-x="1806" d="M207 0v1352h80l815 -1166l74 -120l-2 137v942q0 172 85 266t240 94q277 0 307 -243l-47 -31q-15 114 -79 167.5t-181 53.5q-127 0 -196.5 -79.5t-69.5 -233.5v-1139h-80l-817 1165l-72 121h-2l4 -137v-1149h-59zM399 1546q15 99 59.5 146t127.5 47q53 0 94.5 -22 t64.5 -48t58 -48t76 -22q62 0 91 34.5t44 107.5h53q-18 -99 -61.5 -146t-124.5 -47q-44 0 -79 14.5t-58 35t-45 41t-51 35t-64 14.5q-62 0 -90 -34t-43 -108h-52z" />
<glyph horiz-adv-x="1716" d="M20 1018q0 164 96 249t275 85h750q202 0 319 -100.5t117 -274.5q0 -151 -90 -247.5t-248 -119.5l401 -610h-71l-400 604q-10 -2 -28 -2h-432v-500q0 -150 -86.5 -238.5t-241.5 -88.5q-144 0 -224 73t-83 203l47 31q3 -123 70 -188.5t190 -65.5q125 0 195.5 75t70.5 206 v1191h-239q-326 0 -326 -282q0 -111 62.5 -182t172.5 -95l-30 -45q-121 24 -194 107.5t-73 214.5zM709 659h432q177 0 274.5 83.5t97.5 234.5q0 152 -97.5 235.5t-274.5 83.5h-432v-637z" />
<glyph horiz-adv-x="1716" d="M20 1018q0 164 96 249t275 85h750q202 0 319 -100.5t117 -274.5q0 -151 -90 -247.5t-248 -119.5l401 -610h-71l-400 604q-10 -2 -28 -2h-432v-500q0 -150 -86.5 -238.5t-241.5 -88.5q-144 0 -224 73t-83 203l47 31q3 -123 70 -188.5t190 -65.5q125 0 195.5 75t70.5 206 v1191h-239q-326 0 -326 -282q0 -111 62.5 -182t172.5 -95l-30 -45q-121 24 -194 107.5t-73 214.5zM709 659h432q177 0 274.5 83.5t97.5 234.5q0 152 -97.5 235.5t-274.5 83.5h-432v-637zM1034 1522l146 303h71l-164 -303h-53z" />
<glyph horiz-adv-x="1716" d="M20 1018q0 164 96 249t275 85h750q202 0 319 -100.5t117 -274.5q0 -151 -90 -247.5t-248 -119.5l401 -610h-71l-400 604q-10 -2 -28 -2h-432v-500q0 -150 -86.5 -238.5t-241.5 -88.5q-144 0 -224 73t-83 203l47 31q3 -123 70 -188.5t190 -65.5q125 0 195.5 75t70.5 206 v1191h-239q-326 0 -326 -282q0 -111 62.5 -182t172.5 -95l-30 -45q-121 24 -194 107.5t-73 214.5zM709 659h432q177 0 274.5 83.5t97.5 234.5q0 152 -97.5 235.5t-274.5 83.5h-432v-637zM791 1821h61l201 -258l202 258h60l-225 -301h-74z" />
<glyph horiz-adv-x="1716" d="M20 1018q0 164 96 249t275 85h750q202 0 319 -100.5t117 -274.5q0 -151 -90 -247.5t-248 -119.5l401 -610h-71l-400 604q-10 -2 -28 -2h-432v-500q0 -150 -86.5 -238.5t-241.5 -88.5q-144 0 -224 73t-83 203l47 31q3 -123 70 -188.5t190 -65.5q125 0 195.5 75t70.5 206 v1191h-239q-326 0 -326 -282q0 -111 62.5 -182t172.5 -95l-30 -45q-121 24 -194 107.5t-73 214.5zM709 659h432q177 0 274.5 83.5t97.5 234.5q0 152 -97.5 235.5t-274.5 83.5h-432v-637zM1016 -473l100 330h66l-117 -330h-49z" />
<glyph d="M150 131q0 47 16 119l57 18q-16 -69 -16 -125q0 -151 112.5 -232t321.5 -81q205 0 319.5 89t114.5 249q0 127 -94.5 209t-329.5 153q-259 77 -365 174.5t-106 251.5q0 191 123 303.5t332 112.5q231 0 349 -101t112 -296l-58 -25q11 183 -89 275t-312 92 q-186 0 -290.5 -94.5t-104.5 -261.5q0 -133 96 -218t340 -159q256 -79 358.5 -172t102.5 -242q0 -183 -134.5 -289t-363.5 -106q-233 0 -362 93.5t-129 262.5z" />
<glyph d="M150 131q0 47 16 119l57 18q-16 -69 -16 -125q0 -151 112.5 -232t321.5 -81q205 0 319.5 89t114.5 249q0 127 -94.5 209t-329.5 153q-259 77 -365 174.5t-106 251.5q0 191 123 303.5t332 112.5q231 0 349 -101t112 -296l-58 -25q11 183 -89 275t-312 92 q-186 0 -290.5 -94.5t-104.5 -261.5q0 -133 96 -218t340 -159q256 -79 358.5 -172t102.5 -242q0 -183 -134.5 -289t-363.5 -106q-233 0 -362 93.5t-129 262.5zM590 1522l145 303h72l-164 -303h-53z" />
<glyph d="M150 131q0 47 16 119l57 18q-16 -69 -16 -125q0 -151 112.5 -232t321.5 -81q205 0 319.5 89t114.5 249q0 127 -94.5 209t-329.5 153q-259 77 -365 174.5t-106 251.5q0 191 123 303.5t332 112.5q231 0 349 -101t112 -296l-58 -25q11 183 -89 275t-312 92 q-186 0 -290.5 -94.5t-104.5 -261.5q0 -133 96 -218t340 -159q256 -79 358.5 -172t102.5 -242q0 -183 -134.5 -289t-363.5 -106q-233 0 -362 93.5t-129 262.5zM348 1821h62l200 -258l203 258h59l-225 -301h-74z" />
<glyph d="M150 131q0 47 16 119l57 18q-16 -69 -16 -125q0 -151 112.5 -232t321.5 -81q205 0 319.5 89t114.5 249q0 127 -94.5 209t-329.5 153q-259 77 -365 174.5t-106 251.5q0 191 123 303.5t332 112.5q231 0 349 -101t112 -296l-58 -25q11 183 -89 275t-312 92 q-186 0 -290.5 -94.5t-104.5 -261.5q0 -133 96 -218t340 -159q256 -79 358.5 -172t102.5 -242q0 -179 -128 -285t-349 -110q79 -46 113 -98.5t34 -118.5q0 -79 -53.5 -131t-139.5 -52q-130 0 -198 84l24 43q64 -80 170 -80q62 0 102 39t40 101q0 61 -38.5 109t-140.5 106 q-203 12 -314 104.5t-111 249.5z" />
<glyph d="M150 131q0 47 16 119l57 18q-16 -69 -16 -125q0 -151 112.5 -232t321.5 -81q205 0 319.5 89t114.5 249q0 127 -94.5 209t-329.5 153q-259 77 -365 174.5t-106 251.5q0 191 123 303.5t332 112.5q231 0 349 -101t112 -296l-58 -25q11 183 -89 275t-312 92 q-186 0 -290.5 -94.5t-104.5 -261.5q0 -133 96 -218t340 -159q256 -79 358.5 -172t102.5 -242q0 -183 -134.5 -289t-363.5 -106q-233 0 -362 93.5t-129 262.5zM522 -678l101 330h65l-117 -330h-49z" />
<glyph horiz-adv-x="1308" d="M20 1018q0 164 96 249t275 85h887v-56h-508v-1296h-61v1296h-301q-326 0 -326 -278q0 -111 62.5 -182t172.5 -95l-30 -45q-121 24 -194 107.5t-73 214.5z" />
<glyph horiz-adv-x="1308" d="M20 1018q0 164 96 249t275 85h887v-56h-508v-1296h-61v1296h-301q-326 0 -326 -278q0 -111 62.5 -182t172.5 -95l-30 -45q-121 24 -194 107.5t-73 214.5zM477 1821h62l200 -258l203 258h59l-225 -301h-74z" />
<glyph horiz-adv-x="1308" d="M20 1018q0 164 96 249t275 85h887v-56h-508v-1288q86 -55 125 -112.5t39 -131.5q0 -81 -53.5 -132.5t-141.5 -51.5q-125 0 -198 86l28 41q67 -80 166 -80q64 0 104 39.5t40 102.5q0 70 -39 121t-131 110v1296h-301q-326 0 -326 -278q0 -111 62.5 -182t172.5 -95l-30 -45 q-121 24 -194 107.5t-73 214.5z" />
<glyph horiz-adv-x="1308" d="M20 1018q0 164 96 249t275 85h887v-56h-508v-1296h-61v1296h-301q-326 0 -326 -278q0 -111 62.5 -182t172.5 -95l-30 -45q-121 24 -194 107.5t-73 214.5zM610 -473l101 330h65l-117 -330h-49z" />
<glyph horiz-adv-x="2318" d="M20 1018q0 164 96 249t275 85h162l410 -1299l378 1299h74l377 -1299l412 1299h63l-436 -1352h-78l-295 995l-80 285h-2l-80 -285l-295 -995h-77l-420 1300h-96q-326 0 -326 -282q0 -111 62.5 -182t172.5 -95l-30 -45q-121 24 -194 107.5t-73 214.5z" />
<glyph horiz-adv-x="1232" d="M31 0l551 1352h71l549 -1352h-65l-187 457h-667l-187 -457h-65zM305 512h623l-271 662l-41 114l-41 -110zM334 1296q0 26 16.5 43t42.5 17t43 -17t17 -43t-17 -42.5t-43 -16.5t-42.5 16.5t-16.5 42.5zM778 1296q0 26 17 43t43 17t42.5 -17t16.5 -43t-16.5 -42.5 t-42.5 -16.5t-43 16.5t-17 42.5z" />
<glyph horiz-adv-x="1478" d="M121 676q0 321 166 508.5t452 187.5q285 0 452 -187.5t167 -508.5t-167 -508.5t-452 -187.5q-286 0 -452 187.5t-166 508.5zM182 676q0 -295 150.5 -468t406.5 -173q255 0 405 173t150 468t-150 468t-405 173q-256 0 -406.5 -173t-150.5 -468zM541 1155q0 27 16 43t43 16 q26 0 42.5 -16.5t16.5 -42.5t-16.5 -42.5t-42.5 -16.5q-27 0 -43 16t-16 43zM819 1155q0 26 17 42.5t43 16.5t42.5 -16.5t16.5 -42.5t-16.5 -42.5t-42.5 -16.5t-43 16.5t-17 42.5z" />
<glyph horiz-adv-x="1411" d="M190 485v867h62v-856q0 -222 118 -341.5t335 -119.5t335.5 119.5t118.5 341.5v856h62v-867q0 -243 -135 -374t-381 -131q-245 0 -380 131t-135 374zM492 1296q0 26 16.5 43t42.5 17q27 0 43 -16.5t16 -43.5t-16 -43t-43 -16q-26 0 -42.5 16.5t-16.5 42.5zM797 1296 q0 26 16.5 43t42.5 17t42.5 -17t16.5 -43t-16.5 -42.5t-42.5 -16.5t-42.5 16.5t-16.5 42.5z" />
<glyph horiz-adv-x="417" d="M145 1286q0 28 18 45t46 17t44.5 -17t16.5 -45t-16.5 -44.5t-44.5 -16.5t-46 17t-18 44zM178 0v1024h62v-1024h-62z" />
<glyph horiz-adv-x="1331" d="M207 0v907q0 201 118.5 323t319.5 122h524v-58l-473 -577h129q418 0 418 -346q0 -171 -107.5 -276t-285.5 -105q-112 0 -199 36t-119 89l33 45q35 -51 108 -84t173 -33q149 0 241.5 91t92.5 237q0 150 -91 221.5t-278 71.5h-180v53l467 579h-453q-171 0 -274 -108.5 t-103 -282.5v-905h-61z" />
<glyph horiz-adv-x="833" d="M176 1194l170 309h68l-185 -309h-53zM178 0v1024h62v-1024h-62zM219 -391l14 57q55 -49 144 -49q99 0 158 69.5t59 192.5v1145h61v-1149q0 -148 -78 -231.5t-200 -83.5q-103 0 -158 49zM596 1194l170 309h68l-185 -309h-53z" />
<glyph horiz-adv-x="1218" d="M109 514q0 248 125 389t344 141q148 0 253 -73.5t150 -206.5l4 258h55v-991q0 -226 -125 -348.5t-354 -122.5q-169 0 -281.5 67t-138.5 189l62 24q19 -108 114 -167.5t248 -59.5q193 0 303.5 109t110.5 298v240q-43 -131 -147.5 -203.5t-253.5 -72.5q-219 0 -344 141 t-125 389zM172 514q0 -224 110.5 -350.5t305.5 -126.5q178 0 284.5 126t106.5 343v24q-1 213 -108 337t-283 124q-195 0 -305.5 -126.5t-110.5 -350.5z" />
<glyph horiz-adv-x="1218" d="M109 514q0 248 125 389t344 141q148 0 253 -73.5t150 -206.5l4 258h55v-991q0 -226 -125 -348.5t-354 -122.5q-169 0 -281.5 67t-138.5 189l62 24q19 -108 114 -167.5t248 -59.5q193 0 303.5 109t110.5 298v240q-43 -131 -147.5 -203.5t-253.5 -72.5q-219 0 -344 141 t-125 389zM172 514q0 -224 110.5 -350.5t305.5 -126.5q178 0 284.5 126t106.5 343v24q-1 213 -108 337t-283 124q-195 0 -305.5 -126.5t-110.5 -350.5zM319 1448h52q0 -94 57 -152.5t152 -58.5q94 0 150 58t56 153h54q0 -122 -69 -191t-191 -69t-191.5 69.5t-69.5 190.5z " />
<glyph horiz-adv-x="1218" d="M109 514q0 248 125 389t344 141q148 0 253 -73.5t150 -206.5l4 258h55v-991q0 -226 -125 -348.5t-354 -122.5q-169 0 -281.5 67t-138.5 189l62 24q19 -108 114 -167.5t248 -59.5q193 0 303.5 109t110.5 298v240q-43 -131 -147.5 -203.5t-253.5 -72.5q-219 0 -344 141 t-125 389zM172 514q0 -224 110.5 -350.5t305.5 -126.5q178 0 284.5 126t106.5 343v24q-1 213 -108 337t-283 124q-195 0 -305.5 -126.5t-110.5 -350.5zM561 1202l127 391h47l-106 -391h-68z" />
<glyph horiz-adv-x="432" d="M184 0v1495h62v-1495h-62z" />
<glyph horiz-adv-x="432" d="M184 0v1495h62v-1495h-62zM188 1628l82 277h68l-98 -277h-52z" />
<glyph horiz-adv-x="448" d="M184 0v1495h62v-1495h-62zM403 1092l52 403h61l-65 -403h-48z" />
<glyph horiz-adv-x="432" d="M88 -473l100 330h66l-117 -330h-49zM184 0v1495h62v-1495h-62z" />
<glyph horiz-adv-x="614" d="M184 0v1495h62v-1495h-62zM459 735q0 29 18 47.5t47 18.5q28 0 46 -18.5t18 -47.5q0 -28 -18 -45.5t-46 -17.5q-29 0 -47 17.5t-18 45.5z" />
<glyph horiz-adv-x="483" d="M66 561v64l153 108v762h62v-721l151 107v-64l-151 -106v-711h-62v668z" />
<glyph horiz-adv-x="1249" d="M178 0v1024h58l2 -242q43 121 152 191.5t255 70.5q177 0 281 -98t104 -276v-690q0 -113 113 -113q38 0 62 6.5t50 28.5l-10 -56q-42 -30 -112 -30q-164 0 -164 166v671q0 163 -89 250.5t-243 87.5q-167 0 -282 -112t-115 -279v-600h-62z" />
<glyph horiz-adv-x="1249" d="M178 0v1024h58l2 -242q43 121 152 191.5t255 70.5q177 0 281 -98t104 -276v-690q0 -113 113 -113q38 0 62 6.5t50 28.5l-10 -56q-42 -30 -112 -30q-164 0 -164 166v671q0 163 -89 250.5t-243 87.5q-167 0 -282 -112t-115 -279v-600h-62zM578 1194l170 309h67l-184 -309 h-53z" />
<glyph horiz-adv-x="1249" d="M178 0v1024h58l2 -242q43 121 152 191.5t255 70.5q177 0 281 -98t104 -276v-690q0 -113 113 -113q38 0 62 6.5t50 28.5l-10 -56q-42 -30 -112 -30q-164 0 -164 166v671q0 163 -89 250.5t-243 87.5q-167 0 -282 -112t-115 -279v-600h-62zM352 1495h60l198 -256l199 256h59 l-223 -301h-70z" />
<glyph horiz-adv-x="1249" d="M178 0v1024h58l2 -242q43 121 152 191.5t255 70.5q177 0 281 -98t104 -276v-690q0 -113 113 -113q38 0 62 6.5t50 28.5l-10 -56q-42 -30 -112 -30q-164 0 -164 166v671q0 163 -89 250.5t-243 87.5q-167 0 -282 -112t-115 -279v-600h-62zM496 -473l100 330h66l-117 -330 h-49z" />
<glyph horiz-adv-x="1249" d="M178 0v1024h58l2 -242q43 121 152 191.5t255 70.5q177 0 281 -98t104 -276v-690q0 -113 113 -113q38 0 62 6.5t50 28.5l-10 -56q-42 -30 -112 -30q-164 0 -164 166v671q0 163 -89 250.5t-243 87.5q-167 0 -282 -112t-115 -279v-600h-62zM279 1219q15 99 59 145.5 t127 46.5q44 0 78.5 -14.5t57.5 -35t44.5 -40.5t50 -34.5t62.5 -14.5q62 0 91 34t44 107h53q-18 -99 -61 -145.5t-125 -46.5q-44 0 -79 14.5t-58 35t-45 40.5t-51 34.5t-64 14.5q-62 0 -90 -33.5t-43 -107.5h-51z" />
<glyph horiz-adv-x="888" d="M178 0v1024h53l7 -190q34 100 111.5 155t185.5 55q63 0 116 -19t84.5 -42.5t82.5 -47.5t108 -32l-31 -45q-57 8 -105.5 30.5t-77 44.5t-73.5 39t-98 17q-131 0 -215.5 -86t-85.5 -248v-655h-62z" />
<glyph horiz-adv-x="888" d="M178 0v1024h53l7 -190q34 100 111.5 155t185.5 55q63 0 116 -19t84.5 -42.5t82.5 -47.5t108 -32l-31 -45q-57 8 -105.5 30.5t-77 44.5t-73.5 39t-98 17q-131 0 -215.5 -86t-85.5 -248v-655h-62zM377 1194l170 309h67l-184 -309h-53z" />
<glyph horiz-adv-x="888" d="M152 1495h59l199 -256l198 256h60l-224 -301h-69zM178 0v1024h53l7 -190q34 100 111.5 155t185.5 55q63 0 116 -19t84.5 -42.5t82.5 -47.5t108 -32l-31 -45q-57 8 -105.5 30.5t-77 44.5t-73.5 39t-98 17q-131 0 -215.5 -86t-85.5 -248v-655h-62z" />
<glyph horiz-adv-x="888" d="M80 -473l100 330h66l-117 -330h-49zM178 0v1024h53l7 -190q34 100 111.5 155t185.5 55q63 0 116 -19t84.5 -42.5t82.5 -47.5t108 -32l-31 -45q-57 8 -105.5 30.5t-77 44.5t-73.5 39t-98 17q-131 0 -215.5 -86t-85.5 -248v-655h-62z" />
<glyph horiz-adv-x="851" d="M31 971v53h205v262l61 19v-281h342q120 0 195 24.5t116 84.5l29 -39q-86 -123 -332 -123h-350v-707q0 -229 201 -229q108 0 178 76l26 -50q-81 -81 -210 -81q-124 0 -189.5 70t-66.5 208v713h-205z" />
<glyph horiz-adv-x="851" d="M31 971v53h205v262l61 19v-281h342q120 0 195 24.5t116 84.5l29 -39q-86 -123 -332 -123h-350v-707q0 -229 201 -229q108 0 178 76l26 -50q-81 -81 -210 -81q-124 0 -189.5 70t-66.5 208v713h-205zM475 1167l51 404h62l-66 -404h-47z" />
<glyph horiz-adv-x="714" d="M31 971v53h205v262l61 19v-281h342q120 0 195 24.5t116 84.5l29 -39q-86 -123 -332 -123h-350v-707q0 -229 201 -229q108 0 178 76l26 -50q-72 -75 -194 -81q149 -93 149 -218q0 -79 -52 -130.5t-138 -51.5q-70 0 -117 19.5t-86 64.5l27 43q36 -42 75.5 -61t96.5 -19 q62 0 100.5 38.5t38.5 101.5q0 59 -37 107.5t-135 109.5q-191 31 -194 274v713h-205z" />
<glyph horiz-adv-x="851" d="M31 971v53h205v262l61 19v-281h342q120 0 195 24.5t116 84.5l29 -39q-86 -123 -332 -123h-350v-707q0 -229 201 -229q108 0 178 76l26 -50q-81 -81 -210 -81q-124 0 -189.5 70t-66.5 208v713h-205zM324 -473l100 330h65l-116 -330h-49z" />
<glyph horiz-adv-x="1079" d="M0 -371l27 52q47 -68 149 -68q78 0 132.5 44t99.5 157l75 184l-110 260l-324 766h70l352 -850l43 -106l43 112l317 776q49 121 106 170.5t142 49.5q43 0 73 -11.5t62 -38.5l-16 -49q-50 43 -113 43q-70 0 -115 -45t-83 -137l-467 -1137q-56 -135 -121.5 -188t-167.5 -53 q-123 0 -174 69z" />
<glyph horiz-adv-x="1079" d="M0 -371l27 52q47 -68 149 -68q78 0 132.5 44t99.5 157l75 184l-110 260l-324 766h70l352 -850l43 -106l43 112l317 776q49 121 106 170.5t142 49.5q43 0 73 -11.5t62 -38.5l-16 -49q-50 43 -113 43q-70 0 -115 -45t-83 -137l-467 -1137q-56 -135 -121.5 -188t-167.5 -53 q-123 0 -174 69zM479 1194l170 309h68l-185 -309h-53z" />
<glyph horiz-adv-x="1079" d="M0 -371l27 52q47 -68 149 -68q78 0 132.5 44t99.5 157l75 184l-110 260l-324 766h70l352 -850l43 -106l43 112l317 776q49 121 106 170.5t142 49.5q43 0 73 -11.5t62 -38.5l-16 -49q-50 43 -113 43q-70 0 -115 -45t-83 -137l-467 -1137q-56 -135 -121.5 -188t-167.5 -53 q-123 0 -174 69zM258 1278q0 27 17 44t44 17q28 0 45 -16.5t17 -44.5q0 -26 -17 -42.5t-45 -16.5q-26 0 -43.5 16.5t-17.5 42.5zM641 1278q0 28 16.5 44.5t42.5 16.5q28 0 45 -16.5t17 -44.5q0 -26 -17 -42.5t-45 -16.5q-26 0 -42.5 16.5t-16.5 42.5z" />
<glyph horiz-adv-x="1722" d="M109 512q0 249 126.5 390.5t350.5 141.5q166 0 272 -86q-57 120 -57 248q0 151 70 224t182 73q121 0 187.5 -75.5t66.5 -223.5v-180h391v-53h-391v-707q0 -229 200 -229q106 0 179 76l24 -50q-78 -81 -211 -81q-123 0 -188.5 70t-65.5 208v916q0 142 -48.5 209t-145.5 67 q-191 0 -191 -254q0 -80 31 -177.5t104 -252.5l-59 -27q-34 120 -125.5 186t-224.5 66q-196 0 -306 -127t-110 -352t108 -352t302 -127q139 0 241 73t125 195l55 -20q-31 -137 -146 -219t-273 -82q-225 0 -349 141t-124 391z" />
<glyph horiz-adv-x="833" d="M170 0v1208q0 297 231 297q47 0 74 -10t55 -33l-12 -55q-26 25 -48 34t-62 9q-177 0 -177 -244v-1206h-61zM563 1286q0 28 18 45t46 17t44.5 -17t16.5 -45t-16.5 -44.5t-44.5 -16.5t-46 17t-18 44zM596 0v1024h61v-1024h-61z" />
<glyph horiz-adv-x="966" d="M170 0v1208q0 145 59 221t174 76q53 0 83.5 -12.5t56.5 -38.5l-17 -47q-26 24 -49.5 33.5t-64.5 9.5q-181 0 -181 -244v-1206h-61zM621 227v1268h61v-1264q0 -103 34 -148.5t107 -45.5q67 0 125 24l-6 -57q-53 -24 -125 -24q-99 0 -147.5 59.5t-48.5 187.5z" />
<glyph horiz-adv-x="1433" d="M170 0v1208q0 145 59 221t174 76q53 0 83.5 -12.5t56.5 -38.5l-17 -47q-26 24 -49.5 33.5t-64.5 9.5q-181 0 -181 -244v-1206h-61zM510 223l53 33q29 -108 128.5 -165.5t248.5 -57.5q154 0 243 61.5t89 163.5q0 87 -74 138.5t-258 82.5q-213 36 -299 100t-86 181 q0 121 108 202.5t275 81.5q323 0 385 -253l-53 -31q-53 231 -332 231q-138 0 -230 -64t-92 -157q0 -96 76 -149.5t266 -85.5q207 -35 291 -98t84 -177q0 -129 -108 -204.5t-293 -75.5q-160 0 -273 62.5t-149 180.5z" />
<glyph horiz-adv-x="1120" d="M33 971v53h205v170q0 146 75 228.5t211 82.5q103 0 162 -59l-20 -49q-50 53 -138 53q-108 0 -168.5 -68t-60.5 -192v-166h373v-53h-373v-971h-61v971h-205zM872 0v1495h62v-1495h-62z" />
<glyph horiz-adv-x="1253" d="M111 573q0 269 150.5 429.5t391.5 160.5q368 0 469 -295l-55 -28q-85 270 -414 270q-212 0 -346.5 -146.5t-134.5 -390.5q0 -248 127 -392t344 -144q93 0 167.5 27t121.5 71t78 103.5t44 120.5t13 126v15h-424v51h481v-551h-51l-2 285q-40 -144 -150 -222.5t-282 -78.5 q-242 0 -385 159t-143 430zM561 -473l101 330h65l-117 -330h-49z" />
<glyph horiz-adv-x="1062" d="M186 0v1147h62v-672l684 672h80l-465 -463l481 -684h-78l-450 643l-252 -246v-397h-62zM453 -473l100 330h65l-116 -330h-49z" />
<glyph horiz-adv-x="1040" d="M186 0v1147h62v-1094h733v-53h-795zM485 -473l101 330h65l-116 -330h-50z" />
<glyph horiz-adv-x="1284" d="M186 0v1147h82l695 -967l77 -112h2l-4 110v969h62v-1147h-84l-707 983l-63 96h-2l2 -110v-969h-60zM510 -473l100 330h66l-117 -330h-49z" />
<glyph horiz-adv-x="1140" d="M186 0v1147h443q179 0 282 -85t103 -235q0 -129 -78 -211t-217 -102l350 -514h-74l-344 510q-8 -2 -22 -2h-381v-508h-62zM248 561h379q154 0 239.5 70t85.5 196t-85.5 196.5t-239.5 70.5h-379v-533zM498 -473l100 330h66l-117 -330h-49z" />
<glyph horiz-adv-x="1105" d="M84 272l51 39q30 -136 146 -205t290 -69q167 0 274 65.5t107 182.5q0 75 -46 124.5t-119.5 73.5t-162 41t-177.5 36.5t-162.5 49t-119.5 89t-46 147.5q0 133 118 225t314 92q344 0 444 -258l-51 -39q-41 127 -138 185.5t-255 58.5q-167 0 -269 -74.5t-102 -185.5 q0 -76 46 -126t119.5 -74.5t162.5 -41.5t178 -36t162.5 -48.5t119.5 -89t46 -147.5q0 -133 -118.5 -216.5t-309.5 -86.5q155 -89 155 -222q0 -79 -53 -130.5t-139 -51.5q-131 0 -199 84l25 43q64 -80 170 -80q62 0 101.5 38.5t39.5 101.5t-40 112t-146 107q-165 14 -274 86 t-142 200z" />
<glyph horiz-adv-x="1105" d="M84 272l51 39q30 -136 146 -205t290 -69q167 0 274 65.5t107 182.5q0 75 -46 124.5t-119.5 73.5t-162 41t-177.5 36.5t-162.5 49t-119.5 89t-46 147.5q0 133 118 225t314 92q344 0 444 -258l-51 -39q-41 127 -138 185.5t-255 58.5q-167 0 -269 -74.5t-102 -185.5 q0 -76 46 -126t119.5 -74.5t162.5 -41.5t178 -36t162.5 -48.5t119.5 -89t46 -147.5q0 -135 -123 -219t-320 -84q-193 0 -322 73t-165 215zM446 -473l101 330h65l-116 -330h-50z" />
<glyph horiz-adv-x="1024" d="M35 1094v53h956v-53h-448v-1086q87 -54 126.5 -112t39.5 -132q0 -80 -54.5 -132t-142.5 -52q-124 0 -197 86l27 41q67 -80 166 -80q64 0 103.5 39.5t39.5 102.5q0 70 -39 121t-131 110v1094h-446z" />
<glyph horiz-adv-x="1024" d="M35 1094v53h956v-53h-448v-1094h-62v1094h-446zM371 -473l100 330h66l-117 -330h-49z" />
<glyph horiz-adv-x="1105" d="M33 0l483 1147h72l485 -1147h-65l-162 383h-586l-162 -383h-65zM283 436h540l-235 555l-35 96l-37 -96z" />
<glyph horiz-adv-x="1105" d="M33 0l483 1147h72l485 -1147h-65l-162 383h-586l-162 -383h-65zM283 436h540l-235 555l-35 96l-37 -96zM532 1317l146 303h72l-164 -303h-54z" />
<glyph horiz-adv-x="1105" d="M33 0l483 1147h72l485 -1147h-65l-162 383h-586l-162 -383h-65zM283 436h540l-235 555l-35 96l-37 -96zM293 1571h51q0 -94 57 -152.5t152 -58.5q94 0 150.5 58t56.5 153h53q0 -121 -69.5 -190.5t-190.5 -69.5t-190.5 69.5t-69.5 190.5z" />
<glyph horiz-adv-x="1105" d="M33 0l483 1147h72l485 -1147h-65l-162 383h-586l-162 -383h-65zM283 436h540l-235 555l-35 96l-37 -96zM291 1315l225 301h74l225 -301h-59l-203 258l-201 -258h-61z" />
<glyph horiz-adv-x="1105" d="M33 0l483 1147h72l485 -1147h-65l-162 383h-586l-162 -383h-65zM283 436h540l-235 555l-35 96l-37 -96zM299 1401q0 27 17 44t44 17q28 0 45 -16.5t17 -44.5q0 -26 -17 -43t-45 -17q-26 0 -43.5 17t-17.5 43zM682 1401q0 28 16.5 44.5t42.5 16.5q28 0 45 -16.5t17 -44.5 q0 -26 -17 -43t-45 -17q-26 0 -42.5 17t-16.5 43z" />
<glyph horiz-adv-x="1105" d="M33 0l483 1147h72l485 -1147h-65l-162 383h-586l-162 -383h-65zM283 436h540l-235 555l-35 96l-37 -96zM348 1620h72l145 -303h-53z" />
<glyph horiz-adv-x="1105" d="M33 0l483 1147h72l485 -1147h-65l-162 383h-586l-162 -383h-65zM244 1358v53h616v-53h-616zM283 436h540l-235 555l-35 96l-37 -96z" />
<glyph horiz-adv-x="1105" d="M33 0l483 1147h72l485 -1147h-2q-147 -55 -206.5 -113t-59.5 -133q0 -61 40.5 -93t104.5 -32q81 0 131 37l17 -43q-60 -43 -152 -43q-85 0 -139.5 45t-54.5 127q0 83 57.5 145.5t191.5 116.5l-155 369h-586l-162 -383h-65zM283 436h540l-235 555l-35 96l-37 -96z" />
<glyph horiz-adv-x="1105" d="M33 0l469 1110q-56 14 -88.5 56.5t-32.5 103.5q0 73 47.5 118.5t124.5 45.5q76 0 123 -45t47 -119q0 -61 -31.5 -103.5t-87.5 -56.5l469 -1110h-65l-162 383h-586l-162 -383h-65zM283 436h540l-235 555l-35 96l-37 -96zM430 1270q0 -54 34 -87.5t89 -33.5q54 0 87.5 33.5 t33.5 87.5t-33.5 87.5t-87.5 33.5q-55 0 -89 -33.5t-34 -87.5z" />
<glyph horiz-adv-x="1105" d="M33 0l483 1147h72l485 -1147h-65l-162 383h-586l-162 -383h-65zM221 1341q15 99 59.5 146t127.5 47q44 0 78.5 -14.5t57.5 -35t44 -40.5t49.5 -34.5t62.5 -14.5q62 0 91.5 34t44.5 107h53q-18 -99 -61.5 -146t-125.5 -47q-44 0 -79 14.5t-58 35t-44.5 41t-50.5 35 t-64 14.5q-62 0 -90.5 -34t-43.5 -108h-51zM283 436h540l-235 555l-35 96l-37 -96z" />
<glyph horiz-adv-x="1595" d="M12 0l676 1147h811v-53h-682v-486h539v-53h-539v-502h709v-53h-770v424h-428l-248 -424h-68zM360 477h396v617h-33z" />
<glyph horiz-adv-x="1134" d="M186 0v1147h428q186 0 280.5 -75.5t94.5 -219.5q0 -110 -60 -181.5t-169 -90.5v-2q127 -15 195.5 -89.5t68.5 -189.5q0 -146 -104.5 -222.5t-305.5 -76.5h-428zM248 53h373q342 0 342 250q0 248 -342 248h-373v-498zM248 604h370q153 0 231.5 61.5t78.5 182.5t-79 183.5 t-231 62.5h-370v-490z" />
<glyph horiz-adv-x="1198" d="M111 573q0 270 145.5 430t388.5 160q376 0 467 -303l-57 -26q-82 276 -410 276q-214 0 -343.5 -145.5t-129.5 -391.5t129.5 -391t341.5 -145q167 0 275.5 71t146.5 205l57 -22q-42 -147 -168 -227t-309 -80q-241 0 -387.5 159.5t-146.5 429.5z" />
<glyph horiz-adv-x="1198" d="M111 573q0 270 145.5 430t388.5 160q376 0 467 -303l-57 -26q-82 276 -410 276q-214 0 -343.5 -145.5t-129.5 -391.5t129.5 -391t341.5 -145q167 0 275.5 71t146.5 205l57 -22q-42 -147 -168 -227t-309 -80q-241 0 -387.5 159.5t-146.5 429.5zM614 1317l146 303h71 l-163 -303h-54z" />
<glyph horiz-adv-x="1198" d="M111 573q0 270 145.5 430t388.5 160q376 0 467 -303l-57 -26q-82 276 -410 276q-214 0 -343.5 -145.5t-129.5 -391.5t129.5 -391t341.5 -145q167 0 275.5 71t146.5 205l57 -22q-42 -147 -168 -227t-309 -80q-241 0 -387.5 159.5t-146.5 429.5zM373 1616h61l201 -258 l203 258h59l-225 -301h-74z" />
<glyph horiz-adv-x="1198" d="M111 573q0 270 145.5 430t388.5 160q376 0 467 -303l-57 -26q-82 276 -410 276q-214 0 -343.5 -145.5t-129.5 -391.5t129.5 -391t341.5 -145q167 0 275.5 71t146.5 205l57 -22q-40 -136 -151 -215t-273 -90q85 -48 121.5 -102.5t36.5 -121.5q0 -79 -53 -130.5t-139 -51.5 q-131 0 -199 84l24 43q64 -80 170 -80q62 0 102 39t40 101t-39.5 110.5t-143.5 106.5q-230 9 -368.5 168t-138.5 421z" />
<glyph horiz-adv-x="1263" d="M186 0v1147h375q289 0 439.5 -143t150.5 -418q0 -287 -150.5 -436.5t-439.5 -149.5h-375zM248 53h317q258 0 391.5 136t133.5 397q0 249 -133.5 378.5t-391.5 129.5h-317v-1041z" />
<glyph horiz-adv-x="1282" d="M25 555v49h188v543h375q289 0 439.5 -143t150.5 -418q0 -287 -150.5 -436.5t-439.5 -149.5h-375v555h-188zM274 53h318q258 0 391 136t133 397q0 249 -133 378.5t-391 129.5h-318v-490h357v-49h-357v-502z" />
<glyph horiz-adv-x="1263" d="M186 0v1147h375q289 0 439.5 -143t150.5 -418q0 -287 -150.5 -436.5t-439.5 -149.5h-375zM248 53h317q258 0 391.5 136t133.5 397q0 249 -133.5 378.5t-391.5 129.5h-317v-1041zM309 1616h62l200 -258l203 258h60l-226 -301h-73z" />
<glyph horiz-adv-x="1282" d="M25 555v49h188v543h375q289 0 439.5 -143t150.5 -418q0 -287 -150.5 -436.5t-439.5 -149.5h-375v555h-188zM274 53h318q258 0 391 136t133 397q0 249 -133 378.5t-391 129.5h-318v-490h357v-49h-357v-502z" />
<glyph horiz-adv-x="1087" d="M186 0v1147h805v-53h-743v-484h592v-53h-592v-504h772v-53h-834z" />
<glyph horiz-adv-x="1087" d="M186 0v1147h805v-53h-743v-484h592v-53h-592v-504h772v-53h-834zM545 1317l145 303h72l-164 -303h-53z" />
<glyph horiz-adv-x="1087" d="M186 0v1147h805v-53h-743v-484h592v-53h-592v-504h772v-53h-834zM315 1616h62l201 -258l202 258h60l-226 -301h-73z" />
<glyph horiz-adv-x="1087" d="M186 0v1147h805v-53h-743v-484h592v-53h-592v-504h772v-53h-834zM315 1315l226 301h73l226 -301h-60l-202 258l-201 -258h-62z" />
<glyph horiz-adv-x="1087" d="M186 0v1147h805v-53h-743v-484h592v-53h-592v-504h772v-53h-834zM324 1401q0 27 17 44t44 17q28 0 44.5 -16.5t16.5 -44.5q0 -27 -17 -43.5t-44 -16.5q-26 0 -43.5 17t-17.5 43zM707 1401q0 28 16.5 44.5t42.5 16.5q28 0 44.5 -16.5t16.5 -44.5q0 -27 -16.5 -43.5 t-44.5 -16.5q-26 0 -42.5 17t-16.5 43z" />
<glyph horiz-adv-x="1087" d="M186 0v1147h805v-53h-743v-484h592v-53h-592v-504h772v-53h-834zM516 1409q0 27 18 44t46 17t44.5 -16.5t16.5 -44.5t-16.5 -44.5t-44.5 -16.5t-46 17t-18 44z" />
<glyph horiz-adv-x="1087" d="M186 0v1147h805v-53h-743v-484h592v-53h-592v-504h772v-53h-834zM395 1620h72l145 -303h-53z" />
<glyph horiz-adv-x="1087" d="M186 0v1147h805v-53h-743v-484h592v-53h-592v-504h772v-53h-834zM270 1358v53h617v-53h-617z" />
<glyph horiz-adv-x="1087" d="M186 0v1147h805v-53h-743v-484h592v-53h-592v-504h772v-53q-147 -55 -206.5 -113t-59.5 -133q0 -61 40.5 -93t104.5 -32q84 0 131 37l17 -43q-57 -43 -152 -43q-85 0 -140 45t-55 125t52.5 140t175.5 110h-742z" />
<glyph horiz-adv-x="1038" d="M186 0v1147h805v-53h-743v-484h592v-53h-592v-557h-62z" />
<glyph horiz-adv-x="1253" d="M111 573q0 269 150.5 429.5t391.5 160.5q368 0 469 -295l-55 -28q-85 270 -414 270q-212 0 -346.5 -146.5t-134.5 -390.5q0 -248 127 -392t344 -144q93 0 167.5 27t121.5 71t78 103.5t44 120.5t13 126v15h-424v51h481v-551h-51l-2 285q-40 -144 -150 -222.5t-282 -78.5 q-242 0 -385 159t-143 430z" />
<glyph horiz-adv-x="1253" d="M111 573q0 269 150.5 429.5t391.5 160.5q368 0 469 -295l-55 -28q-85 270 -414 270q-212 0 -346.5 -146.5t-134.5 -390.5q0 -248 127 -392t344 -144q93 0 167.5 27t121.5 71t78 103.5t44 120.5t13 126v15h-424v51h481v-551h-51l-2 285q-40 -144 -150 -222.5t-282 -78.5 q-242 0 -385 159t-143 430zM385 1571h51q0 -94 57 -152.5t152 -58.5q94 0 150.5 58t56.5 153h53q0 -121 -69.5 -190.5t-190.5 -69.5t-190.5 69.5t-69.5 190.5z" />
<glyph horiz-adv-x="1286" d="M186 0v1147h62v-537h790v537h62v-1147h-62v557h-790v-557h-62z" />
<glyph horiz-adv-x="434" d="M186 0v1147h62v-1147h-62z" />
<glyph horiz-adv-x="434" d="M186 0v1147h62v-1147h-62zM188 1317l146 303h72l-164 -303h-54z" />
<glyph horiz-adv-x="434" d="M-45 1315l225 301h74l225 -301h-59l-203 258l-201 -258h-61zM186 0v1147h62v-1147h-62z" />
<glyph horiz-adv-x="434" d="M39 1401q0 27 17 44t44 17q28 0 45 -16.5t17 -44.5q0 -26 -17 -43t-45 -17q-26 0 -43.5 17t-17.5 43zM186 0v1147h62v-1147h-62zM272 1401q0 28 17 44.5t45 16.5q26 0 42.5 -16.5t16.5 -44.5q0 -26 -16.5 -43t-42.5 -17q-28 0 -45 17t-17 43z" />
<glyph horiz-adv-x="434" d="M156 1354q0 28 16.5 44.5t44.5 16.5t45 -16.5t17 -44.5t-17 -45t-45 -17t-44.5 17t-16.5 45zM186 0v1147h62v-1147h-62z" />
<glyph horiz-adv-x="434" d="M12 1620h72l145 -303h-53zM186 0v1147h62v-1147h-62z" />
<glyph horiz-adv-x="1376" d="M186 0v1147h62v-1147h-62zM504 358l59 19q-26 -164 46.5 -252t228.5 -88q153 0 230 90t77 252v768h61v-774q0 -183 -95 -286t-273 -103q-184 0 -273 102t-61 272z" />
<glyph horiz-adv-x="434" d="M39 1358v53h354v-53h-354zM186 0v1147h62v-1147h-62z" />
<glyph horiz-adv-x="434" d="M-10 -244q0 70 45 127.5t151 122.5v1141h62v-1147q-116 -74 -160.5 -125.5t-44.5 -112.5q0 -62 39.5 -97.5t99.5 -35.5q39 0 65 8.5t54 30.5l18 -43q-62 -45 -141 -45q-80 0 -134 47.5t-54 128.5z" />
<glyph horiz-adv-x="944" d="M70 358l59 19q-26 -165 46 -252.5t228 -87.5q153 0 230.5 90t77.5 252v768h61v-774q0 -182 -95.5 -285.5t-273.5 -103.5q-184 0 -272.5 101.5t-60.5 272.5z" />
<glyph horiz-adv-x="1062" d="M186 0v1147h62v-672l684 672h80l-465 -463l481 -684h-78l-450 643l-252 -246v-397h-62z" />
<glyph horiz-adv-x="1040" d="M186 0v1147h62v-1094h733v-53h-795z" />
<glyph horiz-adv-x="1040" d="M186 0v1147h62v-1094h733v-53h-795zM201 1317l145 303h72l-164 -303h-53z" />
<glyph horiz-adv-x="1040" d="M186 0v1147h62v-1094h733v-53h-795zM440 743l52 404h61l-66 -404h-47z" />
<glyph horiz-adv-x="1040" d="M186 0v1147h62v-1094h733v-53h-795zM811 606q0 28 18.5 46t47.5 18q28 0 45.5 -18t17.5 -46q0 -29 -17.5 -47t-45.5 -18q-29 0 -47.5 18t-18.5 47z" />
<glyph horiz-adv-x="1040" d="M20 358v62l191 112v615h61v-580l357 213v-59l-357 -213v-455h736v-53h-797v473z" />
<glyph horiz-adv-x="1464" d="M186 0v1147h93l405 -954l47 -123h4l47 123l406 954h92v-1147h-61v926l6 153h-4l-457 -1079h-64l-456 1079h-2l4 -153v-926h-60z" />
<glyph horiz-adv-x="1284" d="M186 0v1147h82l695 -967l77 -112h2l-4 110v969h62v-1147h-84l-707 983l-63 96h-2l2 -110v-969h-60z" />
<glyph horiz-adv-x="1284" d="M186 0v1147h82l695 -967l77 -112h2l-4 110v969h62v-1147h-84l-707 983l-63 96h-2l2 -110v-969h-60zM618 1317l146 303h72l-164 -303h-54z" />
<glyph horiz-adv-x="1284" d="M186 0v1147h82l695 -967l77 -112h2l-4 110v969h62v-1147h-84l-707 983l-63 96h-2l2 -110v-969h-60zM377 1616h61l201 -258l203 258h59l-225 -301h-74z" />
<glyph horiz-adv-x="1284" d="M186 0v1147h82l695 -967l77 -112h2l-4 110v969h62v-1147h-84l-707 983l-63 96h-2l2 -110v-969h-60zM307 1341q15 99 59.5 146t127.5 47q44 0 78.5 -14.5t57.5 -35t44 -40.5t49.5 -34.5t62.5 -14.5q62 0 91.5 34t44.5 107h53q-18 -99 -61.5 -146t-125.5 -47 q-44 0 -79 14.5t-58 35t-44.5 41t-50.5 35t-64 14.5q-62 0 -90.5 -34t-43.5 -108h-51z" />
<glyph horiz-adv-x="1314" d="M111 573q0 272 147 431t399 159q253 0 401 -159t148 -431t-148 -430.5t-401 -158.5q-252 0 -399 158.5t-147 430.5zM172 573q0 -249 130 -392.5t355 -143.5t356.5 144t131.5 392t-131.5 392.5t-356.5 144.5q-224 0 -354.5 -144t-130.5 -393z" />
<glyph horiz-adv-x="1314" d="M111 573q0 272 147 431t399 159q253 0 401 -159t148 -431t-148 -430.5t-401 -158.5q-252 0 -399 158.5t-147 430.5zM172 573q0 -249 130 -392.5t355 -143.5t356.5 144t131.5 392t-131.5 392.5t-356.5 144.5q-224 0 -354.5 -144t-130.5 -393zM637 1317l145 303h72 l-164 -303h-53z" />
<glyph horiz-adv-x="1314" d="M111 573q0 272 147 431t399 159q253 0 401 -159t148 -431t-148 -430.5t-401 -158.5q-252 0 -399 158.5t-147 430.5zM172 573q0 -249 130 -392.5t355 -143.5t356.5 144t131.5 392t-131.5 392.5t-356.5 144.5q-224 0 -354.5 -144t-130.5 -393zM395 1315l226 301h73 l226 -301h-60l-203 258l-200 -258h-62z" />
<glyph horiz-adv-x="1314" d="M111 573q0 272 147 431t399 159q253 0 401 -159t148 -431t-148 -430.5t-401 -158.5q-252 0 -399 158.5t-147 430.5zM172 573q0 -249 130 -392.5t355 -143.5t356.5 144t131.5 392t-131.5 392.5t-356.5 144.5q-224 0 -354.5 -144t-130.5 -393zM403 1401q0 27 17.5 44 t44.5 17q28 0 44.5 -16.5t16.5 -44.5q0 -27 -17 -43.5t-44 -16.5q-26 0 -44 17t-18 43zM786 1401q0 27 17 44t43 17q28 0 44.5 -16.5t16.5 -44.5q0 -27 -16.5 -43.5t-44.5 -16.5q-26 0 -43 17t-17 43z" />
<glyph horiz-adv-x="1314" d="M111 573q0 272 147 431t399 159q253 0 401 -159t148 -431t-148 -430.5t-401 -158.5q-252 0 -399 158.5t-147 430.5zM172 573q0 -249 130 -392.5t355 -143.5t356.5 144t131.5 392t-131.5 392.5t-356.5 144.5q-224 0 -354.5 -144t-130.5 -393zM453 1620h71l146 -303h-54z " />
<glyph horiz-adv-x="1314" d="M111 573q0 272 147 431t399 159q253 0 401 -159t148 -431t-148 -430.5t-401 -158.5q-252 0 -399 158.5t-147 430.5zM172 573q0 -249 130 -392.5t355 -143.5t356.5 144t131.5 392t-131.5 392.5t-356.5 144.5q-224 0 -354.5 -144t-130.5 -393zM502 1317l145 303h72 l-164 -303h-53zM758 1317l145 303h72l-164 -303h-53z" />
<glyph horiz-adv-x="1314" d="M111 573q0 272 147 431t399 159q253 0 401 -159t148 -431t-148 -430.5t-401 -158.5q-252 0 -399 158.5t-147 430.5zM172 573q0 -249 130 -392.5t355 -143.5t356.5 144t131.5 392t-131.5 392.5t-356.5 144.5q-224 0 -354.5 -144t-130.5 -393zM350 1358v53h617v-53h-617z " />
<glyph horiz-adv-x="1314" d="M111 573q0 272 147 431t399 159q202 0 340 -104l103 137h55l-123 -166q174 -160 174 -457q0 -272 -148 -430.5t-401 -158.5q-199 0 -335 100l-105 -139h-55l125 170q-176 156 -176 458zM172 573q0 -266 150 -413l641 854q-126 96 -306 96q-224 0 -354.5 -144t-130.5 -393 zM356 131q123 -94 301 -94q225 0 356.5 144t131.5 392q0 266 -150 410z" />
<glyph horiz-adv-x="1314" d="M111 573q0 272 147 431t399 159q253 0 401 -159t148 -431t-148 -430.5t-401 -158.5q-252 0 -399 158.5t-147 430.5zM172 573q0 -249 130 -392.5t355 -143.5t356.5 144t131.5 392t-131.5 392.5t-356.5 144.5q-224 0 -354.5 -144t-130.5 -393zM326 1341q15 99 59 146 t127 47q44 0 78.5 -14.5t57.5 -35t44.5 -40.5t50 -34.5t62.5 -14.5q62 0 91 34t44 107h53q-18 -99 -61.5 -146t-124.5 -47q-44 0 -79 14.5t-58 35t-45 41t-51 35t-64 14.5q-62 0 -90 -34t-43 -108h-51z" />
<glyph horiz-adv-x="1921" d="M111 573q0 271 140.5 430.5t377.5 159.5q339 0 442 -276v260h752v-53h-697v-484h564v-53h-564v-504h727v-53h-782v260q-103 -276 -442 -276q-237 0 -377.5 159t-140.5 430zM172 573q0 -248 124.5 -392t334.5 -144q224 0 330 132.5t106 403.5t-106 404t-330 133 q-210 0 -334.5 -145t-124.5 -392z" />
<glyph horiz-adv-x="1050" d="M186 0v1147h387q191 0 299.5 -87.5t108.5 -242.5q0 -154 -108.5 -241t-299.5 -87h-325v-489h-62zM248 543h323q165 0 257 72.5t92 201.5q0 131 -92 204t-257 73h-323v-551z" />
<glyph horiz-adv-x="1064" d="M186 0v1147h62v-227h307q212 0 320 -83.5t108 -246.5t-108 -246.5t-320 -83.5h-307v-260h-62zM248 313h325q172 0 260.5 69.5t88.5 207.5q0 276 -349 276h-325v-553z" />
<glyph horiz-adv-x="1314" d="M111 573q0 272 147 431t399 159q253 0 401 -159t148 -431q0 -265 -141 -423t-383 -166q9 -135 84.5 -202t198.5 -67q126 0 192 66l23 -51q-77 -71 -217 -68q-144 0 -234.5 83t-97.5 239q-241 9 -380.5 167t-139.5 422zM172 573q0 -249 130 -392.5t355 -143.5t356.5 144 t131.5 392t-131.5 392.5t-356.5 144.5q-224 0 -354.5 -144t-130.5 -393z" />
<glyph horiz-adv-x="1140" d="M186 0v1147h443q179 0 282 -85t103 -235q0 -129 -78 -211t-217 -102l350 -514h-74l-344 510q-8 -2 -22 -2h-381v-508h-62zM248 561h379q154 0 239.5 70t85.5 196t-85.5 196.5t-239.5 70.5h-379v-533z" />
<glyph horiz-adv-x="1140" d="M186 0v1147h443q179 0 282 -85t103 -235q0 -129 -78 -211t-217 -102l350 -514h-74l-344 510q-8 -2 -22 -2h-381v-508h-62zM248 561h379q154 0 239.5 70t85.5 196t-85.5 196.5t-239.5 70.5h-379v-533zM526 1317l146 303h71l-163 -303h-54z" />
<glyph horiz-adv-x="1140" d="M186 0v1147h443q179 0 282 -85t103 -235q0 -129 -78 -211t-217 -102l350 -514h-74l-344 510q-8 -2 -22 -2h-381v-508h-62zM248 561h379q154 0 239.5 70t85.5 196t-85.5 196.5t-239.5 70.5h-379v-533zM285 1616h61l201 -258l203 258h59l-225 -301h-74z" />
<glyph horiz-adv-x="1105" d="M84 272l51 39q30 -136 146 -205t290 -69q167 0 274 65.5t107 182.5q0 75 -46 124.5t-119.5 73.5t-162 41t-177.5 36.5t-162.5 49t-119.5 89t-46 147.5q0 133 118 225t314 92q344 0 444 -258l-51 -39q-41 127 -138 185.5t-255 58.5q-167 0 -269 -74.5t-102 -185.5 q0 -76 46 -126t119.5 -74.5t162.5 -41.5t178 -36t162.5 -48.5t119.5 -89t46 -147.5q0 -135 -123 -219t-320 -84q-193 0 -322 73t-165 215z" />
<glyph horiz-adv-x="1105" d="M84 272l51 39q30 -136 146 -205t290 -69q167 0 274 65.5t107 182.5q0 75 -46 124.5t-119.5 73.5t-162 41t-177.5 36.5t-162.5 49t-119.5 89t-46 147.5q0 133 118 225t314 92q344 0 444 -258l-51 -39q-41 127 -138 185.5t-255 58.5q-167 0 -269 -74.5t-102 -185.5 q0 -76 46 -126t119.5 -74.5t162.5 -41.5t178 -36t162.5 -48.5t119.5 -89t46 -147.5q0 -135 -123 -219t-320 -84q-193 0 -322 73t-165 215zM524 1317l146 303h71l-163 -303h-54z" />
<glyph horiz-adv-x="1105" d="M84 272l51 39q30 -136 146 -205t290 -69q167 0 274 65.5t107 182.5q0 75 -46 124.5t-119.5 73.5t-162 41t-177.5 36.5t-162.5 49t-119.5 89t-46 147.5q0 133 118 225t314 92q344 0 444 -258l-51 -39q-41 127 -138 185.5t-255 58.5q-167 0 -269 -74.5t-102 -185.5 q0 -76 46 -126t119.5 -74.5t162.5 -41.5t178 -36t162.5 -48.5t119.5 -89t46 -147.5q0 -135 -123 -219t-320 -84q-193 0 -322 73t-165 215zM283 1616h61l201 -258l203 258h59l-225 -301h-74z" />
<glyph horiz-adv-x="1191" d="M186 0v764q0 174 105.5 278.5t286.5 104.5h464v-55l-413 -486h141q161 0 249.5 -76.5t88.5 -224.5q0 -145 -94.5 -229t-255.5 -84q-90 0 -165 28.5t-114 75.5l31 45q86 -96 244 -96q132 0 212.5 70t80.5 190q0 252 -287 252h-197v49l410 488h-393q-151 0 -241.5 -91.5 t-90.5 -240.5v-762h-62z" />
<glyph horiz-adv-x="1024" d="M35 1094v53h956v-53h-448v-1094h-62v1094h-446z" />
<glyph horiz-adv-x="1024" d="M35 1094v53h956v-53h-448v-1094h-62v1094h-446zM250 1616h61l201 -258l203 258h59l-225 -301h-74z" />
<glyph horiz-adv-x="1257" d="M172 416v731h61v-727q0 -185 103 -284t293 -99t292.5 99t102.5 284v727h61v-731q0 -209 -119 -320.5t-337 -111.5t-337.5 111.5t-119.5 320.5z" />
<glyph horiz-adv-x="1257" d="M172 416v731h61v-727q0 -185 103 -284t293 -99t292.5 99t102.5 284v727h61v-731q0 -209 -119 -320.5t-337 -111.5t-337.5 111.5t-119.5 320.5zM608 1317l146 303h71l-163 -303h-54z" />
<glyph horiz-adv-x="1257" d="M172 416v731h61v-727q0 -185 103 -284t293 -99t292.5 99t102.5 284v727h61v-731q0 -209 -119 -320.5t-337 -111.5t-337.5 111.5t-119.5 320.5zM367 1315l225 301h74l225 -301h-60l-202 258l-201 -258h-61z" />
<glyph horiz-adv-x="1257" d="M172 416v731h61v-727q0 -185 103 -284t293 -99t292.5 99t102.5 284v727h61v-731q0 -209 -119 -320.5t-337 -111.5t-337.5 111.5t-119.5 320.5zM375 1401q0 27 17 44t44 17q28 0 45 -16.5t17 -44.5q0 -26 -17 -43t-45 -17q-26 0 -43.5 17t-17.5 43zM758 1401 q0 28 16.5 44.5t42.5 16.5q28 0 45 -16.5t17 -44.5q0 -26 -17 -43t-45 -17q-26 0 -42.5 17t-16.5 43z" />
<glyph horiz-adv-x="1257" d="M172 416v731h61v-727q0 -185 103 -284t293 -99t292.5 99t102.5 284v727h61v-731q0 -209 -119 -320.5t-337 -111.5t-337.5 111.5t-119.5 320.5zM424 1620h72l145 -303h-53z" />
<glyph horiz-adv-x="1257" d="M172 416v731h61v-727q0 -185 103 -284t293 -99t292.5 99t102.5 284v727h61v-731q0 -209 -119 -320.5t-337 -111.5t-337.5 111.5t-119.5 320.5zM453 1317l145 303h72l-164 -303h-53zM709 1317l147 303h70l-164 -303h-53z" />
<glyph horiz-adv-x="1257" d="M172 416v731h61v-727q0 -185 103 -284t293 -99t292.5 99t102.5 284v727h61v-731q0 -209 -119 -320.5t-337 -111.5t-337.5 111.5t-119.5 320.5zM322 1358v53h616v-53h-616z" />
<glyph horiz-adv-x="1257" d="M172 416v731h61v-727q0 -185 103 -284t293 -99t292.5 99t102.5 284v727h61v-731q0 -172 -80.5 -279t-232.5 -139q-134 -63 -189 -120.5t-55 -127.5q0 -61 40.5 -93t105.5 -32q90 0 137 37l16 -45q-59 -41 -157 -41q-86 0 -140.5 44.5t-54.5 125.5q0 74 44 131t143 107 h-33q-218 0 -337.5 111.5t-119.5 320.5z" />
<glyph horiz-adv-x="1257" d="M172 416v731h61v-727q0 -185 103 -284t293 -99t292.5 99t102.5 284v727h61v-731q0 -209 -119 -320.5t-337 -111.5t-337.5 111.5t-119.5 320.5zM442 1294q0 78 53 129.5t136 51.5q81 0 133.5 -51.5t52.5 -129.5t-52.5 -129t-133.5 -51q-83 0 -136 51t-53 129zM494 1294 q0 -58 39 -97.5t98 -39.5q57 0 97 39.5t40 97.5t-40 98t-97 40q-58 0 -97.5 -39.5t-39.5 -98.5z" />
<glyph horiz-adv-x="1085" d="M41 1147h63l385 -946l54 -142l55 140l385 948h64l-467 -1147h-74z" />
<glyph horiz-adv-x="1681" d="M51 1147h64l229 -698l131 -394l330 1092h74l329 -1094l133 404l226 690h63l-383 -1147h-78l-262 854l-65 229h-2l-66 -229l-262 -854h-78z" />
<glyph horiz-adv-x="991" d="M29 0l432 592l-393 555h73l359 -506l364 506h74l-403 -555l421 -592h-73l-385 543l-392 -543h-77z" />
<glyph horiz-adv-x="968" d="M33 1147h71l379 -647l383 647h70l-422 -703v-444h-61v444z" />
<glyph horiz-adv-x="968" d="M33 1147h71l379 -647l383 647h70l-422 -703v-444h-61v444zM463 1317l145 303h72l-164 -303h-53z" />
<glyph horiz-adv-x="968" d="M33 1147h71l379 -647l383 647h70l-422 -703v-444h-61v444zM229 1401q0 27 17.5 44t44.5 17q28 0 44.5 -16.5t16.5 -44.5q0 -27 -17 -43.5t-44 -16.5q-26 0 -44 17t-18 43zM612 1401q0 27 17 44t43 17q28 0 44.5 -16.5t16.5 -44.5q0 -27 -16.5 -43.5t-44.5 -16.5 q-26 0 -43 17t-17 43z" />
<glyph horiz-adv-x="1044" d="M68 0v51l737 948l76 95h-803v53h870v-53l-721 -928l-92 -113h848v-53h-915z" />
<glyph horiz-adv-x="1044" d="M68 0v51l737 948l76 95h-803v53h870v-53l-721 -928l-92 -113h848v-53h-915zM500 1317l145 303h72l-164 -303h-53z" />
<glyph horiz-adv-x="1044" d="M68 0v51l737 948l76 95h-803v53h870v-53l-721 -928l-92 -113h848v-53h-915zM260 1616h59l203 -258l201 258h61l-225 -301h-74z" />
<glyph horiz-adv-x="1044" d="M68 0v51l737 948l76 95h-803v53h870v-53l-721 -928l-92 -113h848v-53h-915zM457 1409q0 28 17.5 44.5t45.5 16.5t45 -16.5t17 -44.5t-17 -44.5t-45 -16.5t-45.5 16.5t-17.5 44.5z" />
<glyph horiz-adv-x="1179" d="M117 573q0 288 121.5 441t351.5 153t352.5 -153.5t122.5 -440.5t-122.5 -440t-352.5 -153t-351.5 152.5t-121.5 440.5zM178 573q0 -263 106 -401.5t306 -138.5t307 138.5t107 401.5t-107 402t-307 139t-306 -139t-106 -402z" />
<glyph horiz-adv-x="675" d="M57 860q115 41 219 116t154 171h57v-1147h-61v926v129q-61 -83 -154.5 -146.5t-195.5 -97.5z" />
<glyph horiz-adv-x="1087" d="M129 0v53q103 54 182.5 98.5t161.5 96t141.5 98.5t113.5 101t87 107.5t52.5 114t19.5 124.5q0 151 -94.5 236t-249.5 85q-166 0 -266.5 -107.5t-83.5 -281.5l-56 25q-12 187 102 302t302 115t296.5 -100t108.5 -274q0 -89 -32 -170.5t-85 -148.5t-140.5 -137t-179 -128 t-220.5 -129q-40 -20 -60 -27v-2q19 0 52 1t49 1h674v-53h-875z" />
<glyph horiz-adv-x="1073" d="M72 88l53 31q30 -137 130.5 -214t268.5 -77q158 0 260.5 89t102.5 237q0 135 -89 216t-251 81h-92v53h92q146 0 225.5 85.5t79.5 219.5q0 146 -87.5 225.5t-244.5 79.5q-130 0 -221 -68t-125 -188l-57 31q44 129 151.5 203.5t249.5 74.5q187 0 291 -95.5t104 -258.5 q0 -132 -67.5 -223.5t-192.5 -112.5v-2q134 -9 214.5 -99.5t80.5 -225.5q0 -168 -121.5 -271.5t-304.5 -103.5q-181 0 -296 82.5t-154 230.5z" />
<glyph horiz-adv-x="1153" d="M78 201v49l659 897h82v-893h275v-53h-275v-406h-61v406h-680zM145 254h613v692l2 146h-4q-37 -60 -99 -146z" />
<glyph horiz-adv-x="1105" d="M104 96l56 29q27 -149 131.5 -223t275.5 -74q170 0 274.5 103.5t104.5 269.5t-101 268t-267 102q-254 0 -377 -168h-54l66 744h741v-53h-690l-53 -590l-4 -35h2q117 156 375 156q188 0 306 -117.5t118 -304.5q0 -191 -122.5 -309.5t-318.5 -118.5q-387 0 -463 321z" />
<glyph horiz-adv-x="1132" d="M115 676q0 170 39 303.5t108.5 218.5t162.5 129.5t204 44.5q278 0 370 -254l-57 -26q-31 104 -109 165.5t-204 61.5q-97 0 -175 -37.5t-129.5 -100.5t-86.5 -149.5t-50.5 -182t-15.5 -200.5q0 -73 16 -209h7q1 115 62 203.5t152.5 132t194.5 43.5q197 0 310.5 -114.5 t113.5 -305.5q0 -192 -117 -305.5t-315 -113.5q-236 0 -358.5 180t-122.5 516zM227 401q0 -159 102.5 -263.5t264.5 -104.5q172 0 272.5 100.5t100.5 269.5q0 162 -99.5 262.5t-265.5 100.5q-108 0 -195.5 -53t-133.5 -136t-46 -176z" />
<glyph horiz-adv-x="1028" d="M39 1094v53h958v-55q-250 -267 -378.5 -583.5t-155.5 -713.5h-62q52 786 533 1299h-895z" />
<glyph horiz-adv-x="1163" d="M115 350q0 137 89 234.5t238 126.5v2q-127 31 -198.5 115t-71.5 206q0 154 111.5 246t298.5 92q186 0 297.5 -92t111.5 -246q0 -122 -71 -206t-197 -115v-2q149 -31 237.5 -128.5t88.5 -232.5q0 -164 -130 -267t-337 -103t-337 103t-130 267zM176 354q0 -144 112 -232.5 t294 -88.5t293.5 88t111.5 233t-112 236.5t-293 91.5t-293.5 -91.5t-112.5 -236.5zM233 1032q0 -132 95.5 -212.5t253.5 -80.5t253 80.5t95 212.5t-94.5 209.5t-253.5 77.5t-254 -77.5t-95 -209.5z" />
<glyph horiz-adv-x="1179" d="M123 748q0 192 120.5 305.5t323.5 113.5q236 0 363 -183t127 -513q0 -335 -132.5 -515.5t-355.5 -180.5q-170 0 -286 78.5t-152 212.5l62 32q22 -127 117 -198.5t257 -71.5q92 0 166 36t123 96.5t82 144.5t47 176.5t14 195.5q0 101 -18 238h-6q1 -90 -35.5 -164.5 t-96 -122.5t-133.5 -74t-151 -26q-200 0 -318 114.5t-118 305.5zM184 745q0 -166 103 -265t276 -99q107 0 195.5 53t137 136.5t48.5 174.5q0 160 -104.5 264.5t-270.5 104.5q-178 0 -281.5 -100.5t-103.5 -268.5z" />
<glyph d="M133 676q0 337 125 516.5t360 179.5t360.5 -179.5t125.5 -516.5t-125.5 -516.5t-360.5 -179.5t-360 179.5t-125 516.5zM195 676q0 -311 109.5 -476t313.5 -165q205 0 314.5 165t109.5 476t-109.5 476t-314.5 165q-204 0 -313.5 -165t-109.5 -476z" />
<glyph d="M207 1042q73 24 160.5 68t176 111t122.5 131h57v-1297h389v-55h-887v55h437v1071v138q-71 -88 -197.5 -164.5t-241.5 -114.5z" />
<glyph d="M180 954q12 191 130.5 304.5t314.5 113.5q195 0 308.5 -109t113.5 -296q0 -61 -17.5 -121.5t-45.5 -115.5t-81.5 -120t-107 -121t-140.5 -132.5t-164.5 -140.5t-195.5 -159v-2h88h717v-55h-899v51q91 74 143.5 117t127.5 106t118 101.5t100.5 92t89.5 90.5t71 83.5 t59.5 83.5t40 79.5t27 82t7.5 80.5q0 162 -97 256t-265 94q-171 0 -274.5 -105.5t-112.5 -285.5z" />
<glyph d="M160 293l57 33q30 -136 132.5 -213.5t271.5 -77.5q158 0 259 88.5t101 238.5q-2 127 -91 209t-249 82h-90v58h90q146 0 225.5 83.5t79.5 217.5q0 145 -87.5 225t-244.5 80q-128 0 -219 -67.5t-125 -186.5l-59 31q46 129 153.5 203.5t249.5 74.5q186 0 291 -95.5 t105 -256.5q0 -133 -70.5 -227t-189.5 -111v-2q127 -6 209.5 -102t82.5 -224q0 -169 -121 -271.5t-305 -102.5q-180 0 -298 83t-158 230z" />
<glyph d="M111 406v49l647 897h84v-893h297v-53h-297v-406h-62v406h-669zM176 459h604v569q0 178 2 268h-2q-61 -94 -114 -166z" />
<glyph d="M182 301l58 29q26 -147 129 -221t274 -74q168 0 272.5 103t104.5 268q0 166 -101 267t-266 101q-255 0 -377 -166h-53l66 744h741v-56h-690l-53 -587l-4 -35h2q122 155 374 155q189 0 306.5 -116.5t117.5 -304.5q0 -191 -121.5 -309.5t-316.5 -118.5q-389 0 -463 321z " />
<glyph d="M186 676q0 170 40 303.5t111 218.5t166 129.5t208 44.5q284 0 379 -254l-58 -26q-33 103 -113.5 164t-209.5 61q-97 0 -176 -37t-132 -100.5t-89 -149.5t-52 -181.5t-16 -199.5q0 -61 16 -205h6q5 115 67.5 202.5t155 130t197.5 42.5q201 0 317.5 -114.5t116.5 -305.5 q0 -192 -119.5 -305.5t-322.5 -113.5q-241 0 -366.5 180t-125.5 516zM301 401q0 -158 104.5 -261t270.5 -103q176 0 278.5 98.5t102.5 265.5q0 162 -102 261.5t-271 99.5q-111 0 -200.5 -53t-136 -135t-46.5 -173z" />
<glyph d="M121 1296v56h1050v-56q-277 -268 -420.5 -586.5t-162.5 -709.5h-64q35 764 576 1296h-979z" />
<glyph d="M160 350q0 137 87.5 234.5t233.5 126.5v2q-124 31 -193 115t-69 206q0 154 108 246t291 92q182 0 291 -92t109 -246q0 -122 -69.5 -206t-190.5 -115v-2q145 -31 231 -128.5t86 -232.5q0 -164 -127 -267t-330 -103t-330.5 103t-127.5 267zM223 354q0 -141 109.5 -230 t285.5 -89q175 0 284.5 89t109.5 230q0 145 -109.5 235.5t-284.5 90.5t-285 -90.5t-110 -235.5zM281 1032q0 -132 92.5 -212.5t244.5 -80.5t244 80.5t92 212.5q0 130 -91.5 206.5t-244.5 76.5q-154 0 -245.5 -76.5t-91.5 -206.5z" />
<glyph d="M150 952q0 192 120.5 306t323.5 114q236 0 363.5 -183.5t127.5 -512.5q0 -339 -132 -517.5t-357 -178.5q-170 0 -286 78.5t-150 211.5l61 33q26 -125 120.5 -196.5t254.5 -71.5q95 0 170.5 36.5t123.5 98t80 147.5t45 179t13 198q0 99 -18 221h-6q0 -90 -37 -164.5 t-97.5 -121t-133.5 -72t-148 -25.5q-200 0 -319 114.5t-119 305.5zM213 950q0 -163 103 -261.5t274 -98.5q108 0 196.5 52.5t136.5 135t48 172.5q0 158 -104.5 261.5t-270.5 103.5q-176 0 -279.5 -99.5t-103.5 -265.5z" />
<glyph horiz-adv-x="1222" d="M125 676q0 336 126 516t361 180q234 0 360 -180t126 -516t-126 -516t-360 -180q-235 0 -361 180t-126 516zM188 676q0 -390 166 -545l475 1122q-91 64 -217 64q-206 0 -315 -164.5t-109 -476.5zM395 98q86 -63 217 -63q204 0 313 165t109 476q0 387 -164 543z" />
<glyph horiz-adv-x="749" d="M76 397q0 203 76.5 310.5t222.5 107.5t222.5 -107.5t76.5 -310.5t-76.5 -310t-222.5 -107t-222.5 107t-76.5 310zM133 397q0 -180 62.5 -275t179.5 -95q118 0 179.5 95t61.5 275q0 181 -61.5 276t-179.5 95q-117 0 -179.5 -95.5t-62.5 -275.5z" />
<glyph horiz-adv-x="419" d="M23 590v49q62 20 131.5 66.5t99.5 99.5h49v-813h-57v608q0 90 4 137q-77 -95 -227 -147z" />
<glyph horiz-adv-x="690" d="M61 561q8 115 81 184.5t194 69.5q122 0 192 -67.5t70 -180.5q0 -166 -260 -374q-128 -107 -184 -152v-2h69h404v-47h-551v45q20 16 225 186q75 62 124.5 114.5t81.5 112.5t32 117q0 91 -55 145t-150 54q-99 0 -157 -58.5t-64 -160.5z" />
<glyph horiz-adv-x="651" d="M33 168l51 27q37 -166 225 -166q93 0 150 48t57 134q0 79 -51 123.5t-148 44.5h-51v45h49q86 0 133.5 48t47.5 122q0 80 -50 126t-139 46q-79 0 -131 -38t-67 -105l-52 22q23 78 91 124t161 46q114 0 180 -60.5t66 -156.5q0 -75 -41.5 -126t-112.5 -69v-4 q75 -8 123.5 -61t48.5 -131q0 -103 -75 -165t-191 -62q-109 0 -178 48.5t-96 139.5z" />
<glyph horiz-adv-x="686" d="M29 227v39l389 539h67v-533h162v-45h-162v-235h-51v235h-405zM86 272h348v379q0 68 2 103h-4q-46 -72 -65 -97z" />
<glyph horiz-adv-x="688" d="M70 174l51 25q31 -168 227 -168q97 0 157 58.5t60 152.5q0 96 -57.5 153.5t-153.5 57.5q-81 0 -130.5 -24t-82.5 -71h-49l39 447h457v-49h-412l-26 -283q0 -5 -9 -57h2q69 82 222 82q115 0 186.5 -71t71.5 -185q0 -118 -75.5 -189t-197.5 -71q-227 0 -280 192z" />
<glyph horiz-adv-x="708" d="M78 397q0 201 86 309.5t225 108.5q176 0 234 -158l-45 -20q-50 131 -191 131q-67 0 -118.5 -32.5t-81 -88t-44 -122.5t-14.5 -142q0 -45 6 -86h2q13 89 81 140.5t163 51.5q121 0 190.5 -68t69.5 -185q0 -119 -70.5 -187.5t-195.5 -68.5q-145 0 -221 107.5t-76 309.5z M158 236q0 -88 62 -148.5t155 -60.5q99 0 155 56t56 153q0 94 -56.5 150t-150.5 56q-97 0 -159 -62.5t-62 -143.5z" />
<glyph horiz-adv-x="610" d="M10 756v49h582v-49q-311 -333 -311 -764h-56q0 432 305 764h-520z" />
<glyph horiz-adv-x="724" d="M74 205q0 79 50.5 135t137.5 76v2q-72 20 -112.5 70t-40.5 120q0 94 68.5 150.5t184.5 56.5q115 0 184.5 -56.5t69.5 -150.5q0 -70 -40 -120t-111 -70v-2q86 -20 136 -76t50 -135q0 -101 -80 -163t-209 -62t-208.5 62t-79.5 163zM131 209q0 -82 63.5 -132t167.5 -50 q103 0 167.5 50.5t64.5 131.5q0 82 -64.5 133t-167.5 51t-167 -51t-64 -133zM166 604q0 -73 54 -118.5t142 -45.5q89 0 143 45.5t54 118.5q0 74 -54 119t-143 45t-142.5 -45t-53.5 -119z" />
<glyph horiz-adv-x="731" d="M76 561q0 117 74 185.5t200 68.5q145 0 224 -110.5t79 -307.5q0 -199 -81.5 -308t-221.5 -109q-105 0 -175 46.5t-95 129.5l51 24q16 -72 70.5 -112.5t148.5 -40.5q66 0 116.5 31.5t79 85t42.5 116.5t14 133q0 49 -12 127h-2q-1 -93 -76 -154t-166 -61q-125 0 -197.5 70 t-72.5 186zM133 561q0 -93 59 -151t156 -58q92 0 154.5 63t62.5 144q0 90 -60 149.5t-153 59.5q-100 0 -159.5 -57t-59.5 -150z" />
<glyph horiz-adv-x="749" d="M76 954q0 203 76.5 310.5t222.5 107.5t222.5 -107.5t76.5 -310.5t-76.5 -310t-222.5 -107t-222.5 107t-76.5 310zM133 954q0 -180 62.5 -275t179.5 -95q118 0 179.5 95t61.5 275q0 181 -61.5 276t-179.5 95q-117 0 -179.5 -95.5t-62.5 -275.5z" />
<glyph horiz-adv-x="419" d="M23 1147v49q62 20 131.5 66.5t99.5 99.5h49v-813h-57v608q0 90 4 137q-77 -95 -227 -147z" />
<glyph horiz-adv-x="690" d="M61 1118q8 115 81 184.5t194 69.5q122 0 192 -67.5t70 -180.5q0 -166 -260 -374q-128 -107 -184 -152v-2h69h404v-47h-551v45q20 16 225 186q75 62 124.5 114.5t81.5 112.5t32 117q0 91 -55 145t-150 54q-99 0 -157 -58.5t-64 -160.5z" />
<glyph horiz-adv-x="651" d="M33 725l51 27q37 -166 225 -166q93 0 150 48t57 134q0 79 -51 123.5t-148 44.5h-51v45h49q86 0 133.5 48t47.5 122q0 80 -50 126t-139 46q-79 0 -131 -38t-67 -105l-52 22q23 78 91 124t161 46q114 0 180 -60.5t66 -156.5q0 -75 -41.5 -125.5t-112.5 -68.5v-5 q75 -8 123.5 -61t48.5 -131q0 -103 -75 -165t-191 -62q-109 0 -178 48.5t-96 139.5z" />
<glyph horiz-adv-x="686" d="M29 784v39l389 539h67v-533h162v-45h-162v-235h-51v235h-405zM86 829h348v379q0 68 2 103h-4q-46 -72 -65 -97z" />
<glyph horiz-adv-x="688" d="M70 731l51 25q31 -168 227 -168q97 0 157 58.5t60 152.5q0 96 -57.5 153.5t-153.5 57.5q-81 0 -130.5 -24t-82.5 -71h-49l39 447h457v-49h-412l-26 -283q0 -5 -9 -57h2q69 82 222 82q115 0 186.5 -71t71.5 -185q0 -118 -75.5 -189t-197.5 -71q-227 0 -280 192z" />
<glyph horiz-adv-x="708" d="M78 954q0 201 86 309.5t225 108.5q176 0 234 -158l-45 -20q-50 131 -191 131q-67 0 -118.5 -32.5t-81 -88t-44 -122.5t-14.5 -142q0 -46 6 -86h2q13 89 81.5 141t162.5 52q121 0 190.5 -68.5t69.5 -185.5q0 -119 -70.5 -187.5t-195.5 -68.5q-145 0 -221 107.5t-76 309.5z M158 793q0 -88 62 -148.5t155 -60.5q99 0 155 56t56 153q0 94 -56.5 150t-150.5 56q-97 0 -159 -62.5t-62 -143.5z" />
<glyph horiz-adv-x="610" d="M10 1313v49h582v-49q-311 -333 -311 -764h-56q0 432 305 764h-520z" />
<glyph horiz-adv-x="724" d="M74 762q0 79 50.5 135t137.5 76v2q-72 20 -112.5 70t-40.5 120q0 94 68.5 150.5t184.5 56.5q115 0 184.5 -56.5t69.5 -150.5q0 -70 -40 -120t-111 -70v-2q86 -20 136 -76t50 -135q0 -101 -80 -163t-209 -62t-208.5 62t-79.5 163zM131 766q0 -82 63.5 -132t167.5 -50 q103 0 167.5 50.5t64.5 131.5q0 82 -64.5 133t-167.5 51t-167 -51t-64 -133zM166 1161q0 -73 54 -118.5t142 -45.5q89 0 143 45.5t54 118.5q0 74 -54 119t-143 45t-142.5 -45t-53.5 -119z" />
<glyph horiz-adv-x="731" d="M76 1118q0 117 74 185.5t200 68.5q145 0 224 -110.5t79 -307.5q0 -199 -81.5 -308t-221.5 -109q-105 0 -175 46.5t-95 129.5l51 24q16 -72 70.5 -112.5t148.5 -40.5q66 0 116.5 31.5t79 85t42.5 116.5t14 133q0 49 -12 127h-2q-1 -93 -76 -154t-166 -61q-125 0 -197.5 70 t-72.5 186zM133 1118q0 -93 59 -151t156 -58q92 0 154.5 63t62.5 144q0 90 -60 149.5t-153 59.5q-100 0 -159.5 -57t-59.5 -150z" />
<glyph horiz-adv-x="1142" d="M113 573q0 288 118 441t340 153q223 0 341 -153t118 -441q0 -287 -118 -440t-341 -153t-340.5 152.5t-117.5 440.5zM174 573q0 -264 101.5 -402t295.5 -138q193 0 295.5 138.5t102.5 401.5t-102.5 402t-295.5 139q-194 0 -295.5 -138.5t-101.5 -402.5z" />
<glyph horiz-adv-x="669" d="M51 862q112 37 218.5 113t156.5 172h55v-1147h-61v938q0 18 1 56t1 57q-60 -81 -153 -142.5t-197 -95.5z" />
<glyph horiz-adv-x="1067" d="M145 786q-12 161 98.5 269t293.5 108q182 0 286.5 -98t104.5 -262q0 -65 -18 -127t-48 -116t-79.5 -109.5t-101.5 -102t-126 -100t-141.5 -97t-157.5 -98.5v-2q27 2 86 2h637v-53h-823v51q114 69 196.5 122.5t169.5 117t144.5 120.5t105.5 120.5t71 130.5t23 137 q0 142 -88.5 226.5t-242.5 84.5q-157 0 -255 -100.5t-81 -247.5z" />
<glyph horiz-adv-x="980" d="M86 248l57 31q26 -115 112 -179.5t232 -64.5q139 0 227.5 73.5t88.5 196.5q0 113 -76 180.5t-219 67.5h-82v49h82q126 0 195 71.5t71 182.5q0 120 -77 187t-214 67q-112 0 -192 -55.5t-111 -155.5l-55 25q39 113 134.5 176t223.5 63q165 0 259 -81t94 -218 q0 -113 -63.5 -192t-168.5 -94q115 -6 187.5 -81.5t72.5 -191.5q0 -145 -107 -233t-270 -88q-162 0 -264.5 69.5t-136.5 194.5z" />
<glyph horiz-adv-x="1030" d="M76 340v45l579 762h82v-756h240v-51h-240v-340h-61v340h-600zM143 391h533v699h-2l-58 -84z" />
<glyph horiz-adv-x="993" d="M94 254l56 27q49 -244 354 -244q149 0 239.5 85.5t90.5 223.5q0 137 -88 221t-232 84q-224 0 -330 -135h-53l59 631h658v-53h-606l-45 -484l-7 -37h3q104 132 329 132q166 0 269.5 -99.5t103.5 -257.5q0 -165 -107.5 -264.5t-281.5 -99.5q-342 0 -412 270z" />
<glyph horiz-adv-x="1011" d="M106 565q0 290 126 444t329 154q245 0 330 -215l-57 -26q-28 87 -96.5 137.5t-178.5 50.5q-103 0 -182 -46.5t-124.5 -126t-68 -174.5t-22.5 -202q0 -81 14 -174h2q9 137 116 222t245 85q177 0 276.5 -96.5t99.5 -259.5q0 -161 -104 -257.5t-279 -96.5 q-211 0 -318.5 148.5t-107.5 432.5zM211 342q0 -133 88.5 -219t228.5 -86q150 0 238 82.5t88 222.5q0 134 -86.5 216.5t-230.5 82.5q-142 0 -234 -90.5t-92 -208.5z" />
<glyph horiz-adv-x="935" d="M53 1094v53h852v-53q-220 -223 -334.5 -491.5t-136.5 -602.5h-63q46 662 469 1094h-787z" />
<glyph horiz-adv-x="1054" d="M111 299q0 115 78.5 196.5t211.5 106.5v2q-114 26 -177.5 97.5t-63.5 175.5q0 131 99.5 208.5t266.5 77.5q168 0 268.5 -78t100.5 -208q0 -103 -64.5 -175t-177.5 -98v-2q133 -26 212 -108t79 -195q0 -141 -116 -228t-302 -87q-185 0 -300 87t-115 228zM172 301 q0 -118 98 -191t256 -73q160 0 258.5 73t98.5 191q0 120 -99.5 196t-257.5 76t-256 -76t-98 -196zM219 872q0 -109 84 -176t223 -67q138 0 223 67t85 176q0 110 -84 174t-224 64t-223.5 -64t-83.5 -174z" />
<glyph horiz-adv-x="1048" d="M109 807q0 161 107.5 258.5t287.5 97.5q208 0 320 -154t112 -434q0 -288 -117 -439.5t-315 -151.5q-151 0 -254.5 66t-134.5 177l59 31q24 -104 106.5 -162.5t223.5 -58.5q83 0 148.5 30.5t107 81.5t69 122t39 147t11.5 162q0 79 -15 190h-4q-1 -77 -34 -139.5 t-85 -100.5t-115 -58.5t-128 -20.5q-179 0 -284 98t-105 258zM170 805q0 -136 89 -218.5t239 -82.5q76 0 140 26t105.5 68.5t64.5 96t23 110.5q0 128 -93.5 216.5t-233.5 88.5q-155 0 -244.5 -82.5t-89.5 -222.5z" />
<glyph horiz-adv-x="407" d="M139 690q0 28 18.5 46t47.5 18q28 0 45.5 -18t17.5 -46q0 -29 -17.5 -47t-45.5 -18q-29 0 -47.5 18t-18.5 47z" />
<glyph horiz-adv-x="397" d="M133 1300q0 28 18.5 46t47.5 18t46 -18t17 -46q0 -29 -17 -47t-46 -18t-47.5 18t-18.5 47zM166 0v700l6 287h53l4 -287v-700h-63z" />
<glyph horiz-adv-x="40" d="M-184 690q0 28 17 46t46 18t47.5 -18t18.5 -46q0 -29 -18.5 -47t-47.5 -18t-46 18t-17 47z" />
<glyph horiz-adv-x="991" d="M84 334q0 172 98 277.5t303 158.5v256h62v-291q-223 -61 -311.5 -150t-88.5 -247q0 -135 93.5 -215t246.5 -80q344 0 387 319l56 -28q-60 -346 -445 -346q-179 0 -290 93.5t-111 252.5zM453 1309q0 28 17.5 45.5t45.5 17.5q29 0 47.5 -17.5t18.5 -45.5q0 -29 -18.5 -47.5 t-47.5 -18.5q-28 0 -45.5 18.5t-17.5 47.5z" />
<glyph horiz-adv-x="137" d="M-51 735q0 29 18 46.5t47 17.5t46.5 -17.5t17.5 -46.5t-17.5 -46t-46.5 -17t-47 17t-18 46z" />
<glyph horiz-adv-x="618" d="M246 51q0 30 17 48t46 18t46.5 -18.5t17.5 -47.5q0 -28 -17.5 -45.5t-46.5 -17.5t-46 17.5t-17 45.5zM246 965q0 28 17 45.5t46 17.5t46.5 -17.5t17.5 -45.5q0 -29 -17.5 -47.5t-46.5 -18.5t-46 18t-17 48z" />
<glyph horiz-adv-x="618" d="M219 -205q66 26 106.5 92t26.5 121l-6 2q-9 -22 -39 -22q-24 0 -41.5 17.5t-17.5 45.5q0 27 19 46.5t48 19.5q40 0 63 -32.5t23 -84.5q0 -71 -37 -136t-106 -102z" />
<glyph d="M72 424v51h274l64 420h-269v51h275l61 406h58l-62 -406h369l61 406h58l-62 -406h266v-51h-274l-64 -420h269v-51h-277l-63 -424h-58l66 424h-369l-65 -424h-56l64 424h-266zM401 475h369l64 420h-367z" />
<glyph horiz-adv-x="618" d="M246 51q0 30 17 48t46 18t46.5 -18.5t17.5 -47.5q0 -28 -17.5 -45.5t-46.5 -17.5t-46 17.5t-17 45.5z" />
<glyph horiz-adv-x="618" d="M219 -205q66 26 106.5 92t26.5 121l-6 2q-9 -22 -39 -22q-24 0 -41.5 17.5t-17.5 45.5q0 27 19 46.5t48 19.5q40 0 63 -32.5t23 -84.5q0 -71 -37 -136t-106 -102zM256 965q0 28 18.5 45.5t47.5 17.5q28 0 45.5 -17.5t17.5 -45.5q0 -29 -17.5 -47.5t-45.5 -18.5 q-29 0 -47.5 18.5t-18.5 47.5z" />
<glyph horiz-adv-x="571" d="M25 645v51q114 0 173.5 51t59.5 148v436q0 111 66.5 172.5t191.5 61.5l6 -52q-99 0 -152 -46.5t-53 -133.5v-442q0 -86 -45.5 -141.5t-130.5 -77.5q86 -23 131 -79.5t45 -141.5v-431q0 -85 53 -132.5t152 -47.5l-6 -51q-125 0 -191.5 61.5t-66.5 172.5v426 q0 95 -59.5 145.5t-173.5 50.5z" />
<glyph horiz-adv-x="571" d="M51 -160q98 0 150.5 47.5t52.5 132.5v431q0 173 178 221q-178 45 -178 219v442q0 86 -52.5 133t-150.5 47l4 52q126 0 192 -61t66 -173v-436q0 -96 60.5 -147.5t173.5 -51.5v-51q-113 0 -173.5 -50.5t-60.5 -145.5v-426q0 -112 -66 -173t-192 -61z" />
<glyph horiz-adv-x="585" d="M160 -199v1739h393v-53h-334v-1632h334v-54h-393z" />
<glyph horiz-adv-x="585" d="M33 -145h334v1632h-334v53h391v-1739h-391v54z" />
<glyph horiz-adv-x="561" d="M113 670q0 310 95.5 540.5t293.5 397.5l33 -37q-189 -160 -276 -379.5t-87 -521.5t87 -521.5t276 -379.5l-33 -37q-198 167 -293.5 397.5t-95.5 540.5z" />
<glyph horiz-adv-x="561" d="M27 -231q188 159 275 378.5t87 522.5t-87 522.5t-275 378.5l32 37q198 -167 294 -397.5t96 -540.5t-96 -540.5t-294 -397.5z" />
<glyph horiz-adv-x="1955" d="M145 659v60h1665v-60h-1665z" />
<glyph horiz-adv-x="1271" d="M145 659v60h981v-60h-981z" />
<glyph horiz-adv-x="894" d="M150 657v64h598v-64h-598z" />
<glyph horiz-adv-x="831" d="M96 668l287 401h74l-291 -401l291 -402h-74zM365 668l286 401h74l-291 -401l291 -402h-74z" />
<glyph horiz-adv-x="831" d="M96 266l291 402l-291 401h74l287 -401l-287 -402h-74zM365 266l288 402l-288 401h71l289 -401l-289 -402h-71z" />
<glyph horiz-adv-x="563" d="M96 668l287 401h74l-291 -401l291 -402h-74z" />
<glyph horiz-adv-x="563" d="M102 266l291 402l-291 401h74l287 -401l-287 -402h-74z" />
<glyph horiz-adv-x="407" d="M139 606q0 28 18.5 46t47.5 18q28 0 45.5 -18t17.5 -46q0 -29 -17.5 -47t-45.5 -18q-29 0 -47.5 18t-18.5 47z" />
<glyph horiz-adv-x="378" d="M127 51q0 28 17.5 46t45.5 18t46 -18t18 -46t-18 -45.5t-46 -17.5t-45.5 17.5t-17.5 45.5zM158 559v588h63v-588l-4 -250h-53z" />
<glyph horiz-adv-x="378" d="M125 1096q0 28 17.5 45.5t45.5 17.5t46 -17.5t18 -45.5t-18 -46t-46 -18t-45.5 18t-17.5 46zM158 0v588l4 250h55l4 -250v-588h-63z" />
<glyph horiz-adv-x="0" d="M-227 606q0 28 17 46t46 18t46.5 -18t17.5 -46q0 -29 -17.5 -47t-46.5 -18t-46 18t-17 47z" />
<glyph horiz-adv-x="866" d="M51 870q53 293 395 293q160 0 259.5 -79t99.5 -216q0 -147 -86.5 -236t-267.5 -132v-211h-62v241q196 52 274 127t78 205q0 116 -81 182t-216 66q-154 0 -233.5 -68.5t-99.5 -197.5zM352 51q0 28 18 46t46 18q29 0 46 -18t17 -46t-17 -45.5t-46 -17.5q-28 0 -46 17.5 t-18 45.5z" />
<glyph horiz-adv-x="858" d="M84 287q0 147 86.5 236t267.5 132v211h62v-241q-196 -52 -274.5 -127t-78.5 -205q0 -116 81 -182t216 -66q293 0 334 266l60 -26q-53 -293 -396 -293q-160 0 -259 79t-99 216zM410 1104q0 28 17 45.5t46 17.5q28 0 46 -17.5t18 -45.5t-18 -46t-46 -18q-29 0 -46 18 t-17 46z" />
<glyph horiz-adv-x="567" d="M143 813v365h66l-12 -365h-54zM365 813v365h67l-12 -365h-55z" />
<glyph horiz-adv-x="634" d="M115 958q0 71 37 136t106 102l39 -33q-66 -26 -106.5 -92t-26.5 -121l6 -2q10 23 39 23q24 0 41.5 -18t17.5 -46q0 -27 -19 -46t-46 -19q-42 0 -65 32t-23 84zM348 958q0 71 37.5 136t106.5 102l38 -33q-66 -26 -106.5 -92t-26.5 -121l6 -2q10 23 39 23q24 0 42 -18 t18 -46q0 -27 -19 -46t-47 -19q-42 0 -65 32t-23 84z" />
<glyph horiz-adv-x="632" d="M113 866q66 26 106.5 92t26.5 121l-6 2q-9 -22 -39 -22q-24 0 -42 17.5t-18 45.5q0 27 19.5 46.5t48.5 19.5q40 0 63 -32.5t23 -84.5q0 -71 -37 -135.5t-106 -101.5zM348 866q66 26 106.5 92t26.5 121l-6 2q-9 -22 -39 -22q-24 0 -41.5 17.5t-17.5 45.5q0 27 19 46.5 t48 19.5q40 0 63 -32.5t23 -84.5q0 -71 -37 -135.5t-106 -101.5z" />
<glyph horiz-adv-x="399" d="M115 958q0 71 37 136t106 102l37 -33q-65 -26 -105 -92t-26 -121l6 -2q10 23 39 23q24 0 40.5 -17.5t16.5 -46.5q0 -27 -18 -46t-47 -19q-40 0 -63 32t-23 84z" />
<glyph horiz-adv-x="399" d="M115 866q65 26 105 92t26 121h-4q-11 -20 -41 -20q-23 0 -40.5 17.5t-17.5 45.5q0 27 18.5 45.5t47.5 18.5q41 0 63.5 -31.5t22.5 -83.5q0 -71 -37 -136.5t-106 -100.5z" />
<glyph horiz-adv-x="344" d="M143 813v365h66l-12 -365h-54z" />
<glyph horiz-adv-x="618" />
<glyph d="M180 512q0 237 113.5 377t318.5 153v187h54v-185q150 -2 253.5 -74t143.5 -204l-55 -27q-34 119 -123 185t-219 69v-962q134 5 231.5 77.5t120.5 192.5l55 -20q-32 -134 -143 -215t-264 -86v-185h-54v187q-205 12 -318.5 152t-113.5 378zM240 512q0 -216 96.5 -341.5 t275.5 -137.5v958q-177 -13 -274.5 -139t-97.5 -340z" />
<glyph d="M119 217l205 205q-82 105 -82 258q0 148 80 252l-203 201l41 43l200 -201q103 92 258 92q156 0 259 -92l200 201l41 -41l-203 -203q78 -101 78 -252q0 -156 -82 -258l207 -207l-41 -39l-205 203q-99 -90 -254 -90q-152 0 -256 90l-202 -203zM303 680q0 -153 86 -244.5 t229 -91.5t228.5 91.5t85.5 244.5q0 151 -85.5 241.5t-228.5 90.5t-229 -90.5t-86 -241.5z" />
<glyph d="M168 350l57 31q27 -144 132 -230t257 -98v594q-55 12 -90 20.5t-83 24t-79 32t-65 42.5t-53 56.5t-32 73t-13 93.5q0 147 113 252t302 111v204h54v-204q164 -6 267 -79t152 -220l-51 -39q-39 140 -130 209t-238 75v-606q46 -10 72.5 -15.5t68.5 -17t67.5 -21.5t60.5 -26 t55.5 -33t44 -41t36 -51.5t21 -63.5t8.5 -77q0 -154 -118.5 -249.5t-315.5 -96.5v-205h-54v207q-173 9 -290 99t-156 249zM260 991q0 -57 20 -101.5t50 -73t80.5 -51t94 -34.5t109.5 -26v593q-163 -6 -258.5 -91t-95.5 -216zM668 51q165 3 269.5 80t104.5 213q0 42 -11 77.5 t-28.5 61t-47 47.5t-58 36.5t-71 28t-76 22t-82.5 18.5v-584z" />
<glyph d="M72 494v53h168q-4 82 -4 129q0 84 4 125h-168v53h174q35 246 163.5 382t329.5 136q156 0 260.5 -75.5t147.5 -221.5l-51 -31q-38 135 -128 205t-225 70q-174 0 -288 -122.5t-146 -342.5h535l-23 -53h-520q-4 -82 -4 -125q0 -68 6 -129h465l-25 -53h-434 q34 -219 146.5 -340t283.5 -121q134 0 234.5 87t136.5 249l53 -23q-40 -176 -156 -271t-268 -95q-201 0 -329 134.5t-162 379.5h-176z" />
<glyph d="M41 -223l16 49q50 -33 142 -33q214 0 258 244l133 729h-350v53h358l72 391q52 295 311 295q96 0 160 -30l-8 -56q-67 31 -134 31q-223 0 -266 -242l-71 -389h411v-53h-420l-133 -733q-53 -295 -319 -295q-50 0 -84 8t-76 31z" />
<glyph d="M154 123q0 68 52.5 109.5t145.5 41.5q116 0 219 -81q25 61 25 131q0 74 -21 138t-75 148h-267v52h232q-65 95 -91 169t-26 158q0 172 105.5 277.5t275.5 105.5q144 0 235 -80t111 -221l-55 -27q-15 124 -94 198.5t-199 74.5q-147 0 -234 -87.5t-87 -234.5 q0 -80 25.5 -148.5t92.5 -174.5q4 -8 6 -10h437v-52h-404q47 -83 66 -147.5t18 -136.5q0 -93 -37 -166q35 -31 44.5 -39t42.5 -32t53 -32t53.5 -17t68.5 -9q204 0 207 221h54q0 -136 -67.5 -204t-186.5 -68q-48 0 -89 10.5t-81 35t-60.5 40t-62.5 51.5 q-42 -64 -106.5 -100.5t-141.5 -36.5q-87 0 -135.5 39t-48.5 104zM211 123q0 -45 35 -70.5t98 -25.5q132 0 205 120q-100 78 -195 78q-69 0 -106 -27.5t-37 -74.5z" />
<glyph d="M111 1352h71l391 -690l43 -82h5l43 82l391 690h71l-460 -789l41 2h358v-49h-418v-209h418v-47h-418v-260h-57v260h-416v47h416v209h-416v49h358l39 -2z" />
<glyph horiz-adv-x="376" d="M160 -199v1739h55v-1739h-55z" />
<glyph horiz-adv-x="1951" d="M117 662q0 269 107 471t304.5 311.5t460.5 109.5q177 0 320 -47.5t238 -128t159.5 -191.5t92.5 -233.5t28 -259.5q0 -247 -75.5 -386.5t-207.5 -139.5q-105 0 -154.5 70t-52.5 211q-44 -131 -143.5 -205t-243.5 -74q-195 0 -313.5 131.5t-118.5 351.5q0 229 127.5 365.5 t331.5 136.5q146 0 241.5 -71.5t133.5 -200.5l8 239h45l-16 -659q-3 -248 165 -248q104 0 162 126t58 353q0 131 -26.5 247.5t-86.5 221t-149.5 179.5t-223 119t-299.5 44q-374 0 -595.5 -229t-221.5 -614q0 -254 105 -440.5t291.5 -283t432.5 -96.5q137 0 265 42.5 t209 115.5l30 -43q-94 -75 -226.5 -119.5t-277.5 -44.5q-264 0 -463.5 103t-310 300.5t-110.5 465.5zM575 655q0 -200 104.5 -318t281.5 -118q166 0 269.5 116t108.5 298l2 69q3 175 -92.5 289.5t-267.5 114.5q-185 0 -295.5 -123t-110.5 -328z" />
<glyph horiz-adv-x="1069" d="M86 250q0 121 76 201.5t237 166.5q-90 113 -121.5 174.5t-31.5 129.5q0 105 70.5 171t189.5 66q116 0 186 -57.5t70 -157.5q0 -97 -60 -173t-225 -167l125 -155q123 -151 195 -234q109 161 106 420l49 -6q0 -281 -121 -453q80 -86 133 -117.5t111 -29.5l-10 -45 q-65 0 -123.5 33t-140.5 120q-133 -153 -363 -153q-154 0 -253 72t-99 194zM143 254q0 -101 83.5 -162t207.5 -61q211 0 332 143q-88 102 -199 240l-137 166q-59 -32 -98 -56.5t-78 -55.5t-61.5 -61.5t-36 -69t-13.5 -83.5zM301 920q0 -60 25.5 -110.5t117.5 -166.5 q153 85 207 151t54 148q0 77 -53.5 121.5t-145.5 44.5q-93 0 -149 -51.5t-56 -136.5z" />
<glyph horiz-adv-x="262" />
<glyph horiz-adv-x="1243" d="M92 1067v45h1059v-45h-1059z" />
<glyph horiz-adv-x="808" d="M92 1067v45h625v-45h-625z" />
<glyph horiz-adv-x="555" d="M92 1067v45h371v-45h-371z" />
<glyph horiz-adv-x="385" d="M147 518v1141h238v-47h-184v-1047h184v-47h-238z" />
<glyph horiz-adv-x="385" d="M0 518v47h184v1047h-184v47h238v-1141h-238z" />
<glyph horiz-adv-x="288" d="M94 725q0 23 13.5 37t35.5 14q23 0 37.5 -14t14.5 -37q0 -22 -14.5 -36.5t-37.5 -14.5q-22 0 -35.5 14.5t-13.5 36.5zM94 1317q0 22 13.5 36.5t35.5 14.5q23 0 37.5 -14.5t14.5 -36.5q0 -23 -14.5 -37t-37.5 -14q-22 0 -35.5 14t-13.5 37z" />
<glyph horiz-adv-x="288" d="M92 547q39 17 64.5 60t17.5 79h-4q-4 -12 -27 -12q-20 0 -34.5 14.5t-14.5 36.5t13.5 36.5t37.5 14.5q33 0 52.5 -25.5t19.5 -66.5q0 -49 -23.5 -94.5t-66.5 -69.5z" />
<glyph horiz-adv-x="288" d="M94 725q0 23 13.5 37t35.5 14q23 0 37.5 -14t14.5 -37q0 -22 -14.5 -36.5t-37.5 -14.5q-22 0 -35.5 14.5t-13.5 36.5z" />
<glyph horiz-adv-x="884" d="M125 682v813h59v-371h516v371h60v-813h-60v393h-516v-393h-59z" />
<glyph horiz-adv-x="905" d="M76 1087q0 192 102 305t275 113t274.5 -113t101.5 -305t-101.5 -304.5t-274.5 -112.5t-275 112.5t-102 304.5zM131 1087q0 -170 87.5 -270t234.5 -100q146 0 232.5 100t86.5 270t-86.5 270.5t-232.5 100.5q-147 0 -234.5 -100.5t-87.5 -270.5z" />
<glyph horiz-adv-x="1863" d="M182 676q0 219 95 391.5t266.5 269.5t388.5 97t388 -97t266 -269.5t95 -391.5t-95 -391.5t-266 -269.5t-388 -97t-388.5 97t-266.5 269.5t-95 391.5zM238 676q0 -205 88.5 -366.5t247 -252t358.5 -90.5t358.5 90.5t247 252t88.5 366.5q0 204 -88.5 366t-246.5 252 t-359 90t-359 -90t-246.5 -252t-88.5 -366z" />
<glyph horiz-adv-x="1030" d="M43 903q0 203 134 336t339 133q204 0 337.5 -133t133.5 -336t-133.5 -336t-337.5 -133q-205 0 -339 133t-134 336zM98 903q0 -182 118.5 -301t299.5 -119q180 0 299 119.5t119 300.5q0 180 -119 299t-299 119q-181 0 -299.5 -119t-118.5 -299zM342 647v506h211 q84 0 130 -38t46 -109q0 -60 -35 -97.5t-98 -46.5l143 -215h-61l-135 213h-148v-213h-53zM395 901h160q123 0 123 105q0 104 -123 104h-160v-209z" />
<glyph horiz-adv-x="823" d="M76 852v47h301v260h-301v47h301v289h55v-289h316v-47h-316v-260h316v-47h-316v-291h-55v291h-301z" />
<glyph horiz-adv-x="823" d="M76 1159v47h301v289h55v-289h316v-47h-316v-598h-55v598h-301z" />
<glyph horiz-adv-x="288" d="M94 248q0 22 13.5 36.5t35.5 14.5q23 0 37.5 -14.5t14.5 -36.5q0 -23 -14.5 -37t-37.5 -14q-22 0 -35.5 14t-13.5 37zM94 -344q0 23 13.5 37t35.5 14q23 0 37.5 -14t14.5 -37q0 -22 -14.5 -36.5t-37.5 -14.5q-22 0 -35.5 14.5t-13.5 36.5z" />
<glyph horiz-adv-x="288" d="M92 -522q39 17 64.5 60t17.5 79h-4q-4 -12 -27 -12q-20 0 -34.5 14.5t-14.5 36.5t13.5 36.5t37.5 14.5q33 0 52.5 -25.5t19.5 -66.5q0 -49 -23.5 -94.5t-66.5 -69.5z" />
<glyph horiz-adv-x="288" d="M94 -344q0 23 13.5 37t35.5 14q23 0 37.5 -14t14.5 -37q0 -22 -14.5 -36.5t-37.5 -14.5q-22 0 -35.5 14.5t-13.5 36.5z" />
<glyph horiz-adv-x="385" d="M147 -551v1141h238v-47h-184v-1047h184v-47h-238z" />
<glyph horiz-adv-x="385" d="M0 -504h184v1047h-184v47h238v-1141h-238v47z" />
<glyph horiz-adv-x="1243" d="M92 -2v45h1059v-45h-1059z" />
<glyph horiz-adv-x="808" d="M92 -2v45h625v-45h-625z" />
<glyph horiz-adv-x="555" d="M92 -2v45h371v-45h-371z" />
<glyph horiz-adv-x="884" d="M125 -387v813h59v-371h516v371h60v-813h-60v393h-516v-393h-59z" />
<glyph horiz-adv-x="905" d="M76 18q0 192 102 305t275 113t274.5 -113t101.5 -305t-101.5 -304.5t-274.5 -112.5t-275 112.5t-102 304.5zM131 18q0 -170 87.5 -270t234.5 -100q146 0 232.5 100t86.5 270t-86.5 270.5t-232.5 100.5q-147 0 -234.5 -100.5t-87.5 -270.5z" />
</font>
</defs>
</svg>
