<?xml version="1.0" standalone="no"?>
<!DOCTYPE svg PUBLIC "-//W3C//DTD SVG 1.1//EN" "http://www.w3.org/Graphics/SVG/1.1/DTD/svg11.dtd" >
<svg xmlns="http://www.w3.org/2000/svg" xmlns:xlink="http://www.w3.org/1999/xlink" version="1.1">
<metadata></metadata>
<defs>
<font id="work_sansregular" horiz-adv-x="1236" >
<font-face units-per-em="2048" ascent="1556" descent="-492" />
<missing-glyph horiz-adv-x="698" />
<glyph unicode="&#xfb01;" horiz-adv-x="1349" d="M66 883v141h204v172q0 141 86 225t250 84q118 0 174 -47l-43 -133q-51 31 -116 31q-187 0 -187 -176v-156h342v-141h-342v-883h-164v883h-204zM954 1343q0 55 34 89t89 34t89 -34t34 -89t-33.5 -88.5t-89.5 -33.5t-89.5 33.5t-33.5 88.5zM995 0v1024h164v-1024h-164z" />
<glyph unicode="&#xfb02;" horiz-adv-x="1431" d="M66 883v141h204v172q0 141 86 225t250 84q118 0 174 -47l-43 -133q-51 31 -116 31q-187 0 -187 -176v-156h342v-141h-342v-883h-164v883h-204zM987 254v1241h164v-1221q0 -78 24 -107.5t87 -29.5q75 0 149 29l-27 -158q-67 -28 -151 -28q-125 0 -185.5 67.5t-60.5 206.5z " />
<glyph horiz-adv-x="0" />
<glyph horiz-adv-x="682" />
<glyph unicode=" "  horiz-adv-x="698" />
<glyph unicode="&#x09;" horiz-adv-x="698" />
<glyph unicode="&#xa0;" horiz-adv-x="698" />
<glyph unicode="!" horiz-adv-x="557" d="M145 113q0 60 37 96.5t97 36.5t96.5 -36.5t36.5 -96.5t-36.5 -96.5t-96.5 -36.5t-97 36.5t-37 96.5zM193 766v586h172v-586l-25 -340h-123z" />
<glyph unicode="&#x22;" horiz-adv-x="825" d="M168 907v506h180l-53 -506h-127zM514 907v506h180l-53 -506h-127z" />
<glyph unicode="#" horiz-adv-x="1310" d="M41 383v125h274l60 346h-244v125h264l62 373h139l-61 -373h339l62 373h139l-61 -373h254v-125h-275l-59 -346h244v-125h-265l-63 -383h-139l63 383h-340l-63 -383h-140l64 383h-254zM455 508h340l59 346h-340z" />
<glyph unicode="$" horiz-adv-x="1259" d="M96 350l152 78q23 -111 112.5 -188t210.5 -99v475q-53 11 -90 20.5t-85 25t-80 33t-66 43.5t-54 57t-33 73t-13 93q0 156 113.5 264t307.5 125v206h142v-208q152 -12 251 -80.5t171 -202.5l-134 -104q-52 119 -117.5 176.5t-170.5 70.5v-481q53 -11 90.5 -20.5 t85.5 -25.5t80.5 -33.5t66.5 -44t54.5 -58t33.5 -75t13 -95.5q0 -158 -115 -258t-309 -115v-207h-142v207q-178 15 -299.5 104t-175.5 244zM305 973q0 -48 20 -84.5t59 -61.5t82 -40.5t105 -30.5v454q-131 -12 -198.5 -73.5t-67.5 -163.5zM713 137q270 23 270 225 q0 50 -20 87.5t-59.5 63t-84 42.5t-106.5 31v-449z" />
<glyph unicode="%" horiz-adv-x="1753" d="M82 999q0 169 88.5 271t237.5 102t237 -102t88 -271t-88 -270.5t-237 -101.5t-237.5 101.5t-88.5 270.5zM227 999q0 -116 47 -179.5t134 -63.5t133.5 63.5t46.5 179.5t-46.5 180t-133.5 64t-134 -64t-47 -180zM369 0l860 1352h155l-860 -1352h-155zM1020 352 q0 169 88.5 271t237.5 102t237 -102t88 -271t-88 -270.5t-237 -101.5t-237.5 101.5t-88.5 270.5zM1165 352q0 -116 47 -179.5t134 -63.5t133.5 63.5t46.5 179.5t-46.5 180t-133.5 64t-134 -64t-47 -180z" />
<glyph unicode="&#x26;" horiz-adv-x="1275" d="M98 330q0 126 74.5 225.5t249.5 192.5q-89 113 -122.5 181.5t-33.5 143.5q0 119 85 209t233 90q85 0 153.5 -26t115 -90.5t46.5 -161.5q0 -77 -18.5 -133.5t-78.5 -120.5t-169 -127q24 -32 135 -170q29 -35 84.5 -103.5t79.5 -97.5q99 161 84 385l131 -16 q8 -127 -24.5 -248.5t-100.5 -220.5q80 -85 134.5 -112.5t127.5 -27.5l-41 -122q-83 0 -148 30.5t-161 126.5q-167 -157 -406 -157q-189 0 -309.5 99t-120.5 251zM252 342q0 -99 80 -164t190 -65q190 0 322 120q-60 67 -187 222q-25 32 -52 65t-56 68.5t-43 52.5 q-149 -86 -201.5 -152.5t-52.5 -146.5zM420 1075q0 -54 25 -104t108 -158q66 36 108 71.5t61 71.5t25.5 65.5t6.5 68.5q0 143 -172 143q-78 0 -120 -45.5t-42 -112.5z" />
<glyph unicode="'" horiz-adv-x="479" d="M168 907v506h180l-53 -506h-127z" />
<glyph unicode="(" horiz-adv-x="716" d="M125 575q0 584 438 963l94 -94q-200 -183 -282 -383t-82 -486q0 -285 82 -485t282 -383l-94 -94q-438 379 -438 962z" />
<glyph unicode=")" horiz-adv-x="716" d="M59 -293q200 184 282.5 383.5t82.5 484.5t-82.5 485t-282.5 384l95 94q438 -379 438 -963q0 -583 -438 -962z" />
<glyph unicode="*" horiz-adv-x="1171" d="M109 1100l38 125l238 -74l154 -72l-21 168v248h135v-248l-20 -168l153 72l238 74l39 -125l-234 -78l-167 -33l116 -125l144 -200l-107 -78l-147 198l-82 150l-82 -150l-148 -198l-106 78l143 200l117 125l-168 33z" />
<glyph unicode="+" d="M121 571v154h422v430h153v-430h420v-154h-420v-432h-153v432h-422z" />
<glyph unicode="," horiz-adv-x="544" d="M117 -219q80 27 133 84.5t67 124.5l-8 4q-17 -14 -57 -14q-42 0 -77.5 34t-35.5 95q0 56 39 96.5t94 40.5q71 0 112.5 -55t41.5 -144q0 -109 -55.5 -201t-167.5 -145z" />
<glyph unicode="-" horiz-adv-x="1044" d="M184 451v170h676v-170h-676z" />
<glyph unicode="." horiz-adv-x="544" d="M139 113q0 60 36.5 96.5t96.5 36.5t97 -36.5t37 -96.5t-37 -96.5t-97 -36.5t-96.5 36.5t-36.5 96.5z" />
<glyph unicode="/" horiz-adv-x="897" d="M57 -143l627 1638h154l-627 -1638h-154z" />
<glyph unicode="0" horiz-adv-x="1273" d="M133 676q0 340 129 518t375 178t375 -178t129 -518t-129 -518t-375 -178t-375 178t-129 518zM303 676q0 -267 85.5 -408t248.5 -141t248.5 141t85.5 408t-85.5 408t-248.5 141t-248.5 -141t-85.5 -408z" />
<glyph unicode="1" horiz-adv-x="837" d="M76 1108q77 10 216 90t193 154h144v-1352h-164v991q0 44 4 158q-70 -67 -162.5 -117.5t-187.5 -73.5z" />
<glyph unicode="2" horiz-adv-x="1193" d="M109 971q27 183 149 292t322 109q205 0 328.5 -117.5t123.5 -306.5q0 -194 -145.5 -377.5t-501.5 -420.5v-3q157 7 203 7h473v-154h-909v133q212 155 340.5 261.5t215 204t119.5 177.5t33 172q0 121 -78 196t-209 75q-138 0 -222.5 -90t-98.5 -244z" />
<glyph unicode="3" horiz-adv-x="1193" d="M106 303l152 80q40 -125 113 -187.5t215 -62.5q139 0 217 70t76 180q-1 121 -76.5 171t-235.5 50h-53v154h53q278 0 281 223q1 117 -63 177.5t-187 60.5q-232 0 -287 -207l-153 71q50 133 167 211t271 78q198 0 310 -102t112 -250q0 -142 -75.5 -238t-178.5 -96v-4 q129 0 207 -93t78 -227q0 -167 -131 -274.5t-345 -107.5q-338 0 -467 323z" />
<glyph unicode="4" horiz-adv-x="1251" d="M90 354v121l617 877h206v-856h240v-142h-240v-354h-163v354h-660zM264 496h486v505l8 218h-4q-52 -106 -136 -226z" />
<glyph unicode="5" horiz-adv-x="1191" d="M129 289l160 84q35 -118 104 -179t201 -61q140 0 220 77t79 212q-1 142 -75.5 216.5t-211.5 74.5q-211 0 -301 -131h-145l82 770h759v-154h-620l-53 -426l-2 -18h2q109 112 309 112q193 0 309.5 -119.5t116.5 -316.5q0 -211 -123 -330.5t-340 -119.5q-183 0 -296.5 78.5 t-174.5 230.5z" />
<glyph unicode="6" horiz-adv-x="1265" d="M145 676q0 166 40.5 299t112 219.5t167.5 132t209 45.5q162 0 264.5 -67.5t165.5 -217.5l-152 -71q-67 203 -288 203q-106 0 -190 -76t-129.5 -207t-45.5 -291v-37h8q21 82 83.5 140.5t136 83t151.5 24.5q206 0 330.5 -119t124.5 -319q0 -201 -125.5 -319.5 t-339.5 -118.5q-166 0 -285.5 90.5t-178.5 246t-59 359.5zM371 420q0 -127 81.5 -205t213.5 -78q139 0 217 74.5t78 208.5q0 130 -78 204t-217 74q-132 0 -213.5 -77.5t-81.5 -200.5z" />
<glyph unicode="7" horiz-adv-x="1148" d="M82 1198v154h995v-154q-252 -264 -367.5 -556.5t-115.5 -641.5h-168q0 331 119.5 637.5t353.5 560.5h-817z" />
<glyph unicode="8" horiz-adv-x="1261" d="M139 365q0 123 67 213t187 133v2q-90 39 -141 118.5t-51 184.5q0 163 117 258.5t313 95.5t313 -95.5t117 -258.5q0 -104 -50.5 -183.5t-140.5 -119.5v-2q118 -44 185 -132.5t67 -213.5q0 -176 -134 -280.5t-357 -104.5q-222 0 -357 104.5t-135 280.5zM309 381 q0 -115 87 -181.5t235 -66.5q149 0 235 66.5t86 181.5q0 116 -87 183t-234 67q-146 0 -234 -67t-88 -183zM371 999q0 -99 71 -157t189 -58t189 58t71 157q0 102 -69.5 160t-190.5 58t-190.5 -58t-69.5 -160z" />
<glyph unicode="9" horiz-adv-x="1275" d="M141 285l162 86q18 -58 38.5 -97.5t54.5 -73.5t86.5 -50.5t125.5 -16.5q83 0 147 28t106.5 78t69.5 125.5t38.5 165t11.5 201.5v19h-8q-15 -71 -54.5 -122.5t-94 -79t-111 -40t-117.5 -12.5q-205 0 -329 119t-124 319q0 201 125.5 319.5t339.5 118.5q166 0 285 -89 t178 -244.5t59 -362.5q0 -340 -132.5 -518t-387.5 -178q-183 0 -296 76t-173 229zM315 932q0 -130 78 -204.5t217 -74.5q132 0 213.5 78t81.5 201q0 127 -81.5 204.5t-213.5 77.5q-140 0 -217.5 -74.5t-77.5 -207.5z" />
<glyph unicode=":" horiz-adv-x="606" d="M170 113q0 60 36.5 96.5t96.5 36.5t96.5 -36.5t36.5 -96.5t-36.5 -96.5t-96.5 -36.5t-96.5 36.5t-36.5 96.5zM170 911q0 60 36.5 96.5t96.5 36.5t96.5 -36.5t36.5 -96.5t-36.5 -96.5t-96.5 -36.5t-96.5 36.5t-36.5 96.5z" />
<glyph unicode=";" horiz-adv-x="606" d="M152 -219q80 27 133 84.5t67 124.5l-8 4q-18 -14 -57 -14q-42 0 -77.5 34t-35.5 95q0 56 39 96.5t94 40.5q71 0 112.5 -55t41.5 -144q0 -109 -55.5 -201t-167.5 -145zM182 911q0 60 36.5 96.5t96.5 36.5t97 -36.5t37 -96.5t-37 -96.5t-97 -36.5t-96.5 36.5t-36.5 96.5z " />
<glyph unicode="&#x3c;" d="M145 518v191l975 460v-170l-844 -385l844 -387v-170z" />
<glyph unicode="=" d="M131 340v154h975v-154h-975zM131 750v153h975v-153h-975z" />
<glyph unicode="&#x3e;" d="M117 57v170l844 387l-844 385v170l975 -460v-191z" />
<glyph unicode="?" horiz-adv-x="1110" d="M80 1024q34 159 161 253.5t318 94.5q199 0 324 -94.5t125 -253.5q0 -87 -30 -156.5t-83 -115t-121.5 -72t-150.5 -35.5v-219h-170v307q206 31 294.5 93t88.5 178q0 100 -73.5 157.5t-215.5 57.5q-135 0 -221 -75t-101 -204zM401 113q0 60 37 96.5t97 36.5t96.5 -36.5 t36.5 -96.5t-36.5 -96.5t-96.5 -36.5t-97 36.5t-37 96.5z" />
<glyph unicode="@" horiz-adv-x="2017" d="M135 457q0 262 111 465t316.5 316.5t475.5 113.5q168 0 307 -42t236 -116.5t163.5 -178t98 -225t31.5 -258.5q0 -250 -103 -396t-274 -146q-105 0 -162.5 54t-74.5 134q-55 -84 -148 -131t-215 -47q-150 0 -250 112.5t-100 303.5q0 124 40.5 227.5t107.5 169.5t151 102.5 t174 36.5q238 0 307 -178l41 166h107l-80 -637q-22 -199 127 -199q110 0 167.5 108t57.5 320q0 154 -45 281t-132 220.5t-223 145.5t-309 52q-356 0 -561 -209.5t-205 -564.5q0 -168 55 -307.5t151.5 -232.5t228 -144.5t284.5 -51.5q160 0 257.5 35.5t185.5 98.5l71 -95 q-109 -77 -221.5 -118t-292.5 -41q-255 0 -449.5 106.5t-300.5 300.5t-106 449zM694 424q0 -142 65.5 -221.5t186.5 -79.5q123 0 215.5 77.5t110.5 221.5l12 100q5 52 2 98t-20.5 85t-46 67t-75.5 43.5t-108 15.5q-157 0 -249.5 -108t-92.5 -299z" />
<glyph unicode="A" horiz-adv-x="1351" d="M53 0l527 1352h194l524 -1352h-174l-143 375h-612l-144 -375h-172zM428 528h494l-183 480l-63 188h-4l-60 -182z" />
<glyph unicode="B" horiz-adv-x="1337" d="M221 0v1352h481q233 0 347 -98t114 -275q0 -106 -60.5 -188t-166.5 -103v-2q118 -23 190 -109t72 -198q0 -174 -131 -276.5t-367 -102.5h-479zM385 154h354q143 0 215 58t72 167t-72 167t-215 58h-354v-450zM385 758h320q145 0 215.5 54.5t70.5 166.5q0 219 -286 219 h-320v-440z" />
<glyph unicode="C" horiz-adv-x="1404" d="M139 676q0 320 169.5 508t453.5 188q392 0 524 -315l-162 -76q-90 238 -350 238q-210 0 -336.5 -145t-126.5 -398q0 -254 122 -398.5t333 -144.5q137 0 237 70.5t144 204.5l164 -62q-64 -173 -209 -269.5t-336 -96.5q-289 0 -458 187.5t-169 508.5z" />
<glyph unicode="D" horiz-adv-x="1476" d="M221 0v1352h436q320 0 500 -176.5t180 -499.5t-180 -499.5t-500 -176.5h-436zM385 154h289q232 0 361.5 138t129.5 384t-129.5 384t-361.5 138h-289v-1044z" />
<glyph unicode="E" horiz-adv-x="1306" d="M221 0v1352h948v-154h-784v-436h610v-154h-610v-454h815v-154h-979z" />
<glyph unicode="F" horiz-adv-x="1249" d="M221 0v1352h946v-154h-782v-436h610v-154h-610v-608h-164z" />
<glyph unicode="G" horiz-adv-x="1482" d="M139 676q0 319 172.5 507.5t458.5 188.5q200 0 331.5 -75.5t209.5 -233.5l-150 -82q-44 116 -146 177t-245 61q-208 0 -333.5 -145.5t-125.5 -397.5q0 -258 118.5 -400.5t342.5 -142.5q177 0 288 90t111 258v47h-430v154h580v-682h-123l-6 182q-124 -202 -426 -202 q-289 0 -458 187.5t-169 508.5z" />
<glyph unicode="H" horiz-adv-x="1503" d="M221 0v1352h164v-590h733v590h164v-1352h-164v608h-733v-608h-164z" />
<glyph unicode="I" horiz-adv-x="606" d="M221 0v1352h164v-1352h-164z" />
<glyph unicode="J" horiz-adv-x="1159" d="M96 446l152 31q-7 -53 -7 -97q0 -104 39 -163q56 -84 207 -84q167 0 234 90.5t67 280.5v848h164v-889q0 -227 -121.5 -355t-336.5 -128q-226 0 -332 126q-77 91 -77 229q0 52 11 111z" />
<glyph unicode="K" horiz-adv-x="1343" d="M221 0v1352h164v-697l680 697h215l-539 -551l545 -801h-196l-463 680l-242 -246v-434h-164z" />
<glyph unicode="L" horiz-adv-x="1224" d="M221 0v1352h164v-1198h774v-154h-938z" />
<glyph unicode="M" horiz-adv-x="1748" d="M221 0v1352h252l297 -822l102 -337h5l104 335l295 824h252v-1352h-156v850l19 356h-2l-445 -1206h-139l-445 1206h-2l19 -356v-850h-156z" />
<glyph unicode="N" horiz-adv-x="1503" d="M221 0v1352h203l563 -901l146 -271h2l-9 217v955h156v-1352h-203l-565 905l-143 266h-2l8 -217v-954h-156z" />
<glyph unicode="O" horiz-adv-x="1531" d="M139 676q0 321 169 508.5t458 187.5t458 -187.5t169 -508.5t-169 -508.5t-458 -187.5t-458 187.5t-169 508.5zM311 676q0 -254 122 -398.5t333 -144.5t333 144.5t122 398.5t-122 398.5t-333 144.5t-333 -144.5t-122 -398.5z" />
<glyph unicode="P" horiz-adv-x="1249" d="M221 0v1352h477q206 0 330.5 -111.5t124.5 -300.5t-124.5 -300.5t-330.5 -111.5h-313v-528h-164zM385 682h289q307 0 307 258t-307 258h-289v-516z" />
<glyph unicode="Q" horiz-adv-x="1531" d="M139 676q0 321 169 508.5t458 187.5t458 -187.5t169 -508.5q0 -300 -149 -484.5t-406 -207.5q6 -66 28.5 -111t60 -67t77.5 -30.5t94 -8.5q75 0 139 20t102 55l54 -151q-47 -41 -133.5 -65.5t-165.5 -24.5q-62 0 -116.5 11.5t-106 39.5t-89 70.5t-62.5 109.5t-30 152 q-256 25 -403.5 209.5t-147.5 482.5zM311 676q0 -254 122 -398.5t333 -144.5t333 144.5t122 398.5t-122 398.5t-333 144.5t-333 -144.5t-122 -398.5z" />
<glyph unicode="R" horiz-adv-x="1361" d="M221 0v1352h512q207 0 332 -107t125 -289q0 -143 -79.5 -241t-219.5 -135l381 -580h-195l-368 561h-324v-561h-164zM385 715h346q287 0 287 241q0 242 -287 242h-346v-483z" />
<glyph unicode="S" horiz-adv-x="1312" d="M98 272l142 115q117 -254 432 -254q160 0 254 58t94 165q0 90 -82.5 144t-290.5 90q-270 47 -382.5 135.5t-112.5 245.5q0 109 59.5 199.5t175.5 146t268 55.5q364 0 523 -287l-142 -114q-62 135 -147 191.5t-232 56.5q-156 0 -244.5 -65t-88.5 -165q0 -96 81.5 -149.5 t292.5 -89.5q267 -45 379.5 -135.5t112.5 -249.5q0 -173 -143 -279t-379 -106q-206 0 -350.5 79.5t-219.5 212.5z" />
<glyph unicode="T" d="M66 1198v154h1105v-154h-471v-1198h-163v1198h-471z" />
<glyph unicode="U" horiz-adv-x="1474" d="M207 504v848h164v-807q0 -212 88.5 -312t277.5 -100t278 100t89 312v807h164v-848q0 -259 -136.5 -391.5t-394.5 -132.5q-257 0 -393.5 132.5t-136.5 391.5z" />
<glyph unicode="V" horiz-adv-x="1327" d="M57 1352h176l345 -934l86 -268l86 266l344 936h176l-512 -1352h-187z" />
<glyph unicode="W" horiz-adv-x="1968" d="M74 1352h176l325 -1223l320 1223h186l320 -1227l328 1227h165l-397 -1352h-203l-239 877l-70 305h-2l-70 -305l-237 -877h-203z" />
<glyph unicode="X" horiz-adv-x="1230" d="M51 0l473 688l-432 664h195l344 -529l346 529h174l-436 -656l450 -696h-190l-367 559l-366 -559h-191z" />
<glyph unicode="Y" horiz-adv-x="1171" d="M20 1352h195l371 -656l370 656h195l-483 -824v-528h-164v528z" />
<glyph unicode="Z" horiz-adv-x="1290" d="M115 0v145l841 1053h-821v154h1016v-146l-842 -1052h869v-154h-1063z" />
<glyph unicode="[" horiz-adv-x="712" d="M178 -344v1839h467v-143h-313v-1553h313v-143h-467z" />
<glyph unicode="\" horiz-adv-x="897" d="M59 1495h154l627 -1638h-154z" />
<glyph unicode="]" horiz-adv-x="712" d="M68 -201h313v1553h-313v143h467v-1839h-467v143z" />
<glyph unicode="^" horiz-adv-x="1146" d="M55 727l441 768h155l441 -768h-166l-353 629l-352 -629h-166z" />
<glyph unicode="_" horiz-adv-x="1103" d="M0 -199h1104v-153h-1104v153z" />
<glyph unicode="`" horiz-adv-x="1024" d="M264 1536h178l156 -342h-133z" />
<glyph unicode="a" horiz-adv-x="1159" d="M117 254q0 118 102 202t297 117l272 45v58q0 103 -62.5 164t-176.5 61q-210 0 -293 -194l-121 88q40 114 152.5 181.5t261.5 67.5q183 0 293 -88t110 -260v-503q0 -38 18 -56t60 -18q40 0 82 10l-10 -129q-58 -20 -123 -20q-79 0 -125 34.5t-59 116.5 q-48 -70 -138.5 -110.5t-191.5 -40.5q-152 0 -250 71t-98 203zM287 254q0 -64 48.5 -97.5t137.5 -33.5q128 0 221.5 61.5t93.5 159.5v141l-229 -43q-272 -50 -272 -188z" />
<glyph unicode="b" horiz-adv-x="1290" d="M190 0v1495h164v-631q49 82 138 131t202 49q215 0 341 -141.5t126 -390.5t-126 -390.5t-341 -141.5q-119 0 -212 54t-138 144l-10 -178h-144zM354 500q0 -173 87.5 -275t234.5 -102q150 0 235.5 104.5t85.5 284.5t-85.5 284.5t-235.5 104.5q-147 0 -234.5 -102 t-87.5 -275v-24z" />
<glyph unicode="c" horiz-adv-x="1155" d="M127 512q0 249 132 390.5t364 141.5q301 0 424 -272l-156 -74q-67 203 -273 203q-154 0 -240.5 -103t-86.5 -286t86.5 -286t240.5 -103q119 0 191 54.5t96 156.5l152 -53q-54 -144 -164 -222.5t-270 -78.5q-232 0 -364 141.5t-132 390.5z" />
<glyph unicode="d" horiz-adv-x="1290" d="M129 512q0 249 126 390.5t341 141.5q113 0 202 -49t138 -131v631h164v-1495h-144l-10 178q-45 -90 -138 -144t-212 -54q-215 0 -341 141.5t-126 390.5zM293 512q0 -180 85.5 -284.5t235.5 -104.5q147 0 234.5 102t87.5 275v24q0 173 -87.5 275t-234.5 102 q-150 0 -235.5 -104.5t-85.5 -284.5z" />
<glyph unicode="e" horiz-adv-x="1189" d="M127 512q0 251 126.5 391.5t356.5 140.5q215 0 337 -136.5t122 -342.5q0 -56 -8 -114h-772q15 -155 103.5 -241.5t230.5 -86.5q112 0 186 38.5t102 112.5l138 -71q-61 -109 -163.5 -166t-262.5 -57q-232 0 -364 141.5t-132 390.5zM291 596h620q-18 143 -95.5 224 t-205.5 81q-136 0 -218 -79.5t-101 -225.5z" />
<glyph unicode="f" horiz-adv-x="804" d="M66 883v141h204v172q0 141 86 225t250 84q118 0 174 -47l-43 -133q-51 31 -116 31q-187 0 -187 -176v-156h342v-141h-342v-883h-164v883h-204z" />
<glyph unicode="g" horiz-adv-x="1124" d="M94 -170q0 70 47.5 123t132.5 76q-139 66 -139 188q0 148 154 201q-73 45 -111.5 117.5t-38.5 162.5q0 152 117.5 249t302.5 97q119 0 209 -40q58 208 289 208l37 -143q-200 0 -244 -113q129 -96 129 -258q0 -152 -117.5 -249t-302.5 -97q-87 0 -158 19 q-61 -13 -87.5 -44.5t-26.5 -84.5t37 -82t98 -29h340q145 0 227 -66t82 -178q0 -99 -69 -174.5t-183.5 -114t-253.5 -38.5q-233 0 -352 74t-119 196zM246 -137q0 -77 86.5 -121.5t251.5 -44.5q156 0 246 50.5t90 121.5q0 59 -46.5 90t-156.5 31h-275q-95 0 -145.5 -33.5 t-50.5 -93.5zM309 698q0 -94 71.5 -153.5t178.5 -59.5t178.5 59.5t71.5 153.5t-71.5 153.5t-178.5 59.5t-178.5 -59.5t-71.5 -153.5z" />
<glyph unicode="h" horiz-adv-x="1267" d="M190 0v1495h164v-625q102 174 334 174q174 0 286.5 -100t112.5 -289v-655h-163v598q0 160 -68.5 231.5t-183.5 71.5q-47 0 -91 -12t-85.5 -39t-72.5 -67.5t-50 -102t-19 -137.5v-543h-164z" />
<glyph unicode="i" horiz-adv-x="544" d="M150 1343q0 56 33.5 89.5t88.5 33.5q56 0 89.5 -34t33.5 -89t-33.5 -88.5t-89.5 -33.5t-89 33.5t-33 88.5zM190 0v1024h164v-1024h-164z" />
<glyph unicode="j" horiz-adv-x="544" d="M-162 -373l35 156q71 -64 168 -64q149 0 149 193v1112h164v-1128q0 -91 -28.5 -159.5t-75.5 -105t-99 -54t-108 -17.5q-124 0 -205 67zM150 1343q0 51 35.5 87t86.5 36t87 -36t36 -87t-36 -86.5t-87 -35.5t-86.5 35.5t-35.5 86.5z" />
<glyph unicode="k" horiz-adv-x="1161" d="M190 0v1495h164v-1001l531 530h205l-400 -399l424 -625h-199l-344 506l-217 -217v-289h-164z" />
<glyph unicode="l" horiz-adv-x="626" d="M182 254v1241h164v-1221q0 -78 24 -107.5t87 -29.5q75 0 149 29l-26 -158q-67 -28 -152 -28q-125 0 -185.5 67.5t-60.5 206.5z" />
<glyph unicode="m" horiz-adv-x="1951" d="M190 0v1024h144l10 -160q53 90 140.5 135t187.5 45q113 0 208 -50.5t144 -149.5q44 97 146.5 148.5t209.5 51.5q60 0 116.5 -14t106.5 -45t87.5 -76t59.5 -110t22 -144v-655h-164v639q0 133 -67 197.5t-175 64.5q-126 0 -214.5 -91t-88.5 -249v-561h-164v639 q0 133 -67 197.5t-175 64.5q-53 0 -104.5 -20.5t-97 -60.5t-73.5 -111t-28 -162v-547h-164z" />
<glyph unicode="n" horiz-adv-x="1267" d="M190 0v1024h144l10 -160q52 92 142 136t202 44q174 0 286.5 -100t112.5 -289v-655h-163v598q0 160 -68.5 231.5t-183.5 71.5q-59 0 -113.5 -19.5t-101.5 -59.5t-75 -111.5t-28 -165.5v-545h-164z" />
<glyph unicode="o" horiz-adv-x="1245" d="M127 512q0 249 132 390.5t364 141.5t363.5 -141.5t131.5 -390.5t-131.5 -390.5t-363.5 -141.5t-364 141.5t-132 390.5zM291 512q0 -183 88.5 -287t243.5 -104t243 104t88 287t-88 287t-243 104t-243.5 -104t-88.5 -287z" />
<glyph unicode="p" horiz-adv-x="1290" d="M190 -430v1454h144l10 -178q45 90 138 144t212 54q215 0 341 -141.5t126 -390.5t-126 -390.5t-341 -141.5q-113 0 -202 49t-138 131v-590h-164zM354 500q0 -173 87.5 -275t234.5 -102q150 0 235.5 104.5t85.5 284.5t-85.5 284.5t-235.5 104.5q-147 0 -234.5 -102 t-87.5 -275v-24z" />
<glyph unicode="q" horiz-adv-x="1292" d="M131 512q0 249 126 390.5t341 141.5q119 0 212 -54t138 -144l10 178h144v-1454h-164v590q-49 -82 -138 -131t-202 -49q-215 0 -341 141.5t-126 390.5zM295 512q0 -180 85.5 -284.5t235.5 -104.5q147 0 234.5 102t87.5 275v24q0 173 -87.5 275t-234.5 102 q-150 0 -235.5 -104.5t-85.5 -284.5z" />
<glyph unicode="r" horiz-adv-x="835" d="M190 0v1024h134l22 -168q86 188 328 188q73 0 112 -20l-32 -160q-52 27 -129 27q-48 0 -94.5 -21t-86.5 -61.5t-65 -107t-25 -148.5v-553h-164z" />
<glyph unicode="s" horiz-adv-x="1079" d="M98 211l133 92q35 -90 121.5 -135t202.5 -45q121 0 184.5 42.5t63.5 108.5q0 59 -59 95t-209 63q-219 40 -308.5 108t-89.5 197t111 218t293 89q165 0 263.5 -59.5t141.5 -185.5l-139 -82q-33 98 -99 141t-167 43q-100 0 -170 -45t-70 -104q0 -67 61 -104.5t216 -63.5 q213 -35 301 -104.5t88 -196.5q0 -135 -116.5 -219t-311.5 -84q-148 0 -266.5 58.5t-174.5 172.5z" />
<glyph unicode="t" horiz-adv-x="858" d="M63 883v141h205v246l164 45v-291h379v-141h-379v-600q0 -73 42 -111.5t112 -38.5q98 0 174 76l57 -137q-102 -92 -264 -92q-124 0 -204 67t-81 207v629h-205z" />
<glyph unicode="u" horiz-adv-x="1267" d="M180 354v670h164v-627q0 -150 62 -212t180 -62q141 0 234 86.5t93 257.5v557h164v-1024h-143l-10 156q-103 -176 -367 -176q-79 0 -145 21t-119 64t-83 117t-30 172z" />
<glyph unicode="v" horiz-adv-x="1064" d="M25 1024h186l324 -858l333 858h172l-426 -1024h-163z" />
<glyph unicode="w" horiz-adv-x="1753" d="M76 1024h182l258 -834l279 834h163l279 -834l258 834h182l-356 -1024h-164l-289 815l-272 -815h-164z" />
<glyph unicode="x" horiz-adv-x="1091" d="M59 0l394 516l-369 508h205l270 -379l266 379h193l-371 -502l377 -522h-201l-282 395l-291 -395h-191z" />
<glyph unicode="y" horiz-adv-x="1095" d="M31 -354l57 139q58 -82 166 -82q60 0 105 35.5t81 130.5l54 133l-428 1022h186l256 -668l63 -182l74 203l240 647h176l-481 -1196q-59 -148 -133.5 -208t-190.5 -60q-77 0 -129.5 20t-95.5 66z" />
<glyph unicode="z" horiz-adv-x="1093" d="M117 0v125l536 629l129 133l-182 -4h-477v141h842v-125l-537 -629l-127 -133l199 4h481v-141h-864z" />
<glyph unicode="{" horiz-adv-x="718" d="M57 504v143q125 0 177.5 49t52.5 164v424q0 126 75 190t246 64l27 -133q-103 0 -149 -26.5t-46 -82.5v-450q0 -220 -233 -271q233 -51 233 -270v-450q0 -56 46 -82.5t149 -26.5l-27 -133q-171 0 -246 64t-75 190v424q0 115 -52.5 164t-177.5 49z" />
<glyph unicode="|" horiz-adv-x="497" d="M178 -344v1839h141v-1839h-141z" />
<glyph unicode="}" horiz-adv-x="718" d="M84 -254q103 0 149 26.5t46 82.5v450q0 219 233 270q-233 51 -233 271v450q0 56 -46 82.5t-149 26.5l27 133q171 0 246 -64t75 -190v-424q0 -115 52.5 -164t177.5 -49v-143q-125 0 -177.5 -49t-52.5 -164v-424q0 -126 -75 -190t-246 -64z" />
<glyph unicode="~" horiz-adv-x="1105" d="M88 481q24 305 268 305q61 0 118 -23.5t93 -52t81.5 -52t86.5 -23.5q101 0 127 151h156q-24 -305 -266 -305q-51 0 -97.5 15.5t-80.5 38t-65.5 45t-67 38t-70.5 15.5q-101 0 -127 -152h-156z" />
<glyph unicode="&#xa1;" horiz-adv-x="540" d="M137 911q0 60 36.5 96.5t96.5 36.5t96.5 -36.5t36.5 -96.5t-36.5 -96.5t-96.5 -36.5t-96.5 36.5t-36.5 96.5zM184 258l25 340h123l24 -340v-586h-172v586z" />
<glyph unicode="&#xa2;" horiz-adv-x="1161" d="M139 512q0 225 109 363.5t305 164.5v189h137v-187q259 -23 365 -270l-156 -74q-57 180 -209 207v-788q175 27 228 217l147 -51q-45 -131 -141 -209.5t-234 -91.5v-187h-137v189q-196 26 -305 164.5t-109 363.5zM293 512q0 -165 67.5 -266.5t192.5 -126.5v786 q-125 -25 -192.5 -126.5t-67.5 -266.5z" />
<glyph unicode="&#xa3;" horiz-adv-x="1282" d="M102 156q0 76 65.5 129t176.5 53q124 0 240 -68q10 45 10 84q0 97 -80 215h-338v133h236q-60 79 -84.5 137t-24.5 117q0 182 121.5 299t310.5 117q320 0 408 -319l-142 -78q-31 124 -94.5 186t-179.5 62q-125 0 -198.5 -66t-73.5 -174q0 -57 24.5 -112.5t93.5 -153.5 q2 -2 5.5 -7.5t5.5 -7.5h385v-133h-303q51 -102 51 -207q0 -80 -35 -161q43 -30 69.5 -45.5t69 -30t84.5 -14.5q88 0 127 47.5t41 154.5h133q0 -163 -72.5 -248t-205.5 -85q-84 0 -156 31t-158 87q-108 -118 -286 -118q-103 0 -164.5 49t-61.5 127zM252 156 q0 -31 26.5 -48.5t69.5 -17.5q106 0 174 68q-98 57 -176 57q-94 0 -94 -59z" />
<glyph unicode="&#xa4;" horiz-adv-x="1361" d="M143 240l181 184q-74 107 -74 250q0 141 76 254l-183 178l105 104l182 -180q110 74 252 74q145 0 254 -76l178 182l105 -104l-179 -182q72 -112 72 -250q0 -143 -76 -256l183 -178l-105 -105l-184 178q-107 -71 -248 -71q-143 0 -256 77l-178 -184zM414 674 q0 -124 75.5 -204.5t192.5 -80.5q116 0 191 80.5t75 204.5q0 123 -75 202.5t-191 79.5q-117 0 -192.5 -79.5t-75.5 -202.5z" />
<glyph unicode="&#xa5;" horiz-adv-x="1269" d="M70 1352h190l275 -498l98 -203h4l98 205l275 496h190l-455 -752l91 8h266v-123h-395v-153h395v-113h-395v-219h-144v219h-393v113h393v153h-393v123h264l90 -8z" />
<glyph unicode="&#xa6;" horiz-adv-x="522" d="M190 -344v743h142v-743h-142zM190 752v743h142v-743h-142z" />
<glyph unicode="&#xa7;" horiz-adv-x="1224" d="M66 592q0 92 52 162.5t136 117.5q-64 70 -64 193q0 131 120.5 219t320.5 88q111 0 196.5 -28.5t136 -71.5t93.5 -107l-115 -98q-54 81 -127 121.5t-188 40.5q-130 0 -201.5 -39.5t-71.5 -110.5q0 -91 78.5 -138t282.5 -73q248 -32 350 -104t102 -209q0 -92 -52 -163 t-136 -118q63 -69 63 -192q0 -131 -117.5 -219t-308.5 -88q-293 0 -440 207l121 100q47 -85 123 -124.5t194 -39.5q125 0 195 40t70 110q0 90 -78 137t-283 74q-248 33 -350 105t-102 208zM229 606q0 -76 72.5 -115.5t259.5 -62.5q181 -21 285 -66q158 69 158 179 q0 76 -73 116.5t-259 61.5q-182 21 -285 63q-158 -64 -158 -176z" />
<glyph unicode="&#xa8;" horiz-adv-x="1024" d="M203 1309q0 53 31.5 84.5t84.5 31.5t85 -32t32 -84q0 -53 -32 -85t-85 -32q-52 0 -84 32t-32 85zM600 1309q0 52 32 84t85 32t85 -32t32 -84q0 -53 -32 -85t-85 -32t-85 32t-32 85z" />
<glyph unicode="&#xa9;" horiz-adv-x="1679" d="M139 676q0 317 191 506.5t510 189.5t509.5 -189.5t190.5 -506.5t-190.5 -506.5t-509.5 -189.5t-510 189.5t-191 506.5zM285 676q0 -257 151 -410t404 -153t404 153t151 410t-151 410t-404 153t-404 -153t-151 -410zM481 672q0 177 100 278t273 101q235 0 320 -195 l-119 -59q-52 131 -203 131q-109 0 -171.5 -67.5t-62.5 -188.5t62.5 -188.5t171.5 -67.5q165 0 217 137l113 -45q-39 -102 -122.5 -158.5t-205.5 -56.5q-173 0 -273 101t-100 278z" />
<glyph unicode="&#xaa;" horiz-adv-x="782" d="M39 840q0 85 64.5 137.5t201.5 77.5l191 32v29q0 63 -40 99t-112 36q-144 0 -192 -125l-101 60q24 80 101.5 128t197.5 48q139 0 212 -61.5t73 -180.5v-286q0 -64 63 -64q34 0 50 8l-11 -90q-41 -18 -80 -18q-113 0 -137 102q-36 -48 -103 -75t-153 -27q-105 0 -165 44 t-60 126zM53 412v108h656v-108h-656zM182 856q0 -41 29 -58.5t90 -17.5q73 0 134 38t61 100v77l-146 -28q-91 -18 -129.5 -42t-38.5 -69z" />
<glyph unicode="&#xab;" horiz-adv-x="1009" d="M104 543l258 401h179l-262 -401l262 -402h-179zM467 543l258 401h178l-262 -401l262 -402h-178z" />
<glyph unicode="&#xac;" d="M121 571v154h995v-457h-164v303h-831z" />
<glyph unicode="&#xad;" horiz-adv-x="1044" d="M184 451v170h676v-170h-676z" />
<glyph unicode="&#xae;" horiz-adv-x="1679" d="M139 676q0 317 191 506.5t510 189.5t509.5 -189.5t190.5 -506.5t-190.5 -506.5t-509.5 -189.5t-510 189.5t-191 506.5zM285 676q0 -257 151 -410t404 -153t404 153t151 410t-151 410t-404 153t-404 -153t-151 -410zM575 293v758h312q129 0 208 -65.5t79 -176.5 q0 -86 -49.5 -145.5t-135.5 -83.5l201 -287h-156l-182 274h-139v-274h-138zM713 672h172q151 0 151 137t-151 137h-172v-274z" />
<glyph unicode="&#xaf;" horiz-adv-x="1024" d="M156 1221v137h712v-137h-712z" />
<glyph unicode="&#xb0;" horiz-adv-x="942" d="M123 1034q0 148 98 243t250 95t250 -95t98 -243t-98 -243t-250 -95t-250 95t-98 243zM266 1034q0 -89 58 -147t147 -58t147 58t58 147t-58 147t-147 58t-147 -58t-58 -147z" />
<glyph unicode="&#xb1;" d="M121 0v154h995v-154h-995zM121 735v154h422v422h153v-422h420v-154h-420v-420h-153v420h-422z" />
<glyph unicode="&#xb2;" horiz-adv-x="747" d="M57 1241q7 124 91.5 194t220.5 70q143 0 222 -76t79 -184q0 -90 -72 -182t-225 -197q-20 -14 -57 -38t-50 -33v-2q75 6 131 6h291v-117h-608v98q130 92 188 138q148 117 200 183t52 136q0 66 -41.5 107.5t-116.5 41.5q-80 0 -126.5 -50.5t-49.5 -139.5z" />
<glyph unicode="&#xb3;" horiz-adv-x="741" d="M49 866l137 62q24 -140 176 -140q72 0 116 36.5t44 97.5q0 114 -160 114h-49v103h43q71 0 108.5 32t37.5 91q0 61 -36.5 92.5t-103.5 31.5q-131 0 -155 -122l-133 47q25 96 104.5 145t192.5 49q133 0 207.5 -60.5t74.5 -160.5q0 -86 -50.5 -137.5t-110.5 -54.5v-2 q69 -2 124.5 -52t55.5 -137q0 -103 -86 -167t-221 -64q-253 0 -316 196z" />
<glyph unicode="&#xb4;" horiz-adv-x="1024" d="M426 1194l156 342h178l-201 -342h-133z" />
<glyph unicode="&#xb5;" horiz-adv-x="1251" d="M178 -430v1454h164v-627q0 -150 62 -212t180 -62q134 0 220.5 67t106.5 187v647h164v-1024h-133l-14 166q-106 -186 -373 -186q-136 0 -213 92v-502h-164z" />
<glyph unicode="&#xb6;" horiz-adv-x="1304" d="M84 922q0 201 135 315.5t385 114.5h514v-1557h-143v1419h-264v-1419h-150v699q-221 3 -349 118.5t-128 309.5z" />
<glyph unicode="&#xb7;" horiz-adv-x="462" d="M98 727q0 60 36.5 96.5t96.5 36.5t97 -36.5t37 -96.5t-37 -96.5t-97 -36.5t-96.5 36.5t-36.5 96.5z" />
<glyph unicode="&#xb8;" horiz-adv-x="1024" d="M299 -369l61 113q58 -61 142 -61q50 0 83 32.5t33 85.5q0 65 -42 108.5t-160 96.5l90 53q122 -37 189 -114.5t67 -165.5q0 -91 -64.5 -155t-173.5 -64q-146 0 -225 71z" />
<glyph unicode="&#xb9;" horiz-adv-x="495" d="M20 1225v123q59 11 134 55.5t106 91.5h127v-813h-143v514q0 41 4 147q-104 -97 -228 -118z" />
<glyph unicode="&#xba;" horiz-adv-x="737" d="M47 1016q0 165 82.5 255.5t239.5 90.5q156 0 238.5 -90.5t82.5 -255.5t-82.5 -255.5t-238.5 -90.5q-157 0 -239.5 90.5t-82.5 255.5zM74 412v108h590v-108h-590zM190 1016q0 -112 45 -173t134 -61t133.5 60.5t44.5 173.5t-44.5 174t-133.5 61t-134 -61.5t-45 -173.5z" />
<glyph unicode="&#xbb;" horiz-adv-x="1007" d="M104 141l263 402l-263 401h179l258 -401l-258 -402h-179zM467 141l262 402l-262 401h178l258 -401l-258 -402h-178z" />
<glyph unicode="&#xbc;" horiz-adv-x="1613" d="M20 1092v122q59 11 134 56t106 92h127v-813h-143v514q0 41 4 147q-104 -97 -228 -118zM180 0l977 1352h162l-977 -1352h-162zM899 195v75l373 535h155v-508h146v-102h-146v-203h-120v203h-408zM1038 297h269v233q0 80 6 156h-6q-32 -63 -66 -111z" />
<glyph unicode="&#xbd;" horiz-adv-x="1751" d="M20 1092v122q59 11 134 56t106 92h127v-813h-143v514q0 41 4 147q-104 -97 -228 -118zM180 0l977 1352h162l-977 -1352h-162zM1061 551q7 124 91 194t220 70q143 0 222 -76t79 -184q0 -90 -72 -182t-225 -197q-10 -7 -106 -72v-2q88 7 131 7h291v-117h-609v98 q158 113 189 137q148 117 200 183t52 137q0 66 -41.5 107.5t-116.5 41.5q-80 0 -126.5 -50.5t-49.5 -139.5z" />
<glyph unicode="&#xbe;" horiz-adv-x="1859" d="M49 733l137 62q24 -140 176 -140q72 0 116 36t44 97q0 115 -160 115h-49v103h43q72 0 109 31.5t37 90.5q0 61 -36.5 93t-103.5 32q-131 0 -155 -123l-133 48q25 96 104.5 145t192.5 49q133 0 207.5 -60.5t74.5 -160.5q0 -87 -50.5 -138.5t-110.5 -54.5v-2 q69 -2 124.5 -51.5t55.5 -136.5q0 -103 -86 -167t-221 -64q-253 0 -316 196zM426 0l977 1352h162l-977 -1352h-162zM1145 195v75l373 535h155v-508h146v-102h-146v-203h-121v203h-407zM1284 297h268v233q0 67 7 156h-7q-35 -68 -65 -111z" />
<glyph unicode="&#xbf;" horiz-adv-x="1099" d="M96 0q0 87 30 156.5t83 115t121.5 72t150.5 35.5v219h170v-307q-206 -31 -294.5 -93t-88.5 -178q0 -100 73.5 -157.5t215.5 -57.5q135 0 221 75t101 204l145 -84q-34 -159 -161 -253.5t-318 -94.5q-199 0 -324 94.5t-125 253.5zM436 911q0 60 36.5 96.5t96.5 36.5 t96.5 -36.5t36.5 -96.5t-36.5 -96.5t-96.5 -36.5t-96.5 36.5t-36.5 96.5z" />
<glyph unicode="&#xc0;" horiz-adv-x="1351" d="M53 0l527 1352h194l524 -1352h-174l-143 375h-612l-144 -375h-172zM428 528h494l-183 480l-63 188h-4l-60 -182zM434 1825h193l116 -303h-133z" />
<glyph unicode="&#xc1;" horiz-adv-x="1351" d="M53 0l527 1352h194l524 -1352h-174l-143 375h-612l-144 -375h-172zM428 528h494l-183 480l-63 188h-4l-60 -182zM590 1522l117 303h192l-176 -303h-133z" />
<glyph unicode="&#xc2;" horiz-adv-x="1351" d="M53 0l527 1352h194l524 -1352h-174l-143 375h-612l-144 -375h-172zM350 1507l234 342h184l233 -342h-149l-176 236l-176 -236h-150zM428 528h494l-183 480l-63 188h-4l-60 -182z" />
<glyph unicode="&#xc3;" horiz-adv-x="1351" d="M53 0l527 1352h194l524 -1352h-174l-143 375h-612l-144 -375h-172zM303 1520q21 274 232 274q42 0 78 -14.5t61.5 -35t48 -40.5t45.5 -34.5t45 -14.5q44 0 67.5 35.5t34.5 105.5h129q-21 -274 -229 -274q-43 0 -79.5 14.5t-62 35t-47.5 40.5t-46 34.5t-48 14.5 q-43 0 -66 -35t-34 -106h-129zM428 528h494l-183 480l-63 188h-4l-60 -182z" />
<glyph unicode="&#xc4;" horiz-adv-x="1351" d="M53 0l527 1352h194l524 -1352h-174l-143 375h-612l-144 -375h-172zM360 1636q0 52 32 84.5t85 32.5t85 -32.5t32 -84.5t-32 -84t-85 -32t-85 32t-32 84zM428 528h494l-183 480l-63 188h-4l-60 -182zM758 1636q0 53 32 85t84 32t84.5 -32.5t32.5 -84.5t-32 -84t-85 -32 q-52 0 -84 32t-32 84z" />
<glyph unicode="&#xc5;" horiz-adv-x="1351" d="M53 0l500 1284q-62 30 -97.5 87t-35.5 132q0 108 71.5 175t186.5 67t185.5 -67t70.5 -175q0 -75 -35.5 -132t-97.5 -87l497 -1284h-174l-143 375h-612l-144 -375h-172zM428 528h494l-183 480l-63 188h-4l-60 -182zM530 1503q0 -61 41.5 -101t104.5 -40t104 40t41 101 q0 62 -41 102t-104 40t-104.5 -40.5t-41.5 -101.5z" />
<glyph unicode="&#xc6;" horiz-adv-x="1953" d="M12 0l791 1352h1014v-154h-730v-436h555v-154h-555v-454h760v-154h-923v436h-484l-252 -436h-176zM530 590h394v608h-41z" />
<glyph unicode="&#xc7;" horiz-adv-x="1404" d="M139 676q0 320 169.5 508t453.5 188q392 0 524 -315l-162 -76q-90 238 -350 238q-210 0 -336.5 -145t-126.5 -398q0 -254 122 -398.5t333 -144.5q137 0 237 70.5t144 204.5l164 -62q-55 -147 -167.5 -239t-264.5 -117q114 -89 114 -211q0 -91 -64 -155t-173 -64 q-147 0 -226 71l62 113q58 -61 141 -61q50 0 83.5 32.5t33.5 85.5q0 59 -32.5 99t-119.5 82q-260 23 -409.5 208.5t-149.5 485.5z" />
<glyph unicode="&#xc8;" horiz-adv-x="1306" d="M221 0v1352h948v-154h-784v-436h610v-154h-610v-454h815v-154h-979zM483 1825h193l117 -303h-134z" />
<glyph unicode="&#xc9;" horiz-adv-x="1306" d="M221 0v1352h948v-154h-784v-436h610v-154h-610v-454h815v-154h-979zM608 1522l117 303h193l-177 -303h-133z" />
<glyph unicode="&#xca;" horiz-adv-x="1306" d="M221 0v1352h948v-154h-784v-436h610v-154h-610v-454h815v-154h-979zM369 1507l233 342h184l234 -342h-150l-176 236l-176 -236h-149z" />
<glyph unicode="&#xcb;" horiz-adv-x="1306" d="M221 0v1352h948v-154h-784v-436h610v-154h-610v-454h815v-154h-979zM379 1636q0 52 32.5 84.5t84.5 32.5t84 -32t32 -85q0 -52 -32 -84t-84 -32q-53 0 -85 32t-32 84zM776 1636q0 52 32 84.5t85 32.5t85 -32.5t32 -84.5t-32 -84t-85 -32t-85 32t-32 84z" />
<glyph unicode="&#xcc;" horiz-adv-x="606" d="M61 1825h193l117 -303h-133zM221 0v1352h164v-1352h-164z" />
<glyph unicode="&#xcd;" horiz-adv-x="606" d="M217 1522l117 303h192l-176 -303h-133zM221 0v1352h164v-1352h-164z" />
<glyph unicode="&#xce;" horiz-adv-x="606" d="M-23 1507l234 342h184l234 -342h-150l-176 236l-176 -236h-150zM221 0v1352h164v-1352h-164z" />
<glyph unicode="&#xcf;" horiz-adv-x="606" d="M10 1636q0 52 32 84.5t85 32.5t85 -32.5t32 -84.5t-32 -84t-85 -32t-85 32t-32 84zM221 0v1352h164v-1352h-164zM362 1636q0 52 32 84.5t85 32.5t85 -32.5t32 -84.5t-32 -84t-85 -32t-85 32t-32 84z" />
<glyph unicode="&#xd0;" horiz-adv-x="1509" d="M53 621v122h201v609h436q320 0 500 -176.5t180 -499.5t-180 -499.5t-500 -176.5h-436v621h-201zM418 154h289q232 0 361.5 138t129.5 384t-129.5 384t-361.5 138h-289v-455h403v-122h-403v-467z" />
<glyph unicode="&#xd1;" horiz-adv-x="1503" d="M221 0v1352h203l563 -901l146 -271h2l-9 217v955h156v-1352h-203l-565 905l-143 266h-2l8 -217v-954h-156zM387 1520q21 274 231 274q42 0 78.5 -14.5t62 -35t47.5 -40.5t45.5 -34.5t45.5 -14.5q44 0 67.5 35.5t34.5 105.5h129q-21 -274 -229 -274q-43 0 -79.5 14.5 t-62 35t-47.5 40.5t-46 34.5t-48 14.5q-43 0 -66 -35t-34 -106h-129z" />
<glyph unicode="&#xd2;" horiz-adv-x="1531" d="M139 676q0 321 169 508.5t458 187.5t458 -187.5t169 -508.5t-169 -508.5t-458 -187.5t-458 187.5t-169 508.5zM311 676q0 -254 122 -398.5t333 -144.5t333 144.5t122 398.5t-122 398.5t-333 144.5t-333 -144.5t-122 -398.5zM524 1825h193l117 -303h-134z" />
<glyph unicode="&#xd3;" horiz-adv-x="1531" d="M139 676q0 321 169 508.5t458 187.5t458 -187.5t169 -508.5t-169 -508.5t-458 -187.5t-458 187.5t-169 508.5zM311 676q0 -254 122 -398.5t333 -144.5t333 144.5t122 398.5t-122 398.5t-333 144.5t-333 -144.5t-122 -398.5zM680 1522l117 303h192l-176 -303h-133z" />
<glyph unicode="&#xd4;" horiz-adv-x="1531" d="M139 676q0 321 169 508.5t458 187.5t458 -187.5t169 -508.5t-169 -508.5t-458 -187.5t-458 187.5t-169 508.5zM311 676q0 -254 122 -398.5t333 -144.5t333 144.5t122 398.5t-122 398.5t-333 144.5t-333 -144.5t-122 -398.5zM440 1507l234 342h184l234 -342h-150l-176 236 l-176 -236h-150z" />
<glyph unicode="&#xd5;" horiz-adv-x="1531" d="M139 676q0 321 169 508.5t458 187.5t458 -187.5t169 -508.5t-169 -508.5t-458 -187.5t-458 187.5t-169 508.5zM311 676q0 -254 122 -398.5t333 -144.5t333 144.5t122 398.5t-122 398.5t-333 144.5t-333 -144.5t-122 -398.5zM393 1520q21 274 232 274q42 0 78 -14.5 t61.5 -35t48 -40.5t45.5 -34.5t45 -14.5q44 0 68 35.5t35 105.5h129q-21 -274 -230 -274q-43 0 -79.5 14.5t-61.5 35t-47.5 40.5t-46 34.5t-47.5 14.5q-44 0 -67 -35.5t-34 -105.5h-129z" />
<glyph unicode="&#xd6;" horiz-adv-x="1531" d="M139 676q0 321 169 508.5t458 187.5t458 -187.5t169 -508.5t-169 -508.5t-458 -187.5t-458 187.5t-169 508.5zM311 676q0 -254 122 -398.5t333 -144.5t333 144.5t122 398.5t-122 398.5t-333 144.5t-333 -144.5t-122 -398.5zM451 1636q0 53 32 85t84 32q53 0 85 -32.5 t32 -84.5t-32 -84t-85 -32t-84.5 32t-31.5 84zM848 1636q0 52 32 84.5t85 32.5q52 0 84 -32t32 -85q0 -52 -31.5 -84t-84.5 -32t-85 32t-32 84z" />
<glyph unicode="&#xd7;" d="M166 307l344 344l-344 342l108 109l344 -342l343 342l108 -109l-342 -342l342 -344l-108 -108l-343 344l-344 -344z" />
<glyph unicode="&#xd8;" horiz-adv-x="1531" d="M139 676q0 321 169 508.5t458 187.5q205 0 354 -98l88 125h146l-142 -203q181 -190 181 -520q0 -321 -169 -508.5t-458 -187.5q-195 0 -340 88l-100 -144h-146l152 219q-193 190 -193 533zM311 676q0 -251 117 -393l600 858q-110 78 -262 78q-211 0 -333 -144.5 t-122 -398.5zM518 201q106 -68 248 -68q211 0 333 144.5t122 398.5q0 238 -107 379z" />
<glyph unicode="&#xd9;" horiz-adv-x="1474" d="M207 504v848h164v-807q0 -212 88.5 -312t277.5 -100t278 100t89 312v807h164v-848q0 -259 -136.5 -391.5t-394.5 -132.5q-257 0 -393.5 132.5t-136.5 391.5zM496 1825h192l117 -303h-133z" />
<glyph unicode="&#xda;" horiz-adv-x="1474" d="M207 504v848h164v-807q0 -212 88.5 -312t277.5 -100t278 100t89 312v807h164v-848q0 -259 -136.5 -391.5t-394.5 -132.5q-257 0 -393.5 132.5t-136.5 391.5zM651 1522l117 303h193l-177 -303h-133z" />
<glyph unicode="&#xdb;" horiz-adv-x="1474" d="M207 504v848h164v-807q0 -212 88.5 -312t277.5 -100t278 100t89 312v807h164v-848q0 -259 -136.5 -391.5t-394.5 -132.5q-257 0 -393.5 132.5t-136.5 391.5zM412 1507l233 342h184l234 -342h-150l-176 236l-176 -236h-149z" />
<glyph unicode="&#xdc;" horiz-adv-x="1474" d="M207 504v848h164v-807q0 -212 88.5 -312t277.5 -100t278 100t89 312v807h164v-848q0 -259 -136.5 -391.5t-394.5 -132.5q-257 0 -393.5 132.5t-136.5 391.5zM422 1636q0 52 32 84.5t85 32.5q52 0 84 -32t32 -85q0 -52 -31.5 -84t-84.5 -32t-85 32t-32 84zM819 1636 q0 52 32.5 84.5t84.5 32.5t84.5 -32.5t32.5 -84.5t-32 -84t-85 -32t-85 32t-32 84z" />
<glyph unicode="&#xdd;" horiz-adv-x="1171" d="M20 1352h195l371 -656l370 656h195l-483 -824v-528h-164v528zM500 1522l116 303h193l-176 -303h-133z" />
<glyph unicode="&#xde;" horiz-adv-x="1284" d="M221 0v1352h164v-242h285q250 0 377 -108t127 -312q0 -203 -127.5 -311.5t-376.5 -108.5h-285v-270h-164zM385 424h301q160 0 237.5 65.5t77.5 200.5t-77.5 200.5t-237.5 65.5h-301v-532z" />
<glyph unicode="&#xdf;" horiz-adv-x="1269" d="M190 0v1018q0 110 24 195.5t77.5 152.5t148.5 103t228 36q91 0 165 -23.5t121.5 -62t80 -89t46 -102t13.5 -104.5q0 -54 -19 -107.5t-56 -102t-103.5 -79t-151.5 -30.5v-4q82 0 148.5 -24t109.5 -63.5t72 -92t41 -107t12 -111.5q0 -83 -29 -158t-83.5 -134.5t-142.5 -95 t-198 -35.5q-66 0 -126 19.5t-89 47.5l47 133q63 -51 176 -51q136 0 211.5 81t75.5 212q0 142 -91.5 215.5t-264.5 73.5h-80v153h80q135 0 214 70t79 180q0 238 -275 238q-165 0 -231 -92.5t-66 -290.5v-969h-164z" />
<glyph unicode="&#xe0;" horiz-adv-x="1159" d="M117 254q0 118 102 202t297 117l272 45v58q0 103 -62.5 164t-176.5 61q-210 0 -293 -194l-121 88q40 114 152.5 181.5t261.5 67.5q183 0 293 -88t110 -260v-503q0 -38 18 -56t60 -18q40 0 82 10l-10 -129q-58 -20 -123 -20q-79 0 -125 34.5t-59 116.5 q-48 -70 -138.5 -110.5t-191.5 -40.5q-152 0 -250 71t-98 203zM287 254q0 -64 48.5 -97.5t137.5 -33.5q128 0 221.5 61.5t93.5 159.5v141l-229 -43q-272 -50 -272 -188zM317 1536h179l155 -342h-133z" />
<glyph unicode="&#xe1;" horiz-adv-x="1159" d="M117 254q0 118 102 202t297 117l272 45v58q0 103 -62.5 164t-176.5 61q-210 0 -293 -194l-121 88q40 114 152.5 181.5t261.5 67.5q183 0 293 -88t110 -260v-503q0 -38 18 -56t60 -18q40 0 82 10l-10 -129q-58 -20 -123 -20q-79 0 -125 34.5t-59 116.5 q-48 -70 -138.5 -110.5t-191.5 -40.5q-152 0 -250 71t-98 203zM287 254q0 -64 48.5 -97.5t137.5 -33.5q128 0 221.5 61.5t93.5 159.5v141l-229 -43q-272 -50 -272 -188zM465 1194l156 342h178l-201 -342h-133z" />
<glyph unicode="&#xe2;" horiz-adv-x="1159" d="M117 254q0 118 102 202t297 117l272 45v58q0 103 -62.5 164t-176.5 61q-210 0 -293 -194l-121 88q40 114 152.5 181.5t261.5 67.5q183 0 293 -88t110 -260v-503q0 -38 18 -56t60 -18q40 0 82 10l-10 -129q-58 -20 -123 -20q-79 0 -125 34.5t-59 116.5 q-48 -70 -138.5 -110.5t-191.5 -40.5q-152 0 -250 71t-98 203zM242 1180l229 342h188l230 -342h-150l-174 227l-174 -227h-149zM287 254q0 -64 48.5 -97.5t137.5 -33.5q128 0 221.5 61.5t93.5 159.5v141l-229 -43q-272 -50 -272 -188z" />
<glyph unicode="&#xe3;" horiz-adv-x="1159" d="M117 254q0 118 102 202t297 117l272 45v58q0 103 -62.5 164t-176.5 61q-210 0 -293 -194l-121 88q40 114 152.5 181.5t261.5 67.5q183 0 293 -88t110 -260v-503q0 -38 18 -56t60 -18q40 0 82 10l-10 -129q-58 -20 -123 -20q-79 0 -125 34.5t-59 116.5 q-48 -70 -138.5 -110.5t-191.5 -40.5q-152 0 -250 71t-98 203zM193 1192q21 274 231 274q42 0 78 -14.5t61.5 -35t48 -40.5t45.5 -34.5t45 -14.5q44 0 68 35.5t35 105.5h129q-21 -274 -229 -274q-43 0 -79.5 14.5t-62 35t-47.5 40.5t-46 34.5t-48 14.5q-43 0 -66 -35 t-34 -106h-129zM287 254q0 -64 48.5 -97.5t137.5 -33.5q128 0 221.5 61.5t93.5 159.5v141l-229 -43q-272 -50 -272 -188z" />
<glyph unicode="&#xe4;" horiz-adv-x="1159" d="M117 254q0 118 102 202t297 117l272 45v58q0 103 -62.5 164t-176.5 61q-210 0 -293 -194l-121 88q40 114 152.5 181.5t261.5 67.5q183 0 293 -88t110 -260v-503q0 -38 18 -56t60 -18q40 0 82 10l-10 -129q-58 -20 -123 -20q-79 0 -125 34.5t-59 116.5 q-48 -70 -138.5 -110.5t-191.5 -40.5q-152 0 -250 71t-98 203zM250 1309q0 52 32 84t85 32t84.5 -31.5t31.5 -84.5t-32 -85t-84 -32q-53 0 -85 32t-32 85zM287 254q0 -64 48.5 -97.5t137.5 -33.5q128 0 221.5 61.5t93.5 159.5v141l-229 -43q-272 -50 -272 -188zM647 1309 q0 52 32 84t85 32t85 -32t32 -84q0 -53 -32.5 -85t-84.5 -32t-84.5 32t-32.5 85z" />
<glyph unicode="&#xe5;" horiz-adv-x="1159" d="M117 254q0 118 102 202t297 117l272 45v58q0 103 -62.5 164t-176.5 61q-210 0 -293 -194l-121 88q40 114 152.5 181.5t261.5 67.5q183 0 293 -88t110 -260v-503q0 -38 18 -56t60 -18q40 0 82 10l-10 -129q-58 -20 -123 -20q-79 0 -125 34.5t-59 116.5 q-48 -70 -138.5 -110.5t-191.5 -40.5q-152 0 -250 71t-98 203zM287 254q0 -64 48.5 -97.5t137.5 -33.5q128 0 221.5 61.5t93.5 159.5v141l-229 -43q-272 -50 -272 -188zM301 1421q0 108 71.5 175t186.5 67t185.5 -67t70.5 -175q0 -109 -70.5 -176t-185.5 -67t-186.5 67 t-71.5 176zM414 1421q0 -61 41 -101t104 -40t104.5 40t41.5 101t-41.5 101.5t-104.5 40.5t-104 -40t-41 -102z" />
<glyph unicode="&#xe6;" horiz-adv-x="1810" d="M117 254q0 118 98 199.5t283 105.5l305 39v78q0 103 -66 164t-186 61q-102 0 -178 -49t-117 -145l-121 88q44 117 157 183t263 66q121 0 209 -53t133 -155q57 99 147.5 153.5t206.5 54.5q108 0 193 -37.5t138 -103.5t80.5 -151.5t27.5 -186.5q0 -49 -9 -114h-731 q17 -153 102.5 -240.5t211.5 -87.5q211 0 268 151l137 -71q-63 -112 -155.5 -167.5t-249.5 -55.5q-142 0 -244 62t-152 189q-42 -122 -154 -186.5t-263 -64.5t-242.5 74.5t-91.5 199.5zM287 254q0 -131 192 -131q132 0 228 78t96 205v63l-262 -41q-136 -22 -195 -62 t-59 -112zM954 596h578q-14 145 -84 225t-197 80q-121 0 -199.5 -80.5t-97.5 -224.5z" />
<glyph unicode="&#xe7;" horiz-adv-x="1155" d="M127 512q0 249 132 390.5t364 141.5q301 0 424 -272l-156 -74q-67 203 -273 203q-154 0 -240.5 -103t-86.5 -286t86.5 -286t240.5 -103q119 0 191 54.5t96 156.5l152 -53q-45 -121 -130.5 -196t-207.5 -97q112 -87 112 -209q0 -91 -64 -155t-173 -64q-146 0 -225 71 l61 113q58 -61 141 -61q50 0 83.5 32.5t33.5 85.5q0 60 -34 100t-126 85q-190 29 -295.5 166.5t-105.5 359.5z" />
<glyph unicode="&#xe8;" horiz-adv-x="1189" d="M127 512q0 251 126.5 391.5t356.5 140.5q215 0 337 -136.5t122 -342.5q0 -56 -8 -114h-772q15 -155 103.5 -241.5t230.5 -86.5q112 0 186 38.5t102 112.5l138 -71q-61 -109 -163.5 -166t-262.5 -57q-232 0 -364 141.5t-132 390.5zM291 596h620q-18 143 -95.5 224 t-205.5 81q-136 0 -218 -79.5t-101 -225.5zM356 1536h179l155 -342h-133z" />
<glyph unicode="&#xe9;" horiz-adv-x="1189" d="M127 512q0 251 126.5 391.5t356.5 140.5q215 0 337 -136.5t122 -342.5q0 -56 -8 -114h-772q15 -155 103.5 -241.5t230.5 -86.5q112 0 186 38.5t102 112.5l138 -71q-61 -109 -163.5 -166t-262.5 -57q-232 0 -364 141.5t-132 390.5zM291 596h620q-18 143 -95.5 224 t-205.5 81q-136 0 -218 -79.5t-101 -225.5zM504 1194l155 342h179l-201 -342h-133z" />
<glyph unicode="&#xea;" horiz-adv-x="1189" d="M127 512q0 251 126.5 391.5t356.5 140.5q215 0 337 -136.5t122 -342.5q0 -56 -8 -114h-772q15 -155 103.5 -241.5t230.5 -86.5q112 0 186 38.5t102 112.5l138 -71q-61 -109 -163.5 -166t-262.5 -57q-232 0 -364 141.5t-132 390.5zM281 1180l229 342h188l230 -342h-150 l-174 227l-174 -227h-149zM291 596h620q-18 143 -95.5 224t-205.5 81q-136 0 -218 -79.5t-101 -225.5z" />
<glyph unicode="&#xeb;" horiz-adv-x="1189" d="M127 512q0 251 126.5 391.5t356.5 140.5q215 0 337 -136.5t122 -342.5q0 -56 -8 -114h-772q15 -155 103.5 -241.5t230.5 -86.5q112 0 186 38.5t102 112.5l138 -71q-61 -109 -163.5 -166t-262.5 -57q-232 0 -364 141.5t-132 390.5zM289 1309q0 52 32 84t85 32 q52 0 84 -31.5t32 -84.5t-32 -85t-84 -32t-84.5 32t-32.5 85zM291 596h620q-18 143 -95.5 224t-205.5 81q-136 0 -218 -79.5t-101 -225.5zM686 1309q0 52 32 84t85 32t85 -32t32 -84q0 -53 -32 -85t-85 -32t-85 32t-32 85z" />
<glyph unicode="&#xec;" horiz-adv-x="544" d="M25 1536h178l155 -342h-133zM190 0v1024h164v-1024h-164z" />
<glyph unicode="&#xed;" horiz-adv-x="544" d="M190 0v1024h164v-1024h-164zM193 1194l155 342h178l-200 -342h-133z" />
<glyph unicode="&#xee;" horiz-adv-x="544" d="M-51 1180l229 342h189l229 -342h-150l-174 227l-174 -227h-149zM190 0v1024h164v-1024h-164z" />
<glyph unicode="&#xef;" horiz-adv-x="544" d="M-8 1309q0 52 32 84t85 32q54 0 86 -31.5t32 -84.5t-32 -85t-86 -32q-53 0 -85 32t-32 85zM190 0v1024h164v-1024h-164zM317 1309q0 53 32.5 84.5t86.5 31.5q53 0 85 -32t32 -84q0 -53 -32.5 -85t-84.5 -32q-54 0 -86.5 32t-32.5 85z" />
<glyph unicode="&#xf0;" horiz-adv-x="1269" d="M127 487q0 231 135 368.5t344 137.5q231 0 346 -143q-51 222 -166 364l-380 -98l-21 101l332 73q-115 109 -297 205h227q129 -77 215 -170l225 64l29 -103l-188 -39q190 -253 190 -657q0 -135 -31 -245.5t-92.5 -192.5t-159.5 -127t-225 -45q-224 0 -353.5 135 t-129.5 372zM297 487q0 -171 86 -267.5t235 -96.5q155 0 247.5 106t92.5 258q0 169 -87.5 266t-241.5 97q-155 0 -243.5 -97t-88.5 -266z" />
<glyph unicode="&#xf1;" horiz-adv-x="1267" d="M190 0v1024h144l10 -160q52 92 142 136t202 44q174 0 286.5 -100t112.5 -289v-655h-163v598q0 160 -68.5 231.5t-183.5 71.5q-59 0 -113.5 -19.5t-101.5 -59.5t-75 -111.5t-28 -165.5v-545h-164zM279 1192q21 274 231 274q42 0 78 -14.5t61.5 -35t48 -40.5t45.5 -34.5 t45 -14.5q44 0 68 35.5t35 105.5h129q-21 -274 -229 -274q-43 0 -79.5 14.5t-62 35t-47.5 40.5t-46 34.5t-48 14.5q-43 0 -66 -35t-34 -106h-129z" />
<glyph unicode="&#xf2;" horiz-adv-x="1245" d="M127 512q0 249 132 390.5t364 141.5t363.5 -141.5t131.5 -390.5t-131.5 -390.5t-363.5 -141.5t-364 141.5t-132 390.5zM291 512q0 -183 88.5 -287t243.5 -104t243 104t88 287t-88 287t-243 104t-243.5 -104t-88.5 -287zM375 1536h178l156 -342h-134z" />
<glyph unicode="&#xf3;" horiz-adv-x="1245" d="M127 512q0 249 132 390.5t364 141.5t363.5 -141.5t131.5 -390.5t-131.5 -390.5t-363.5 -141.5t-364 141.5t-132 390.5zM291 512q0 -183 88.5 -287t243.5 -104t243 104t88 287t-88 287t-243 104t-243.5 -104t-88.5 -287zM522 1194l156 342h178l-201 -342h-133z" />
<glyph unicode="&#xf4;" horiz-adv-x="1245" d="M127 512q0 249 132 390.5t364 141.5t363.5 -141.5t131.5 -390.5t-131.5 -390.5t-363.5 -141.5t-364 141.5t-132 390.5zM291 512q0 -183 88.5 -287t243.5 -104t243 104t88 287t-88 287t-243 104t-243.5 -104t-88.5 -287zM299 1180l229 342h189l229 -342h-149l-174 227 l-174 -227h-150z" />
<glyph unicode="&#xf5;" horiz-adv-x="1245" d="M127 512q0 249 132 390.5t364 141.5t363.5 -141.5t131.5 -390.5t-131.5 -390.5t-363.5 -141.5t-364 141.5t-132 390.5zM250 1192q21 274 231 274q42 0 78.5 -14.5t62 -35t47.5 -40.5t45.5 -34.5t45.5 -14.5q44 0 67.5 35.5t34.5 105.5h129q-21 -274 -229 -274 q-43 0 -79.5 14.5t-62 35t-47.5 40.5t-46 34.5t-48 14.5q-43 0 -66 -35t-34 -106h-129zM291 512q0 -183 88.5 -287t243.5 -104t243 104t88 287t-88 287t-243 104t-243.5 -104t-88.5 -287z" />
<glyph unicode="&#xf6;" horiz-adv-x="1245" d="M127 512q0 249 132 390.5t364 141.5t363.5 -141.5t131.5 -390.5t-131.5 -390.5t-363.5 -141.5t-364 141.5t-132 390.5zM291 512q0 -183 88.5 -287t243.5 -104t243 104t88 287t-88 287t-243 104t-243.5 -104t-88.5 -287zM307 1309q0 52 32 84t85 32t85 -32t32 -84 q0 -53 -32.5 -85t-84.5 -32t-84.5 32t-32.5 85zM705 1309q0 53 31.5 84.5t84.5 31.5t85 -32t32 -84q0 -53 -32 -85t-85 -32q-52 0 -84 32t-32 85z" />
<glyph unicode="&#xf7;" d="M121 571v154h995v-154h-995zM485 246q0 60 36.5 96.5t96.5 36.5t97 -36.5t37 -96.5t-37 -96.5t-97 -36.5t-96.5 36.5t-36.5 96.5zM485 1047q0 60 36.5 96.5t96.5 36.5t97 -36.5t37 -96.5t-37 -97t-97 -37t-96.5 37t-36.5 97z" />
<glyph unicode="&#xf8;" horiz-adv-x="1247" d="M125 -76l141 189q-139 142 -139 399q0 249 132 390.5t364 141.5q170 0 288 -77l80 104h137l-135 -176q125 -140 125 -383q0 -249 -131.5 -390.5t-363.5 -141.5q-157 0 -269 65l-92 -121h-137zM291 512q0 -163 74 -270h2l73 100l379 502q-80 59 -196 59 q-155 0 -243.5 -104t-88.5 -287zM446 168q71 -47 177 -47q155 0 243 104t88 287q0 152 -61 250h-2l-66 -90z" />
<glyph unicode="&#xf9;" horiz-adv-x="1267" d="M180 354v670h164v-627q0 -150 62 -212t180 -62q141 0 234 86.5t93 257.5v557h164v-1024h-143l-10 156q-103 -176 -367 -176q-79 0 -145 21t-119 64t-83 117t-30 172zM383 1536h178l156 -342h-133z" />
<glyph unicode="&#xfa;" horiz-adv-x="1267" d="M180 354v670h164v-627q0 -150 62 -212t180 -62q141 0 234 86.5t93 257.5v557h164v-1024h-143l-10 156q-103 -176 -367 -176q-79 0 -145 21t-119 64t-83 117t-30 172zM530 1194l156 342h178l-200 -342h-134z" />
<glyph unicode="&#xfb;" horiz-adv-x="1267" d="M180 354v670h164v-627q0 -150 62 -212t180 -62q141 0 234 86.5t93 257.5v557h164v-1024h-143l-10 156q-103 -176 -367 -176q-79 0 -145 21t-119 64t-83 117t-30 172zM307 1180l230 342h188l229 -342h-149l-174 227l-174 -227h-150z" />
<glyph unicode="&#xfc;" horiz-adv-x="1267" d="M180 354v670h164v-627q0 -150 62 -212t180 -62q141 0 234 86.5t93 257.5v557h164v-1024h-143l-10 156q-103 -176 -367 -176q-79 0 -145 21t-119 64t-83 117t-30 172zM315 1309q0 52 32 84t85 32t85 -32t32 -84q0 -53 -32.5 -85t-84.5 -32t-84.5 32t-32.5 85zM713 1309 q0 53 31.5 84.5t84.5 31.5t85 -32t32 -84q0 -53 -32 -85t-85 -32q-52 0 -84 32t-32 85z" />
<glyph unicode="&#xfd;" horiz-adv-x="1095" d="M31 -354l57 139q58 -82 166 -82q60 0 105 35.5t81 130.5l54 133l-428 1022h186l256 -668l63 -182l74 203l240 647h176l-481 -1196q-59 -148 -133.5 -208t-190.5 -60q-77 0 -129.5 20t-95.5 66zM459 1194l155 342h179l-201 -342h-133z" />
<glyph unicode="&#xfe;" horiz-adv-x="1290" d="M190 -430v1925h164v-612q53 75 140.5 118t199.5 43q215 0 341 -141.5t126 -390.5t-126 -390.5t-341 -141.5q-112 0 -199.5 43t-140.5 118v-571h-164zM354 500q0 -173 87.5 -275t234.5 -102q150 0 235.5 104.5t85.5 284.5t-85.5 284.5t-235.5 104.5q-147 0 -234.5 -102 t-87.5 -275v-24z" />
<glyph unicode="&#xff;" horiz-adv-x="1095" d="M31 -354l57 139q58 -82 166 -82q60 0 105 35.5t81 130.5l54 133l-428 1022h186l256 -668l63 -182l74 203l240 647h176l-481 -1196q-59 -148 -133.5 -208t-190.5 -60q-77 0 -129.5 20t-95.5 66zM244 1309q0 53 32 84.5t84 31.5q53 0 85 -32t32 -84q0 -53 -32.5 -85 t-84.5 -32t-84 32t-32 85zM641 1309q0 52 32 84t85 32q52 0 84 -31.5t32 -84.5t-32 -85t-84 -32t-84.5 32t-32.5 85z" />
<glyph unicode="&#x100;" horiz-adv-x="1351" d="M53 0l527 1352h194l524 -1352h-174l-143 375h-612l-144 -375h-172zM319 1548v138h713v-138h-713zM428 528h494l-183 480l-63 188h-4l-60 -182z" />
<glyph unicode="&#x101;" horiz-adv-x="1159" d="M117 254q0 118 102 202t297 117l272 45v58q0 103 -62.5 164t-176.5 61q-210 0 -293 -194l-121 88q40 114 152.5 181.5t261.5 67.5q183 0 293 -88t110 -260v-503q0 -38 18 -56t60 -18q40 0 82 10l-10 -129q-58 -20 -123 -20q-79 0 -125 34.5t-59 116.5 q-48 -70 -138.5 -110.5t-191.5 -40.5q-152 0 -250 71t-98 203zM209 1221v137h713v-137h-713zM287 254q0 -64 48.5 -97.5t137.5 -33.5q128 0 221.5 61.5t93.5 159.5v141l-229 -43q-272 -50 -272 -188z" />
<glyph unicode="&#x102;" horiz-adv-x="1351" d="M53 0l527 1352h194l524 -1352h-174l-143 375h-612l-144 -375h-172zM373 1812h135q0 -73 48.5 -126.5t119.5 -53.5t119.5 53.5t48.5 126.5h135q0 -135 -84 -219t-219 -84t-219 84t-84 219zM428 528h494l-183 480l-63 188h-4l-60 -182z" />
<glyph unicode="&#x103;" horiz-adv-x="1159" d="M117 254q0 118 102 202t297 117l272 45v58q0 103 -62.5 164t-176.5 61q-210 0 -293 -194l-121 88q40 114 152.5 181.5t261.5 67.5q183 0 293 -88t110 -260v-503q0 -38 18 -56t60 -18q40 0 82 10l-10 -129q-58 -20 -123 -20q-79 0 -125 34.5t-59 116.5 q-48 -70 -138.5 -110.5t-191.5 -40.5q-152 0 -250 71t-98 203zM262 1485h135q0 -73 48.5 -126.5t119.5 -53.5t119.5 53.5t48.5 126.5h135q0 -135 -84 -219t-219 -84t-219 84t-84 219zM287 254q0 -64 48.5 -97.5t137.5 -33.5q128 0 221.5 61.5t93.5 159.5v141l-229 -43 q-272 -50 -272 -188z" />
<glyph unicode="&#x104;" horiz-adv-x="1351" d="M53 0l527 1352h194l524 -1352q-145 -48 -199.5 -100t-54.5 -117q0 -50 35.5 -78.5t96.5 -28.5q75 0 114 27l33 -104q-56 -39 -168 -39t-178 56.5t-66 156.5q0 169 201 256l-131 346h-612l-144 -375h-172zM428 528h494l-183 480l-63 188h-4l-60 -182z" />
<glyph unicode="&#x105;" horiz-adv-x="1159" d="M117 254q0 118 102 202t297 117l272 45v58q0 103 -62.5 164t-176.5 61q-210 0 -293 -194l-121 88q40 114 152.5 181.5t261.5 67.5q183 0 293 -88t110 -260v-503q0 -38 18 -56t60 -18q40 0 82 10l-10 -129q-21 -7 -23 -8q-128 -42 -179.5 -92.5t-51.5 -114.5 q0 -52 30.5 -80.5t88.5 -28.5q71 0 112 25l33 -104q-58 -37 -158 -37q-110 0 -174.5 53t-64.5 143q0 157 184 250q-77 45 -100 133q-45 -73 -138 -116t-196 -43q-152 0 -250 71t-98 203zM287 254q0 -64 48.5 -97.5t137.5 -33.5q128 0 221.5 61.5t93.5 159.5v141l-229 -43 q-138 -28 -205 -73t-67 -115z" />
<glyph unicode="&#x106;" horiz-adv-x="1404" d="M139 676q0 320 169.5 508t453.5 188q392 0 524 -315l-162 -76q-90 238 -350 238q-210 0 -336.5 -145t-126.5 -398q0 -254 122 -398.5t333 -144.5q137 0 237 70.5t144 204.5l164 -62q-64 -173 -209 -269.5t-336 -96.5q-289 0 -458 187.5t-169 508.5zM676 1522l117 303h192 l-176 -303h-133z" />
<glyph unicode="&#x107;" horiz-adv-x="1155" d="M127 512q0 249 132 390.5t364 141.5q301 0 424 -272l-156 -74q-67 203 -273 203q-154 0 -240.5 -103t-86.5 -286t86.5 -286t240.5 -103q119 0 191 54.5t96 156.5l152 -53q-54 -144 -164 -222.5t-270 -78.5q-232 0 -364 141.5t-132 390.5zM506 1194l156 342h178l-201 -342 h-133z" />
<glyph unicode="&#x10c;" horiz-adv-x="1404" d="M139 676q0 320 169.5 508t453.5 188q392 0 524 -315l-162 -76q-90 238 -350 238q-210 0 -336.5 -145t-126.5 -398q0 -254 122 -398.5t333 -144.5q137 0 237 70.5t144 204.5l164 -62q-64 -173 -209 -269.5t-336 -96.5q-289 0 -458 187.5t-169 508.5zM436 1853h150 l176 -235l176 235h149l-233 -342h-184z" />
<glyph unicode="&#x10d;" horiz-adv-x="1155" d="M127 512q0 249 132 390.5t364 141.5q301 0 424 -272l-156 -74q-67 203 -273 203q-154 0 -240.5 -103t-86.5 -286t86.5 -286t240.5 -103q119 0 191 54.5t96 156.5l152 -53q-54 -144 -164 -222.5t-270 -78.5q-232 0 -364 141.5t-132 390.5zM283 1536h149l174 -227l174 227 h150l-230 -342h-188z" />
<glyph unicode="&#x10e;" horiz-adv-x="1476" d="M221 0v1352h436q320 0 500 -176.5t180 -499.5t-180 -499.5t-500 -176.5h-436zM340 1853h149l177 -235l176 235h149l-233 -342h-185zM385 154h289q232 0 361.5 138t129.5 384t-129.5 384t-361.5 138h-289v-1044z" />
<glyph unicode="&#x10f;" horiz-adv-x="1312" d="M129 512q0 249 126 390.5t341 141.5q113 0 202 -49t138 -131v631h164v-1495h-144l-10 178q-45 -90 -138 -144t-212 -54q-215 0 -341 141.5t-126 390.5zM293 512q0 -180 85.5 -284.5t235.5 -104.5q147 0 234.5 102t87.5 275v24q0 173 -87.5 275t-234.5 102 q-150 0 -235.5 -104.5t-85.5 -284.5zM1214 1092l41 403h156l-84 -403h-113z" />
<glyph unicode="&#x110;" horiz-adv-x="1509" d="M53 621v122h201v609h436q320 0 500 -176.5t180 -499.5t-180 -499.5t-500 -176.5h-436v621h-201zM418 154h289q232 0 361.5 138t129.5 384t-129.5 384t-361.5 138h-289v-455h403v-122h-403v-467z" />
<glyph unicode="&#x111;" horiz-adv-x="1288" d="M129 512q0 249 126 390.5t341 141.5q113 0 202 -49t138 -131v295h-322v125h322v211h164v-211h157v-125h-157v-1159h-144l-10 178q-45 -90 -138 -144t-212 -54q-215 0 -341 141.5t-126 390.5zM293 512q0 -180 85.5 -284.5t235.5 -104.5q147 0 234.5 102t87.5 275v24 q0 173 -87.5 275t-234.5 102q-150 0 -235.5 -104.5t-85.5 -284.5z" />
<glyph unicode="&#x112;" horiz-adv-x="1306" d="M221 0v1352h948v-154h-784v-436h610v-154h-610v-454h815v-154h-979zM338 1548v138h713v-138h-713z" />
<glyph unicode="&#x113;" horiz-adv-x="1189" d="M127 512q0 251 126.5 391.5t356.5 140.5q215 0 337 -136.5t122 -342.5q0 -56 -8 -114h-772q15 -155 103.5 -241.5t230.5 -86.5q112 0 186 38.5t102 112.5l138 -71q-61 -109 -163.5 -166t-262.5 -57q-232 0 -364 141.5t-132 390.5zM248 1221v137h713v-137h-713zM291 596 h620q-18 143 -95.5 224t-205.5 81q-136 0 -218 -79.5t-101 -225.5z" />
<glyph unicode="&#x116;" horiz-adv-x="1306" d="M221 0v1352h948v-154h-784v-436h610v-154h-610v-454h815v-154h-979zM571 1671q0 55 33.5 89t89.5 34t89.5 -34t33.5 -89t-33.5 -89t-89.5 -34t-89.5 34t-33.5 89z" />
<glyph unicode="&#x117;" horiz-adv-x="1189" d="M127 512q0 251 126.5 391.5t356.5 140.5q215 0 337 -136.5t122 -342.5q0 -56 -8 -114h-772q15 -155 103.5 -241.5t230.5 -86.5q112 0 186 38.5t102 112.5l138 -71q-61 -109 -163.5 -166t-262.5 -57q-232 0 -364 141.5t-132 390.5zM291 596h620q-18 143 -95.5 224 t-205.5 81q-136 0 -218 -79.5t-101 -225.5zM481 1343q0 55 33.5 89t89.5 34t89.5 -34t33.5 -89t-33.5 -88.5t-89.5 -33.5t-89.5 33.5t-33.5 88.5z" />
<glyph unicode="&#x118;" horiz-adv-x="1306" d="M221 0v1352h948v-154h-784v-436h610v-154h-610v-454h815v-154q-145 -49 -199.5 -100.5t-54.5 -116.5q0 -51 35 -79t96 -28q76 0 115 27l33 -104q-56 -39 -168 -39q-111 0 -177.5 54t-66.5 146q0 86 44 143.5t134 96.5h-770z" />
<glyph unicode="&#x119;" horiz-adv-x="1189" d="M127 512q0 251 126.5 391.5t356.5 140.5q215 0 337 -136.5t122 -342.5q0 -56 -8 -114h-772q15 -155 103.5 -241.5t230.5 -86.5q112 0 186 38.5t102 112.5l138 -71q-80 -147 -236 -197q-182 -114 -182 -213q0 -55 35.5 -86t93.5 -31q71 0 112 25l33 -104q-58 -37 -166 -37 q-110 0 -176.5 58t-66.5 151q0 118 114 211q-226 5 -354.5 145.5t-128.5 386.5zM291 596h620q-18 143 -95.5 224t-205.5 81q-136 0 -218 -79.5t-101 -225.5z" />
<glyph unicode="&#x11a;" horiz-adv-x="1306" d="M221 0v1352h948v-154h-784v-436h610v-154h-610v-454h815v-154h-979zM369 1853h149l176 -235l176 235h150l-234 -342h-184z" />
<glyph unicode="&#x11b;" horiz-adv-x="1189" d="M127 512q0 251 126.5 391.5t356.5 140.5q215 0 337 -136.5t122 -342.5q0 -56 -8 -114h-772q15 -155 103.5 -241.5t230.5 -86.5q112 0 186 38.5t102 112.5l138 -71q-61 -109 -163.5 -166t-262.5 -57q-232 0 -364 141.5t-132 390.5zM281 1536h149l174 -227l174 227h150 l-230 -342h-188zM291 596h620q-18 143 -95.5 224t-205.5 81q-136 0 -218 -79.5t-101 -225.5z" />
<glyph unicode="&#x11e;" horiz-adv-x="1482" d="M139 676q0 319 172.5 507.5t458.5 188.5q200 0 331.5 -75.5t209.5 -233.5l-150 -82q-44 116 -146 177t-245 61q-208 0 -333.5 -145.5t-125.5 -397.5q0 -258 118.5 -400.5t342.5 -142.5q177 0 288 90t111 258v47h-430v154h580v-682h-123l-6 182q-124 -202 -426 -202 q-289 0 -458 187.5t-169 508.5zM461 1812h135q0 -73 48.5 -126.5t119.5 -53.5t119.5 53.5t48.5 126.5h135q0 -135 -84 -219t-219 -84t-219 84t-84 219z" />
<glyph unicode="&#x11f;" horiz-adv-x="1089" d="M74 -170q0 70 47.5 123t132.5 76q-139 66 -139 188q0 148 153 201q-149 93 -149 280q0 152 117.5 249t302.5 97q129 0 231 -51q15 101 93.5 160t189.5 59l37 -143q-213 0 -222 -147q90 -93 90 -224q0 -152 -117.5 -249t-301.5 -97q-87 0 -158 19q-61 -13 -88 -44.5 t-27 -84.5t37 -82t98 -29h340q145 0 227.5 -66.5t82.5 -177.5q0 -99 -69 -174.5t-183.5 -114t-253.5 -38.5q-233 0 -352 74t-119 196zM225 -137q0 -77 86.5 -121.5t251.5 -44.5q156 0 246 50.5t90 121.5q0 59 -46.5 90t-156.5 31h-274q-95 0 -146 -34t-51 -93zM264 1485h135 q0 -73 48.5 -126.5t119.5 -53.5t119.5 53.5t48.5 126.5h135q0 -135 -84 -219t-219 -84t-219 84t-84 219zM289 698q0 -94 71.5 -153.5t178.5 -59.5t178 59.5t71 153.5t-71 153.5t-178 59.5t-178.5 -59.5t-71.5 -153.5z" />
<glyph unicode="&#x122;" horiz-adv-x="1482" d="M139 676q0 319 172.5 507.5t458.5 188.5q200 0 331.5 -75.5t209.5 -233.5l-150 -82q-44 116 -146 177t-245 61q-208 0 -333.5 -145.5t-125.5 -397.5q0 -258 118.5 -400.5t342.5 -142.5q177 0 288 90t111 258v47h-430v154h580v-682h-123l-6 182q-124 -202 -426 -202 q-289 0 -458 187.5t-169 508.5zM629 -485l90 329h172l-133 -329h-129z" />
<glyph unicode="&#x123;" horiz-adv-x="1089" d="M94 -170q0 70 47.5 123t132.5 76q-139 66 -139 188q0 148 154 201q-73 45 -111.5 117.5t-38.5 162.5q0 152 117.5 249t302.5 97q119 0 209 -40q58 208 289 208l37 -143q-200 0 -244 -113q129 -96 129 -258q0 -152 -117.5 -249t-302.5 -97q-87 0 -158 19 q-61 -13 -87.5 -44.5t-26.5 -84.5t37 -82t98 -29h340q145 0 227 -66t82 -178q0 -99 -69 -174.5t-183.5 -114t-253.5 -38.5q-233 0 -352 74t-119 196zM246 -137q0 -77 86.5 -121.5t251.5 -44.5q156 0 246 50.5t90 121.5q0 59 -46.5 90t-156.5 31h-275q-95 0 -145.5 -33.5 t-50.5 -93.5zM309 698q0 -94 71.5 -153.5t178.5 -59.5t178.5 59.5t71.5 153.5t-71.5 153.5t-178.5 59.5t-178.5 -59.5t-71.5 -153.5zM465 1202l143 391h123l-86 -391h-180z" />
<glyph unicode="&#x12a;" horiz-adv-x="606" d="M82 1548v138h442v-138h-442zM221 0v1352h164v-1352h-164z" />
<glyph unicode="&#x12b;" horiz-adv-x="544" d="M45 1221v137h455v-137h-455zM190 0v1024h164v-1024h-164z" />
<glyph unicode="&#x12e;" horiz-adv-x="606" d="M35 -240q0 77 46.5 143t139.5 111v1338h164v-1352q-123 -57 -171 -108.5t-48 -102.5q0 -111 121 -111q77 0 121 31l38 -104q-65 -45 -174 -45t-173 54t-64 146z" />
<glyph unicode="&#x12f;" horiz-adv-x="544" d="M16 -240q0 138 174 244v1020h164v-1024q-116 -65 -159 -114.5t-43 -108.5q0 -46 30.5 -74.5t85.5 -28.5q70 0 121 31l39 -102q-67 -43 -174 -43q-109 0 -173.5 54t-64.5 146zM150 1343q0 56 33.5 89.5t88.5 33.5q56 0 89.5 -34t33.5 -89t-33.5 -88.5t-89.5 -33.5 t-89 33.5t-33 88.5z" />
<glyph unicode="&#x130;" horiz-adv-x="606" d="M180 1671q0 55 34 89t89 34t89 -34t34 -89t-34 -89t-89 -34t-89 34t-34 89zM221 0v1352h164v-1352h-164z" />
<glyph unicode="&#x131;" horiz-adv-x="544" d="M190 0v1024h164v-1024h-164z" />
<glyph unicode="&#x132;" horiz-adv-x="1765" d="M221 0v1352h164v-1352h-164zM702 446l152 31q-24 -176 32.5 -260t207.5 -84q167 0 234 90.5t67 280.5v848h164v-889q0 -227 -122 -355t-337 -128q-226 0 -332 125.5t-66 340.5z" />
<glyph unicode="&#x133;" horiz-adv-x="1089" d="M150 1343q0 56 33.5 89.5t88.5 33.5q56 0 89.5 -34t33.5 -89t-33.5 -88.5t-89.5 -33.5t-89 33.5t-33 88.5zM190 0v1024h164v-1024h-164zM383 -373l35 156q71 -64 168 -64q149 0 149 193v1112h164v-1128q0 -91 -28.5 -159.5t-75.5 -105t-99 -54t-108 -17.5q-124 0 -205 67 zM694 1343q0 51 36 87t87 36t87 -36t36 -87t-36 -86.5t-87 -35.5t-87 35.5t-36 86.5z" />
<glyph unicode="&#x136;" horiz-adv-x="1343" d="M221 0v1352h164v-697l680 697h215l-539 -551l545 -801h-196l-463 680l-242 -246v-434h-164zM563 -485l90 329h172l-133 -329h-129z" />
<glyph unicode="&#x137;" horiz-adv-x="1161" d="M190 0v1495h164v-1001l531 530h205l-400 -399l424 -625h-199l-344 506l-217 -217v-289h-164zM444 -485l91 329h172l-134 -329h-129z" />
<glyph unicode="&#x139;" horiz-adv-x="1224" d="M217 1522l117 303h192l-176 -303h-133zM221 0v1352h164v-1198h774v-154h-938z" />
<glyph unicode="&#x13a;" horiz-adv-x="645" d="M182 254v1241h164v-1221q0 -78 24 -107.5t87 -29.5q75 0 149 29l-26 -158q-67 -28 -152 -28q-125 0 -185.5 67.5t-60.5 206.5zM190 1638l76 267h180l-124 -267h-132z" />
<glyph unicode="&#x13b;" horiz-adv-x="1224" d="M221 0v1352h164v-1198h774v-154h-938zM541 -485l90 329h172l-133 -329h-129z" />
<glyph unicode="&#x13c;" horiz-adv-x="626" d="M182 254v1241h164v-1221q0 -78 24 -107.5t87 -29.5q75 0 149 29l-26 -158q-67 -28 -152 -28q-125 0 -185.5 67.5t-60.5 206.5zM238 -485l90 329h172l-133 -329h-129z" />
<glyph unicode="&#x13d;" horiz-adv-x="1224" d="M221 0v1352h164v-1198h774v-154h-938zM573 1030l41 404h156l-84 -404h-113z" />
<glyph unicode="&#x13e;" horiz-adv-x="645" d="M182 254v1241h164v-1221q0 -78 24 -107.5t87 -29.5q75 0 149 29l-26 -158q-67 -28 -152 -28q-125 0 -185.5 67.5t-60.5 206.5zM463 1092l41 403h155l-84 -403h-112z" />
<glyph unicode="&#x13f;" horiz-adv-x="1265" d="M221 0v1352h164v-1198h774v-154h-938zM950 700q0 60 36.5 97t96.5 37t97 -37t37 -97t-37 -96.5t-97 -36.5t-96.5 36.5t-36.5 96.5z" />
<glyph unicode="&#x140;" horiz-adv-x="833" d="M182 254v1241h164v-1221q0 -78 24 -107.5t87 -29.5q75 0 149 29l-26 -158q-67 -28 -152 -28q-125 0 -185.5 67.5t-60.5 206.5zM551 727q0 60 36.5 96.5t96.5 36.5t96.5 -36.5t36.5 -96.5t-36.5 -96.5t-96.5 -36.5t-96.5 36.5t-36.5 96.5z" />
<glyph unicode="&#x141;" horiz-adv-x="1286" d="M68 401v170l215 121v660h163v-570l363 203v-170l-363 -203v-458h775v-154h-938v522z" />
<glyph unicode="&#x142;" horiz-adv-x="761" d="M80 469v170l196 125v731h164v-627l246 156v-170l-246 -156v-424q0 -78 24 -107.5t87 -29.5q75 0 149 29l-26 -158q-67 -28 -152 -28q-125 0 -185.5 67.5t-60.5 206.5v340z" />
<glyph unicode="&#x143;" horiz-adv-x="1503" d="M221 0v1352h203l563 -901l146 -271h2l-9 217v955h156v-1352h-203l-565 905l-143 266h-2l8 -217v-954h-156zM674 1522l117 303h192l-176 -303h-133z" />
<glyph unicode="&#x144;" horiz-adv-x="1267" d="M190 0v1024h144l10 -160q52 92 142 136t202 44q174 0 286.5 -100t112.5 -289v-655h-163v598q0 160 -68.5 231.5t-183.5 71.5q-59 0 -113.5 -19.5t-101.5 -59.5t-75 -111.5t-28 -165.5v-545h-164zM551 1194l156 342h178l-201 -342h-133z" />
<glyph unicode="&#x145;" horiz-adv-x="1503" d="M221 0v1352h203l563 -901l146 -271h2l-9 217v955h156v-1352h-203l-565 905l-143 266h-2l8 -217v-954h-156zM612 -485l90 329h172l-133 -329h-129z" />
<glyph unicode="&#x146;" horiz-adv-x="1267" d="M190 0v1024h144l10 -160q52 92 142 136t202 44q174 0 286.5 -100t112.5 -289v-655h-163v598q0 160 -68.5 231.5t-183.5 71.5q-59 0 -113.5 -19.5t-101.5 -59.5t-75 -111.5t-28 -165.5v-545h-164zM500 -485l90 329h172l-133 -329h-129z" />
<glyph unicode="&#x147;" horiz-adv-x="1503" d="M221 0v1352h203l563 -901l146 -271h2l-9 217v955h156v-1352h-203l-565 905l-143 266h-2l8 -217v-954h-156zM434 1853h150l176 -235l176 235h149l-233 -342h-184z" />
<glyph unicode="&#x148;" horiz-adv-x="1267" d="M190 0v1024h144l10 -160q52 92 142 136t202 44q174 0 286.5 -100t112.5 -289v-655h-163v598q0 160 -68.5 231.5t-183.5 71.5q-59 0 -113.5 -19.5t-101.5 -59.5t-75 -111.5t-28 -165.5v-545h-164zM328 1536h149l174 -227l174 227h150l-230 -342h-188z" />
<glyph unicode="&#x14c;" horiz-adv-x="1531" d="M139 676q0 321 169 508.5t458 187.5t458 -187.5t169 -508.5t-169 -508.5t-458 -187.5t-458 187.5t-169 508.5zM311 676q0 -254 122 -398.5t333 -144.5t333 144.5t122 398.5t-122 398.5t-333 144.5t-333 -144.5t-122 -398.5zM410 1548v138h712v-138h-712z" />
<glyph unicode="&#x14d;" horiz-adv-x="1245" d="M127 512q0 249 132 390.5t364 141.5t363.5 -141.5t131.5 -390.5t-131.5 -390.5t-363.5 -141.5t-364 141.5t-132 390.5zM266 1221v137h713v-137h-713zM291 512q0 -183 88.5 -287t243.5 -104t243 104t88 287t-88 287t-243 104t-243.5 -104t-88.5 -287z" />
<glyph unicode="&#x150;" horiz-adv-x="1531" d="M139 676q0 321 169 508.5t458 187.5t458 -187.5t169 -508.5t-169 -508.5t-458 -187.5t-458 187.5t-169 508.5zM311 676q0 -254 122 -398.5t333 -144.5t333 144.5t122 398.5t-122 398.5t-333 144.5t-333 -144.5t-122 -398.5zM522 1522l117 303h192l-176 -303h-133z M885 1522l116 303h193l-176 -303h-133z" />
<glyph unicode="&#x151;" horiz-adv-x="1245" d="M127 512q0 249 132 390.5t364 141.5t363.5 -141.5t131.5 -390.5t-131.5 -390.5t-363.5 -141.5t-364 141.5t-132 390.5zM291 512q0 -183 88.5 -287t243.5 -104t243 104t88 287t-88 287t-243 104t-243.5 -104t-88.5 -287zM334 1194l155 342h179l-201 -342h-133zM694 1194 l156 342h178l-201 -342h-133z" />
<glyph unicode="&#x152;" horiz-adv-x="2211" d="M139 676q0 323 167.5 509.5t463.5 186.5q136 0 246 -56.5t184 -162.5v199h875v-154h-725v-436h551v-154h-551v-454h755v-154h-905v203q-75 -108 -188 -165.5t-250 -57.5q-288 0 -455.5 187.5t-167.5 508.5zM311 676q0 -256 120 -399.5t339 -143.5q194 0 312 145.5 t118 397.5t-118 397.5t-312 145.5q-219 0 -339 -143.5t-120 -399.5z" />
<glyph unicode="&#x153;" horiz-adv-x="2025" d="M127 512q0 249 133 390.5t369 141.5q145 0 250.5 -59t164.5 -170q54 111 156 170t244 59q215 0 337 -136.5t122 -342.5q0 -49 -9 -114h-772q15 -155 103.5 -241.5t230.5 -86.5q113 0 187 39t102 112l137 -71q-61 -109 -163.5 -166t-262.5 -57q-144 0 -248.5 60 t-163.5 173q-57 -113 -162.5 -173t-252.5 -60q-236 0 -369 141.5t-133 390.5zM297 512q0 -183 88.5 -286t243.5 -103t243.5 103t88.5 286t-88.5 286t-243.5 103t-243.5 -103t-88.5 -286zM1124 596h621q-18 143 -95.5 224t-205.5 81q-136 0 -218.5 -79.5t-101.5 -225.5z" />
<glyph unicode="&#x154;" horiz-adv-x="1361" d="M221 0v1352h512q207 0 332 -107t125 -289q0 -143 -79.5 -241t-219.5 -135l381 -580h-195l-368 561h-324v-561h-164zM385 715h346q287 0 287 241q0 242 -287 242h-346v-483zM573 1522l117 303h193l-176 -303h-134z" />
<glyph unicode="&#x155;" horiz-adv-x="835" d="M190 0v1024h134l22 -168q86 188 328 188q73 0 112 -20l-32 -160q-52 27 -129 27q-48 0 -94.5 -21t-86.5 -61.5t-65 -107t-25 -148.5v-553h-164zM350 1194l156 342h178l-201 -342h-133z" />
<glyph unicode="&#x156;" horiz-adv-x="1361" d="M221 0v1352h512q207 0 332 -107t125 -289q0 -143 -79.5 -241t-219.5 -135l381 -580h-195l-368 561h-324v-561h-164zM385 715h346q287 0 287 241q0 242 -287 242h-346v-483zM547 -485l90 329h172l-133 -329h-129z" />
<glyph unicode="&#x157;" horiz-adv-x="835" d="M115 -485l90 329h172l-133 -329h-129zM190 0v1024h134l22 -168q86 188 328 188q73 0 112 -20l-32 -160q-52 27 -129 27q-48 0 -94.5 -21t-86.5 -61.5t-65 -107t-25 -148.5v-553h-164z" />
<glyph unicode="&#x158;" horiz-adv-x="1361" d="M221 0v1352h512q207 0 332 -107t125 -289q0 -143 -79.5 -241t-219.5 -135l381 -580h-195l-368 561h-324v-561h-164zM334 1853h149l176 -235l177 235h149l-233 -342h-185zM385 715h346q287 0 287 241q0 242 -287 242h-346v-483z" />
<glyph unicode="&#x159;" horiz-adv-x="835" d="M127 1536h149l175 -227l174 227h149l-229 -342h-189zM190 0v1024h134l22 -168q86 188 328 188q73 0 112 -20l-32 -160q-52 27 -129 27q-48 0 -94.5 -21t-86.5 -61.5t-65 -107t-25 -148.5v-553h-164z" />
<glyph unicode="&#x15a;" horiz-adv-x="1312" d="M98 272l142 115q117 -254 432 -254q160 0 254 58t94 165q0 90 -82.5 144t-290.5 90q-270 47 -382.5 135.5t-112.5 245.5q0 109 59.5 199.5t175.5 146t268 55.5q364 0 523 -287l-142 -114q-62 135 -147 191.5t-232 56.5q-156 0 -244.5 -65t-88.5 -165q0 -96 81.5 -149.5 t292.5 -89.5q267 -45 379.5 -135.5t112.5 -249.5q0 -173 -143 -279t-379 -106q-206 0 -350.5 79.5t-219.5 212.5zM582 1522l116 303h193l-176 -303h-133z" />
<glyph unicode="&#x15b;" horiz-adv-x="1079" d="M98 211l133 92q35 -90 121.5 -135t202.5 -45q121 0 184.5 42.5t63.5 108.5q0 59 -59 95t-209 63q-219 40 -308.5 108t-89.5 197t111 218t293 89q165 0 263.5 -59.5t141.5 -185.5l-139 -82q-33 98 -99 141t-167 43q-100 0 -170 -45t-70 -104q0 -67 61 -104.5t216 -63.5 q213 -35 301 -104.5t88 -196.5q0 -135 -116.5 -219t-311.5 -84q-148 0 -266.5 58.5t-174.5 172.5zM440 1194l156 342h178l-201 -342h-133z" />
<glyph unicode="&#x15e;" horiz-adv-x="1312" d="M98 272l142 115q117 -254 432 -254q160 0 254 58t94 165q0 90 -82.5 144t-290.5 90q-270 47 -382.5 135.5t-112.5 245.5q0 109 59.5 199.5t175.5 146t268 55.5q364 0 523 -287l-142 -114q-62 135 -147 191.5t-232 56.5q-156 0 -244.5 -65t-88.5 -165q0 -96 81.5 -149.5 t292.5 -89.5q267 -45 379.5 -135.5t112.5 -249.5q0 -150 -107 -250.5t-292 -126.5q54 -42 83 -97t29 -112q0 -91 -64 -155t-173 -64q-147 0 -226 71l62 113q58 -61 141 -61q50 0 83.5 32.5t33.5 85.5q0 58 -32 98t-118 83q-183 12 -313 89.5t-199 200.5z" />
<glyph unicode="&#x15f;" horiz-adv-x="1079" d="M98 211l133 92q35 -90 121.5 -135t202.5 -45q121 0 184.5 42.5t63.5 108.5q0 59 -59 95t-209 63q-219 40 -308.5 108t-89.5 197t111 218t293 89q165 0 263.5 -59.5t141.5 -185.5l-139 -82q-33 98 -99 141t-167 43q-100 0 -170 -45t-70 -104q0 -67 61 -104.5t216 -63.5 q213 -35 301 -104.5t88 -196.5q0 -110 -80 -188.5t-219 -104.5q57 -41 86.5 -97t29.5 -114q0 -91 -64 -155t-173 -64q-146 0 -225 71l61 113q58 -61 141 -61q50 0 83.5 32.5t33.5 85.5q0 58 -31.5 98t-117.5 83q-132 8 -237 66.5t-157 162.5z" />
<glyph unicode="&#x160;" horiz-adv-x="1312" d="M98 272l142 115q117 -254 432 -254q160 0 254 58t94 165q0 90 -82.5 144t-290.5 90q-270 47 -382.5 135.5t-112.5 245.5q0 109 59.5 199.5t175.5 146t268 55.5q364 0 523 -287l-142 -114q-62 135 -147 191.5t-232 56.5q-156 0 -244.5 -65t-88.5 -165q0 -96 81.5 -149.5 t292.5 -89.5q267 -45 379.5 -135.5t112.5 -249.5q0 -173 -143 -279t-379 -106q-206 0 -350.5 79.5t-219.5 212.5zM342 1853h150l176 -235l176 235h149l-233 -342h-185z" />
<glyph unicode="&#x161;" horiz-adv-x="1079" d="M98 211l133 92q35 -90 121.5 -135t202.5 -45q121 0 184.5 42.5t63.5 108.5q0 59 -59 95t-209 63q-219 40 -308.5 108t-89.5 197t111 218t293 89q165 0 263.5 -59.5t141.5 -185.5l-139 -82q-33 98 -99 141t-167 43q-100 0 -170 -45t-70 -104q0 -67 61 -104.5t216 -63.5 q213 -35 301 -104.5t88 -196.5q0 -135 -116.5 -219t-311.5 -84q-148 0 -266.5 58.5t-174.5 172.5zM217 1536h150l174 -227l174 227h149l-229 -342h-189z" />
<glyph unicode="&#x162;" d="M66 1198v154h1105v-154h-471v-1180q146 -102 146 -241q0 -88 -66.5 -152.5t-173.5 -64.5q-146 0 -225 71l61 113q58 -61 142 -61q50 0 83 32.5t33 85.5q0 56 -34.5 96t-128.5 103v1198h-471z" />
<glyph unicode="&#x163;" horiz-adv-x="899" d="M63 883v141h205v246l164 45v-291h379v-141h-379v-600q0 -73 42 -111.5t112 -38.5q98 0 174 76l57 -137q-77 -67 -178 -84q55 -43 83 -98t28 -111q0 -91 -64.5 -155t-173.5 -64q-146 0 -225 71l61 113q58 -61 141 -61q50 0 83.5 32.5t33.5 85.5q0 60 -35 101.5t-133 93.5 q-167 56 -170 258v629h-205z" />
<glyph unicode="&#x164;" d="M66 1198v154h1105v-154h-471v-1198h-163v1198h-471zM293 1853h149l176 -235l177 235h149l-233 -342h-185z" />
<glyph unicode="&#x165;" horiz-adv-x="858" d="M63 883v141h205v246l164 45v-291h379v-141h-379v-600q0 -73 42 -111.5t112 -38.5q98 0 174 76l57 -137q-102 -92 -264 -92q-124 0 -204 67t-81 207v629h-205zM557 1167l41 404h156l-84 -404h-113z" />
<glyph unicode="&#x16a;" horiz-adv-x="1474" d="M207 504v848h164v-807q0 -212 88.5 -312t277.5 -100t278 100t89 312v807h164v-848q0 -259 -136.5 -391.5t-394.5 -132.5q-257 0 -393.5 132.5t-136.5 391.5zM381 1548v138h713v-138h-713z" />
<glyph unicode="&#x16b;" horiz-adv-x="1267" d="M180 354v670h164v-627q0 -150 62 -212t180 -62q141 0 234 86.5t93 257.5v557h164v-1024h-143l-10 156q-103 -176 -367 -176q-79 0 -145 21t-119 64t-83 117t-30 172zM274 1221v137h713v-137h-713z" />
<glyph unicode="&#x16e;" horiz-adv-x="1474" d="M207 504v848h164v-807q0 -212 88.5 -312t277.5 -100t278 100t89 312v807h164v-848q0 -259 -136.5 -391.5t-394.5 -132.5q-257 0 -393.5 132.5t-136.5 391.5zM481 1585q0 108 71.5 175t186.5 67t185.5 -67t70.5 -175q0 -109 -70.5 -176.5t-185.5 -67.5t-186.5 67.5 t-71.5 176.5zM594 1585q0 -61 41 -101t104 -40t104.5 40t41.5 101t-41.5 101t-104.5 40t-104 -40t-41 -101z" />
<glyph unicode="&#x16f;" horiz-adv-x="1267" d="M180 354v670h164v-627q0 -150 62 -212t180 -62q141 0 234 86.5t93 257.5v557h164v-1024h-143l-10 156q-103 -176 -367 -176q-79 0 -145 21t-119 64t-83 117t-30 172zM367 1421q0 108 71.5 175t186.5 67t185.5 -67t70.5 -175q0 -109 -70.5 -176t-185.5 -67t-186.5 67 t-71.5 176zM479 1421q0 -61 41.5 -101t104.5 -40t104 40t41 101q0 62 -41 102t-104 40t-104.5 -40.5t-41.5 -101.5z" />
<glyph unicode="&#x170;" horiz-adv-x="1474" d="M207 504v848h164v-807q0 -212 88.5 -312t277.5 -100t278 100t89 312v807h164v-848q0 -259 -136.5 -391.5t-394.5 -132.5q-257 0 -393.5 132.5t-136.5 391.5zM461 1526l117 303h192l-176 -303h-133zM813 1522l117 303h192l-176 -303h-133z" />
<glyph unicode="&#x171;" horiz-adv-x="1267" d="M180 354v670h164v-627q0 -150 62 -212t180 -62q141 0 234 86.5t93 257.5v557h164v-1024h-143l-10 156q-103 -176 -367 -176q-79 0 -145 21t-119 64t-83 117t-30 172zM342 1194l156 342h178l-201 -342h-133zM702 1194l156 342h178l-200 -342h-134z" />
<glyph unicode="&#x172;" horiz-adv-x="1474" d="M207 504v848h164v-807q0 -212 88.5 -312t277.5 -100t278 100t89 312v807h164v-848q0 -212 -92.5 -340t-268.5 -168q-198 -102 -198 -211q0 -50 36 -79.5t95 -29.5q71 0 112 25l33 -104q-58 -37 -166 -37q-110 0 -177 56t-67 146q0 131 119 218q-237 12 -362 144t-125 380 z" />
<glyph unicode="&#x173;" horiz-adv-x="1267" d="M180 354v670h164v-627q0 -150 60 -212t171 -62q138 0 238 98.5t100 261.5v541h164v-1024q-129 -68 -181 -117.5t-52 -107.5q0 -99 110 -99q68 0 113 27l33 -102q-64 -41 -166 -41q-107 0 -162 51t-55 139q0 87 53.5 149.5t171.5 120.5l-20 164q-60 -97 -158.5 -150.5 t-206.5 -53.5q-79 0 -145 21t-119 64t-83 117t-30 172z" />
<glyph unicode="&#x178;" horiz-adv-x="1171" d="M20 1352h195l371 -656l370 656h195l-483 -824v-528h-164v528zM270 1636q0 52 32 84.5t85 32.5t85 -32.5t32 -84.5t-32 -84t-85 -32t-85 32t-32 84zM668 1636q0 53 32 85t84 32t84.5 -32.5t32.5 -84.5t-32 -84t-85 -32q-52 0 -84 32t-32 84z" />
<glyph unicode="&#x179;" horiz-adv-x="1290" d="M115 0v145l841 1053h-821v154h1016v-146l-842 -1052h869v-154h-1063zM541 1522l116 303h193l-176 -303h-133z" />
<glyph unicode="&#x17a;" horiz-adv-x="1093" d="M117 0v125l536 629l129 133l-182 -4h-477v141h842v-125l-537 -629l-127 -133l199 4h481v-141h-864zM416 1194l155 342h179l-201 -342h-133z" />
<glyph unicode="&#x17b;" horiz-adv-x="1290" d="M115 0v145l841 1053h-821v154h1016v-146l-842 -1052h869v-154h-1063zM504 1671q0 55 34 89t89 34t89 -34t34 -89t-34 -89t-89 -34t-89 34t-34 89z" />
<glyph unicode="&#x17c;" horiz-adv-x="1093" d="M117 0v125l536 629l129 133l-182 -4h-477v141h842v-125l-537 -629l-127 -133l199 4h481v-141h-864zM393 1343q0 55 33.5 89t89.5 34t89.5 -34t33.5 -89t-33.5 -88.5t-89.5 -33.5t-89.5 33.5t-33.5 88.5z" />
<glyph unicode="&#x17d;" horiz-adv-x="1290" d="M115 0v145l841 1053h-821v154h1016v-146l-842 -1052h869v-154h-1063zM301 1853h150l176 -235l176 235h149l-233 -342h-184z" />
<glyph unicode="&#x17e;" horiz-adv-x="1093" d="M117 0v125l536 629l129 133l-182 -4h-477v141h842v-125l-537 -629l-127 -133l199 4h481v-141h-864zM193 1536h149l174 -227l174 227h150l-230 -342h-188z" />
<glyph unicode="&#x17f;" horiz-adv-x="532" d="M182 0v1196q0 309 277 309q113 0 157 -47l-32 -133q-42 31 -92 31q-146 0 -146 -176v-1180h-164z" />
<glyph unicode="&#x192;" horiz-adv-x="999" d="M-33 -213l25 147q64 -47 149 -47q132 0 158 176l98 615h-286v141h309l59 377q50 309 307 309q62 0 101 -10t88 -39l-25 -147q-64 47 -149 47q-132 0 -158 -176l-57 -361h303v-141h-326l-100 -631q-50 -309 -307 -309q-62 0 -101 10t-88 39z" />
<glyph unicode="&#x218;" horiz-adv-x="1312" d="M98 272l142 115q117 -254 432 -254q160 0 254 58t94 165q0 90 -82.5 144t-290.5 90q-270 47 -382.5 135.5t-112.5 245.5q0 109 59.5 199.5t175.5 146t268 55.5q364 0 523 -287l-142 -114q-62 135 -147 191.5t-232 56.5q-156 0 -244.5 -65t-88.5 -165q0 -96 81.5 -149.5 t292.5 -89.5q267 -45 379.5 -135.5t112.5 -249.5q0 -173 -143 -279t-379 -106q-206 0 -350.5 79.5t-219.5 212.5zM535 -485l90 329h172l-133 -329h-129z" />
<glyph unicode="&#x219;" horiz-adv-x="1079" d="M98 211l133 92q35 -90 121.5 -135t202.5 -45q121 0 184.5 42.5t63.5 108.5q0 59 -59 95t-209 63q-219 40 -308.5 108t-89.5 197t111 218t293 89q165 0 263.5 -59.5t141.5 -185.5l-139 -82q-33 98 -99 141t-167 43q-100 0 -170 -45t-70 -104q0 -67 61 -104.5t216 -63.5 q213 -35 301 -104.5t88 -196.5q0 -135 -116.5 -219t-311.5 -84q-148 0 -266.5 58.5t-174.5 172.5zM371 -485l90 329h172l-133 -329h-129z" />
<glyph unicode="&#x21a;" d="M66 1198v154h1105v-154h-471v-1198h-163v1198h-471zM451 -485l90 329h172l-133 -329h-129z" />
<glyph unicode="&#x21b;" horiz-adv-x="858" d="M63 883v141h205v246l164 45v-291h379v-141h-379v-600q0 -73 42 -111.5t112 -38.5q98 0 174 76l57 -137q-102 -92 -264 -92q-124 0 -204 67t-81 207v629h-205zM324 -485l90 329h172l-133 -329h-129z" />
<glyph unicode="&#x2c6;" horiz-adv-x="1024" d="M188 1180l230 342h188l230 -342h-150l-174 227l-174 -227h-150z" />
<glyph unicode="&#x2da;" horiz-adv-x="1024" d="M254 1421q0 108 71.5 175t186.5 67t185.5 -67t70.5 -175q0 -109 -70.5 -176t-185.5 -67t-186.5 67t-71.5 176zM367 1421q0 -61 41 -101t104 -40t104 40t41 101q0 62 -41 102t-104 40t-104 -40t-41 -102z" />
<glyph unicode="&#x2dc;" horiz-adv-x="1024" d="M141 1192q21 274 232 274q42 0 78 -14.5t61.5 -35t48 -40.5t45.5 -34.5t45 -14.5q44 0 68 35.5t35 105.5h129q-21 -274 -230 -274q-43 0 -79.5 14.5t-61.5 35t-47.5 40.5t-46 34.5t-47.5 14.5q-44 0 -67 -35.5t-34 -105.5h-129z" />
<glyph unicode="&#x2000;" horiz-adv-x="952" />
<glyph unicode="&#x2001;" horiz-adv-x="1905" />
<glyph unicode="&#x2002;" horiz-adv-x="952" />
<glyph unicode="&#x2003;" horiz-adv-x="1905" />
<glyph unicode="&#x2004;" horiz-adv-x="635" />
<glyph unicode="&#x2005;" horiz-adv-x="476" />
<glyph unicode="&#x2006;" horiz-adv-x="317" />
<glyph unicode="&#x2007;" horiz-adv-x="317" />
<glyph unicode="&#x2008;" horiz-adv-x="238" />
<glyph unicode="&#x2009;" horiz-adv-x="381" />
<glyph unicode="&#x200a;" horiz-adv-x="105" />
<glyph unicode="&#x2010;" horiz-adv-x="1044" d="M184 451v170h676v-170h-676z" />
<glyph unicode="&#x2011;" horiz-adv-x="1044" d="M184 451v170h676v-170h-676z" />
<glyph unicode="&#x2012;" horiz-adv-x="1044" d="M184 451v170h676v-170h-676z" />
<glyph unicode="&#x2013;" horiz-adv-x="1359" d="M168 459v153h1024v-153h-1024z" />
<glyph unicode="&#x2014;" horiz-adv-x="2076" d="M168 459v153h1741v-153h-1741z" />
<glyph unicode="&#x2018;" horiz-adv-x="522" d="M109 1087q0 109 55.5 201.5t167.5 145.5l86 -80q-81 -27 -134 -84.5t-67 -124.5l8 -4q17 14 58 14q42 0 77 -34t35 -95q0 -56 -39 -96.5t-94 -40.5q-71 0 -112 54.5t-41 143.5z" />
<glyph unicode="&#x2019;" horiz-adv-x="522" d="M113 969q80 27 133 84.5t67 124.5l-8 4q-19 -15 -57 -15q-42 0 -77.5 34t-35.5 95q0 56 39 97t94 41q71 0 112.5 -55t41.5 -144q0 -109 -55.5 -201t-167.5 -145z" />
<glyph unicode="&#x201a;" horiz-adv-x="542" d="M113 -219q80 27 133 84.5t67 124.5l-8 4q-17 -14 -57 -14q-42 0 -77.5 34t-35.5 95q0 56 39 96.5t94 40.5q71 0 112.5 -55t41.5 -144q0 -109 -55.5 -201t-167.5 -145z" />
<glyph unicode="&#x201c;" horiz-adv-x="907" d="M109 1087q0 109 55.5 201.5t167.5 145.5l86 -80q-81 -27 -134 -84.5t-67 -124.5l8 -4q17 14 58 14q42 0 77 -34t35 -95q0 -56 -39 -96.5t-94 -40.5q-71 0 -112 54.5t-41 143.5zM494 1087q0 109 55.5 201.5t167.5 145.5l86 -80q-81 -27 -134 -84.5t-67 -124.5l8 -4 q18 14 58 14q42 0 77 -34t35 -95q0 -56 -39 -96.5t-94 -40.5q-71 0 -112 54.5t-41 143.5z" />
<glyph unicode="&#x201d;" horiz-adv-x="907" d="M113 969q80 27 133 84.5t67 124.5l-8 4q-19 -15 -57 -15q-42 0 -77.5 34t-35.5 95q0 56 39 97t94 41q71 0 112.5 -55t41.5 -144q0 -109 -55.5 -201t-167.5 -145zM498 969q80 27 133 84.5t67 124.5l-8 4q-19 -15 -57 -15q-42 0 -77.5 34t-35.5 95q0 56 39 97t94 41 q71 0 112.5 -55t41.5 -144q0 -109 -55.5 -201t-167.5 -145z" />
<glyph unicode="&#x201e;" horiz-adv-x="927" d="M113 -219q80 27 133 84.5t67 124.5l-8 4q-17 -14 -57 -14q-42 0 -77.5 34t-35.5 95q0 56 39 96.5t94 40.5q71 0 112.5 -55t41.5 -144q0 -109 -55.5 -201t-167.5 -145zM498 -219q80 27 133 84.5t67 124.5l-8 4q-18 -14 -57 -14q-42 0 -77.5 34t-35.5 95q0 56 39 96.5 t94 40.5q71 0 112.5 -55t41.5 -144q0 -109 -55.5 -201t-167.5 -145z" />
<glyph unicode="&#x2020;" horiz-adv-x="1050" d="M80 780v142h364v430h164v-430h363v-142h-363v-985h-164v985h-364z" />
<glyph unicode="&#x2021;" horiz-adv-x="1050" d="M80 225v142h364v413h-364v142h364v430h164v-430h363v-142h-363v-413h363v-142h-363v-430h-164v430h-364z" />
<glyph unicode="&#x2022;" horiz-adv-x="880" d="M184 690q0 107 73 177.5t183 70.5q112 0 184 -70t72 -178t-72 -178t-184 -70q-110 0 -183 70.5t-73 177.5z" />
<glyph unicode="&#x2026;" horiz-adv-x="1761" d="M154 113q0 60 36.5 96.5t96.5 36.5t96.5 -36.5t36.5 -96.5t-36.5 -96.5t-96.5 -36.5t-96.5 36.5t-36.5 96.5zM748 113q0 60 36.5 96.5t96.5 36.5t96.5 -36.5t36.5 -96.5t-36.5 -96.5t-96.5 -36.5t-96.5 36.5t-36.5 96.5zM1341 113q0 60 37 96.5t97 36.5t96.5 -36.5 t36.5 -96.5t-36.5 -96.5t-96.5 -36.5t-97 36.5t-37 96.5z" />
<glyph unicode="&#x202f;" horiz-adv-x="381" />
<glyph unicode="&#x2030;" horiz-adv-x="2547" d="M82 999q0 169 88.5 271t237.5 102t237 -102t88 -271t-88 -270.5t-237 -101.5t-237.5 101.5t-88.5 270.5zM227 999q0 -116 47 -179.5t134 -63.5t133.5 63.5t46.5 179.5t-46.5 180t-133.5 64t-134 -64t-47 -180zM369 0l860 1352h155l-860 -1352h-155zM1020 352 q0 169 88.5 271t237.5 102t237 -102t88 -271t-88 -270.5t-237 -101.5t-237.5 101.5t-88.5 270.5zM1165 352q0 -116 47 -179.5t134 -63.5t133.5 63.5t46.5 179.5t-46.5 180t-133.5 64t-134 -64t-47 -180zM1815 352q0 169 88 271t237 102t237.5 -102t88.5 -271t-88.5 -270.5 t-237.5 -101.5t-237 101.5t-88 270.5zM1960 352q0 -116 46.5 -179.5t133.5 -63.5t133.5 63.5t46.5 179.5t-46.5 180t-133.5 64t-133.5 -64t-46.5 -180z" />
<glyph unicode="&#x2039;" horiz-adv-x="647" d="M104 543l258 401h179l-262 -401l262 -402h-179z" />
<glyph unicode="&#x203a;" horiz-adv-x="647" d="M106 141l263 402l-263 401h179l258 -401l-258 -402h-179z" />
<glyph unicode="&#x2044;" horiz-adv-x="507" d="M-315 0l977 1352h161l-977 -1352h-161z" />
<glyph unicode="&#x205f;" horiz-adv-x="476" />
<glyph unicode="&#x2070;" horiz-adv-x="811" d="M70 1087q0 206 85 312t251 106q165 0 250 -106t85 -312t-84.5 -311.5t-250.5 -105.5t-251 105.5t-85 311.5zM213 1087q0 -301 193 -301q192 0 192 301q0 302 -192 302q-193 0 -193 -302z" />
<glyph unicode="&#x2074;" horiz-adv-x="733" d="M18 885v76l373 534h156v-508h145v-102h-145v-203h-121v203h-408zM158 987h268v234q0 79 6 155h-6q-30 -59 -66 -110z" />
<glyph unicode="&#x2075;" horiz-adv-x="737" d="M53 846l129 74q31 -129 183 -129q77 0 124.5 43.5t47.5 113.5q0 152 -166 152q-123 0 -172 -80h-111l37 475h510v-119h-399l-17 -184q-2 -30 -10 -57h2q29 36 73 53.5t126 17.5q121 0 194.5 -72.5t73.5 -183.5q0 -132 -86 -205t-223 -73q-117 0 -195 41t-121 133z" />
<glyph unicode="&#x2076;" horiz-adv-x="770" d="M70 1087q0 202 97 310t253 108q205 0 272 -168l-119 -61q-34 113 -155 113q-102 0 -157.5 -84t-55.5 -205v-27h2q41 61 92 88t125 27q129 0 206 -70.5t77 -187.5q0 -121 -82 -190.5t-222 -69.5q-161 0 -247 107t-86 310zM240 930q0 -66 45.5 -106t120.5 -40 q77 0 121 38.5t44 107.5q0 66 -44.5 105.5t-120.5 39.5q-72 0 -119 -43.5t-47 -101.5z" />
<glyph unicode="&#x2077;" horiz-adv-x="638" d="M6 1376v119h621v-119q-148 -154 -211.5 -319t-63.5 -375h-143q0 406 280 694h-483z" />
<glyph unicode="&#x2078;" horiz-adv-x="788" d="M70 901q0 73 45.5 124t128.5 75v2q-68 22 -106 69.5t-38 112.5q0 101 79 160t214 59t214 -59t79 -160q0 -65 -37 -112t-106 -70v-2q83 -24 128.5 -74.5t45.5 -124.5q0 -107 -87 -169t-237 -62q-148 0 -235.5 62t-87.5 169zM215 911q0 -60 48 -95.5t130 -35.5t130 35.5 t48 95.5q0 61 -48 97t-130 36q-80 0 -129 -36t-49 -97zM242 1276q0 -55 41 -88t110 -33t110.5 33t41.5 88t-40.5 87t-111.5 32q-70 0 -110.5 -31.5t-40.5 -87.5z" />
<glyph unicode="&#x2079;" horiz-adv-x="780" d="M70 1239q0 123 82.5 194.5t224.5 71.5q158 0 246 -110t88 -310q0 -201 -89.5 -308t-248.5 -107q-234 0 -301 176l135 57q14 -58 53.5 -88.5t114.5 -30.5q55 0 95 23.5t62 63t32.5 84.5t10.5 96q0 29 -2 41h-2q-15 -41 -77.5 -75t-128.5 -34q-139 0 -217 68.5t-78 187.5z M211 1241q0 -68 44 -106.5t122 -38.5q74 0 122 41.5t48 103.5q0 66 -47 107t-121 41q-79 0 -123.5 -39.5t-44.5 -108.5z" />
<glyph unicode="&#x207a;" horiz-adv-x="700" d="M55 1034v101h238v245h117v-245h235v-101h-235v-246h-117v246h-238z" />
<glyph unicode="&#x207c;" horiz-adv-x="782" d="M109 901v109h565v-109h-565zM109 1159v109h565v-109h-565z" />
<glyph unicode="&#x207d;" horiz-adv-x="462" d="M137 1087q0 368 258 594l82 -71q-110 -110 -157.5 -232.5t-47.5 -290.5t47.5 -290t157.5 -232l-82 -71q-258 226 -258 593z" />
<glyph unicode="&#x207e;" horiz-adv-x="462" d="M-14 565q109 109 156.5 231.5t47.5 290.5q0 169 -47.5 291.5t-156.5 231.5l82 71q258 -226 258 -594q0 -367 -258 -593z" />
<glyph unicode="&#x2080;" horiz-adv-x="811" d="M70 18q0 206 85 312t251 106q165 0 250 -106t85 -312t-84.5 -311.5t-250.5 -105.5t-251 105.5t-85 311.5zM213 18q0 -301 193 -301q192 0 192 301t-192 301q-193 0 -193 -301z" />
<glyph unicode="&#x2081;" horiz-adv-x="495" d="M20 156v123q59 11 134 55.5t106 91.5h127v-813h-143v514q0 41 4 147q-104 -97 -228 -118z" />
<glyph unicode="&#x2082;" horiz-adv-x="747" d="M57 172q7 124 91.5 194t220.5 70q143 0 222 -76t79 -184q0 -90 -72 -182t-225 -197q-20 -14 -57 -38t-50 -33v-2q75 6 131 6h291v-117h-608v98q145 104 188 137q148 117 200 183t52 137q0 66 -41.5 107.5t-116.5 41.5q-80 0 -126.5 -50.5t-49.5 -139.5z" />
<glyph unicode="&#x2083;" horiz-adv-x="741" d="M49 -203l137 62q24 -140 176 -140q72 0 116 36.5t44 97.5q0 114 -160 114h-49v103h43q71 0 108.5 32t37.5 91q0 61 -36.5 92.5t-103.5 31.5q-131 0 -155 -122l-133 47q25 96 104.5 145t192.5 49q133 0 207.5 -60.5t74.5 -160.5q0 -86 -50.5 -137.5t-110.5 -54.5v-3 q69 -2 124.5 -51.5t55.5 -136.5q0 -103 -86 -167t-221 -64q-253 0 -316 196z" />
<glyph unicode="&#x2084;" horiz-adv-x="733" d="M18 -109l373 535h156v-508h145v-102h-145v-203h-121v203h-408v75zM158 -82h268v234q0 78 6 155h-6q-30 -59 -66 -110z" />
<glyph unicode="&#x2085;" horiz-adv-x="737" d="M53 -223l129 73q31 -129 183 -129q77 0 124.5 44t47.5 114q0 152 -166 152q-123 0 -172 -80h-111l37 475h510v-119h-399l-17 -184q-2 -30 -10 -57h2q29 36 73 53.5t126 17.5q121 0 194.5 -72.5t73.5 -183.5q0 -132 -86 -205t-223 -73q-117 0 -195 41t-121 133z" />
<glyph unicode="&#x2086;" horiz-adv-x="770" d="M70 18q0 202 97 310t253 108q205 0 272 -168l-119 -61q-34 112 -155 112q-102 0 -157.5 -83.5t-55.5 -204.5v-27h2q41 61 92 88t125 27q129 0 206 -70.5t77 -187.5q0 -121 -82 -190.5t-222 -69.5q-161 0 -247 107t-86 310zM240 -139q0 -66 45.5 -106t120.5 -40 q77 0 121 38.5t44 107.5q0 66 -44.5 105.5t-120.5 39.5q-72 0 -119 -43.5t-47 -101.5z" />
<glyph unicode="&#x2087;" horiz-adv-x="638" d="M6 307v119h621v-119q-148 -154 -211.5 -319t-63.5 -375h-143q0 406 280 694h-483z" />
<glyph unicode="&#x2088;" horiz-adv-x="788" d="M70 -168q0 73 45.5 124t128.5 75v2q-68 22 -106 69.5t-38 112.5q0 101 79 160t214 59t214 -59t79 -160q0 -65 -37 -112t-106 -70v-2q83 -24 128.5 -74.5t45.5 -124.5q0 -107 -87 -169t-237 -62q-148 0 -235.5 62t-87.5 169zM215 -158q0 -60 48 -95.5t130 -35.5t130 35.5 t48 95.5q0 61 -48 97t-130 36q-80 0 -129 -36t-49 -97zM242 207q0 -55 41 -88t110 -33t110.5 33t41.5 88t-40.5 87t-111.5 32q-70 0 -110.5 -31.5t-40.5 -87.5z" />
<glyph unicode="&#x2089;" horiz-adv-x="780" d="M70 170q0 123 82.5 194.5t224.5 71.5q158 0 246 -110t88 -310q0 -201 -89.5 -308t-248.5 -107q-234 0 -301 176l135 57q14 -58 53.5 -88.5t114.5 -30.5q55 0 95 23.5t62 63t32.5 84.5t10.5 96q0 29 -2 41h-2q-15 -41 -77.5 -75t-128.5 -34q-139 0 -217 68.5t-78 187.5z M211 172q0 -68 44 -106.5t122 -38.5q74 0 122 41.5t48 103.5q0 66 -47 106.5t-121 40.5q-79 0 -123.5 -39t-44.5 -108z" />
<glyph unicode="&#x208a;" horiz-adv-x="700" d="M55 -35v101h238v245h117v-245h235v-101h-235v-246h-117v246h-238z" />
<glyph unicode="&#x208c;" horiz-adv-x="782" d="M109 -59h565v-109h-565v109zM109 90v109h565v-109h-565z" />
<glyph unicode="&#x208d;" horiz-adv-x="462" d="M137 18q0 368 258 594l82 -71q-110 -110 -157.5 -232.5t-47.5 -290.5t47.5 -290t157.5 -232l-82 -71q-258 226 -258 593z" />
<glyph unicode="&#x208e;" horiz-adv-x="462" d="M-14 -504q109 109 156.5 231.5t47.5 290.5q0 169 -47.5 291.5t-156.5 231.5l82 71q258 -226 258 -594q0 -367 -258 -593z" />
<glyph unicode="&#x20ac;" horiz-adv-x="1433" d="M127 438v133h160q-4 66 -4 105q0 49 2 72h-158v133h174q43 232 184 361.5t359 129.5q175 0 301.5 -81.5t181.5 -233.5l-147 -70q-35 115 -121.5 178.5t-200.5 63.5q-145 0 -247 -91.5t-142 -256.5h487l-41 -133h-466q-3 -34 -3 -72q0 -47 7 -105h421l-40 -133h-357 q41 -150 138.5 -232.5t234.5 -82.5q119 0 218 73.5t134 204.5l150 -55q-56 -170 -194 -268t-310 -98q-214 0 -353.5 120t-187.5 338h-180z" />
<glyph unicode="&#x2122;" horiz-adv-x="1716" d="M111 1241v111h555v-111h-205v-565h-144v565h-206zM795 676v676h180l139 -369l47 -131h4l45 131l142 369h178v-676h-141v323l14 179h-2l-19 -56l-168 -446h-102l-170 446l-18 56h-2l14 -179v-323h-141z" />
<glyph unicode="&#x25ca;" horiz-adv-x="1202" d="M98 676l406 676h194l408 -676l-408 -676h-194zM285 676l317 -557l318 557l-318 557z" />
<glyph unicode="&#x25fc;" horiz-adv-x="1024" d="M0 0v1024h1024v-1024h-1024z" />
<glyph unicode="&#x275b;" horiz-adv-x="1495" d="M139 575q0 143 37 262t118 217.5t203.5 166t298.5 104.5t398 37l96 -133q-202 0 -357 -25t-265 -75.5t-185 -116.5t-133 -158l15 -10q84 64 172.5 91.5t234.5 27.5q272 0 425 -130t153 -362q0 -231 -154 -361t-426 -130q-171 0 -293.5 40.5t-196 119.5t-107.5 186 t-34 249z" />
<glyph unicode="&#x275c;" horiz-adv-x="1495" d="M145 614q0 231 154 361.5t426 130.5q171 0 293.5 -40.5t196 -119.5t107.5 -186.5t34 -249.5q0 -143 -37 -262t-118 -217t-203.5 -165.5t-298.5 -104.5t-398 -37l-96 133q202 0 357 25t265 75.5t185 116.5t133 157l-15 11q-84 -64 -172.5 -91.5t-234.5 -27.5 q-272 0 -425 130t-153 361z" />
<glyph unicode="&#x275d;" horiz-adv-x="2576" d="M139 575q0 143 37 262t118 217.5t203.5 166t298.5 104.5t398 37l96 -133q-202 0 -357 -25t-265 -75.5t-185 -116.5t-133 -158l15 -10q84 64 172.5 91.5t234.5 27.5q321 0 471 -177q66 274 319.5 425t712.5 151l97 -133q-202 0 -357 -25t-265 -75.5t-185 -116.5t-133 -158 l14 -10q84 64 172.5 91.5t234.5 27.5q272 0 425 -130t153 -362q0 -231 -154 -361t-426 -130q-419 0 -557 251q-65 -122 -199 -186.5t-325 -64.5q-171 0 -293.5 40.5t-196 119.5t-107.5 186t-34 249z" />
<glyph unicode="&#x275e;" horiz-adv-x="2576" d="M145 614q0 231 154 361.5t426 130.5q418 0 557 -252q65 122 199 187t325 65q171 0 293.5 -40.5t196 -119.5t107.5 -186.5t34 -249.5q0 -143 -37 -262t-118 -217t-203.5 -165.5t-298.5 -104.5t-398 -37l-96 133q202 0 357 25t265 75.5t185 116.5t133 157l-14 11 q-84 -63 -173 -91t-235 -28q-321 0 -471 176q-66 -274 -319.5 -424.5t-712.5 -150.5l-96 133q202 0 357 25t265 75.5t185 116.5t133 157l-15 11q-84 -64 -172.5 -91.5t-234.5 -27.5q-272 0 -425 130t-153 361z" />
<glyph unicode="&#x2761;" horiz-adv-x="1304" d="M123 901q0 203 143.5 327t378.5 124h514v-1225q0 -91 -17 -169.5t-60.5 -153.5t-112 -127.5t-179 -84.5t-253.5 -32q-91 0 -169 27t-132 78.5t-73 125.5t9 168l115 25q-35 -136 26.5 -219.5t171.5 -83.5q119 0 171.5 73t52.5 211v488h-103q-217 0 -350 123.5t-133 324.5z M741 -311l7 -8q133 52 200.5 164.5t67.5 256.5v1112h-178v-1304q0 -61 -28 -127.5t-69 -93.5z" />
<glyph unicode="&#x2780;" horiz-adv-x="1863" d="M166 676q0 224 95.5 396.5t269.5 267t401 94.5t401 -94.5t269.5 -267t95.5 -396.5t-95.5 -396.5t-269.5 -267t-401 -94.5t-401 94.5t-269.5 267t-95.5 396.5zM301 676q0 -284 174.5 -459.5t456.5 -175.5t456.5 175.5t174.5 459.5t-174.5 459.5t-456.5 175.5 t-456.5 -175.5t-174.5 -459.5zM680 821v123q59 11 134 56t106 92h127v-813h-144v514q0 41 4 147q-106 -99 -227 -119z" />
<glyph unicode="&#x2781;" horiz-adv-x="1863" d="M166 676q0 224 95.5 396.5t269.5 267t401 94.5t401 -94.5t269.5 -267t95.5 -396.5t-95.5 -396.5t-269.5 -267t-401 -94.5t-401 94.5t-269.5 267t-95.5 396.5zM301 676q0 -284 174.5 -459.5t456.5 -175.5t456.5 175.5t174.5 459.5t-174.5 459.5t-456.5 175.5 t-456.5 -175.5t-174.5 -459.5zM614 858q7 124 91.5 194t220.5 70q143 0 222 -76t79 -184q0 -90 -72 -182t-225 -197q-20 -14 -57 -38t-50 -33v-2q75 6 131 6h291v-117h-608v98q129 93 188 138q148 117 200 183t52 136q0 67 -41.5 108.5t-115.5 41.5q-80 0 -127 -51t-50 -140 z" />
<glyph unicode="&#x2782;" horiz-adv-x="1863" d="M166 676q0 224 95.5 396.5t269.5 267t401 94.5t401 -94.5t269.5 -267t95.5 -396.5t-95.5 -396.5t-269.5 -267t-401 -94.5t-401 94.5t-269.5 267t-95.5 396.5zM301 676q0 -284 174.5 -459.5t456.5 -175.5t456.5 175.5t174.5 459.5t-174.5 459.5t-456.5 175.5 t-456.5 -175.5t-174.5 -459.5zM625 457l137 61q24 -139 176 -139q72 0 116 36t44 97q0 115 -160 115h-49v102h43q71 0 108 32t37 91q0 61 -36 93t-103 32q-132 0 -156 -123l-133 47q25 97 104.5 146t192.5 49q133 0 208 -61t75 -161q0 -86 -51 -137.5t-111 -54.5v-2 q69 -2 124.5 -51.5t55.5 -136.5q0 -103 -86 -167.5t-221 -64.5q-251 0 -315 197z" />
<glyph unicode="&#x2783;" horiz-adv-x="1863" d="M166 676q0 224 95.5 396.5t269.5 267t401 94.5t401 -94.5t269.5 -267t95.5 -396.5t-95.5 -396.5t-269.5 -267t-401 -94.5t-401 94.5t-269.5 267t-95.5 396.5zM301 676q0 -284 174.5 -459.5t456.5 -175.5t456.5 175.5t174.5 459.5t-174.5 459.5t-456.5 175.5 t-456.5 -175.5t-174.5 -459.5zM545 481v76l373 535h155v-508h146v-103h-146v-202h-121v202h-407zM684 584h268v233q0 79 6 156h-6q-35 -68 -65 -111z" />
<glyph unicode="&#x2784;" horiz-adv-x="1863" d="M166 676q0 224 95.5 396.5t269.5 267t401 94.5t401 -94.5t269.5 -267t95.5 -396.5t-95.5 -396.5t-269.5 -267t-401 -94.5t-401 94.5t-269.5 267t-95.5 396.5zM301 676q0 -284 174.5 -459.5t456.5 -175.5t456.5 175.5t174.5 459.5t-174.5 459.5t-456.5 175.5 t-456.5 -175.5t-174.5 -459.5zM616 424l129 74q31 -129 183 -129q77 0 124.5 43.5t47.5 113.5q0 152 -166 152q-123 0 -172 -80h-111l37 475h510v-119h-399l-17 -184q-2 -30 -10 -57h2q29 36 73 53.5t126 17.5q121 0 194.5 -72.5t73.5 -183.5q0 -132 -86 -205t-223 -73 q-117 0 -195 41t-121 133z" />
<glyph unicode="&#x2785;" horiz-adv-x="1863" d="M166 676q0 224 95.5 396.5t269.5 267t401 94.5t401 -94.5t269.5 -267t95.5 -396.5t-95.5 -396.5t-269.5 -267t-401 -94.5t-401 94.5t-269.5 267t-95.5 396.5zM301 676q0 -284 174.5 -459.5t456.5 -175.5t456.5 175.5t174.5 459.5t-174.5 459.5t-456.5 175.5 t-456.5 -175.5t-174.5 -459.5zM592 678q0 202 97 310t253 108q205 0 272 -168l-118 -62q-34 113 -156 113q-102 0 -157.5 -84t-55.5 -205v-26h2q41 61 92 87.5t125 26.5q129 0 206 -70.5t77 -187.5q0 -121 -81.5 -190.5t-221.5 -69.5q-161 0 -247.5 107.5t-86.5 310.5z M762 520q0 -66 45.5 -105.5t120.5 -39.5q77 0 121.5 38.5t44.5 106.5q0 66 -45 106t-121 40q-72 0 -119 -44t-47 -102z" />
<glyph unicode="&#x2786;" horiz-adv-x="1863" d="M166 676q0 224 95.5 396.5t269.5 267t401 94.5t401 -94.5t269.5 -267t95.5 -396.5t-95.5 -396.5t-269.5 -267t-401 -94.5t-401 94.5t-269.5 267t-95.5 396.5zM301 676q0 -284 174.5 -459.5t456.5 -175.5t456.5 175.5t174.5 459.5t-174.5 459.5t-456.5 175.5 t-456.5 -175.5t-174.5 -459.5zM639 940v119h621v-119q-148 -154 -211.5 -319t-63.5 -375h-143q0 406 280 694h-483z" />
<glyph unicode="&#x2787;" horiz-adv-x="1863" d="M166 676q0 224 95.5 396.5t269.5 267t401 94.5t401 -94.5t269.5 -267t95.5 -396.5t-95.5 -396.5t-269.5 -267t-401 -94.5t-401 94.5t-269.5 267t-95.5 396.5zM301 676q0 -284 174.5 -459.5t456.5 -175.5t456.5 175.5t174.5 459.5t-174.5 459.5t-456.5 175.5 t-456.5 -175.5t-174.5 -459.5zM608 492q0 73 45.5 123.5t128.5 74.5v2q-68 22 -105.5 69t-37.5 113q0 101 79 160.5t214 59.5t214 -59.5t79 -160.5q0 -64 -37.5 -111.5t-106.5 -70.5v-2q83 -24 128.5 -74t45.5 -124q0 -107 -87 -169.5t-236 -62.5q-148 0 -236 62.5 t-88 169.5zM754 502q0 -60 48 -95.5t130 -35.5t130 35.5t48 95.5q0 61 -48 97t-130 36q-80 0 -129 -36t-49 -97zM780 866q0 -55 41.5 -88t110.5 -33t110 33t41 88q0 56 -40.5 87.5t-110.5 31.5q-71 0 -111.5 -32t-40.5 -87z" />
<glyph unicode="&#x2788;" horiz-adv-x="1863" d="M166 676q0 224 95.5 396.5t269.5 267t401 94.5t401 -94.5t269.5 -267t95.5 -396.5t-95.5 -396.5t-269.5 -267t-401 -94.5t-401 94.5t-269.5 267t-95.5 396.5zM301 676q0 -284 174.5 -459.5t456.5 -175.5t456.5 175.5t174.5 459.5t-174.5 459.5t-456.5 175.5 t-456.5 -175.5t-174.5 -459.5zM629 829q0 123 82.5 195t224.5 72q158 0 246 -110t88 -310q0 -201 -89.5 -308.5t-248.5 -107.5q-234 0 -301 176l135 58q14 -58 53.5 -88.5t114.5 -30.5q44 0 79 15.5t57.5 41.5t37.5 61t21 71.5t6 76.5q0 29 -2 41h-3q-15 -41 -77.5 -75 t-128.5 -34q-139 0 -217 68.5t-78 187.5zM770 831q0 -68 44 -106.5t122 -38.5q74 0 122 41.5t48 103.5q0 66 -47 107t-121 41q-79 0 -123.5 -39.5t-44.5 -108.5z" />
<glyph unicode="&#xf8ff;" horiz-adv-x="2314" d="M35 424q0 34 25 59t59 25q10 0 22 -4q77 60 136 162.5t59 189.5l8 170l115 -57v141l114 -61l-8 127l137 -54l11 135l133 -67l16 133l137 -74l35 133l117 -102l61 131l101 -102l100 110l76 -121l102 113l54 -131l129 90l14 -141l143 63l-22 -141l155 33l-43 -131l150 6 l-82 -115l135 -47l-110 -78l116 -80l-121 -71l105 -88l-129 -62l84 -104l-141 -25l57 -125l-125 -8q-31 -20 -57 -31v-166q0 -59 -60 -59h-94q-59 0 -59 47q0 51 59 51h23v80q-57 -13 -136 -20v-99q0 -59 -59 -59h-94q-60 0 -60 47q0 51 60 51h22v56h-463v-95q0 -59 -59 -59 h-94q-62 0 -62 47q0 51 62 51h24v56h-180v-95q0 -59 -61 -59h-90q-64 0 -64 47q0 51 64 51h20v76q-137 6 -265.5 51t-207.5 115h-10q-34 0 -59 25t-25 59zM354 606q0 -61 35.5 -96t97.5 -35t98 35t36 96h-50q0 -40 -21 -58t-63 -18t-63 18t-21 58h-49zM662 770l22 -39 q26 22 55 25q51 2 81.5 -26t33.5 -79q3 -40 -15.5 -67.5t-54.5 -34.5l25 -43q48 15 75.5 55.5t24.5 93.5q-3 68 -52.5 110.5t-119.5 39.5q-39 -3 -75 -35z" />
<glyph horiz-adv-x="1529" d="M221 0v1352h1000v-154h-836v-455h446v-153h-446v-436h662q153 0 226 48.5t73 157.5q0 95 -42.5 147t-109.5 54l63 131q105 -5 178.5 -95.5t73.5 -238.5q0 -171 -115 -264.5t-313 -93.5h-860z" />
<glyph horiz-adv-x="1529" d="M221 0v1352h1000v-154h-836v-455h446v-153h-446v-436h662q153 0 226 48.5t73 157.5q0 95 -42.5 147t-109.5 54l63 131q105 -5 178.5 -95.5t73.5 -238.5q0 -171 -115 -264.5t-313 -93.5h-860zM662 1522l116 303h193l-176 -303h-133z" />
<glyph horiz-adv-x="1529" d="M221 0v1352h1000v-154h-836v-455h446v-153h-446v-436h662q153 0 226 48.5t73 157.5q0 95 -42.5 147t-109.5 54l63 131q105 -5 178.5 -95.5t73.5 -238.5q0 -171 -115 -264.5t-313 -93.5h-860zM422 1853h149l177 -235l176 235h149l-233 -342h-185z" />
<glyph horiz-adv-x="1529" d="M221 0v1352h1000v-154h-836v-455h446v-153h-446v-436h662q153 0 226 48.5t73 157.5q0 95 -42.5 147t-109.5 54l63 131q105 -5 178.5 -95.5t73.5 -238.5q0 -171 -115 -264.5t-313 -93.5h-860zM422 1507l233 342h185l233 -342h-149l-176 236l-177 -236h-149z" />
<glyph horiz-adv-x="1529" d="M221 0v1352h1000v-154h-836v-455h446v-153h-446v-436h662q153 0 226 48.5t73 157.5q0 95 -42.5 147t-109.5 54l63 131q105 -5 178.5 -95.5t73.5 -238.5q0 -171 -115 -264.5t-313 -93.5h-860zM432 1636q0 52 32 84.5t85 32.5t85 -32.5t32 -84.5t-32 -84t-85 -32t-85 32 t-32 84zM829 1636q0 52 32.5 84.5t84.5 32.5t84.5 -32.5t32.5 -84.5t-32 -84t-85 -32t-85 32t-32 84z" />
<glyph horiz-adv-x="1529" d="M221 0v1352h1000v-154h-836v-455h446v-153h-446v-436h662q153 0 226 48.5t73 157.5q0 95 -42.5 147t-109.5 54l63 131q105 -5 178.5 -95.5t73.5 -238.5q0 -171 -115 -264.5t-313 -93.5h-860zM625 1671q0 55 33.5 89t89.5 34q55 0 88.5 -33.5t33.5 -89.5t-33.5 -89.5 t-88.5 -33.5q-56 0 -89.5 34t-33.5 89z" />
<glyph horiz-adv-x="1529" d="M221 0v1352h1000v-154h-836v-455h446v-153h-446v-436h662q153 0 226 48.5t73 157.5q0 95 -42.5 147t-109.5 54l63 131q105 -5 178.5 -95.5t73.5 -238.5q0 -171 -115 -264.5t-313 -93.5h-860zM506 1825h192l117 -303h-133z" />
<glyph horiz-adv-x="1529" d="M221 0v1352h1000v-154h-836v-455h446v-153h-446v-436h662q153 0 226 48.5t73 157.5q0 95 -42.5 147t-109.5 54l63 131q105 -5 178.5 -95.5t73.5 -238.5q0 -171 -115 -264.5t-313 -93.5h-860zM391 1548v138h713v-138h-713z" />
<glyph horiz-adv-x="1402" d="M221 0v1352h512q207 0 332 -107t125 -289q0 -161 -99.5 -264t-269.5 -125l275 -383q48 -68 141.5 -145t165.5 -102l-88 -113q-68 34 -121.5 67.5t-88 60t-67 61.5t-51 59.5t-47.5 66.5l-295 422h-260v-561h-164zM385 715h346q287 0 287 241q0 242 -287 242h-346v-483z " />
<glyph horiz-adv-x="1402" d="M221 0v1352h512q207 0 332 -107t125 -289q0 -161 -99.5 -264t-269.5 -125l275 -383q48 -68 141.5 -145t165.5 -102l-88 -113q-68 34 -121.5 67.5t-88 60t-67 61.5t-51 59.5t-47.5 66.5l-295 422h-260v-561h-164zM385 715h346q287 0 287 241q0 242 -287 242h-346v-483z M573 1522l117 303h193l-176 -303h-134z" />
<glyph horiz-adv-x="1402" d="M221 0v1352h512q207 0 332 -107t125 -289q0 -161 -99.5 -264t-269.5 -125l275 -383q48 -68 141.5 -145t165.5 -102l-88 -113q-68 34 -121.5 67.5t-88 60t-67 61.5t-51 59.5t-47.5 66.5l-295 422h-260v-561h-164zM334 1853h149l176 -235l177 235h149l-233 -342h-185z M385 715h346q287 0 287 241q0 242 -287 242h-346v-483z" />
<glyph horiz-adv-x="1402" d="M221 0v1352h512q207 0 332 -107t125 -289q0 -161 -99.5 -264t-269.5 -125l275 -383q48 -68 141.5 -145t165.5 -102l-88 -113q-68 34 -121.5 67.5t-88 60t-67 61.5t-51 59.5t-47.5 66.5l-295 422h-260v-561h-164zM385 715h346q287 0 287 241q0 242 -287 242h-346v-483z M547 -485l90 329h172l-133 -329h-129z" />
<glyph horiz-adv-x="1765" d="M217 1522l117 303h192l-176 -303h-133zM221 0v1352h164v-1352h-164zM702 446l152 31q-24 -176 32.5 -260t207.5 -84q167 0 234 90.5t67 280.5v848h164v-889q0 -227 -122 -355t-337 -128q-226 0 -332 125.5t-66 340.5zM1411 1522l117 303h192l-176 -303h-133z" />
<glyph horiz-adv-x="1341" d="M221 0v1352h512q207 0 332 -107t125 -289q0 -132 -72.5 -220t-210.5 -122v-4q116 -20 175.5 -90.5t64.5 -183.5q7 -115 17.5 -185t19.5 -94t26 -51v-6h-176q-37 86 -49 319q-6 121 -81.5 181.5t-231.5 60.5h-287v-561h-164zM385 715h346q287 0 287 241q0 242 -287 242 h-346v-483z" />
<glyph horiz-adv-x="1341" d="M221 0v1352h512q207 0 332 -107t125 -289q0 -132 -72.5 -220t-210.5 -122v-4q116 -20 175.5 -90.5t64.5 -183.5q7 -115 17.5 -185t19.5 -94t26 -51v-6h-176q-37 86 -49 319q-6 121 -81.5 181.5t-231.5 60.5h-287v-561h-164zM385 715h346q287 0 287 241q0 242 -287 242 h-346v-483zM573 1522l117 303h193l-176 -303h-134z" />
<glyph horiz-adv-x="1341" d="M221 0v1352h512q207 0 332 -107t125 -289q0 -132 -72.5 -220t-210.5 -122v-4q116 -20 175.5 -90.5t64.5 -183.5q7 -115 17.5 -185t19.5 -94t26 -51v-6h-176q-37 86 -49 319q-6 121 -81.5 181.5t-231.5 60.5h-287v-561h-164zM334 1853h149l176 -235l177 235h149l-233 -342 h-185zM385 715h346q287 0 287 241q0 242 -287 242h-346v-483z" />
<glyph horiz-adv-x="1341" d="M221 0v1352h512q207 0 332 -107t125 -289q0 -132 -72.5 -220t-210.5 -122v-4q116 -20 175.5 -90.5t64.5 -183.5q7 -115 17.5 -185t19.5 -94t26 -51v-6h-176q-37 86 -49 319q-6 121 -81.5 181.5t-231.5 60.5h-287v-561h-164zM385 715h346q287 0 287 241q0 242 -287 242 h-346v-483zM547 -485l90 329h172l-133 -329h-129z" />
<glyph horiz-adv-x="1482" d="M139 676q0 319 172.5 507.5t458.5 188.5q200 0 331.5 -75.5t209.5 -233.5l-150 -82q-44 116 -146 177t-245 61q-208 0 -333.5 -145.5t-125.5 -397.5q0 -257 121 -400t346 -143q88 0 160 23.5t118 61.5t77.5 89t45 103t13.5 106v12h-451v154h607v-125q0 -265 -151 -421 t-431 -156q-289 0 -458 187.5t-169 508.5z" />
<glyph horiz-adv-x="1482" d="M139 676q0 319 172.5 507.5t458.5 188.5q200 0 331.5 -75.5t209.5 -233.5l-150 -82q-44 116 -146 177t-245 61q-208 0 -333.5 -145.5t-125.5 -397.5q0 -257 121 -400t346 -143q88 0 160 23.5t118 61.5t77.5 89t45 103t13.5 106v12h-451v154h607v-125q0 -265 -151 -421 t-431 -156q-289 0 -458 187.5t-169 508.5zM461 1812h135q0 -73 48.5 -126.5t119.5 -53.5t119.5 53.5t48.5 126.5h135q0 -135 -84 -219t-219 -84t-219 84t-84 219z" />
<glyph horiz-adv-x="1482" d="M139 676q0 319 172.5 507.5t458.5 188.5q200 0 331.5 -75.5t209.5 -233.5l-150 -82q-44 116 -146 177t-245 61q-208 0 -333.5 -145.5t-125.5 -397.5q0 -257 121 -400t346 -143q88 0 160 23.5t118 61.5t77.5 89t45 103t13.5 106v12h-451v154h607v-125q0 -265 -151 -421 t-431 -156q-289 0 -458 187.5t-169 508.5zM629 -485l90 329h172l-133 -329h-129z" />
<glyph horiz-adv-x="1296" d="M221 588v764h164v-764h-164zM229 391h158q-23 -128 46.5 -193t207.5 -65q135 0 210 95t75 276v848h164v-889q0 -225 -121.5 -354t-327.5 -129q-220 0 -327.5 107.5t-84.5 303.5z" />
<glyph horiz-adv-x="1781" d="M-72 45l119 88q18 -125 72.5 -170t161.5 -45q103 0 158 55.5t120 221.5l399 1024h-282q-139 0 -219 -59.5t-80 -176.5q0 -92 62 -153.5t163 -79.5l-63 -132q-137 21 -231.5 121t-94.5 246q0 171 116 269t312 98h563l525 -1352h-175l-143 375h-612l-111 -289 q-58 -158 -155 -234.5t-250 -76.5q-160 0 -253 71.5t-102 198.5zM856 528h496l-183 480l-63 188h-4l-60 -182z" />
<glyph horiz-adv-x="1781" d="M-72 45l119 88q18 -125 72.5 -170t161.5 -45q103 0 158 55.5t120 221.5l399 1024h-282q-139 0 -219 -59.5t-80 -176.5q0 -92 62 -153.5t163 -79.5l-63 -132q-137 21 -231.5 121t-94.5 246q0 171 116 269t312 98h563l525 -1352h-175l-143 375h-612l-111 -289 q-58 -158 -155 -234.5t-250 -76.5q-160 0 -253 71.5t-102 198.5zM856 528h496l-183 480l-63 188h-4l-60 -182zM1020 1522l117 303h192l-176 -303h-133z" />
<glyph horiz-adv-x="1781" d="M-72 45l119 88q18 -125 72.5 -170t161.5 -45q103 0 158 55.5t120 221.5l399 1024h-282q-139 0 -219 -59.5t-80 -176.5q0 -92 62 -153.5t163 -79.5l-63 -132q-137 21 -231.5 121t-94.5 246q0 171 116 269t312 98h563l525 -1352h-175l-143 375h-612l-111 -289 q-58 -158 -155 -234.5t-250 -76.5q-160 0 -253 71.5t-102 198.5zM803 1812h135q0 -73 48.5 -126.5t119.5 -53.5t119.5 53.5t48.5 126.5h135q0 -135 -84 -219t-219 -84t-219 84t-84 219zM856 528h496l-183 480l-63 188h-4l-60 -182z" />
<glyph horiz-adv-x="1781" d="M-72 45l119 88q18 -125 72.5 -170t161.5 -45q103 0 158 55.5t120 221.5l399 1024h-282q-139 0 -219 -59.5t-80 -176.5q0 -92 62 -153.5t163 -79.5l-63 -132q-137 21 -231.5 121t-94.5 246q0 171 116 269t312 98h563l525 -1352h-175l-143 375h-612l-111 -289 q-58 -158 -155 -234.5t-250 -76.5q-160 0 -253 71.5t-102 198.5zM780 1507l234 342h184l234 -342h-150l-176 236l-176 -236h-150zM856 528h496l-183 480l-63 188h-4l-60 -182z" />
<glyph horiz-adv-x="1781" d="M-72 45l119 88q18 -125 72.5 -170t161.5 -45q103 0 158 55.5t120 221.5l399 1024h-282q-139 0 -219 -59.5t-80 -176.5q0 -92 62 -153.5t163 -79.5l-63 -132q-137 21 -231.5 121t-94.5 246q0 171 116 269t312 98h563l525 -1352h-175l-143 375h-612l-111 -289 q-58 -158 -155 -234.5t-250 -76.5q-160 0 -253 71.5t-102 198.5zM791 1636q0 53 32 85t84 32q53 0 85 -32.5t32 -84.5t-32 -84t-85 -32t-84.5 32t-31.5 84zM856 528h496l-183 480l-63 188h-4l-60 -182zM1188 1636q0 52 32 84.5t85 32.5q52 0 84 -32t32 -85q0 -52 -31.5 -84 t-84.5 -32t-85 32t-32 84z" />
<glyph horiz-adv-x="1781" d="M-72 45l119 88q18 -125 72.5 -170t161.5 -45q103 0 158 55.5t120 221.5l399 1024h-282q-139 0 -219 -59.5t-80 -176.5q0 -92 62 -153.5t163 -79.5l-63 -132q-137 21 -231.5 121t-94.5 246q0 171 116 269t312 98h563l525 -1352h-175l-143 375h-612l-111 -289 q-58 -158 -155 -234.5t-250 -76.5q-160 0 -253 71.5t-102 198.5zM856 528h496l-183 480l-63 188h-4l-60 -182zM864 1825h193l117 -303h-134z" />
<glyph horiz-adv-x="1781" d="M-72 45l119 88q18 -125 72.5 -170t161.5 -45q103 0 158 55.5t120 221.5l399 1024h-282q-139 0 -219 -59.5t-80 -176.5q0 -92 62 -153.5t163 -79.5l-63 -132q-137 21 -231.5 121t-94.5 246q0 171 116 269t312 98h563l525 -1352h-175l-143 375h-612l-111 -289 q-58 -158 -155 -234.5t-250 -76.5q-160 0 -253 71.5t-102 198.5zM750 1548v138h712v-138h-712zM856 528h496l-183 480l-63 188h-4l-60 -182z" />
<glyph horiz-adv-x="1781" d="M-72 45l119 88q18 -125 72.5 -170t161.5 -45q103 0 158 55.5t120 221.5l399 1024h-282q-139 0 -219 -59.5t-80 -176.5q0 -92 62 -153.5t163 -79.5l-63 -132q-137 21 -231.5 121t-94.5 246q0 171 116 269t312 98h563l525 -1352q-145 -48 -199.5 -100t-54.5 -117 q0 -51 35 -79t96 -28q75 0 114 27l33 -104q-56 -39 -168 -39t-178 56.5t-66 156.5q0 169 201 256l-131 346h-612l-111 -289q-58 -158 -155 -234.5t-250 -76.5q-160 0 -253 71.5t-102 198.5zM856 528h496l-183 480l-63 188h-4l-60 -182z" />
<glyph horiz-adv-x="1781" d="M-72 45l119 88q18 -125 72.5 -170t161.5 -45q103 0 158 55.5t120 221.5l399 1024h-282q-139 0 -219 -59.5t-80 -176.5q0 -92 62 -153.5t163 -79.5l-63 -132q-137 21 -231.5 121t-94.5 246q0 171 116 269t312 98h563l525 -1352h-175l-143 375h-612l-111 -289 q-58 -158 -155 -234.5t-250 -76.5q-160 0 -253 71.5t-102 198.5zM733 1520q21 274 232 274q42 0 78 -14.5t61.5 -35t48 -40.5t45.5 -34.5t45 -14.5q44 0 68 35.5t35 105.5h129q-21 -274 -230 -274q-43 0 -79.5 14.5t-61.5 35t-47.5 40.5t-46 34.5t-47.5 14.5 q-44 0 -67 -35.5t-34 -105.5h-129zM856 528h496l-183 480l-63 188h-4l-60 -182z" />
<glyph horiz-adv-x="1755" d="M20 985q0 171 116.5 269t312.5 98h1169v-154h-784v-436h610v-154h-610v-454h815v-154h-979v1219h-187q-139 0 -219 -59.5t-80 -176.5q0 -91 62.5 -153t163.5 -80l-64 -132q-137 21 -231.5 121t-94.5 246z" />
<glyph horiz-adv-x="1755" d="M20 985q0 171 116.5 269t312.5 98h1169v-154h-784v-436h610v-154h-610v-454h815v-154h-979v1219h-187q-139 0 -219 -59.5t-80 -176.5q0 -91 62.5 -153t163.5 -80l-64 -132q-137 21 -231.5 121t-94.5 246zM1057 1522l117 303h192l-176 -303h-133z" />
<glyph horiz-adv-x="1755" d="M20 985q0 171 116.5 269t312.5 98h1169v-154h-784v-436h610v-154h-610v-454h815v-154h-979v1219h-187q-139 0 -219 -59.5t-80 -176.5q0 -91 62.5 -153t163.5 -80l-64 -132q-137 21 -231.5 121t-94.5 246zM817 1853h150l176 -235l176 235h149l-233 -342h-184z" />
<glyph horiz-adv-x="1755" d="M20 985q0 171 116.5 269t312.5 98h1169v-154h-784v-436h610v-154h-610v-454h815v-154h-979v1219h-187q-139 0 -219 -59.5t-80 -176.5q0 -91 62.5 -153t163.5 -80l-64 -132q-137 21 -231.5 121t-94.5 246zM817 1507l234 342h184l233 -342h-149l-176 236l-176 -236h-150z " />
<glyph horiz-adv-x="1755" d="M20 985q0 171 116.5 269t312.5 98h1169v-154h-784v-436h610v-154h-610v-454h815v-154h-979v1219h-187q-139 0 -219 -59.5t-80 -176.5q0 -91 62.5 -153t163.5 -80l-64 -132q-137 21 -231.5 121t-94.5 246zM827 1636q0 52 32.5 84.5t84.5 32.5t84.5 -32.5t32.5 -84.5 t-32 -84t-85 -32t-85 32t-32 84zM1225 1636q0 53 32 85t84 32q53 0 85 -32.5t32 -84.5t-32 -84t-85 -32t-84.5 32t-31.5 84z" />
<glyph horiz-adv-x="1755" d="M20 985q0 171 116.5 269t312.5 98h1169v-154h-784v-436h610v-154h-610v-454h815v-154h-979v1219h-187q-139 0 -219 -59.5t-80 -176.5q0 -91 62.5 -153t163.5 -80l-64 -132q-137 21 -231.5 121t-94.5 246zM1020 1671q0 55 34 89t89 34t89 -34t34 -89t-34 -89t-89 -34 t-89 34t-34 89z" />
<glyph horiz-adv-x="1755" d="M20 985q0 171 116.5 269t312.5 98h1169v-154h-784v-436h610v-154h-610v-454h815v-154h-979v1219h-187q-139 0 -219 -59.5t-80 -176.5q0 -91 62.5 -153t163.5 -80l-64 -132q-137 21 -231.5 121t-94.5 246zM901 1825h193l116 -303h-133z" />
<glyph horiz-adv-x="1755" d="M20 985q0 171 116.5 269t312.5 98h1169v-154h-784v-436h610v-154h-610v-454h815v-154h-979v1219h-187q-139 0 -219 -59.5t-80 -176.5q0 -91 62.5 -153t163.5 -80l-64 -132q-137 21 -231.5 121t-94.5 246zM786 1548v138h713v-138h-713z" />
<glyph horiz-adv-x="1697" d="M20 985q0 171 116.5 269t312.5 98h1167v-154h-782v-436h610v-154h-610v-608h-164v1219h-187q-139 0 -219 -59.5t-80 -176.5q0 -91 62.5 -153t163.5 -80l-64 -132q-137 21 -231.5 121t-94.5 246z" />
<glyph horiz-adv-x="1304" d="M221 0v1352h164v-1198h436q145 0 222 48.5t77 166.5q0 105 -61 158t-164 55l63 131q139 -5 232.5 -95.5t93.5 -250.5q0 -183 -113.5 -275t-314.5 -92h-635z" />
<glyph horiz-adv-x="1304" d="M217 1522l117 303h192l-176 -303h-133zM221 0v1352h164v-1198h436q145 0 222 48.5t77 166.5q0 105 -61 158t-164 55l63 131q139 -5 232.5 -95.5t93.5 -250.5q0 -183 -113.5 -275t-314.5 -92h-635z" />
<glyph horiz-adv-x="1304" d="M-23 1853h150l176 -235l176 235h150l-234 -342h-184zM221 0v1352h164v-1198h436q145 0 222 48.5t77 166.5q0 105 -61 158t-164 55l63 131q139 -5 232.5 -95.5t93.5 -250.5q0 -183 -113.5 -275t-314.5 -92h-635z" />
<glyph horiz-adv-x="1304" d="M221 0v1352h164v-1198h436q145 0 222 48.5t77 166.5q0 105 -61 158t-164 55l63 131q139 -5 232.5 -95.5t93.5 -250.5q0 -183 -113.5 -275t-314.5 -92h-635zM571 -485l91 329h172l-134 -329h-129z" />
<glyph horiz-adv-x="1366" d="M68 401v170l215 121v660h163v-570l363 203v-170l-363 -203v-458h437q145 0 222 48.5t77 166.5q0 105 -61.5 158t-164.5 55l64 131q139 -5 232.5 -95.5t93.5 -250.5q0 -183 -113.5 -275t-314.5 -92h-635v522z" />
<glyph horiz-adv-x="2197" d="M20 985q0 171 116.5 269t312.5 98h473l297 -822l102 -337h4l105 335l294 824h252v-1352h-155v850l18 356h-2l-444 -1206h-140l-444 1206h-2l18 -356v-715q0 -71 -25.5 -135.5t-73.5 -115t-124 -80t-170 -29.5q-159 0 -246.5 71t-107.5 197l121 88q19 -115 72 -165 t161 -50q111 0 174.5 74t63.5 194v1035h-187q-139 0 -219 -59.5t-80 -176.5q0 -91 62.5 -153t163.5 -80l-64 -132q-137 21 -231.5 121t-94.5 246z" />
<glyph horiz-adv-x="1873" d="M221 0v1352h203l563 -901l146 -271h2l-9 217v748q0 71 26 135.5t74 115t124 80t170 29.5q159 0 246.5 -71t107.5 -197l-121 -88q-19 115 -72 165t-161 50q-111 0 -174.5 -74t-63.5 -194v-1096h-203l-565 905l-143 266h-2l8 -217v-954h-156z" />
<glyph horiz-adv-x="1873" d="M221 0v1352h203l563 -901l146 -271h2l-9 217v748q0 71 26 135.5t74 115t124 80t170 29.5q159 0 246.5 -71t107.5 -197l-121 -88q-19 115 -72 165t-161 50q-111 0 -174.5 -74t-63.5 -194v-1096h-203l-565 905l-143 266h-2l8 -217v-954h-156zM674 1522l117 303h192 l-176 -303h-133z" />
<glyph horiz-adv-x="1873" d="M221 0v1352h203l563 -901l146 -271h2l-9 217v748q0 71 26 135.5t74 115t124 80t170 29.5q159 0 246.5 -71t107.5 -197l-121 -88q-19 115 -72 165t-161 50q-111 0 -174.5 -74t-63.5 -194v-1096h-203l-565 905l-143 266h-2l8 -217v-954h-156zM434 1853h150l176 -235 l176 235h149l-233 -342h-184z" />
<glyph horiz-adv-x="1873" d="M221 0v1352h203l563 -901l146 -271h2l-9 217v748q0 71 26 135.5t74 115t124 80t170 29.5q159 0 246.5 -71t107.5 -197l-121 -88q-19 115 -72 165t-161 50q-111 0 -174.5 -74t-63.5 -194v-1096h-203l-565 905l-143 266h-2l8 -217v-954h-156zM612 -485l90 329h172 l-133 -329h-129z" />
<glyph horiz-adv-x="1873" d="M221 0v1352h203l563 -901l146 -271h2l-9 217v748q0 71 26 135.5t74 115t124 80t170 29.5q159 0 246.5 -71t107.5 -197l-121 -88q-19 115 -72 165t-161 50q-111 0 -174.5 -74t-63.5 -194v-1096h-203l-565 905l-143 266h-2l8 -217v-954h-156zM387 1520q21 274 231 274 q42 0 78.5 -14.5t62 -35t47.5 -40.5t45.5 -34.5t45.5 -14.5q44 0 67.5 35.5t34.5 105.5h129q-21 -274 -229 -274q-43 0 -79.5 14.5t-62 35t-47.5 40.5t-46 34.5t-48 14.5q-43 0 -66 -35t-34 -106h-129z" />
<glyph horiz-adv-x="1810" d="M20 985q0 171 116.5 269t312.5 98h733q207 0 331.5 -107t124.5 -289q0 -143 -79.5 -241t-219.5 -135l381 -580h-194l-369 561h-323v-426q0 -71 -26 -135.5t-75.5 -115t-127 -80t-173.5 -29.5q-159 0 -246.5 71t-107.5 197l121 88q19 -115 72 -165t161 -50q111 0 174.5 74 t63.5 194v1035h-187q-139 0 -219 -59.5t-80 -176.5q0 -91 62.5 -153t163.5 -80l-64 -132q-137 21 -231.5 121t-94.5 246zM834 715h346q286 0 286 241q0 242 -286 242h-346v-483z" />
<glyph horiz-adv-x="1810" d="M20 985q0 171 116.5 269t312.5 98h733q207 0 331.5 -107t124.5 -289q0 -143 -79.5 -241t-219.5 -135l381 -580h-194l-369 561h-323v-426q0 -71 -26 -135.5t-75.5 -115t-127 -80t-173.5 -29.5q-159 0 -246.5 71t-107.5 197l121 88q19 -115 72 -165t161 -50q111 0 174.5 74 t63.5 194v1035h-187q-139 0 -219 -59.5t-80 -176.5q0 -91 62.5 -153t163.5 -80l-64 -132q-137 21 -231.5 121t-94.5 246zM834 715h346q286 0 286 241q0 242 -286 242h-346v-483zM1022 1522l117 303h192l-176 -303h-133z" />
<glyph horiz-adv-x="1810" d="M20 985q0 171 116.5 269t312.5 98h733q207 0 331.5 -107t124.5 -289q0 -143 -79.5 -241t-219.5 -135l381 -580h-194l-369 561h-323v-426q0 -71 -26 -135.5t-75.5 -115t-127 -80t-173.5 -29.5q-159 0 -246.5 71t-107.5 197l121 88q19 -115 72 -165t161 -50q111 0 174.5 74 t63.5 194v1035h-187q-139 0 -219 -59.5t-80 -176.5q0 -91 62.5 -153t163.5 -80l-64 -132q-137 21 -231.5 121t-94.5 246zM782 1853h150l176 -235l176 235h150l-234 -342h-184zM834 715h346q286 0 286 241q0 242 -286 242h-346v-483z" />
<glyph horiz-adv-x="1810" d="M20 985q0 171 116.5 269t312.5 98h733q207 0 331.5 -107t124.5 -289q0 -143 -79.5 -241t-219.5 -135l381 -580h-194l-369 561h-323v-426q0 -71 -26 -135.5t-75.5 -115t-127 -80t-173.5 -29.5q-159 0 -246.5 71t-107.5 197l121 88q19 -115 72 -165t161 -50q111 0 174.5 74 t63.5 194v1035h-187q-139 0 -219 -59.5t-80 -176.5q0 -91 62.5 -153t163.5 -80l-64 -132q-137 21 -231.5 121t-94.5 246zM834 715h346q286 0 286 241q0 242 -286 242h-346v-483zM995 -485l90 329h172l-133 -329h-129z" />
<glyph horiz-adv-x="1312" d="M135 154q0 36 6 79l154 46q-6 -44 -6 -80q0 -138 94.5 -204.5t290.5 -66.5q173 0 263.5 73.5t90.5 211.5q0 100 -82 163.5t-295 117.5q-266 68 -377.5 167.5t-111.5 260.5q0 206 139.5 328t374.5 122q221 0 347 -98t148 -287l-161 -63q-6 158 -83.5 226.5t-248.5 68.5 q-164 0 -254 -73.5t-90 -205.5q0 -109 85.5 -176t303.5 -125q265 -70 370 -163t105 -255q0 -201 -145.5 -323.5t-384.5 -122.5q-257 0 -395 98t-138 281z" />
<glyph horiz-adv-x="1312" d="M135 154q0 36 6 79l154 46q-6 -44 -6 -80q0 -138 94.5 -204.5t290.5 -66.5q173 0 263.5 73.5t90.5 211.5q0 100 -82 163.5t-295 117.5q-266 68 -377.5 167.5t-111.5 260.5q0 206 139.5 328t374.5 122q221 0 347 -98t148 -287l-161 -63q-6 158 -83.5 226.5t-248.5 68.5 q-164 0 -254 -73.5t-90 -205.5q0 -109 85.5 -176t303.5 -125q265 -70 370 -163t105 -255q0 -201 -145.5 -323.5t-384.5 -122.5q-257 0 -395 98t-138 281zM582 1522l116 303h193l-176 -303h-133z" />
<glyph horiz-adv-x="1312" d="M135 154q0 36 6 79l154 46q-6 -44 -6 -80q0 -138 94.5 -204.5t290.5 -66.5q173 0 263.5 73.5t90.5 211.5q0 100 -82 163.5t-295 117.5q-266 68 -377.5 167.5t-111.5 260.5q0 206 139.5 328t374.5 122q221 0 347 -98t148 -287l-161 -63q-6 158 -83.5 226.5t-248.5 68.5 q-164 0 -254 -73.5t-90 -205.5q0 -109 85.5 -176t303.5 -125q265 -70 370 -163t105 -255q0 -201 -145.5 -323.5t-384.5 -122.5q-257 0 -395 98t-138 281zM342 1853h150l176 -235l176 235h149l-233 -342h-185z" />
<glyph horiz-adv-x="1312" d="M135 154q0 36 6 79l154 46q-6 -44 -6 -80q0 -138 94.5 -204.5t290.5 -66.5q173 0 263.5 73.5t90.5 211.5q0 100 -82 163.5t-295 117.5q-266 68 -377.5 167.5t-111.5 260.5q0 206 139.5 328t374.5 122q221 0 347 -98t148 -287l-161 -63q-6 158 -83.5 226.5t-248.5 68.5 q-164 0 -254 -73.5t-90 -205.5q0 -109 85.5 -176t303.5 -125q265 -70 370 -163t105 -255q0 -184 -122 -303t-328 -139q53 -42 80.5 -96t27.5 -109q0 -91 -64.5 -155t-173.5 -64q-145 0 -225 72l62 112q58 -61 141 -61q50 0 83.5 33t33.5 86q0 59 -33.5 99t-124.5 85 q-203 20 -311.5 116t-108.5 257z" />
<glyph horiz-adv-x="1312" d="M135 154q0 36 6 79l154 46q-6 -44 -6 -80q0 -138 94.5 -204.5t290.5 -66.5q173 0 263.5 73.5t90.5 211.5q0 100 -82 163.5t-295 117.5q-266 68 -377.5 167.5t-111.5 260.5q0 206 139.5 328t374.5 122q221 0 347 -98t148 -287l-161 -63q-6 158 -83.5 226.5t-248.5 68.5 q-164 0 -254 -73.5t-90 -205.5q0 -109 85.5 -176t303.5 -125q265 -70 370 -163t105 -255q0 -201 -145.5 -323.5t-384.5 -122.5q-257 0 -395 98t-138 281zM487 -690l91 330h172l-134 -330h-129z" />
<glyph horiz-adv-x="1452" d="M20 985q0 171 116.5 269t312.5 98h937v-154h-471v-1198h-163v1198h-269q-299 0 -299 -215q0 -91 62.5 -153t163.5 -80l-64 -132q-137 21 -231.5 121t-94.5 246z" />
<glyph horiz-adv-x="1452" d="M20 985q0 171 116.5 269t312.5 98h937v-154h-471v-1198h-163v1198h-269q-299 0 -299 -215q0 -91 62.5 -153t163.5 -80l-64 -132q-137 21 -231.5 121t-94.5 246zM508 1853h149l177 -235l176 235h149l-233 -342h-185z" />
<glyph horiz-adv-x="1452" d="M20 985q0 171 116.5 269t312.5 98h937v-154h-471v-1180q146 -102 146 -241q0 -88 -66.5 -152.5t-173.5 -64.5q-146 0 -225 71l61 113q58 -61 142 -61q50 0 83 32.5t33 85.5q0 56 -34.5 96t-128.5 103v1198h-269q-299 0 -299 -215q0 -91 62.5 -153t163.5 -80l-64 -132 q-137 21 -231.5 121t-94.5 246z" />
<glyph horiz-adv-x="1452" d="M20 985q0 171 116.5 269t312.5 98h937v-154h-471v-1198h-163v1198h-269q-299 0 -299 -215q0 -91 62.5 -153t163.5 -80l-64 -132q-137 21 -231.5 121t-94.5 246zM666 -485l90 329h172l-133 -329h-129z" />
<glyph horiz-adv-x="2490" d="M20 985q0 171 116.5 269t312.5 98h323l326 -1223l319 1223h187l319 -1227l328 1227h166l-398 -1352h-202l-240 877l-70 305h-2l-69 -305l-238 -877h-203l-360 1219h-152q-139 0 -219 -59.5t-80 -176.5q0 -91 62.5 -153t163.5 -80l-64 -132q-137 21 -231.5 121t-94.5 246z " />
<glyph horiz-adv-x="1351" d="M53 0l527 1352h194l524 -1352h-174l-143 375h-612l-144 -375h-172zM244 1245q0 50 30.5 80.5t79.5 30.5q51 0 82 -30.5t31 -80.5q0 -51 -31 -81.5t-82 -30.5q-50 0 -80 30.5t-30 81.5zM428 528h494l-183 480l-63 188h-4l-60 -182zM887 1245q0 50 30.5 80.5t81.5 30.5 q49 0 80 -31t31 -80q0 -51 -30.5 -81.5t-80.5 -30.5q-51 0 -81.5 30.5t-30.5 81.5z" />
<glyph horiz-adv-x="1531" d="M139 676q0 321 169 508.5t458 187.5t458 -187.5t169 -508.5t-169 -508.5t-458 -187.5t-458 187.5t-169 508.5zM311 676q0 -254 122 -398.5t333 -144.5t333 144.5t122 398.5t-122 398.5t-333 144.5t-333 -144.5t-122 -398.5zM518 1036q0 50 31 80.5t80 30.5 q51 0 81.5 -30.5t30.5 -80.5q0 -51 -30.5 -81.5t-81.5 -30.5q-50 0 -80.5 30.5t-30.5 81.5zM791 1036q0 50 30.5 80.5t81.5 30.5q49 0 80 -30.5t31 -80.5q0 -51 -30.5 -81.5t-80.5 -30.5q-51 0 -81.5 30.5t-30.5 81.5z" />
<glyph horiz-adv-x="1474" d="M207 504v848h164v-807q0 -212 88.5 -312t277.5 -100t278 100t89 312v807h164v-848q0 -259 -136.5 -391.5t-394.5 -132.5q-257 0 -393.5 132.5t-136.5 391.5zM479 1245q0 49 30.5 80t80.5 31q51 0 81.5 -30.5t30.5 -80.5q0 -51 -30.5 -81.5t-81.5 -30.5q-50 0 -80.5 30.5 t-30.5 81.5zM772 1245q0 50 31 80.5t82 30.5q49 0 79.5 -30.5t30.5 -80.5q0 -51 -30 -81.5t-80 -30.5q-51 0 -82 30.5t-31 81.5z" />
<glyph horiz-adv-x="544" d="M150 1343q0 56 33.5 89.5t88.5 33.5q56 0 89.5 -34t33.5 -89t-33.5 -88.5t-89.5 -33.5t-89 33.5t-33 88.5zM190 0v1024h164v-1024h-164z" />
<glyph horiz-adv-x="1415" d="M221 0v907q0 197 129 321t326 124h569v-156l-375 -438h48q189 0 302 -100t113 -279q0 -175 -117.5 -282t-302.5 -107q-123 0 -217.5 37.5t-132.5 93.5l70 121q39 -46 111 -74.5t153 -28.5q119 0 191.5 66.5t72.5 173.5q0 111 -81.5 175t-227.5 64h-158v140l357 440h-375 q-120 0 -205.5 -83.5t-85.5 -209.5v-905h-164z" />
<glyph horiz-adv-x="1089" d="M190 0v1024h164v-1024h-164zM193 1194l155 342h178l-200 -342h-133zM383 -373l35 156q71 -64 168 -64q149 0 149 193v1112h164v-1128q0 -91 -28.5 -159.5t-75.5 -105t-99 -54t-108 -17.5q-124 0 -205 67zM733 1194l156 342h178l-201 -342h-133z" />
<glyph horiz-adv-x="1290" d="M127 522q0 244 126 383t341 139q119 0 210.5 -47.5t139.5 -128.5l21 156h135v-942q0 -522 -520 -522q-165 0 -279 63.5t-141 188.5l155 67q19 -89 89.5 -132.5t199.5 -43.5q145 0 237.5 95t92.5 245v117q-53 -74 -140.5 -117t-199.5 -43q-215 0 -341 139t-126 383z M291 522q0 -174 85.5 -276.5t235.5 -102.5q147 0 234.5 99.5t87.5 267.5v25q0 168 -87.5 267t-234.5 99q-150 0 -235.5 -102.5t-85.5 -276.5z" />
<glyph horiz-adv-x="1290" d="M127 522q0 244 126 383t341 139q119 0 210.5 -47.5t139.5 -128.5l21 156h135v-942q0 -522 -520 -522q-165 0 -279 63.5t-141 188.5l155 67q19 -89 89.5 -132.5t199.5 -43.5q145 0 237.5 95t92.5 245v117q-53 -74 -140.5 -117t-199.5 -43q-215 0 -341 139t-126 383z M285 1485h135q0 -73 48.5 -126.5t119.5 -53.5t119.5 53.5t48.5 126.5h135q0 -135 -84 -219t-219 -84t-219 84t-84 219zM291 522q0 -174 85.5 -276.5t235.5 -102.5q147 0 234.5 99.5t87.5 267.5v25q0 168 -87.5 267t-234.5 99q-150 0 -235.5 -102.5t-85.5 -276.5z" />
<glyph horiz-adv-x="1290" d="M127 522q0 244 126 383t341 139q119 0 210.5 -47.5t139.5 -128.5l21 156h135v-942q0 -522 -520 -522q-165 0 -279 63.5t-141 188.5l155 67q19 -89 89.5 -132.5t199.5 -43.5q145 0 237.5 95t92.5 245v117q-53 -74 -140.5 -117t-199.5 -43q-215 0 -341 139t-126 383z M291 522q0 -174 85.5 -276.5t235.5 -102.5q147 0 234.5 99.5t87.5 267.5v25q0 168 -87.5 267t-234.5 99q-150 0 -235.5 -102.5t-85.5 -276.5zM553 1202l143 391h123l-86 -391h-180z" />
<glyph horiz-adv-x="552" d="M195 0v1495h163v-1495h-163z" />
<glyph horiz-adv-x="552" d="M195 0v1495h163v-1495h-163zM203 1638l76 267h180l-125 -267h-131z" />
<glyph horiz-adv-x="573" d="M195 0v1495h163v-1495h-163zM481 1092l41 403h156l-84 -403h-113z" />
<glyph horiz-adv-x="552" d="M106 -485l91 329h172l-133 -329h-130zM195 0v1495h163v-1495h-163z" />
<glyph horiz-adv-x="880" d="M195 0v1495h163v-1495h-163zM584 727q0 60 36.5 96.5t96.5 36.5t96.5 -36.5t36.5 -96.5t-36.5 -96.5t-96.5 -36.5t-96.5 36.5t-36.5 96.5z" />
<glyph horiz-adv-x="661" d="M86 494v170l166 106v725h164v-621l166 105v-170l-166 -104v-705h-164v600z" />
<glyph horiz-adv-x="1267" d="M190 0v1024h144l10 -160q52 92 142 136t202 44q174 0 286.5 -100t112.5 -289v-600q0 -57 27.5 -83.5t69.5 -26.5q52 0 94 18l-25 -121q-42 -26 -123 -26q-101 0 -153.5 66t-52.5 179v537q0 160 -68.5 231.5t-183.5 71.5q-59 0 -113.5 -19.5t-101.5 -59.5t-75 -111.5 t-28 -165.5v-545h-164z" />
<glyph horiz-adv-x="1267" d="M190 0v1024h144l10 -160q52 92 142 136t202 44q174 0 286.5 -100t112.5 -289v-600q0 -57 27.5 -83.5t69.5 -26.5q52 0 94 18l-25 -121q-42 -26 -123 -26q-101 0 -153.5 66t-52.5 179v537q0 160 -68.5 231.5t-183.5 71.5q-59 0 -113.5 -19.5t-101.5 -59.5t-75 -111.5 t-28 -165.5v-545h-164zM551 1194l156 342h178l-201 -342h-133z" />
<glyph horiz-adv-x="1267" d="M190 0v1024h144l10 -160q52 92 142 136t202 44q174 0 286.5 -100t112.5 -289v-600q0 -57 27.5 -83.5t69.5 -26.5q52 0 94 18l-25 -121q-42 -26 -123 -26q-101 0 -153.5 66t-52.5 179v537q0 160 -68.5 231.5t-183.5 71.5q-59 0 -113.5 -19.5t-101.5 -59.5t-75 -111.5 t-28 -165.5v-545h-164zM328 1536h149l174 -227l174 227h150l-230 -342h-188z" />
<glyph horiz-adv-x="1267" d="M190 0v1024h144l10 -160q52 92 142 136t202 44q174 0 286.5 -100t112.5 -289v-600q0 -57 27.5 -83.5t69.5 -26.5q52 0 94 18l-25 -121q-42 -26 -123 -26q-101 0 -153.5 66t-52.5 179v537q0 160 -68.5 231.5t-183.5 71.5q-59 0 -113.5 -19.5t-101.5 -59.5t-75 -111.5 t-28 -165.5v-545h-164zM500 -485l90 329h172l-133 -329h-129z" />
<glyph horiz-adv-x="1267" d="M190 0v1024h144l10 -160q52 92 142 136t202 44q174 0 286.5 -100t112.5 -289v-600q0 -57 27.5 -83.5t69.5 -26.5q52 0 94 18l-25 -121q-42 -26 -123 -26q-101 0 -153.5 66t-52.5 179v537q0 160 -68.5 231.5t-183.5 71.5q-59 0 -113.5 -19.5t-101.5 -59.5t-75 -111.5 t-28 -165.5v-545h-164zM279 1192q21 274 231 274q42 0 78 -14.5t61.5 -35t48 -40.5t45.5 -34.5t45 -14.5q44 0 68 35.5t35 105.5h129q-21 -274 -229 -274q-43 0 -79.5 14.5t-62 35t-47.5 40.5t-46 34.5t-48 14.5q-43 0 -66 -35t-34 -106h-129z" />
<glyph horiz-adv-x="1009" d="M190 0v1024h134l22 -168q41 92 115.5 140t171.5 48q59 0 107 -11.5t81.5 -29t62.5 -36t67 -36t79 -24.5l-88 -123q-50 11 -101 39t-99 48t-109 20q-115 0 -197 -88t-82 -250v-553h-164z" />
<glyph horiz-adv-x="1009" d="M190 0v1024h134l22 -168q41 92 115.5 140t171.5 48q59 0 107 -11.5t81.5 -29t62.5 -36t67 -36t79 -24.5l-88 -123q-50 11 -101 39t-99 48t-109 20q-115 0 -197 -88t-82 -250v-553h-164zM350 1194l156 342h178l-201 -342h-133z" />
<glyph horiz-adv-x="1009" d="M127 1536h149l175 -227l174 227h149l-229 -342h-189zM190 0v1024h134l22 -168q41 92 115.5 140t171.5 48q59 0 107 -11.5t81.5 -29t62.5 -36t67 -36t79 -24.5l-88 -123q-50 11 -101 39t-99 48t-109 20q-115 0 -197 -88t-82 -250v-553h-164z" />
<glyph horiz-adv-x="1009" d="M115 -485l90 329h172l-133 -329h-129zM190 0v1024h134l22 -168q41 92 115.5 140t171.5 48q59 0 107 -11.5t81.5 -29t62.5 -36t67 -36t79 -24.5l-88 -123q-50 11 -101 39t-99 48t-109 20q-115 0 -197 -88t-82 -250v-553h-164z" />
<glyph horiz-adv-x="899" d="M63 883v141h205v246l164 45v-291h283q128 0 199.5 22t117.5 76l72 -106q-61 -73 -147.5 -103t-245.5 -30h-279v-600q0 -73 42 -111.5t112 -38.5q98 0 174 76l57 -137q-102 -92 -264 -92q-124 0 -204 67t-81 207v629h-205z" />
<glyph horiz-adv-x="899" d="M63 883v141h205v246l164 45v-291h283q128 0 199.5 22t117.5 76l72 -106q-61 -73 -147.5 -103t-245.5 -30h-279v-600q0 -73 42 -111.5t112 -38.5q98 0 174 76l57 -137q-102 -92 -264 -92q-124 0 -204 67t-81 207v629h-205zM557 1167l41 404h156l-84 -404h-113z" />
<glyph horiz-adv-x="858" d="M63 883v141h205v246l164 45v-291h283q128 0 199.5 22t117.5 76l72 -106q-61 -73 -147.5 -103t-245.5 -30h-279v-600q0 -73 42 -111.5t112 -38.5q98 0 174 76l57 -137q-69 -62 -162 -82q57 -41 86 -97t29 -114q0 -91 -64.5 -155t-173.5 -64q-146 0 -225 71l62 113 q58 -61 141 -61q50 0 83.5 32.5t33.5 85.5q0 58 -32 98.5t-118 86.5q-94 18 -151 84.5t-58 183.5v629h-205z" />
<glyph horiz-adv-x="899" d="M63 883v141h205v246l164 45v-291h283q128 0 199.5 22t117.5 76l72 -106q-61 -73 -147.5 -103t-245.5 -30h-279v-600q0 -73 42 -111.5t112 -38.5q98 0 174 76l57 -137q-102 -92 -264 -92q-124 0 -204 67t-81 207v629h-205zM324 -485l90 329h172l-133 -329h-129z" />
<glyph horiz-adv-x="1120" d="M31 -354l57 139q58 -82 166 -82q60 0 105 35.5t81 130.5l54 133l-428 1022h186l256 -668l63 -182l74 203l225 581q50 130 115 189t162 59q109 0 160 -51l-33 -104q-38 28 -92 28q-57 0 -94 -31t-66 -106l-442 -1114q-59 -148 -133.5 -208t-190.5 -60q-77 0 -129.5 20 t-95.5 66z" />
<glyph horiz-adv-x="1120" d="M31 -354l57 139q58 -82 166 -82q60 0 105 35.5t81 130.5l54 133l-428 1022h186l256 -668l63 -182l74 203l225 581q50 130 115 189t162 59q109 0 160 -51l-33 -104q-38 28 -92 28q-57 0 -94 -31t-66 -106l-442 -1114q-59 -148 -133.5 -208t-190.5 -60q-77 0 -129.5 20 t-95.5 66zM459 1194l155 342h179l-201 -342h-133z" />
<glyph horiz-adv-x="1120" d="M31 -354l57 139q58 -82 166 -82q60 0 105 35.5t81 130.5l54 133l-428 1022h186l256 -668l63 -182l74 203l225 581q50 130 115 189t162 59q109 0 160 -51l-33 -104q-38 28 -92 28q-57 0 -94 -31t-66 -106l-442 -1114q-59 -148 -133.5 -208t-190.5 -60q-77 0 -129.5 20 t-95.5 66zM244 1309q0 53 32 84.5t84 31.5q53 0 85 -32t32 -84q0 -53 -32.5 -85t-84.5 -32t-84 32t-32 85zM641 1309q0 52 32 84t85 32q52 0 84 -31.5t32 -84.5t-32 -85t-84 -32t-84.5 32t-32.5 85z" />
<glyph horiz-adv-x="1857" d="M127 512q0 249 132 390.5t364 141.5q111 0 186 -38q-27 73 -27 155q0 88 26.5 154.5t72.5 105.5t103 57.5t124 18.5q141 0 232.5 -81t91.5 -242v-150h378v-141h-378v-600q0 -73 41.5 -111.5t111.5 -38.5q98 0 174 76l58 -137q-102 -92 -265 -92q-125 0 -204.5 67 t-79.5 207v856q0 126 -45 186t-125 60q-81 0 -124.5 -49t-43.5 -166q0 -167 112 -369l-155 -74q-33 98 -101.5 150.5t-167.5 52.5q-154 0 -240.5 -103t-86.5 -286t86.5 -286t240.5 -103q223 0 287 211l148 -51q-51 -144 -160.5 -223.5t-269.5 -79.5q-232 0 -364 141.5 t-132 390.5z" />
<glyph horiz-adv-x="1069" d="M182 0v1196q0 148 59 228.5t203 80.5q77 0 117 -32l-16 -148q-36 31 -74 31q-125 0 -125 -176v-1180h-164zM674 1343q0 55 34 89t89 34t89 -34t34 -89t-33.5 -88.5t-89.5 -33.5t-89.5 33.5t-33.5 88.5zM715 0v1024h164v-1024h-164z" />
<glyph horiz-adv-x="1159" d="M182 0v1196q0 309 277 309q113 0 157 -47l-32 -133q-42 31 -92 31q-146 0 -146 -176v-1180h-164zM715 254v1241h164v-1221q0 -78 23.5 -107.5t86.5 -29.5q76 0 150 29l-27 -158q-67 -28 -151 -28q-125 0 -185.5 67.5t-60.5 206.5z" />
<glyph horiz-adv-x="1591" d="M182 0v1196q0 309 277 309q113 0 157 -47l-32 -133q-42 31 -92 31q-146 0 -146 -176v-1180h-164zM610 211l133 92q35 -90 121.5 -135t202.5 -45q121 0 184.5 42.5t63.5 108.5q0 59 -59 95t-209 63q-219 40 -308.5 108t-89.5 197t111 218t293 89q165 0 263.5 -59.5 t141.5 -185.5l-139 -82q-33 98 -99 141t-167 43q-100 0 -170 -45t-70 -104q0 -67 61 -104.5t216 -63.5q213 -35 301 -104.5t88 -196.5q0 -135 -116.5 -219t-311.5 -84q-148 0 -266.5 58.5t-174.5 172.5z" />
<glyph horiz-adv-x="1357" d="M66 883v141h204v172q0 141 86 225t250 84q118 0 174 -47l-43 -133q-51 31 -116 31q-187 0 -187 -176v-156h342v-141h-342v-883h-164v883h-204zM999 0v1495h164v-1495h-164z" />
<glyph horiz-adv-x="1331" d="M123 573q0 272 154.5 431t412.5 159q185 0 304 -66t188 -206l-148 -82q-38 105 -126.5 159t-215.5 54q-183 0 -294 -120t-111 -329q0 -214 106 -331t301 -117q158 0 252 76t94 207v41h-368v135h524v-584h-129l-6 160q-108 -176 -381 -176q-255 0 -406 157.5t-151 431.5z M532 -485l91 329h172l-133 -329h-130z" />
<glyph horiz-adv-x="1210" d="M193 0v1147h163v-586l592 586h201l-461 -471l471 -676h-201l-393 571l-209 -202v-369h-163zM477 -485l90 329h172l-133 -329h-129z" />
<glyph horiz-adv-x="1204" d="M193 0v1147h163v-1006h684v-141h-847zM471 -485l90 329h172l-133 -329h-129z" />
<glyph horiz-adv-x="1353" d="M193 0v1147h219l499 -805l99 -172h2l-8 143v834h157v-1147h-219l-500 803l-98 174h-2l8 -143v-834h-157zM520 -485l90 329h172l-133 -329h-129z" />
<glyph horiz-adv-x="1230" d="M193 0v1147h477q190 0 301.5 -91t111.5 -249q0 -124 -69 -207.5t-193 -114.5l332 -485h-188l-320 467h-289v-467h-163zM356 606h310q254 0 254 199q0 201 -254 201h-310v-400zM471 -485l90 329h172l-133 -329h-129z" />
<glyph horiz-adv-x="1181" d="M88 225l123 113q99 -213 393 -213q140 0 223.5 46.5t83.5 131.5q0 57 -43 94.5t-111.5 56t-151.5 33t-166 35t-151.5 52t-111.5 94t-43 151.5q0 146 125.5 245t335.5 99q328 0 473 -237l-123 -111q-56 111 -135.5 159t-212.5 48q-136 0 -217.5 -53t-81.5 -133 q0 -47 26.5 -80.5t71.5 -53t103.5 -34t123 -26.5t129 -26t123 -37.5t103.5 -56.5t71.5 -86.5t26.5 -124.5q0 -129 -96.5 -213t-263.5 -108q57 -41 86.5 -97t29.5 -114q0 -91 -64 -155t-173 -64q-146 0 -225 71l61 113q58 -61 141 -61q50 0 83.5 32.5t33.5 85.5 q0 60 -34.5 101t-127.5 84q-309 26 -438 239z" />
<glyph horiz-adv-x="1181" d="M88 225l123 113q99 -213 393 -213q140 0 223.5 46.5t83.5 131.5q0 57 -43 94.5t-111.5 56t-151.5 33t-166 35t-151.5 52t-111.5 94t-43 151.5q0 146 125.5 245t335.5 99q328 0 473 -237l-123 -111q-56 111 -135.5 159t-212.5 48q-136 0 -217.5 -53t-81.5 -133 q0 -47 26.5 -80.5t71.5 -53t103.5 -34t123 -26.5t129 -26t123 -37.5t103.5 -56.5t71.5 -86.5t26.5 -124.5q0 -150 -129.5 -238.5t-341.5 -88.5q-189 0 -318.5 64.5t-197.5 176.5zM453 -485l90 329h172l-133 -329h-129z" />
<glyph horiz-adv-x="1128" d="M61 1006v141h1006v-141h-420v-988q146 -102 146 -241q0 -88 -66.5 -152.5t-173.5 -64.5q-146 0 -225 71l61 113q58 -61 141 -61q50 0 83.5 32.5t33.5 85.5q0 56 -34.5 95.5t-129.5 103.5v1006h-422z" />
<glyph horiz-adv-x="1128" d="M61 1006v141h1006v-141h-420v-1006h-164v1006h-422zM385 -485l90 329h172l-133 -329h-129z" />
<glyph horiz-adv-x="1218" d="M47 0l465 1147h195l464 -1147h-172l-125 313h-530l-125 -313h-172zM399 455h420l-157 395l-52 151h-2l-51 -151z" />
<glyph horiz-adv-x="1218" d="M47 0l465 1147h195l464 -1147h-172l-125 313h-530l-125 -313h-172zM399 455h420l-157 395l-52 151h-2l-51 -151zM522 1317l117 303h192l-176 -303h-133z" />
<glyph horiz-adv-x="1218" d="M47 0l465 1147h195l464 -1147h-172l-125 313h-530l-125 -313h-172zM305 1608h135q0 -73 48.5 -127t119.5 -54t119.5 54t48.5 127h135q0 -135 -84 -219t-219 -84t-219 84t-84 219zM399 455h420l-157 395l-52 151h-2l-51 -151z" />
<glyph horiz-adv-x="1218" d="M47 0l465 1147h195l464 -1147h-172l-125 313h-530l-125 -313h-172zM283 1303l233 342h184l234 -342h-150l-176 235l-176 -235h-149zM399 455h420l-157 395l-52 151h-2l-51 -151z" />
<glyph horiz-adv-x="1218" d="M47 0l465 1147h195l464 -1147h-172l-125 313h-530l-125 -313h-172zM293 1432q0 52 32 84t85 32q52 0 84 -32t32 -84q0 -53 -32 -85t-84 -32t-84.5 32.5t-32.5 84.5zM399 455h420l-157 395l-52 151h-2l-51 -151zM690 1432q0 52 32 84t85 32t85 -32t32 -84t-32 -84.5 t-85 -32.5t-85 32.5t-32 84.5z" />
<glyph horiz-adv-x="1218" d="M47 0l465 1147h195l464 -1147h-172l-125 313h-530l-125 -313h-172zM367 1620h192l117 -303h-133zM399 455h420l-157 395l-52 151h-2l-51 -151z" />
<glyph horiz-adv-x="1218" d="M47 0l465 1147h195l464 -1147h-172l-125 313h-530l-125 -313h-172zM252 1343v138h713v-138h-713zM399 455h420l-157 395l-52 151h-2l-51 -151z" />
<glyph horiz-adv-x="1218" d="M47 0l465 1147h195l464 -1147q-145 -48 -199 -100t-54 -117q0 -51 35 -79t96 -28q75 0 114 27l33 -104q-56 -39 -168 -39t-178 56.5t-66 156.5q0 169 203 258l-113 282h-530l-125 -313h-172zM399 455h420l-157 395l-52 151h-2l-51 -151z" />
<glyph horiz-adv-x="1218" d="M47 0l438 1081q-62 28 -97.5 85.5t-35.5 131.5q0 108 71.5 175t186.5 67t185.5 -67t70.5 -175q0 -76 -35 -133t-98 -86l438 -1079h-172l-125 313h-530l-125 -313h-172zM399 455h420l-157 395l-52 151h-2l-51 -151zM463 1298q0 -61 41 -101t104 -40t104.5 40t41.5 101 t-41.5 101.5t-104.5 40.5t-104 -40t-41 -102z" />
<glyph horiz-adv-x="1218" d="M47 0l465 1147h195l464 -1147h-172l-125 313h-530l-125 -313h-172zM236 1315q21 274 231 274q42 0 78 -14.5t61.5 -35t48 -40.5t45.5 -34.5t45 -14.5q44 0 68 35.5t35 105.5h129q-21 -274 -229 -274q-43 0 -79.5 14.5t-62 35t-47.5 40.5t-46 34.5t-48 14.5q-43 0 -66 -35 t-34 -106h-129zM399 455h420l-157 395l-52 151h-2l-51 -151z" />
<glyph horiz-adv-x="1665" d="M-20 0l638 1147h928v-141h-641v-355h492v-141h-492v-369h668v-141h-828v371h-397l-203 -371h-165zM426 512h319v496h-47z" />
<glyph horiz-adv-x="1214" d="M193 0v1147h460q208 0 309 -81t101 -232q0 -93 -55.5 -161t-151.5 -91v-2q114 -10 177 -86t63 -179q0 -148 -114.5 -231.5t-326.5 -83.5h-462zM356 139h324q124 0 188 47t64 138q0 184 -252 184h-324v-369zM356 647h310q233 0 233 180q0 181 -233 181h-310v-361z" />
<glyph horiz-adv-x="1257" d="M123 573q0 272 152.5 431t408.5 159q185 0 308.5 -79t170.5 -232l-155 -70q-31 124 -109 182t-219 58q-177 0 -285 -120t-108 -329q0 -208 107.5 -328t277.5 -120q159 0 245 58t109 179l158 -53q-40 -158 -175.5 -241.5t-330.5 -83.5q-251 0 -403 159t-152 430z" />
<glyph horiz-adv-x="1257" d="M123 573q0 272 152.5 431t408.5 159q185 0 308.5 -79t170.5 -232l-155 -70q-31 124 -109 182t-219 58q-177 0 -285 -120t-108 -329q0 -208 107.5 -328t277.5 -120q159 0 245 58t109 179l158 -53q-40 -158 -175.5 -241.5t-330.5 -83.5q-251 0 -403 159t-152 430zM596 1317 l117 303h192l-176 -303h-133z" />
<glyph horiz-adv-x="1257" d="M123 573q0 272 152.5 431t408.5 159q185 0 308.5 -79t170.5 -232l-155 -70q-31 124 -109 182t-219 58q-177 0 -285 -120t-108 -329q0 -208 107.5 -328t277.5 -120q159 0 245 58t109 179l158 -53q-40 -158 -175.5 -241.5t-330.5 -83.5q-251 0 -403 159t-152 430zM356 1649 h150l176 -236l176 236h150l-234 -342h-184z" />
<glyph horiz-adv-x="1257" d="M123 573q0 272 152.5 431t408.5 159q185 0 308.5 -79t170.5 -232l-155 -70q-31 124 -109 182t-219 58q-177 0 -285 -120t-108 -329q0 -208 107.5 -328t277.5 -120q159 0 245 58t109 179l158 -53q-34 -133 -137 -214t-254 -103q118 -87 118 -213q0 -91 -64 -155t-173 -64 q-146 0 -225 71l61 113q58 -61 141 -61q50 0 83.5 32.5t33.5 85.5q0 60 -34.5 101t-127.5 86q-222 23 -352.5 178.5t-130.5 406.5z" />
<glyph horiz-adv-x="1327" d="M193 0v1147h409q287 0 444.5 -149t157.5 -423q0 -277 -157.5 -426t-444.5 -149h-409zM356 141h258q204 0 315 113.5t111 320.5q0 206 -111 318.5t-315 112.5h-258v-865z" />
<glyph horiz-adv-x="1359" d="M49 518v119h182v510h410q287 0 444.5 -149t157.5 -423q0 -277 -157.5 -426t-444.5 -149h-410v518h-182zM395 141h258q204 0 315 113.5t111 320.5q0 206 -111 318.5t-315 112.5h-258v-369h334v-119h-334v-377z" />
<glyph horiz-adv-x="1327" d="M193 0v1147h409q287 0 444.5 -149t157.5 -423q0 -277 -157.5 -426t-444.5 -149h-409zM274 1649h150l176 -236l176 236h150l-234 -342h-184zM356 141h258q204 0 315 113.5t111 320.5q0 206 -111 318.5t-315 112.5h-258v-865z" />
<glyph horiz-adv-x="1359" d="M49 518v119h182v510h410q287 0 444.5 -149t157.5 -423q0 -277 -157.5 -426t-444.5 -149h-410v518h-182zM395 141h258q204 0 315 113.5t111 320.5q0 206 -111 318.5t-315 112.5h-258v-369h334v-119h-334v-377z" />
<glyph horiz-adv-x="1171" d="M193 0v1147h860v-141h-697v-355h545v-141h-545v-369h723v-141h-886z" />
<glyph horiz-adv-x="1171" d="M193 0v1147h860v-141h-697v-355h545v-141h-545v-369h723v-141h-886zM539 1317l116 303h193l-176 -303h-133z" />
<glyph horiz-adv-x="1171" d="M193 0v1147h860v-141h-697v-355h545v-141h-545v-369h723v-141h-886zM285 1649h149l176 -236l176 236h150l-234 -342h-184z" />
<glyph horiz-adv-x="1171" d="M193 0v1147h860v-141h-697v-355h545v-141h-545v-369h723v-141h-886zM285 1303l233 342h184l234 -342h-150l-176 235l-176 -235h-149z" />
<glyph horiz-adv-x="1171" d="M193 0v1147h860v-141h-697v-355h545v-141h-545v-369h723v-141h-886zM295 1432q0 52 32 84t85 32q52 0 84 -32t32 -84q0 -53 -32 -85t-84 -32t-84.5 32.5t-32.5 84.5zM692 1432q0 52 32 84t85 32t85 -32t32 -84t-32 -84.5t-85 -32.5t-85 32.5t-32 84.5z" />
<glyph horiz-adv-x="1171" d="M193 0v1147h860v-141h-697v-355h545v-141h-545v-369h723v-141h-886zM487 1466q0 56 33.5 89.5t89.5 33.5t89.5 -33.5t33.5 -89.5t-33.5 -89.5t-89.5 -33.5t-89.5 33.5t-33.5 89.5z" />
<glyph horiz-adv-x="1171" d="M193 0v1147h860v-141h-697v-355h545v-141h-545v-369h723v-141h-886zM389 1620h193l116 -303h-133z" />
<glyph horiz-adv-x="1171" d="M193 0v1147h860v-141h-697v-355h545v-141h-545v-369h723v-141h-886zM254 1343v138h713v-138h-713z" />
<glyph horiz-adv-x="1171" d="M193 0v1147h860v-141h-697v-355h545v-141h-545v-369h723v-141q-145 -49 -199.5 -100.5t-54.5 -116.5q0 -51 35 -79t96 -28q76 0 115 27l33 -104q-56 -39 -168 -39q-111 0 -177.5 54t-66.5 146q0 86 44 143.5t134 96.5h-677z" />
<glyph horiz-adv-x="1124" d="M193 0v1147h860v-141h-697v-355h545v-141h-545v-510h-163z" />
<glyph horiz-adv-x="1331" d="M123 573q0 272 154.5 431t412.5 159q185 0 304 -66t188 -206l-148 -82q-38 105 -126.5 159t-215.5 54q-183 0 -294 -120t-111 -329q0 -214 106 -331t301 -117q158 0 252 76t94 207v41h-368v135h524v-584h-129l-6 160q-108 -176 -381 -176q-255 0 -406 157.5t-151 431.5z " />
<glyph horiz-adv-x="1331" d="M123 573q0 272 154.5 431t412.5 159q185 0 304 -66t188 -206l-148 -82q-38 105 -126.5 159t-215.5 54q-183 0 -294 -120t-111 -329q0 -214 106 -331t301 -117q158 0 252 76t94 207v41h-368v135h524v-584h-129l-6 160q-108 -176 -381 -176q-255 0 -406 157.5t-151 431.5z M389 1608h135q0 -73 48.5 -127t119.5 -54t119.5 54t48.5 127h135q0 -135 -84 -219t-219 -84t-219 84t-84 219z" />
<glyph horiz-adv-x="1353" d="M193 0v1147h163v-496h641v496h164v-1147h-164v510h-641v-510h-163z" />
<glyph horiz-adv-x="548" d="M193 0v1147h163v-1147h-163z" />
<glyph horiz-adv-x="548" d="M193 0v1147h163v-1147h-163zM197 1317l116 303h193l-176 -303h-133z" />
<glyph horiz-adv-x="548" d="M-51 1303l233 342h185l233 -342h-149l-177 235l-176 -235h-149zM193 0v1147h163v-1147h-163z" />
<glyph horiz-adv-x="548" d="M-8 1432q0 52 32 84t85 32t84.5 -32t31.5 -84q0 -53 -32 -85t-84 -32q-53 0 -85 32.5t-32 84.5zM193 0v1147h163v-1147h-163zM324 1432q0 52 32 84t84 32q53 0 85 -32t32 -84t-32.5 -84.5t-84.5 -32.5t-84 32t-32 85z" />
<glyph horiz-adv-x="548" d="M152 1374q0 56 33.5 89.5t88.5 33.5q56 0 89.5 -33.5t33.5 -89.5t-33.5 -89.5t-89.5 -33.5q-55 0 -88.5 33.5t-33.5 89.5zM193 0v1147h163v-1147h-163z" />
<glyph horiz-adv-x="548" d="M33 1620h192l117 -303h-133zM193 0v1147h163v-1147h-163z" />
<glyph horiz-adv-x="1605" d="M193 0v1147h163v-1147h-163zM637 393l156 31q-22 -154 28.5 -226.5t182.5 -72.5q143 0 201.5 74.5t58.5 230.5v717h163v-746q0 -197 -111 -307t-310 -110q-210 0 -307.5 110.5t-61.5 298.5z" />
<glyph horiz-adv-x="548" d="M53 1343v138h443v-138h-443zM193 0v1147h163v-1147h-163z" />
<glyph horiz-adv-x="548" d="M6 -240q0 77 47 143t140 111v1133h163v-1147q-123 -57 -171 -108.5t-48 -102.5q0 -111 121 -111q77 0 121 31l39 -104q-65 -45 -174 -45t-173.5 54t-64.5 146z" />
<glyph horiz-adv-x="1056" d="M88 393l156 31q-22 -154 28.5 -226.5t182.5 -72.5q143 0 201.5 74.5t58.5 230.5v717h164v-746q0 -197 -111.5 -307t-310.5 -110q-210 0 -307.5 110.5t-61.5 298.5z" />
<glyph horiz-adv-x="1210" d="M193 0v1147h163v-586l592 586h201l-461 -471l471 -676h-201l-393 571l-209 -202v-369h-163z" />
<glyph horiz-adv-x="1204" d="M193 0v1147h163v-1006h684v-141h-847z" />
<glyph horiz-adv-x="1204" d="M193 0v1147h163v-1006h684v-141h-847zM205 1317l117 303h192l-176 -303h-133z" />
<glyph horiz-adv-x="1204" d="M193 0v1147h163v-1006h684v-141h-847zM541 743l41 404h155l-84 -404h-112z" />
<glyph horiz-adv-x="1206" d="M193 0v1147h163v-1006h684v-141h-847zM842 604q0 60 36.5 96.5t96.5 36.5t96.5 -36.5t36.5 -96.5t-36.5 -96.5t-96.5 -36.5t-96.5 36.5t-36.5 96.5z" />
<glyph horiz-adv-x="1116" d="M14 332v149l201 105v561h164v-475l319 166v-150l-319 -166v-381h684v-141h-848v436z" />
<glyph horiz-adv-x="1585" d="M193 0v1147h245l279 -748l74 -223h6l73 223l279 748h244v-1147h-158v666l14 327h-4l-377 -993h-151l-377 993h-4l12 -327v-666h-155z" />
<glyph horiz-adv-x="1353" d="M193 0v1147h219l499 -805l99 -172h2l-8 143v834h157v-1147h-219l-500 803l-98 174h-2l8 -143v-834h-157z" />
<glyph horiz-adv-x="1353" d="M193 0v1147h219l499 -805l99 -172h2l-8 143v834h157v-1147h-219l-500 803l-98 174h-2l8 -143v-834h-157zM598 1317l117 303h192l-176 -303h-133z" />
<glyph horiz-adv-x="1353" d="M193 0v1147h219l499 -805l99 -172h2l-8 143v834h157v-1147h-219l-500 803l-98 174h-2l8 -143v-834h-157zM358 1649h150l176 -236l176 236h150l-234 -342h-184z" />
<glyph horiz-adv-x="1353" d="M193 0v1147h219l499 -805l99 -172h2l-8 143v834h157v-1147h-219l-500 803l-98 174h-2l8 -143v-834h-157zM311 1315q21 274 232 274q42 0 78 -14.5t61.5 -35t48 -40.5t45.5 -34.5t45 -14.5q44 0 68 35.5t35 105.5h129q-21 -274 -230 -274q-43 0 -79.5 14.5t-61.5 35 t-47.5 40.5t-46 34.5t-47.5 14.5q-44 0 -67 -35.5t-34 -105.5h-129z" />
<glyph horiz-adv-x="1376" d="M123 573q0 273 152 431.5t413 158.5t413 -158.5t152 -431.5t-152 -431t-413 -158t-413 158t-152 431zM287 573q0 -211 107.5 -329.5t293.5 -118.5t294 118.5t108 329.5t-108 330t-294 119t-293.5 -119t-107.5 -330z" />
<glyph horiz-adv-x="1376" d="M123 573q0 273 152 431.5t413 158.5t413 -158.5t152 -431.5t-152 -431t-413 -158t-413 158t-152 431zM287 573q0 -211 107.5 -329.5t293.5 -118.5t294 118.5t108 329.5t-108 330t-294 119t-293.5 -119t-107.5 -330zM602 1317l117 303h192l-176 -303h-133z" />
<glyph horiz-adv-x="1376" d="M123 573q0 273 152 431.5t413 158.5t413 -158.5t152 -431.5t-152 -431t-413 -158t-413 158t-152 431zM287 573q0 -211 107.5 -329.5t293.5 -118.5t294 118.5t108 329.5t-108 330t-294 119t-293.5 -119t-107.5 -330zM362 1303l234 342h184l234 -342h-150l-176 235 l-176 -235h-150z" />
<glyph horiz-adv-x="1376" d="M123 573q0 273 152 431.5t413 158.5t413 -158.5t152 -431.5t-152 -431t-413 -158t-413 158t-152 431zM287 573q0 -211 107.5 -329.5t293.5 -118.5t294 118.5t108 329.5t-108 330t-294 119t-293.5 -119t-107.5 -330zM373 1432q0 52 31.5 84t84.5 32t85 -32t32 -84 t-32 -84.5t-85 -32.5q-52 0 -84 32t-32 85zM770 1432q0 52 32 84t85 32t85 -32t32 -84t-32 -84.5t-85 -32.5t-85 32.5t-32 84.5z" />
<glyph horiz-adv-x="1376" d="M123 573q0 273 152 431.5t413 158.5t413 -158.5t152 -431.5t-152 -431t-413 -158t-413 158t-152 431zM287 573q0 -211 107.5 -329.5t293.5 -118.5t294 118.5t108 329.5t-108 330t-294 119t-293.5 -119t-107.5 -330zM446 1620h193l117 -303h-133z" />
<glyph horiz-adv-x="1376" d="M123 573q0 273 152 431.5t413 158.5t413 -158.5t152 -431.5t-152 -431t-413 -158t-413 158t-152 431zM287 573q0 -211 107.5 -329.5t293.5 -118.5t294 118.5t108 329.5t-108 330t-294 119t-293.5 -119t-107.5 -330zM420 1317l117 303h192l-176 -303h-133zM752 1317 l116 303h193l-176 -303h-133z" />
<glyph horiz-adv-x="1376" d="M123 573q0 273 152 431.5t413 158.5t413 -158.5t152 -431.5t-152 -431t-413 -158t-413 158t-152 431zM287 573q0 -211 107.5 -329.5t293.5 -118.5t294 118.5t108 329.5t-108 330t-294 119t-293.5 -119t-107.5 -330zM332 1343v138h712v-138h-712z" />
<glyph horiz-adv-x="1376" d="M123 573q0 273 152 431.5t413 158.5q186 0 324 -86l80 109h125l-127 -170q163 -157 163 -443q0 -273 -152 -431t-413 -158q-181 0 -311 77l-90 -120h-125l133 182q-172 158 -172 450zM287 573q0 -207 104 -323l529 706q-97 66 -232 66q-186 0 -293.5 -119t-107.5 -330z M467 182q94 -57 221 -57q186 0 294 118.5t108 329.5q0 195 -97 316z" />
<glyph horiz-adv-x="1376" d="M123 573q0 273 152 431.5t413 158.5t413 -158.5t152 -431.5t-152 -431t-413 -158t-413 158t-152 431zM287 573q0 -211 107.5 -329.5t293.5 -118.5t294 118.5t108 329.5t-108 330t-294 119t-293.5 -119t-107.5 -330zM315 1315q21 274 232 274q42 0 78 -14.5t61.5 -35 t48 -40.5t45.5 -34.5t45 -14.5q44 0 68 35.5t35 105.5h129q-21 -274 -230 -274q-43 0 -79.5 14.5t-61.5 35t-47.5 40.5t-46 34.5t-47.5 14.5q-44 0 -67 -35.5t-34 -105.5h-129z" />
<glyph horiz-adv-x="1978" d="M123 573q0 275 148.5 432.5t410.5 157.5q259 0 391 -178v162h785v-141h-648v-355h500v-141h-500v-369h676v-141h-813v166q-134 -182 -397 -182q-255 0 -404 158t-149 431zM287 573q0 -212 105.5 -330t293.5 -118q172 0 271.5 117.5t99.5 330.5q0 212 -99.5 330.5 t-271.5 118.5q-188 0 -293.5 -118.5t-105.5 -330.5z" />
<glyph horiz-adv-x="1142" d="M193 0v1147h444q192 0 305 -94.5t113 -259.5q0 -162 -113.5 -256.5t-304.5 -94.5h-281v-442h-163zM356 584h283q124 0 188 53t64 156q0 104 -64 158.5t-188 54.5h-283v-422z" />
<glyph horiz-adv-x="1165" d="M193 0v1147h163v-203h256q225 0 340 -91.5t115 -266.5q0 -174 -115.5 -266.5t-339.5 -92.5h-256v-227h-163zM356 369h287q260 0 260 217t-260 217h-287v-434z" />
<glyph horiz-adv-x="1376" d="M123 573q0 273 152 431.5t413 158.5t413 -158.5t152 -431.5q0 -257 -135.5 -412.5t-372.5 -174.5q10 -103 70.5 -145t161.5 -42q130 0 215 74l49 -139q-42 -35 -118 -56.5t-150 -19.5q-158 2 -256 82t-105 248q-228 23 -358.5 178t-130.5 407zM287 573 q0 -211 107.5 -329.5t293.5 -118.5t294 118.5t108 329.5t-108 330t-294 119t-293.5 -119t-107.5 -330z" />
<glyph horiz-adv-x="1230" d="M193 0v1147h477q190 0 301.5 -91t111.5 -249q0 -124 -69 -207.5t-193 -114.5l332 -485h-188l-320 467h-289v-467h-163zM356 606h310q254 0 254 199q0 201 -254 201h-310v-400z" />
<glyph horiz-adv-x="1230" d="M193 0v1147h477q190 0 301.5 -91t111.5 -249q0 -124 -69 -207.5t-193 -114.5l332 -485h-188l-320 467h-289v-467h-163zM356 606h310q254 0 254 199q0 201 -254 201h-310v-400zM508 1317l117 303h192l-176 -303h-133z" />
<glyph horiz-adv-x="1230" d="M193 0v1147h477q190 0 301.5 -91t111.5 -249q0 -124 -69 -207.5t-193 -114.5l332 -485h-188l-320 467h-289v-467h-163zM268 1649h150l176 -236l176 236h150l-234 -342h-184zM356 606h310q254 0 254 199q0 201 -254 201h-310v-400z" />
<glyph horiz-adv-x="1181" d="M88 225l123 113q99 -213 393 -213q140 0 223.5 46.5t83.5 131.5q0 57 -43 94.5t-111.5 56t-151.5 33t-166 35t-151.5 52t-111.5 94t-43 151.5q0 146 125.5 245t335.5 99q328 0 473 -237l-123 -111q-56 111 -135.5 159t-212.5 48q-136 0 -217.5 -53t-81.5 -133 q0 -47 26.5 -80.5t71.5 -53t103.5 -34t123 -26.5t129 -26t123 -37.5t103.5 -56.5t71.5 -86.5t26.5 -124.5q0 -150 -129.5 -238.5t-341.5 -88.5q-189 0 -318.5 64.5t-197.5 176.5z" />
<glyph horiz-adv-x="1181" d="M88 225l123 113q99 -213 393 -213q140 0 223.5 46.5t83.5 131.5q0 57 -43 94.5t-111.5 56t-151.5 33t-166 35t-151.5 52t-111.5 94t-43 151.5q0 146 125.5 245t335.5 99q328 0 473 -237l-123 -111q-56 111 -135.5 159t-212.5 48q-136 0 -217.5 -53t-81.5 -133 q0 -47 26.5 -80.5t71.5 -53t103.5 -34t123 -26.5t129 -26t123 -37.5t103.5 -56.5t71.5 -86.5t26.5 -124.5q0 -150 -129.5 -238.5t-341.5 -88.5q-189 0 -318.5 64.5t-197.5 176.5zM514 1317l117 303h192l-176 -303h-133z" />
<glyph horiz-adv-x="1181" d="M88 225l123 113q99 -213 393 -213q140 0 223.5 46.5t83.5 131.5q0 57 -43 94.5t-111.5 56t-151.5 33t-166 35t-151.5 52t-111.5 94t-43 151.5q0 146 125.5 245t335.5 99q328 0 473 -237l-123 -111q-56 111 -135.5 159t-212.5 48q-136 0 -217.5 -53t-81.5 -133 q0 -47 26.5 -80.5t71.5 -53t103.5 -34t123 -26.5t129 -26t123 -37.5t103.5 -56.5t71.5 -86.5t26.5 -124.5q0 -150 -129.5 -238.5t-341.5 -88.5q-189 0 -318.5 64.5t-197.5 176.5zM274 1649h150l176 -236l176 236h150l-234 -342h-184z" />
<glyph horiz-adv-x="1280" d="M193 0v760q0 174 116.5 280.5t302.5 106.5h514v-141l-333 -371h34q173 0 275 -80.5t102 -232.5q0 -150 -105 -240t-272 -90q-110 0 -190.5 29.5t-122.5 78.5l72 125q88 -92 223 -92q105 0 168 52t63 139q0 108 -66 148t-196 40h-155v123l323 371h-323 q-114 0 -190.5 -71.5t-76.5 -184.5v-750h-163z" />
<glyph horiz-adv-x="1128" d="M61 1006v141h1006v-141h-420v-1006h-164v1006h-422z" />
<glyph horiz-adv-x="1128" d="M61 1006v141h1006v-141h-420v-1006h-164v1006h-422zM240 1649h149l176 -236l176 236h150l-234 -342h-184z" />
<glyph horiz-adv-x="1325" d="M178 434v713h164v-690q0 -168 79 -250t241 -82q163 0 242 81.5t79 250.5v690h164v-713q0 -223 -124.5 -336.5t-360.5 -113.5q-235 0 -359.5 114t-124.5 336z" />
<glyph horiz-adv-x="1325" d="M178 434v713h164v-690q0 -168 79 -250t241 -82q163 0 242 81.5t79 250.5v690h164v-713q0 -223 -124.5 -336.5t-360.5 -113.5q-235 0 -359.5 114t-124.5 336zM575 1317l117 303h193l-176 -303h-134z" />
<glyph horiz-adv-x="1325" d="M178 434v713h164v-690q0 -168 79 -250t241 -82q163 0 242 81.5t79 250.5v690h164v-713q0 -223 -124.5 -336.5t-360.5 -113.5q-235 0 -359.5 114t-124.5 336zM336 1303l233 342h185l233 -342h-149l-176 235l-177 -235h-149z" />
<glyph horiz-adv-x="1325" d="M178 434v713h164v-690q0 -168 79 -250t241 -82q163 0 242 81.5t79 250.5v690h164v-713q0 -223 -124.5 -336.5t-360.5 -113.5q-235 0 -359.5 114t-124.5 336zM346 1432q0 52 32 84t85 32t85 -32t32 -84t-32 -84.5t-85 -32.5t-85 32.5t-32 84.5zM743 1432q0 52 32 84t85 32 t85 -32t32 -84t-32.5 -84.5t-84.5 -32.5t-84.5 32.5t-32.5 84.5z" />
<glyph horiz-adv-x="1325" d="M178 434v713h164v-690q0 -168 79 -250t241 -82q163 0 242 81.5t79 250.5v690h164v-713q0 -223 -124.5 -336.5t-360.5 -113.5q-235 0 -359.5 114t-124.5 336zM420 1620h192l117 -303h-133z" />
<glyph horiz-adv-x="1325" d="M178 434v713h164v-690q0 -168 79 -250t241 -82q163 0 242 81.5t79 250.5v690h164v-713q0 -223 -124.5 -336.5t-360.5 -113.5q-235 0 -359.5 114t-124.5 336zM418 1317l117 303h192l-176 -303h-133zM750 1317l116 303h193l-176 -303h-133z" />
<glyph horiz-adv-x="1325" d="M178 434v713h164v-690q0 -168 79 -250t241 -82q163 0 242 81.5t79 250.5v690h164v-713q0 -223 -124.5 -336.5t-360.5 -113.5q-235 0 -359.5 114t-124.5 336zM305 1343v138h713v-138h-713z" />
<glyph horiz-adv-x="1325" d="M178 434v713h164v-690q0 -168 79 -250t241 -82q163 0 242 81.5t79 250.5v690h164v-713q0 -179 -81 -288t-237 -144q-223 -110 -223 -225q0 -50 36 -79.5t95 -29.5q72 0 113 25l33 -105q-58 -37 -166 -37q-110 0 -177 56.5t-67 146.5q0 139 137 232q-211 12 -321.5 125 t-110.5 323z" />
<glyph horiz-adv-x="1325" d="M178 434v713h164v-690q0 -168 79 -250t241 -82q163 0 242 81.5t79 250.5v690h164v-713q0 -223 -124.5 -336.5t-360.5 -113.5q-235 0 -359.5 114t-124.5 336zM406 1339q0 108 71.5 175t186.5 67t185.5 -67t70.5 -175q0 -109 -70.5 -176t-185.5 -67t-186.5 67t-71.5 176z M518 1339q0 -61 41.5 -101t104.5 -40t104 40t41 101q0 62 -41 102t-104 40t-104.5 -40.5t-41.5 -101.5z" />
<glyph horiz-adv-x="1204" d="M51 1147h174l305 -791l72 -217h2l72 215l305 793h172l-455 -1147h-190z" />
<glyph horiz-adv-x="1779" d="M66 1147h170l198 -694l90 -314l277 1008h184l279 -1010l288 1010h162l-348 -1147h-203l-194 694l-78 312h-2l-76 -312l-192 -694h-205z" />
<glyph horiz-adv-x="1118" d="M35 0l426 590l-383 557h192l293 -434l299 434h185l-394 -555l408 -592h-191l-317 469l-320 -469h-198z" />
<glyph horiz-adv-x="1077" d="M27 1147h186l223 -385l103 -182l104 182l223 385h185l-430 -707v-440h-164v440z" />
<glyph horiz-adv-x="1077" d="M27 1147h186l223 -385l103 -182l104 182l223 385h185l-430 -707v-440h-164v440zM453 1317l116 303h193l-176 -303h-133z" />
<glyph horiz-adv-x="1077" d="M27 1147h186l223 -385l103 -182l104 182l223 385h185l-430 -707v-440h-164v440zM223 1432q0 52 32 84t85 32t85 -32t32 -84t-32.5 -84.5t-84.5 -32.5t-84.5 32.5t-32.5 84.5zM621 1432q0 52 31.5 84t84.5 32t85 -32t32 -84t-32 -84.5t-85 -32.5q-52 0 -84 32t-32 85z" />
<glyph horiz-adv-x="1159" d="M96 1006v141h940v-137l-608 -707l-156 -162h791v-141h-963v131l652 760l110 115h-766z" />
<glyph horiz-adv-x="1159" d="M96 1006v141h940v-137l-608 -707l-156 -162h791v-141h-963v131l652 760l110 115h-766zM481 1317l117 303h193l-177 -303h-133z" />
<glyph horiz-adv-x="1159" d="M96 1006v141h940v-137l-608 -707l-156 -162h791v-141h-963v131l652 760l110 115h-766zM254 1649h149l177 -236l176 236h149l-233 -342h-185z" />
<glyph horiz-adv-x="1159" d="M96 1006v141h940v-137l-608 -707l-156 -162h791v-141h-963v131l652 760l110 115h-766zM444 1466q0 56 34 89.5t89 33.5t89 -33.5t34 -89.5t-34 -89.5t-89 -33.5t-89 33.5t-34 89.5z" />
<glyph horiz-adv-x="1224" d="M127 573q0 291 123 442.5t362 151.5t362.5 -151.5t123.5 -442.5t-123.5 -442t-362.5 -151t-362 151t-123 442zM291 573q0 -224 82 -339t239 -115t239.5 115.5t82.5 338.5q0 224 -82.5 339.5t-239.5 115.5t-239 -115.5t-82 -339.5z" />
<glyph horiz-adv-x="774" d="M53 915q97 24 216.5 91.5t172.5 140.5h144v-1147h-164v811q0 47 4 145q-137 -131 -334 -178z" />
<glyph horiz-adv-x="1091" d="M96 766q2 178 120.5 289.5t313.5 111.5q204 0 321.5 -102.5t117.5 -296.5q0 -78 -26 -149t-69 -128t-110.5 -113t-136.5 -100t-162 -94q-50 -26 -119 -51v-4q137 10 178 10h492v-139h-912v145q92 44 152 74t134.5 69.5t121.5 70.5t99.5 70t84 76t58.5 80t39 90t12 99 q0 56 -15.5 101t-41.5 73t-61.5 46.5t-73 26t-78.5 7.5q-137 0 -222.5 -93t-72.5 -241z" />
<glyph horiz-adv-x="1091" d="M25 98l145 82q40 -131 116 -198.5t218 -67.5t220.5 73t78.5 191q0 122 -78 176t-240 54h-53v139h53q139 0 213 61.5t74 175.5q0 244 -256 244q-119 0 -193 -59t-100 -162l-147 72q50 133 167 210.5t271 77.5q104 0 186.5 -29.5t133 -80t76.5 -114t26 -134.5 q0 -287 -254 -328v-4q145 -7 215 -92.5t70 -216.5q0 -174 -130 -283.5t-345 -109.5q-338 0 -467 323z" />
<glyph horiz-adv-x="1241" d="M80 150v120l616 877h207v-856h240v-141h-240v-355h-164v355h-659zM254 291h485v506l9 217h-5q-54 -111 -135 -226z" />
<glyph horiz-adv-x="1146" d="M115 84l151 84q35 -122 110.5 -188t209.5 -66q142 0 220.5 80.5t78.5 222.5q0 145 -75 225t-218 80q-98 0 -175.5 -38t-125.5 -107h-146l82 770h760v-139h-622l-54 -441l-4 -18h2q113 113 314 113q193 0 309.5 -120t116.5 -317q0 -211 -123 -330.5t-340 -119.5 q-183 0 -296.5 78.5t-174.5 230.5z" />
<glyph horiz-adv-x="1224" d="M125 676q0 166 40.5 299t112 219.5t168.5 132t211 45.5q159 0 261 -67.5t165 -217.5l-147 -69q-31 105 -97 160t-184 55t-204 -78.5t-129 -210.5t-43 -299v-47h8q21 87 84.5 147.5t137.5 85.5t153 25q203 0 325.5 -119t122.5 -319q0 -201 -124 -319.5t-335 -118.5 q-126 0 -226 52t-165.5 145t-100 220t-34.5 279zM348 420q0 -135 83.5 -218t217.5 -83q141 0 219 79t78 224q0 140 -78 217.5t-219 77.5q-134 0 -217.5 -82.5t-83.5 -214.5z" />
<glyph horiz-adv-x="1087" d="M20 1004v143h996v-154q-264 -278 -374 -561t-110 -637h-163q0 338 120 646.5t359 562.5h-828z" />
<glyph horiz-adv-x="1208" d="M119 365q0 123 65.5 213t182.5 133v2q-87 39 -137 118.5t-50 184.5q0 163 115.5 258.5t308.5 95.5t308.5 -95.5t115.5 -258.5q0 -104 -48.5 -183.5t-135.5 -119.5v-2q115 -44 180.5 -132.5t65.5 -213.5q0 -176 -132.5 -280.5t-353.5 -104.5q-219 0 -352 104.5t-133 280.5 zM283 379q0 -121 86.5 -190.5t234.5 -69.5t235 69.5t87 190.5t-87 190.5t-235 69.5t-234.5 -69.5t-86.5 -190.5zM344 1006q0 -105 70.5 -165.5t189.5 -60.5t189.5 60.5t70.5 165.5t-70.5 165t-189.5 60t-189.5 -60t-70.5 -165z" />
<glyph horiz-adv-x="1255" d="M141 80l150 80q26 -120 100 -183t217 -63q172 0 272.5 150.5t100.5 406.5q0 51 -2 86h-8q-18 -90 -76 -151.5t-134 -88t-165 -26.5q-205 0 -329 119t-124 319q0 201 125.5 319.5t339.5 118.5q166 0 285 -89t178 -244.5t59 -362.5q0 -210 -58.5 -365t-176.5 -243t-285 -88 q-183 0 -296 76t-173 229zM307 727q0 -139 79.5 -218t223.5 -79q133 0 216 83t83 214q0 135 -82.5 218t-216.5 83q-144 0 -223.5 -79t-79.5 -222z" />
<glyph d="M115 676q0 340 128.5 518t374.5 178t375 -178t129 -518t-129 -518t-375 -178t-374.5 178t-128.5 518zM285 676q0 -267 85 -408t248 -141t248.5 141t85.5 408t-85.5 408t-248.5 141t-248 -141t-85 -408z" />
<glyph d="M199 1108q81 10 239 91t211 153h144v-1205h366v-147h-938v147h408v848q0 46 4 164q-77 -70 -183 -123.5t-208 -77.5z" />
<glyph d="M127 971q27 183 149 292t322 109q205 0 329 -117.5t124 -306.5q0 -194 -146 -377.5t-502 -420.5v-3q157 7 203 7h473v-154h-909v133q212 155 340.5 261.5t215.5 204t120 177.5t33 172q0 121 -78 196t-209 75q-138 0 -223 -90t-99 -244z" />
<glyph d="M139 303l160 84q35 -127 106 -190.5t213 -63.5q139 0 217 70t76 180q-1 121 -76 171t-235 50h-53v154h53q278 0 281 223q1 117 -63 177.5t-187 60.5q-232 0 -287 -207l-154 71q50 133 167.5 211t271.5 78q198 0 310 -102t112 -250q0 -142 -75.5 -238t-178.5 -96v-4 q129 0 206.5 -93t77.5 -227q0 -167 -130.5 -274.5t-344.5 -107.5q-338 0 -467 323z" />
<glyph d="M90 354v121l598 877h213v-856h252v-142h-252v-354h-164v354h-647zM260 496h477v440q0 147 8 272h-4q-46 -99 -127 -213z" />
<glyph d="M156 289l159 84q35 -118 104.5 -179t201.5 -61q140 0 220 77t79 212q-1 142 -75.5 216.5t-211.5 74.5q-211 0 -301 -131h-146l82 770h760v-154h-620l-54 -426l-2 -18h2q109 112 310 112q193 0 309.5 -119.5t116.5 -316.5q0 -211 -123 -330.5t-340 -119.5 q-183 0 -296.5 78.5t-174.5 230.5z" />
<glyph d="M145 676q0 166 40.5 299t112 219.5t167.5 132t209 45.5q162 0 264.5 -67.5t165.5 -217.5l-152 -71q-67 203 -288 203q-106 0 -190 -76t-129.5 -207t-45.5 -291v-37h8q21 82 83.5 140.5t136 83t151.5 24.5q206 0 330.5 -119t124.5 -319q0 -201 -125.5 -319.5 t-339.5 -118.5q-166 0 -285.5 90.5t-178.5 246t-59 359.5zM371 420q0 -127 81.5 -205t213.5 -78q139 0 217 74.5t78 208.5q0 130 -78 204t-217 74q-132 0 -213.5 -77.5t-81.5 -200.5z" />
<glyph d="M106 1198v154h1047v-154q-265 -269 -392.5 -562.5t-127.5 -635.5h-168q0 327 130.5 635t377.5 563h-867z" />
<glyph d="M141 365q0 123 66 213t182 133v2q-86 39 -137 119t-51 184q0 163 113.5 258.5t303.5 95.5t304 -95.5t114 -258.5q0 -103 -50 -183t-136 -120v-2q114 -44 180 -133t66 -213q0 -176 -130.5 -280.5t-347.5 -104.5q-216 0 -346.5 104.5t-130.5 280.5zM311 381 q0 -115 83 -181.5t224 -66.5q143 0 225.5 66.5t82.5 181.5q0 116 -83.5 183t-224.5 67q-139 0 -223 -67t-84 -183zM371 999q0 -99 68 -157t179 -58t179.5 58t68.5 157q0 102 -66.5 160t-181.5 58t-181 -58t-66 -160z" />
<glyph d="M115 285l161 86q18 -58 38.5 -97.5t54.5 -73.5t87 -50.5t126 -16.5q104 0 177 41.5t115.5 122.5t61 187t18.5 247v19h-8q-15 -71 -54.5 -122.5t-94 -79t-111 -40t-117.5 -12.5q-205 0 -328.5 119t-123.5 319q0 201 125.5 319.5t339.5 118.5q166 0 285 -89t178 -244.5 t59 -362.5q0 -340 -132.5 -518t-387.5 -178q-183 0 -296 76t-173 229zM289 932q0 -130 78 -204.5t217 -74.5q132 0 213.5 78t81.5 201q0 127 -81.5 204.5t-213.5 77.5q-140 0 -217.5 -74.5t-77.5 -207.5z" />
<glyph horiz-adv-x="1273" d="M133 676q0 340 129 518t375 178t375 -178t129 -518t-129 -518t-375 -178t-375 178t-129 518zM303 676q0 -279 94 -424l391 934q-67 39 -151 39q-163 0 -248.5 -141t-85.5 -408zM487 166q62 -39 150 -39q163 0 248.5 141t85.5 408q0 277 -94 422z" />
<glyph horiz-adv-x="811" d="M70 397q0 206 85 312t251 106q165 0 250 -106t85 -312t-84.5 -311.5t-250.5 -105.5t-251 105.5t-85 311.5zM213 397q0 -301 193 -301q192 0 192 301t-192 301q-193 0 -193 -301z" />
<glyph horiz-adv-x="495" d="M20 535v122q59 11 134 56t106 92h127v-813h-143v514q0 41 4 147q-104 -97 -228 -118z" />
<glyph horiz-adv-x="747" d="M57 551q7 124 91.5 194t220.5 70q143 0 222 -76t79 -184q0 -90 -72 -182t-225 -197q-21 -15 -61 -41.5t-46 -30.5v-2q88 7 131 7h291v-117h-608v98q145 104 188 137q148 117 200 183t52 137q0 66 -41.5 107.5t-116.5 41.5q-80 0 -126.5 -50.5t-49.5 -139.5z" />
<glyph horiz-adv-x="741" d="M49 176l137 62q24 -140 176 -140q72 0 116 36t44 97q0 115 -160 115h-49v103h43q72 0 109 31.5t37 90.5q0 61 -36.5 93t-103.5 32q-131 0 -155 -123l-133 48q25 96 104.5 145t192.5 49q133 0 207.5 -60.5t74.5 -160.5q0 -87 -50.5 -138.5t-110.5 -54.5v-2 q69 -2 124.5 -51.5t55.5 -136.5q0 -103 -86 -167t-221 -64q-253 0 -316 196z" />
<glyph horiz-adv-x="733" d="M18 195v75l373 535h156v-508h145v-102h-145v-203h-121v203h-408zM158 297h268v233q0 80 6 156h-6q-32 -63 -66 -111z" />
<glyph horiz-adv-x="737" d="M53 156l129 73q31 -129 183 -129q77 0 124.5 44t47.5 114q0 152 -166 152q-123 0 -172 -80h-111l37 475h510v-119h-399l-17 -184q-2 -31 -10 -58h2q29 36 73 54t126 18q121 0 194.5 -72.5t73.5 -183.5q0 -132 -86 -205t-223 -73q-117 0 -195 41t-121 133z" />
<glyph horiz-adv-x="770" d="M70 397q0 202 97 310t253 108q205 0 272 -168l-119 -61q-34 112 -155 112q-102 0 -157.5 -83.5t-55.5 -204.5v-27h2q41 61 92 88t125 27q129 0 206 -70.5t77 -187.5q0 -121 -82 -190.5t-222 -69.5q-161 0 -247 107t-86 310zM240 240q0 -66 45.5 -106t120.5 -40 q77 0 121 38.5t44 107.5q0 66 -44.5 105.5t-120.5 39.5q-72 0 -119 -43.5t-47 -101.5z" />
<glyph horiz-adv-x="638" d="M6 686v119h621v-119q-148 -154 -211.5 -319t-63.5 -375h-143q0 406 280 694h-483z" />
<glyph horiz-adv-x="788" d="M70 211q0 73 45.5 124t128.5 75v2q-68 22 -106 69.5t-38 112.5q0 101 79 160t214 59t214 -59t79 -160q0 -65 -37 -112t-106 -70v-2q83 -24 128.5 -74.5t45.5 -124.5q0 -107 -87 -169t-237 -62q-148 0 -235.5 62t-87.5 169zM215 221q0 -60 48 -95.5t130 -35.5t130 35.5 t48 95.5q0 61 -48 97t-130 36q-80 0 -129 -36t-49 -97zM242 586q0 -55 41 -88t110 -33t110.5 33t41.5 88t-40.5 87t-111.5 32q-70 0 -110.5 -31.5t-40.5 -87.5z" />
<glyph horiz-adv-x="780" d="M70 549q0 123 82.5 194.5t224.5 71.5q158 0 246 -110t88 -310q0 -201 -89.5 -308t-248.5 -107q-234 0 -301 176l135 57q14 -58 53.5 -88.5t114.5 -30.5q55 0 95 23t62 62.5t32.5 84.5t10.5 96q0 29 -2 41h-2q-15 -41 -77.5 -74.5t-128.5 -33.5q-139 0 -217 68.5 t-78 187.5zM211 551q0 -68 44 -106.5t122 -38.5q74 0 122 41.5t48 103.5q0 66 -47 106.5t-121 40.5q-79 0 -123.5 -39t-44.5 -108z" />
<glyph horiz-adv-x="811" d="M70 954q0 206 85 312t251 106q165 0 250 -106t85 -312t-84.5 -311.5t-250.5 -105.5t-251 105.5t-85 311.5zM213 954q0 -301 193 -301q192 0 192 301t-192 301q-193 0 -193 -301z" />
<glyph horiz-adv-x="495" d="M20 1092v122q59 11 134 56t106 92h127v-813h-143v514q0 41 4 147q-104 -97 -228 -118z" />
<glyph horiz-adv-x="747" d="M57 1108q7 124 91.5 194t220.5 70q143 0 222 -76t79 -184q0 -90 -72 -182t-225 -197q-20 -14 -57 -38t-50 -33v-3q87 7 131 7h291v-117h-608v98q145 104 188 137q148 117 200 183t52 137q0 66 -41.5 107.5t-116.5 41.5q-80 0 -126.5 -50.5t-49.5 -139.5z" />
<glyph horiz-adv-x="741" d="M49 733l137 62q24 -140 176 -140q72 0 116 36t44 97q0 115 -160 115h-49v103h43q72 0 109 31.5t37 90.5q0 61 -36.5 93t-103.5 32q-131 0 -155 -123l-133 48q25 96 104.5 145t192.5 49q133 0 207.5 -60.5t74.5 -160.5q0 -87 -50.5 -138.5t-110.5 -54.5v-2 q69 -2 124.5 -51.5t55.5 -136.5q0 -103 -86 -167t-221 -64q-253 0 -316 196z" />
<glyph horiz-adv-x="733" d="M18 752v75l373 535h156v-508h145v-102h-145v-203h-121v203h-408zM158 854h268v233q0 79 6 156h-6q-30 -59 -66 -110z" />
<glyph horiz-adv-x="737" d="M53 713l129 73q31 -129 183 -129q77 0 124.5 44t47.5 114q0 152 -166 152q-123 0 -172 -80h-111l37 475h510v-119h-399l-17 -184q-2 -31 -10 -58h2q29 36 73 54t126 18q121 0 194.5 -72.5t73.5 -183.5q0 -132 -86 -205t-223 -73q-117 0 -195 41t-121 133z" />
<glyph horiz-adv-x="770" d="M70 954q0 202 97 310t253 108q205 0 272 -168l-119 -61q-34 112 -155 112q-102 0 -157.5 -83.5t-55.5 -204.5v-27h2q41 61 92 88t125 27q129 0 206 -70.5t77 -187.5q0 -121 -82 -190.5t-222 -69.5q-161 0 -247 107t-86 310zM240 797q0 -66 45.5 -106t120.5 -40 q77 0 121 38.5t44 107.5q0 66 -44.5 105.5t-120.5 39.5q-72 0 -119 -43.5t-47 -101.5z" />
<glyph horiz-adv-x="638" d="M6 1243v119h621v-119q-148 -154 -211.5 -319t-63.5 -375h-143q0 406 280 694h-483z" />
<glyph horiz-adv-x="788" d="M70 768q0 73 45.5 124t128.5 75v2q-68 22 -106 69.5t-38 112.5q0 101 79 160t214 59t214 -59t79 -160q0 -65 -37 -112t-106 -70v-2q83 -24 128.5 -74.5t45.5 -124.5q0 -107 -87 -169t-237 -62q-148 0 -235.5 62t-87.5 169zM215 778q0 -60 48 -95.5t130 -35.5t130 35.5 t48 95.5q0 61 -48 97t-130 36q-80 0 -129 -36t-49 -97zM242 1143q0 -55 41 -88t110 -33t110.5 33t41.5 88t-40.5 87t-111.5 32q-70 0 -110.5 -31.5t-40.5 -87.5z" />
<glyph horiz-adv-x="780" d="M70 1106q0 123 82.5 194.5t224.5 71.5q158 0 246 -110t88 -310q0 -201 -89.5 -308t-248.5 -107q-234 0 -301 176l135 57q14 -58 53.5 -88.5t114.5 -30.5q55 0 95 23.5t62 63t32.5 84.5t10.5 96q0 28 -2 40h-2q-15 -41 -77.5 -74.5t-128.5 -33.5q-139 0 -217 68.5 t-78 187.5zM211 1108q0 -68 44 -106.5t122 -38.5q74 0 122 41.5t48 103.5q0 66 -47 106.5t-121 40.5q-79 0 -123.5 -39t-44.5 -108z" />
<glyph horiz-adv-x="1167" d="M109 573q0 290 121.5 442t353.5 152t353.5 -152t121.5 -442t-121.5 -441.5t-353.5 -151.5t-353.5 151.5t-121.5 441.5zM272 573q0 -223 79.5 -337.5t232.5 -114.5t232 114t79 338t-79 338.5t-232 114.5t-232.5 -115t-79.5 -338z" />
<glyph horiz-adv-x="753" d="M33 924q79 10 207 80t182 143h143v-1147h-164v788q0 18 5 160q-123 -115 -334 -168z" />
<glyph horiz-adv-x="1054" d="M109 786q-2 166 106 271.5t303 105.5t304.5 -97.5t109.5 -244.5q0 -81 -31 -160t-80.5 -144.5t-128 -136t-154 -125.5t-178.5 -122v-2q95 10 179 10h419v-141h-839v133q170 109 284 192t200 165.5t125.5 157.5t39.5 151q0 100 -66 161.5t-190 61.5q-130 0 -203 -88 t-59 -219z" />
<glyph horiz-adv-x="1073" d="M94 258l156 76q26 -105 90 -157t186 -52q120 0 188 55t68 150t-64.5 137.5t-199.5 42.5h-57v133h53q117 0 179 46.5t63 137.5q1 94 -56.5 144.5t-164.5 50.5q-205 0 -248 -176l-152 61q41 122 148 189t254 67q180 0 281.5 -86t101.5 -217q0 -121 -68.5 -199t-159.5 -81 v-2q112 -2 183 -66.5t71 -177.5q0 -160 -117 -255t-309 -95q-321 0 -426 274z" />
<glyph horiz-adv-x="1116" d="M84 289v108l545 750h209v-723h213v-135h-213v-289h-158v289h-596zM260 424h420v584h-6q-44 -77 -105 -162z" />
<glyph horiz-adv-x="1052" d="M90 240l152 82q30 -97 92.5 -147t179.5 -50q122 0 192.5 63.5t69.5 171.5q-2 113 -68 174.5t-186 61.5q-82 0 -154 -27.5t-110 -79.5l-137 9l74 649h690v-141h-559l-37 -318q-3 -32 -8 -53h2q49 49 110 74.5t166 25.5q172 0 276.5 -101t104.5 -265q0 -182 -113.5 -283.5 t-306.5 -101.5q-165 0 -269.5 63.5t-160.5 192.5z" />
<glyph horiz-adv-x="1087" d="M102 573q0 142 37 255t102 185.5t152 111t189 38.5q145 0 237.5 -57t147.5 -182l-144 -70q-58 168 -248 168q-145 0 -233 -133t-88 -334v-37h8q17 61 70 108.5t120 71t134 23.5q184 0 293.5 -100t109.5 -269t-109 -268.5t-294 -99.5q-237 0 -360.5 152.5t-123.5 436.5z M313 352q0 -103 70.5 -165t187.5 -62q120 0 187 60t67 167t-67 167.5t-187 60.5q-116 0 -187 -64.5t-71 -163.5z" />
<glyph horiz-adv-x="1046" d="M78 1006v141h903v-137q-223 -218 -326 -465.5t-106 -544.5h-164q3 282 110 539t314 467h-731z" />
<glyph horiz-adv-x="1138" d="M123 309q0 104 63 179.5t172 109.5v2q-91 32 -142.5 100t-51.5 158q0 140 110 221.5t295 81.5q186 0 296 -81.5t110 -221.5q0 -90 -52 -157.5t-143 -100.5v-2q109 -34 172.5 -109.5t63.5 -179.5q0 -150 -121.5 -237.5t-325.5 -87.5t-325 87.5t-121 237.5zM287 324 q0 -94 76 -148.5t206 -54.5q131 0 207 54.5t76 148.5t-77 149t-206 55t-205.5 -54.5t-76.5 -149.5zM328 846q0 -83 66 -131.5t175 -48.5q110 0 176 48.5t66 131.5q0 84 -65.5 131t-176.5 47t-176 -47t-65 -131z" />
<glyph horiz-adv-x="1095" d="M104 238l158 75q24 -93 82.5 -140.5t179.5 -47.5q322 0 322 463v39h-8q-16 -68 -70 -116.5t-115.5 -68.5t-122.5 -20q-198 0 -312 99.5t-114 271.5t114 271t312 99q219 0 341 -159.5t122 -432.5q0 -286 -121 -436.5t-348 -150.5q-317 0 -420 254zM268 793 q0 -107 69.5 -168.5t190.5 -61.5q113 0 184.5 64.5t71.5 163.5q0 103 -70.5 167t-185.5 64q-122 0 -191 -61t-69 -168z" />
<glyph horiz-adv-x="462" d="M98 700q0 60 36.5 97t96.5 37t97 -37t37 -97t-37 -96.5t-97 -36.5t-96.5 36.5t-36.5 96.5z" />
<glyph horiz-adv-x="540" d="M137 1239q0 60 36.5 96.5t96.5 36.5t96.5 -36.5t36.5 -96.5t-36.5 -96.5t-96.5 -36.5t-96.5 36.5t-36.5 96.5zM184 0v586l25 340h123l24 -340v-586h-172z" />
<glyph horiz-adv-x="40" d="M-274 700q0 60 36.5 97t96.5 37t96.5 -37t36.5 -97t-36.5 -96.5t-96.5 -36.5t-96.5 36.5t-36.5 96.5z" />
<glyph horiz-adv-x="1099" d="M96 328q0 87 30 156.5t83 115t121.5 72t150.5 35.5v219h170v-308q-206 -31 -294.5 -92.5t-88.5 -177.5q0 -100 73.5 -157.5t215.5 -57.5q135 0 221 75t101 204l145 -84q-34 -159 -161 -253.5t-318 -94.5q-199 0 -324 94.5t-125 253.5zM436 1239q0 60 36.5 96.5t96.5 36.5 t96.5 -36.5t36.5 -96.5t-36.5 -96.5t-96.5 -36.5t-96.5 36.5t-36.5 96.5z" />
<glyph horiz-adv-x="206" d="M-76 727q0 60 36.5 96.5t96.5 36.5t96.5 -36.5t36.5 -96.5t-36.5 -96.5t-96.5 -36.5t-96.5 36.5t-36.5 96.5z" />
<glyph horiz-adv-x="618" d="M176 113q0 60 36.5 96.5t96.5 36.5t96.5 -36.5t36.5 -96.5t-36.5 -96.5t-96.5 -36.5t-96.5 36.5t-36.5 96.5zM176 911q0 60 36.5 96.5t96.5 36.5t96.5 -36.5t36.5 -96.5t-36.5 -96.5t-96.5 -36.5t-96.5 36.5t-36.5 96.5z" />
<glyph horiz-adv-x="618" d="M156 -219q80 27 133 84.5t67 124.5l-8 4q-18 -14 -57 -14q-42 0 -77.5 34t-35.5 95q0 56 39 96.5t94 40.5q71 0 112.5 -55t41.5 -144q0 -109 -55.5 -201t-167.5 -145z" />
<glyph d="M39 383v125h264l53 346h-215v125h234l55 373h143l-55 -373h316l55 373h143l-55 -373h221v-125h-240l-53 -346h191v-125h-209l-58 -383h-143l57 383h-315l-57 -383h-144l58 383h-246zM446 508h316l53 346h-315z" />
<glyph horiz-adv-x="618" d="M176 113q0 60 36.5 96.5t96.5 36.5t96.5 -36.5t36.5 -96.5t-36.5 -96.5t-96.5 -36.5t-96.5 36.5t-36.5 96.5z" />
<glyph horiz-adv-x="618" d="M156 -219q80 27 133 84.5t67 124.5l-8 4q-18 -14 -57 -14q-42 0 -77.5 34t-35.5 95q0 56 39 96.5t94 40.5q71 0 112.5 -55t41.5 -144q0 -109 -55.5 -201t-167.5 -145zM186 911q0 60 36.5 96.5t96.5 36.5t97 -36.5t37 -96.5t-37 -96.5t-97 -36.5t-96.5 36.5t-36.5 96.5z " />
<glyph horiz-adv-x="718" d="M57 600v143q125 0 177.5 49t52.5 164v373q0 126 75 190t246 64l27 -133q-103 0 -149 -26.5t-46 -82.5v-399q0 -219 -233 -270q233 -51 233 -271v-401q0 -56 46 -82.5t149 -26.5l-27 -133q-171 0 -246 64t-75 190v375q0 115 -52.5 164t-177.5 49z" />
<glyph horiz-adv-x="718" d="M84 -109q103 0 149 26.5t46 82.5v401q0 220 233 271q-233 51 -233 270v399q0 56 -46 82.5t-149 26.5l27 133q171 0 246 -64t75 -190v-373q0 -115 52.5 -164t177.5 -49v-143q-125 0 -177.5 -49t-52.5 -164v-375q0 -126 -75 -190t-246 -64z" />
<glyph horiz-adv-x="712" d="M178 -199v1739h467v-143h-313v-1452h313v-144h-467z" />
<glyph horiz-adv-x="712" d="M68 -55h313v1452h-313v143h467v-1739h-467v144z" />
<glyph horiz-adv-x="716" d="M125 670q0 583 438 962l94 -94q-200 -183 -282 -383t-82 -485q0 -286 82 -486t282 -383l-94 -94q-438 379 -438 963z" />
<glyph horiz-adv-x="716" d="M59 -199q200 184 282.5 384t82.5 485t-82.5 484.5t-282.5 383.5l95 94q438 -379 438 -962q0 -584 -438 -963z" />
<glyph horiz-adv-x="2076" d="M168 608v154h1741v-154h-1741z" />
<glyph horiz-adv-x="1359" d="M168 608v154h1024v-154h-1024z" />
<glyph horiz-adv-x="1044" d="M184 600v170h676v-170h-676z" />
<glyph horiz-adv-x="1030" d="M104 672l258 401h179l-262 -401l262 -402h-179zM467 672l258 401h178l-262 -401l262 -402h-178z" />
<glyph horiz-adv-x="1030" d="M104 270l263 402l-263 401h179l258 -401l-258 -402h-179zM467 270l262 402l-262 401h178l258 -401l-258 -402h-178z" />
<glyph horiz-adv-x="667" d="M104 672l258 401h179l-262 -401l262 -402h-179z" />
<glyph horiz-adv-x="667" d="M106 270l263 402l-263 401h179l258 -401l-258 -402h-179z" />
<glyph horiz-adv-x="462" d="M98 604q0 60 36.5 96.5t96.5 36.5t97 -36.5t37 -96.5t-37 -96.5t-97 -36.5t-96.5 36.5t-36.5 96.5z" />
<glyph horiz-adv-x="503" d="M127 104q0 54 34 87.5t91 33.5t91 -33.5t34 -87.5q0 -56 -34 -89t-91 -33t-91 33t-34 89zM168 666v481h170v-481l-21 -310h-129z" />
<glyph horiz-adv-x="503" d="M127 1042q0 56 34 89.5t91 33.5t91 -33.5t34 -89.5q0 -54 -34 -87t-91 -33t-91 33t-34 87zM166 0v481l20 310h129l21 -310v-481h-170z" />
<glyph horiz-adv-x="0" d="M-362 604q0 60 36.5 96.5t96.5 36.5t96.5 -36.5t36.5 -96.5t-36.5 -96.5t-96.5 -36.5t-96.5 36.5t-36.5 96.5z" />
<glyph horiz-adv-x="966" d="M53 866q29 136 142.5 216.5t296.5 80.5q182 0 294.5 -79.5t112.5 -219.5q0 -148 -94 -228.5t-254 -100.5v-160h-162v237q182 28 259 80.5t77 149.5q0 84 -62.5 131t-183.5 47q-119 0 -191.5 -60t-84.5 -167zM338 104q0 54 34 87.5t91 33.5t91 -33.5t34 -87.5 q0 -56 -34 -89t-91 -33t-91 33t-34 89z" />
<glyph horiz-adv-x="933" d="M55 283q0 148 94 228.5t254 100.5v160h162v-237q-182 -28 -259 -80.5t-77 -149.5q0 -84 62.5 -131t183.5 -47q119 0 192 60.5t85 166.5l149 -73q-29 -136 -142 -216.5t-296 -80.5q-182 0 -295 79.5t-113 219.5zM367 1042q0 56 34 89.5t91 33.5t90.5 -33.5t33.5 -89.5 q0 -54 -33.5 -87t-90.5 -33t-91 33t-34 87z" />
<glyph horiz-adv-x="831" d="M168 707v505h180l-53 -505h-127zM514 707v505h180l-53 -505h-127z" />
<glyph horiz-adv-x="940" d="M129 891q0 109 55.5 201t167.5 145l86 -80q-80 -27 -133 -84.5t-67 -124.5l8 -4q17 14 57 14q42 0 77.5 -34t35.5 -95q0 -56 -39 -96.5t-94 -40.5q-71 0 -112.5 55t-41.5 144zM506 891q0 109 55.5 201t167.5 145l86 -80q-81 -27 -134 -84.5t-67 -124.5l9 -4q18 14 57 14 q42 0 77.5 -34t35.5 -95q0 -56 -39.5 -96.5t-94.5 -40.5q-71 0 -112 55t-41 144z" />
<glyph horiz-adv-x="940" d="M133 754q81 27 134 84.5t67 124.5l-8 4q-19 -15 -58 -15q-42 0 -77 34t-35 95q0 56 39 97t94 41q71 0 112 -55t41 -144q0 -109 -55.5 -201t-167.5 -145zM510 754q81 27 134 84.5t67 124.5l-9 4q-19 -15 -57 -15q-42 0 -77.5 34t-35.5 95q0 56 39.5 97t94.5 41 q71 0 112 -55t41 -144q0 -109 -55.5 -201t-167.5 -145z" />
<glyph horiz-adv-x="563" d="M129 891q0 109 55.5 201t167.5 145l86 -80q-80 -27 -133 -84.5t-67 -124.5l8 -4q17 14 57 14q42 0 77.5 -34t35.5 -95q0 -56 -39 -96.5t-94 -40.5q-71 0 -112.5 55t-41.5 144z" />
<glyph horiz-adv-x="563" d="M133 754q81 27 134 84.5t67 124.5l-8 4q-19 -15 -58 -15q-42 0 -77 34t-35 95q0 56 39 97t94 41q71 0 112 -55t41 -144q0 -109 -55.5 -201t-167.5 -145z" />
<glyph horiz-adv-x="485" d="M168 707v505h180l-53 -505h-127z" />
<glyph horiz-adv-x="618" />
<glyph d="M143 512q0 225 109 363.5t305 164.5v189h137v-187q259 -23 365 -270l-156 -74q-57 180 -209 207v-788q175 27 228 217l147 -51q-45 -131 -141 -209.5t-234 -91.5v-187h-137v189q-196 26 -305 164.5t-109 363.5zM297 512q0 -165 67.5 -266.5t192.5 -126.5v786 q-125 -25 -192.5 -126.5t-67.5 -266.5z" />
<glyph d="M80 240l180 184q-74 107 -74 250q0 141 76 254l-182 178l104 104l183 -180q110 74 251 74q145 0 254 -76l179 182l104 -104l-178 -182q72 -112 72 -250q0 -143 -76 -256l182 -178l-104 -105l-185 178q-107 -71 -248 -71q-143 0 -256 77l-178 -184zM350 674 q0 -124 75.5 -204.5t192.5 -80.5q116 0 191.5 80.5t75.5 204.5q0 123 -75.5 202.5t-191.5 79.5q-117 0 -192.5 -79.5t-75.5 -202.5z" />
<glyph d="M98 350l152 78q23 -111 112.5 -188t210.5 -99v475q-53 11 -90 20.5t-85 25t-80 33t-66 43.5t-54 57t-33 73t-13 93q0 156 113.5 264t307.5 125v206h142v-208q152 -12 251 -80.5t171 -202.5l-133 -104q-52 119 -117.5 176.5t-171.5 70.5v-481q53 -11 90.5 -20.5 t85.5 -25.5t80.5 -33.5t66.5 -44t54.5 -58t33.5 -75t13 -95.5q0 -158 -115 -258t-309 -115v-207h-142v207q-178 15 -299.5 104t-175.5 244zM307 973q0 -48 20 -84.5t59 -61.5t82 -40.5t105 -30.5v454q-131 -12 -198.5 -73.5t-67.5 -163.5zM715 137q270 23 270 225 q0 50 -20 87.5t-59.5 63t-84 42.5t-106.5 31v-449z" />
<glyph d="M39 438v133h160q-4 66 -4 105q0 49 2 72h-158v133h174q43 231 179.5 361t340.5 130q175 0 291 -81t154 -234l-148 -70q-19 116 -93.5 179t-188.5 63q-131 0 -229 -92.5t-138 -255.5h467l-41 -133h-447q-2 -23 -2 -72q0 -39 4 -105h404l-41 -133h-338q38 -149 128 -232 t214 -83q132 0 218.5 71.5t107.5 206.5l149 -55q-41 -174 -166 -270t-311 -96q-199 0 -331.5 120.5t-178.5 337.5h-178z" />
<glyph d="M49 -213l27 147q67 -47 160 -47q156 0 186 176l110 615h-321v141h348l68 377q56 309 334 309q67 0 108 -10t90 -39l-22 -147q-73 47 -160 47q-159 0 -189 -176l-65 -361h358v-141h-383l-112 -631q-26 -152 -111.5 -230.5t-224.5 -78.5q-67 0 -109 10t-92 39z" />
<glyph d="M80 156q0 76 62.5 129t170.5 53q119 0 228 -66q8 36 8 82q0 53 -17.5 102t-60.5 113h-324v133h226q-55 78 -79 136.5t-24 117.5q0 182 117.5 299t300.5 117q308 0 393 -319l-141 -78q-29 124 -89.5 186t-170.5 62q-119 0 -188.5 -66t-69.5 -174q0 -60 23.5 -115.5 t89.5 -152.5l8 -13h370v-133h-290q52 -109 49 -225q-3 -73 -33 -143q61 -45 108 -67.5t105 -22.5q83 0 119.5 47t38.5 155h133q0 -163 -70 -248t-199 -85q-56 0 -114 19.5t-94 39.5t-93 57q-101 -116 -276 -116q-100 0 -158.5 49t-58.5 127zM227 156q0 -32 24.5 -49 t65.5 -17q101 0 166 68q-95 57 -168 57q-88 0 -88 -59z" />
<glyph d="M53 1352h191l274 -498l98 -203h5l98 205l274 496h191l-455 -752l90 8h266v-123h-395v-153h395v-113h-395v-219h-143v219h-393v113h393v153h-393v123h264l90 -8z" />
<glyph horiz-adv-x="497" d="M178 -199v1739h141v-1739h-141z" />
<glyph horiz-adv-x="2017" d="M135 657q0 262 111 465t316.5 316.5t475.5 113.5q168 0 307 -42t236 -116.5t163.5 -177.5t98 -224.5t31.5 -258.5q0 -250 -103 -396.5t-274 -146.5q-105 0 -162.5 54.5t-74.5 134.5q-55 -84 -148 -131t-215 -47q-150 0 -250 112t-100 303q0 124 40.5 227.5t107.5 170 t151.5 103t173.5 36.5q238 0 307 -178l41 166h107l-80 -637q-22 -199 127 -199q110 0 167.5 108t57.5 320q0 154 -45 281t-132 220.5t-223 145.5t-309 52q-356 0 -561 -210t-205 -565q0 -168 55 -307t151.5 -232.5t228 -144.5t284.5 -51q160 0 258 35t185 98l71 -94 q-72 -50 -128 -80t-158.5 -55t-227.5 -25q-255 0 -449.5 106.5t-300.5 300.5t-106 449zM694 625q0 -142 65.5 -221.5t186.5 -79.5q123 0 215.5 77.5t110.5 221.5l12 100q5 52 2 98t-20.5 85t-46 67t-75.5 43.5t-108 15.5q-157 0 -249.5 -108t-92.5 -299z" />
<glyph horiz-adv-x="1153" d="M88 274q0 108 65 189t218 160q-77 94 -106 154t-29 126q0 106 78 183t216 77q128 0 210.5 -62t82.5 -179q0 -100 -52.5 -174.5t-197.5 -153.5l117 -131q32 -37 83.5 -93.5t68.5 -76.5q87 128 78 342l118 -33q9 -225 -112 -397q68 -65 115 -86.5t110 -18.5l-31 -116 q-76 0 -134 25.5t-142 103.5q-148 -129 -369 -129q-171 0 -279 80.5t-108 209.5zM236 289q0 -82 70 -134.5t169 -52.5q167 0 281 97q-93 97 -164 176l-141 155q-124 -69 -169.5 -121.5t-45.5 -119.5zM383 899q0 -46 21.5 -87.5t93.5 -127.5q60 31 98.5 60t56.5 58t23.5 53.5 t5.5 57.5q0 60 -40 91.5t-112 31.5q-70 0 -108.5 -38t-38.5 -99z" />
<glyph horiz-adv-x="245" />
<glyph horiz-adv-x="1355" d="M111 1034v101h1136v-101h-1136z" />
<glyph horiz-adv-x="888" d="M111 1034v101h667v-101h-667z" />
<glyph horiz-adv-x="616" d="M109 1034v101h399v-101h-399z" />
<glyph horiz-adv-x="413" d="M131 518v1141h279v-109h-154v-923h154v-109h-279z" />
<glyph horiz-adv-x="413" d="M4 518v109h154v923h-154v109h279v-1141h-279z" />
<glyph horiz-adv-x="380" d="M98 762q0 41 25.5 66.5t66.5 25.5t67 -25.5t26 -66.5t-26 -66.5t-67 -25.5t-66.5 25.5t-25.5 66.5zM98 1280q0 41 25.5 66.5t66.5 25.5t67 -25.5t26 -66.5t-26 -66.5t-67 -25.5t-66.5 25.5t-25.5 66.5z" />
<glyph horiz-adv-x="380" d="M86 530q54 20 92.5 63t38.5 83l-6 2q-8 -8 -27 -8q-33 0 -59.5 25.5t-26.5 68.5q0 40 25.5 65t69.5 25q50 0 79 -38t29 -99q0 -76 -39 -140.5t-117 -101.5z" />
<glyph horiz-adv-x="380" d="M98 762q0 41 25.5 66.5t66.5 25.5t67 -25.5t26 -66.5t-26 -66.5t-67 -25.5t-66.5 25.5t-25.5 66.5z" />
<glyph horiz-adv-x="942" d="M113 682v813h147v-342h422v342h147v-813h-147v352h-422v-352h-147z" />
<glyph horiz-adv-x="946" d="M72 1087q0 195 106 306.5t295 111.5t295 -111.5t106 -306.5t-106 -306t-295 -111t-295 111t-106 306zM215 1087q0 -142 68.5 -221.5t189.5 -79.5t189.5 79.5t68.5 221.5t-69 222t-189 80t-189 -80t-69 -222z" />
<glyph horiz-adv-x="1863" d="M166 676q0 224 95.5 396.5t269.5 267t401 94.5t401 -94.5t269.5 -267t95.5 -396.5t-95.5 -396.5t-269.5 -267t-401 -94.5t-401 94.5t-269.5 267t-95.5 396.5zM301 676q0 -284 174.5 -459.5t456.5 -175.5t456.5 175.5t174.5 459.5t-174.5 459.5t-456.5 175.5 t-456.5 -175.5t-174.5 -459.5z" />
<glyph horiz-adv-x="1173" d="M51 844q0 236 148 382t387 146q241 0 388.5 -145.5t147.5 -382.5q0 -238 -147.5 -384.5t-388.5 -146.5q-239 0 -387 146.5t-148 384.5zM182 844q0 -183 111.5 -295.5t292.5 -112.5q183 0 294 112.5t111 295.5t-111 295t-294 112q-182 0 -293 -112t-111 -295zM383 569v553 h250q90 0 144 -47.5t54 -128.5q0 -62 -32.5 -104.5t-91.5 -59.5l139 -213h-137l-123 203h-82v-203h-121zM504 856h108q99 0 99 86q0 84 -99 84h-108v-170z" />
<glyph horiz-adv-x="847" d="M59 776v121h295v201h-295v121h295v276h140v-276h294v-121h-294v-201h294v-121h-294v-276h-140v276h-295z" />
<glyph horiz-adv-x="847" d="M59 1098v121h295v276h140v-276h294v-121h-294v-598h-140v598h-295z" />
<glyph horiz-adv-x="380" d="M98 211q0 41 25.5 66.5t66.5 25.5t67 -25.5t26 -66.5t-26 -66.5t-67 -25.5t-66.5 25.5t-25.5 66.5zM98 -307q0 41 25.5 66.5t66.5 25.5t67 -25.5t26 -66.5t-26 -66.5t-67 -25.5t-66.5 25.5t-25.5 66.5z" />
<glyph horiz-adv-x="380" d="M86 -539q54 20 92.5 63t38.5 83l-6 2q-8 -8 -27 -8q-33 0 -59.5 25.5t-26.5 68.5q0 40 25.5 65t69.5 25q50 0 79 -38t29 -99q0 -76 -39 -140.5t-117 -101.5z" />
<glyph horiz-adv-x="380" d="M98 -307q0 41 25.5 66.5t66.5 25.5t67 -25.5t26 -66.5t-26 -66.5t-67 -25.5t-66.5 25.5t-25.5 66.5z" />
<glyph horiz-adv-x="413" d="M131 -551v1141h279v-109h-154v-923h154v-109h-279z" />
<glyph horiz-adv-x="413" d="M4 -442h154v923h-154v109h279v-1141h-279v109z" />
<glyph horiz-adv-x="1355" d="M111 -35v101h1136v-101h-1136z" />
<glyph horiz-adv-x="888" d="M111 -35v101h667v-101h-667z" />
<glyph horiz-adv-x="616" d="M109 -35v101h399v-101h-399z" />
<glyph horiz-adv-x="942" d="M113 -387v813h147v-342h422v342h147v-813h-147v352h-422v-352h-147z" />
<glyph horiz-adv-x="946" d="M72 18q0 195 106 306.5t295 111.5t295 -111.5t106 -306.5t-106 -306t-295 -111t-295 111t-106 306zM215 18q0 -142 68.5 -221.5t189.5 -79.5t189.5 79.5t68.5 221.5t-68.5 221.5t-189.5 79.5t-189.5 -79.5t-68.5 -221.5z" />
</font>
</defs>
</svg>
